<?xml version="1.0" encoding="UTF-8"?><!-- Generator: visioncortex VTracer 0.6.3 -->
<svg height="1280" version="1.1" width="1280" xmlns="http://www.w3.org/2000/svg">
    <path
        d="M0 0 C422.4 0 844.8 0 1280 0 C1280 422.4 1280 844.8 1280 1280 C857.6 1280 435.2 1280 0 1280 C0 857.6 0 435.2 0 0 Z "
        fill="#FCD0E8" transform="translate(0,0)" />
    <path
        d="M0 0 C8.5 6.64 15.92 13.87 23.03 21.95 C46.85 51.7 46.85 51.7 79.09 67.79 C85.21 67.96 91.31 67.1 97.32 65.99 C105.98 64.42 114.22 65.6 122.88 66.75 C124.38 66.93 125.88 67.11 127.38 67.28 C139 68.67 150.43 70.82 161.8 73.6 C166.41 74.49 166.41 74.49 170.63 72.92 C171.1 72.42 171.57 71.92 172.05 71.4 C172.84 70.58 172.84 70.58 173.65 69.73 C174.2 69.14 174.75 68.55 175.31 67.94 C176.48 66.73 177.64 65.52 178.81 64.31 C179.64 63.44 179.64 63.44 180.49 62.55 C183.48 59.48 186.69 56.72 190 54 C190.51 53.57 191.02 53.15 191.55 52.71 C220.45 28.75 260.82 2.33 299.94 4.06 C306.75 4.9 313.15 5.95 318 11.14 C319.85 13.68 321.45 16.26 323 19 C323.45 19.75 323.9 20.5 324.36 21.28 C335.24 40.98 337.1 66.24 337.2 88.28 C337.21 89.32 337.22 90.36 337.22 91.43 C337.24 94.79 337.25 98.14 337.25 101.5 C337.25 102.65 337.25 103.8 337.25 104.99 C337.25 130.76 335.48 156.07 331.91 181.6 C330.67 190.58 330.24 196.78 335 204.75 C340.28 214.16 344.28 223.88 348 234 C348.31 234.84 348.61 235.67 348.93 236.53 C356.23 256.71 361.43 277.69 364 299 C364.1 299.83 364.21 300.66 364.31 301.52 C366.68 321.6 366.2 341.82 366 362 C369.93 362.19 369.93 362.19 373.24 361.02 C386.48 357.42 399.51 360.27 411.31 366.75 C423.09 374.38 431.54 389.47 434.57 403.08 C437.83 425.4 433.11 444.64 424.44 465.12 C424.06 466.01 423.69 466.9 423.3 467.82 C421.23 472.57 418.95 476.73 416 481 C415.19 482.44 414.4 483.89 413.61 485.35 C411.1 489.94 408.24 494.19 405.19 498.44 C404.66 499.18 404.13 499.92 403.58 500.69 C399.57 506.28 395.42 511.72 391 517 C390.18 518.01 389.36 519.01 388.51 520.05 C376.74 534.28 363.65 547.72 349 559 C347.84 559.94 346.68 560.89 345.53 561.84 C339.11 567.11 332.59 572.13 325.69 576.75 C325.05 577.18 324.41 577.61 323.75 578.05 C319.26 581 319.26 581 317 581 C319.6 585.97 323.28 589.68 327.12 593.69 C328.49 595.12 329.85 596.56 331.21 598 C332.19 599.04 332.19 599.04 333.2 600.09 C336.88 603.99 340.46 607.97 344 612 C344.84 612.94 345.67 613.89 346.53 614.86 C362.37 633.01 393 668.56 393 694 C400.81 696.35 409.53 691.76 416.48 688.23 C430.99 679.7 443.01 668.13 447.69 651.56 C448.71 643.15 447.73 638.1 443 631 C439.59 631.02 439.59 631.02 436 632 C432.18 636.58 432.63 642.24 432.3 647.93 C431.8 653.06 430.23 655.86 426.5 659.31 C420.65 663.26 413.79 662.61 407 662 C396.32 659.16 387.12 653.05 381.34 643.56 C371.42 624.62 369.32 603.43 375.62 583 C380.13 569.76 387.21 558.95 397 549 C397.76 548.23 398.52 547.45 399.3 546.66 C420.33 526.53 448.62 521.44 476.62 521.72 C485.5 521.95 493.56 523.29 502 526 C502.69 526.21 503.38 526.43 504.09 526.65 C533.5 536.04 552.14 557.11 566.1 583.79 C577.91 606.98 583.23 630.96 583.25 656.94 C583.25 657.67 583.25 658.41 583.25 659.16 C583.22 698.06 569 734.68 541.57 762.46 C515.33 786.98 481.2 797.41 445.7 797.32 C443.27 797.31 440.84 797.34 438.41 797.36 C427.33 797.4 416.86 796.15 406 794 C405.97 794.64 405.95 795.28 405.92 795.94 C404.89 817.39 396.48 842.76 384 860.31 C381.73 863.87 381.61 866.35 382.34 870.46 C383.4 874.56 384.72 878.57 386.01 882.6 C390.94 899.55 390.22 915.28 381.84 930.8 C374.8 943.04 363.19 948.8 350 953 C337.13 956.41 323.84 956.24 310.62 956.25 C309.28 956.25 309.28 956.25 307.92 956.25 C286.15 956.23 263.4 955.74 246.22 940.41 C241.1 935.08 239.51 928.87 238.56 921.69 C240.23 907.66 246.05 897.64 257 889 C256.15 887.71 255.29 886.42 254.44 885.12 C253.89 884.29 253.33 883.46 252.77 882.6 C251.66 880.97 250.53 879.36 249.36 877.77 C239.65 864.57 233.56 850.21 228.61 834.68 C228.13 832.99 228.13 832.99 227 832 C225.31 831.93 223.62 831.92 221.94 831.94 C220.56 831.95 220.56 831.95 219.15 831.96 C218.44 831.98 217.73 831.99 217 832 C216.72 832.72 216.44 833.45 216.14 834.2 C213.74 840.1 211.07 845.78 207.12 850.81 C204.73 853.67 204.73 853.67 205.21 856.2 C206.02 859.09 206.88 861.96 207.76 864.82 C213.25 882.58 216.21 900.63 207.25 917.88 C198.89 931.73 186.53 939.04 171 943 C159.82 945.3 148.65 945.34 137.28 945.32 C134.27 945.31 131.26 945.34 128.25 945.36 C107.21 945.43 87.22 943.37 70 930 C64.95 924.45 63.4 918.53 62.56 911.19 C63.05 900.73 67.53 890.5 74.87 883.12 C79.48 879 79.48 879 82 879 C81.54 878.38 81.08 877.76 80.6 877.12 C78.38 874.1 76.18 871.05 74 868 C73.39 867.16 73.39 867.16 72.77 866.3 C57.33 844.79 48.54 819.4 48.69 792.81 C48.69 791.18 48.69 791.18 48.7 789.51 C48.89 776.25 51.22 764.14 55.55 751.62 C56.5 748.7 57.13 746.56 56.42 743.54 C55.95 742.7 55.48 741.86 55 741 C54.31 739.72 53.62 738.44 52.93 737.16 C52.53 736.44 52.14 735.72 51.73 734.97 C42.86 718.81 36.52 701.56 31 684 C27.33 685.63 24.41 687.91 21.25 690.38 C17.94 692.91 14.7 695.36 10.94 697.19 C10.32 697.49 9.7 697.79 9.07 698.1 C7 699 7 699 4.28 699.9 C0.22 701.53 -2.97 702.97 -5.03 707.02 C-6.88 711.83 -8.13 716.77 -9.38 721.76 C-12.61 733.4 -20.11 743.5 -30.64 749.5 C-33.39 750.82 -36.14 751.95 -39 753 C-40.26 753.48 -40.26 753.48 -41.55 753.97 C-56.3 758.8 -73.01 756.71 -86.66 749.81 C-98.26 743.75 -106.49 737.29 -111.3 724.57 C-118.91 700.23 -115.78 673.91 -105 651 C-104.57 650.07 -104.57 650.07 -104.13 649.13 C-93.69 627.2 -75.95 609.81 -57 595 C-36.4 578.17 -21.27 558.02 -6.08 536.37 C2.07 524.76 10.43 513.3 19 502 C18.05 501.79 17.1 501.58 16.12 501.37 C-5.19 496.6 -25.68 489.98 -46 482 C-47.18 481.55 -48.36 481.1 -49.57 480.63 C-71.21 472.07 -92.4 459.17 -110 444 C-110.83 443.28 -110.83 443.28 -111.69 442.55 C-136.19 421.26 -153.63 391.86 -156 359 C-157.55 331.79 -149.4 304.58 -134.02 282.18 C-130.5 276.63 -128.49 270.74 -126.65 264.46 C-126.21 262.99 -125.77 261.53 -125.33 260.06 C-124.99 258.91 -124.99 258.91 -124.65 257.74 C-99.9 174.9 -99.9 174.9 -86 161 C-86.09 158.6 -86.24 156.23 -86.42 153.84 C-87.15 143.07 -87.24 132.3 -87.25 121.5 C-87.25 120.49 -87.25 119.47 -87.25 118.43 C-87.24 103.08 -86.78 88.13 -84 73 C-83.75 71.59 -83.75 71.59 -83.5 70.15 C-78.81 44.33 -71.3 14.2 -50.31 -3.43 C-33.36 -14.94 -15.98 -11.11 0 0 Z "
        fill="#F9A32A" transform="translate(428,176)" />
    <path
        d="M0 0 C11.08 3.06 19.91 8.36 29.06 15.15 C30.14 15.94 31.22 16.73 32.3 17.52 C38.66 22.22 44.98 26.91 50.44 32.65 C57.33 39.21 64.38 43.1 74 43.46 C85.79 43.16 94.61 35.7 103.06 28.15 C103.39 28.81 103.72 29.47 104.06 30.15 C104.62 29.79 105.18 29.43 105.76 29.05 C116.99 22.01 127.85 17.57 141.06 16.15 C142.3 15.93 143.54 15.7 144.81 15.46 C149.05 15.06 152.87 15.55 157.06 16.15 C158.02 16.25 158.98 16.35 159.96 16.46 C178.98 18.76 195.14 28.05 210.31 39.23 C216.08 43.49 221.98 47.43 228.05 51.25 C231.09 53.17 234.08 55.15 237.06 57.15 C246.74 63.55 255.05 68.95 267.06 68.15 C273.3 66.78 278.44 63.95 283.8 60.55 C285.84 59.29 287.9 58.19 290.06 57.15 C290.06 57.81 290.06 58.47 290.06 59.15 C290.75 58.86 291.45 58.57 292.16 58.27 C294.26 57.39 296.35 56.52 298.45 55.65 C300.86 54.65 303.27 53.64 305.67 52.62 C348.22 34.82 395.27 42.26 437.21 58.53 C444.29 61.45 451.18 64.8 458.06 68.15 C458.06 68.81 458.06 69.47 458.06 70.15 C458.72 70.15 459.38 70.15 460.06 70.15 C460.81 77.07 460.81 77.07 458.94 79.77 C457.3 81.33 455.59 82.75 453.81 84.15 C446.48 90.43 441.02 97.4 435.44 105.23 C419.14 127.95 400.05 149.82 378.06 167.15 C377 168.04 375.94 168.92 374.89 169.81 C359.02 183.03 341.49 194.59 323.14 204.07 C321.66 204.84 320.19 205.65 318.74 206.47 C312.4 209.93 306.77 211.18 299.62 211.84 C298.54 211.95 297.46 212.07 296.34 212.19 C292.91 212.54 289.49 212.85 286.06 213.15 C285 213.25 283.93 213.34 282.84 213.44 C263.28 215.1 243.66 216.08 224.06 217.15 C224.06 217.81 224.06 218.47 224.06 219.15 C236.34 223.24 252.09 221.51 264.89 221.61 C267.37 221.64 269.84 221.68 272.32 221.74 C289.01 222.1 302.64 220.62 318.06 214.15 C319.22 213.71 320.37 213.26 321.56 212.8 C324.23 211.74 326.87 210.63 329.5 209.46 C330.78 208.92 330.78 208.92 332.1 208.36 C336.76 206.34 340.89 204.09 345.06 201.15 C346.36 200.42 347.68 199.71 349 199.03 C378.47 182.79 406.49 158.7 427.06 132.15 C428.01 130.98 428.96 129.81 429.91 128.64 C434.9 122.51 439.72 116.32 444.25 109.84 C448.44 103.87 452.94 98.37 458.06 93.15 C458.7 92.51 459.33 91.86 459.98 91.2 C469.76 81.94 481.75 77.61 495.04 77.91 C504.1 78.64 509.8 81.67 516.06 88.15 C516.75 88.84 517.45 89.52 518.16 90.22 C529.67 102.23 531.62 116.22 531.3 132.16 C530.08 164.03 508.6 194.28 489.06 218.15 C488.42 218.95 488.42 218.95 487.76 219.77 C481 228.14 473.58 235.84 466 243.46 C465.09 244.38 464.18 245.3 463.24 246.25 C457.16 252.31 450.77 257.8 444.06 263.15 C443.04 264.02 442.01 264.88 441 265.76 C423.47 280.79 403.91 293.47 383.88 304.88 C383.28 305.3 382.68 305.72 382.06 306.15 C382.06 306.81 382.06 307.47 382.06 308.15 C390.19 307.73 396.79 303.53 403.88 299.84 C405.37 299.09 405.37 299.09 406.89 298.33 C407.78 297.86 408.68 297.4 409.61 296.92 C412.06 296.15 412.06 296.15 414.23 296.86 C416.93 298.76 419.02 301.13 421.19 303.59 C421.67 304.12 422.14 304.65 422.64 305.2 C423.63 306.31 424.62 307.41 425.6 308.52 C427.82 311 430.07 313.45 432.31 315.9 C436.28 320.28 440.22 324.67 444.06 329.15 C444.8 330 445.53 330.84 446.29 331.71 C486.24 378.46 506.73 435.74 502.79 497.21 C500.77 521.36 492.76 543.16 481.06 564.15 C480.07 564.15 479.08 564.15 478.06 564.15 C476.4 562.49 474.73 560.82 473.06 559.15 C472.07 559.15 471.08 559.15 470.06 559.15 C470.57 564.93 472.26 569.14 474.88 574.28 C480.89 586.54 484.23 598.25 484.31 611.96 C484.34 613.24 484.34 613.24 484.38 614.54 C484.44 625.03 481.21 632.53 474.06 640.15 C465.86 647.95 454.12 652.67 442.8 652.57 C436.68 651.64 431.8 647.93 427.56 643.59 C423.99 637.79 423.38 632.9 424.06 626.15 C424.84 623.05 425.89 620.12 427.06 617.15 C427.39 616.16 427.72 615.17 428.06 614.15 C425.63 614.32 425.63 614.32 423.06 615.15 C418.75 621.2 417.64 629.91 418.06 637.15 C419.04 641 420.44 644.53 422.06 648.15 C422.4 649.06 422.73 649.97 423.07 650.91 C423.85 653.31 423.85 653.31 426.06 654.15 C422.56 654.21 419.06 654.25 415.56 654.28 C414.58 654.29 413.6 654.31 412.59 654.33 C402.66 654.39 394.71 652.9 387.06 646.15 C383.04 641.23 382.51 636.04 382.72 629.84 C383.22 625.96 384.6 622.77 386.06 619.15 C385.71 616.98 385.71 616.98 385.06 615.15 C379.59 619.99 377.73 626.51 376.71 633.62 C376.48 639.86 378.29 645.6 381.06 651.15 C371.88 649.67 362.96 645.85 357.06 638.33 C354.36 632.42 355.24 624.84 357.19 618.78 C361.3 609.83 368.01 605.62 377.06 602.15 C381.69 600.85 386.32 599.92 391.06 599.15 C391.85 599.02 392.64 598.89 393.46 598.75 C405.41 597.11 417.23 598.3 429.06 600.15 C429.06 599.16 429.06 598.17 429.06 597.15 C414.57 590.22 397.21 590.4 381.49 591.92 C375.04 592.48 375.04 592.48 372.06 590.15 C370.19 587.94 368.49 585.75 366.81 583.4 C366.09 582.4 366.09 582.4 365.35 581.37 C345.38 553.18 337.56 520.01 343.14 485.68 C346.26 469.42 351.73 453.94 359.22 439.19 C359.77 438.09 359.77 438.09 360.34 436.96 C360.67 436.32 361 435.68 361.35 435.02 C362.3 432.86 362.3 432.86 362.06 429.15 C357.53 430.65 355.67 434.29 353.31 438.15 C352.88 438.86 352.44 439.57 352 440.3 C344.18 453.37 338.6 467.35 335.06 482.15 C334.82 483.16 334.82 483.16 334.57 484.19 C331.21 498.68 331.75 513.37 332.06 528.15 C308.51 528.99 286.44 525.47 264.06 518.15 C263.36 517.93 262.67 517.7 261.95 517.47 C238.09 509.69 216.39 496.12 198.53 478.59 C197.12 477.21 195.68 475.86 194.24 474.52 C185.22 465.91 177.32 455.96 171.06 445.15 C170.64 444.49 170.21 443.83 169.77 443.14 C143.22 401.06 136.43 348.89 132.35 300.3 C132.01 296.57 131.57 292.86 131.06 289.15 C130.07 289.48 129.08 289.81 128.06 290.15 C124.32 315.74 127.29 343.72 132.88 368.82 C134.49 376.2 134.49 376.2 133.06 380.15 C126.53 389.95 112.48 396.28 102.12 401.24 C96.89 403.86 93.26 406.95 91.21 412.44 C90.44 415.08 89.77 417.73 89.12 420.4 C86.73 429.46 84.13 436.88 77.56 443.78 C74.29 445.58 72.75 445.89 69.06 445.15 C64.47 442.26 61.71 439.37 60.06 434.15 C59.63 431.72 59.26 429.29 58.94 426.84 C58.77 425.59 58.6 424.33 58.43 423.04 C58.31 422.09 58.19 421.13 58.06 420.15 C57.07 419.82 56.08 419.49 55.06 419.15 C53.57 430.71 54.3 439.92 60.06 450.15 C60.39 450.81 60.72 451.47 61.06 452.15 C53.01 454.58 44.06 455.88 36.11 452.38 C29.52 448.42 23.38 443.44 21.44 435.76 C20.79 431.25 20.48 426.74 20.27 422.19 C20.19 419.11 20.19 419.11 19.06 416.15 C17.41 417.14 17.41 417.14 16.06 419.15 C15.79 421.95 15.69 424.49 15.75 427.28 C15.76 428.04 15.77 428.8 15.78 429.59 C15.89 435 16.54 439.93 18.06 445.15 C8.41 437.31 3.26 430.06 1.41 417.59 C-1.3 390.84 5.95 364.16 22.66 343.02 C32.45 331.36 43.02 320.97 55.06 311.65 C65.67 303.44 74.78 294.77 83.06 284.15 C83.97 283.04 84.88 281.93 85.79 280.83 C93.49 271.46 100.42 261.63 107.31 251.66 C115.52 239.87 124.07 228.37 133.06 217.15 C133.61 216.2 134.16 215.24 134.73 214.25 C137.49 211.77 138.23 211.85 141.83 211.88 C143.66 212.01 145.49 212.16 147.31 212.34 C148.72 212.45 148.72 212.45 150.15 212.55 C152.46 212.73 154.76 212.93 157.06 213.15 C156.73 212.16 156.4 211.17 156.06 210.15 C153.07 209.06 153.07 209.06 149.32 208.28 C147.86 207.93 146.41 207.59 144.95 207.25 C144.18 207.07 143.4 206.89 142.6 206.71 C92.66 195.19 42.28 178.28 3.06 144.15 C2.48 143.65 1.89 143.14 1.29 142.62 C-9.46 133.26 -19.64 123.09 -25.94 110.15 C-26.49 109.15 -27.04 108.15 -27.61 107.12 C-40.9 82.35 -42.5 55.01 -34.94 28.15 C-32.57 20.64 -29.28 13.59 -25.81 6.53 C-25.31 5.5 -25.31 5.5 -24.79 4.44 C-18.84 -7.33 -11.12 -2.93 0 0 Z "
        fill="#FDFDFD" transform="translate(321.9375,467.84765625)" />
    <path
        d="M0 0 C8.5 6.64 15.92 13.87 23.03 21.95 C46.85 51.7 46.85 51.7 79.09 67.79 C85.21 67.96 91.31 67.1 97.32 65.99 C105.98 64.42 114.22 65.6 122.88 66.75 C124.38 66.93 125.88 67.11 127.38 67.28 C139 68.67 150.43 70.82 161.8 73.6 C166.41 74.49 166.41 74.49 170.63 72.92 C171.1 72.42 171.57 71.92 172.05 71.4 C172.84 70.58 172.84 70.58 173.65 69.73 C174.2 69.14 174.75 68.55 175.31 67.94 C176.48 66.73 177.64 65.52 178.81 64.31 C179.64 63.44 179.64 63.44 180.49 62.55 C183.48 59.48 186.69 56.72 190 54 C190.51 53.57 191.02 53.15 191.55 52.71 C220.45 28.75 260.82 2.33 299.94 4.06 C306.75 4.9 313.15 5.95 318 11.14 C319.85 13.68 321.45 16.26 323 19 C323.45 19.75 323.9 20.5 324.36 21.28 C335.24 40.98 337.1 66.24 337.2 88.28 C337.21 89.32 337.22 90.36 337.22 91.43 C337.24 94.79 337.25 98.14 337.25 101.5 C337.25 102.65 337.25 103.8 337.25 104.99 C337.25 130.76 335.48 156.07 331.91 181.6 C330.67 190.58 330.24 196.78 335 204.75 C340.28 214.16 344.28 223.88 348 234 C348.31 234.84 348.61 235.67 348.93 236.53 C356.23 256.71 361.43 277.69 364 299 C364.1 299.83 364.21 300.66 364.31 301.52 C366.68 321.6 366.2 341.82 366 362 C369.93 362.19 369.93 362.19 373.24 361.02 C386.48 357.42 399.51 360.27 411.31 366.75 C423.09 374.38 431.54 389.47 434.57 403.08 C437.83 425.4 433.11 444.64 424.44 465.12 C424.06 466.01 423.69 466.9 423.3 467.82 C421.23 472.57 418.95 476.73 416 481 C415.19 482.44 414.4 483.89 413.61 485.35 C411.1 489.94 408.24 494.19 405.19 498.44 C404.66 499.18 404.13 499.92 403.58 500.69 C399.57 506.28 395.42 511.72 391 517 C390.18 518.01 389.36 519.01 388.51 520.05 C376.74 534.28 363.65 547.72 349 559 C347.84 559.94 346.68 560.89 345.53 561.84 C339.11 567.11 332.59 572.13 325.69 576.75 C325.05 577.18 324.41 577.61 323.75 578.05 C319.26 581 319.26 581 317 581 C319.6 585.97 323.28 589.68 327.12 593.69 C328.49 595.12 329.85 596.56 331.21 598 C332.19 599.04 332.19 599.04 333.2 600.09 C336.88 603.99 340.46 607.97 344 612 C344.84 612.94 345.67 613.89 346.53 614.86 C362.37 633.01 393 668.56 393 694 C400.81 696.35 409.53 691.76 416.48 688.23 C430.99 679.7 443.01 668.13 447.69 651.56 C448.71 643.15 447.73 638.1 443 631 C439.59 631.02 439.59 631.02 436 632 C432.18 636.58 432.63 642.24 432.3 647.93 C431.8 653.06 430.23 655.86 426.5 659.31 C420.65 663.26 413.79 662.61 407 662 C396.32 659.16 387.12 653.05 381.34 643.56 C371.42 624.62 369.32 603.43 375.62 583 C380.13 569.76 387.21 558.95 397 549 C397.76 548.23 398.52 547.45 399.3 546.66 C420.33 526.53 448.62 521.44 476.62 521.72 C485.5 521.95 493.56 523.29 502 526 C502.69 526.21 503.38 526.43 504.09 526.65 C533.5 536.04 552.14 557.11 566.1 583.79 C577.91 606.98 583.23 630.96 583.25 656.94 C583.25 657.67 583.25 658.41 583.25 659.16 C583.22 698.06 569 734.68 541.57 762.46 C515.33 786.98 481.2 797.41 445.7 797.32 C443.27 797.31 440.84 797.34 438.41 797.36 C427.33 797.4 416.86 796.15 406 794 C405.97 794.64 405.95 795.28 405.92 795.94 C404.89 817.39 396.48 842.76 384 860.31 C381.73 863.87 381.61 866.35 382.34 870.46 C383.4 874.56 384.72 878.57 386.01 882.6 C390.94 899.55 390.22 915.28 381.84 930.8 C374.8 943.04 363.19 948.8 350 953 C337.13 956.41 323.84 956.24 310.62 956.25 C309.28 956.25 309.28 956.25 307.92 956.25 C286.15 956.23 263.4 955.74 246.22 940.41 C241.1 935.08 239.51 928.87 238.56 921.69 C240.23 907.66 246.05 897.64 257 889 C256.15 887.71 255.29 886.42 254.44 885.12 C253.89 884.29 253.33 883.46 252.77 882.6 C251.66 880.97 250.53 879.36 249.36 877.77 C239.65 864.57 233.56 850.21 228.61 834.68 C228.13 832.99 228.13 832.99 227 832 C225.31 831.93 223.62 831.92 221.94 831.94 C220.56 831.95 220.56 831.95 219.15 831.96 C218.44 831.98 217.73 831.99 217 832 C216.72 832.72 216.44 833.45 216.14 834.2 C213.74 840.1 211.07 845.78 207.12 850.81 C204.73 853.67 204.73 853.67 205.21 856.2 C206.02 859.09 206.88 861.96 207.76 864.82 C213.25 882.58 216.21 900.63 207.25 917.88 C198.89 931.73 186.53 939.04 171 943 C159.82 945.3 148.65 945.34 137.28 945.32 C134.27 945.31 131.26 945.34 128.25 945.36 C107.21 945.43 87.22 943.37 70 930 C64.95 924.45 63.4 918.53 62.56 911.19 C63.05 900.73 67.53 890.5 74.87 883.12 C79.48 879 79.48 879 82 879 C81.54 878.38 81.08 877.76 80.6 877.12 C78.38 874.1 76.18 871.05 74 868 C73.39 867.16 73.39 867.16 72.77 866.3 C57.33 844.79 48.54 819.4 48.69 792.81 C48.69 791.18 48.69 791.18 48.7 789.51 C48.89 776.25 51.22 764.14 55.55 751.62 C56.5 748.7 57.13 746.56 56.42 743.54 C55.95 742.7 55.48 741.86 55 741 C54.31 739.72 53.62 738.44 52.93 737.16 C52.53 736.44 52.14 735.72 51.73 734.97 C42.86 718.81 36.52 701.56 31 684 C27.33 685.63 24.41 687.91 21.25 690.38 C17.94 692.91 14.7 695.36 10.94 697.19 C10.32 697.49 9.7 697.79 9.07 698.1 C7 699 7 699 4.28 699.9 C0.22 701.53 -2.97 702.97 -5.03 707.02 C-6.88 711.83 -8.13 716.77 -9.38 721.76 C-12.61 733.4 -20.11 743.5 -30.64 749.5 C-33.39 750.82 -36.14 751.95 -39 753 C-40.26 753.48 -40.26 753.48 -41.55 753.97 C-56.3 758.8 -73.01 756.71 -86.66 749.81 C-98.26 743.75 -106.49 737.29 -111.3 724.57 C-118.91 700.23 -115.78 673.91 -105 651 C-104.57 650.07 -104.57 650.07 -104.13 649.13 C-93.69 627.2 -75.95 609.81 -57 595 C-36.4 578.17 -21.27 558.02 -6.08 536.37 C2.07 524.76 10.43 513.3 19 502 C18.05 501.79 17.1 501.58 16.12 501.37 C-5.19 496.6 -25.68 489.98 -46 482 C-47.18 481.55 -48.36 481.1 -49.57 480.63 C-71.21 472.07 -92.4 459.17 -110 444 C-110.83 443.28 -110.83 443.28 -111.69 442.55 C-136.19 421.26 -153.63 391.86 -156 359 C-157.55 331.79 -149.4 304.58 -134.02 282.18 C-130.5 276.63 -128.49 270.74 -126.65 264.46 C-126.21 262.99 -125.77 261.53 -125.33 260.06 C-124.99 258.91 -124.99 258.91 -124.65 257.74 C-99.9 174.9 -99.9 174.9 -86 161 C-86.09 158.6 -86.24 156.23 -86.42 153.84 C-87.15 143.07 -87.24 132.3 -87.25 121.5 C-87.25 120.49 -87.25 119.47 -87.25 118.43 C-87.24 103.08 -86.78 88.13 -84 73 C-83.75 71.59 -83.75 71.59 -83.5 70.15 C-78.81 44.33 -71.3 14.2 -50.31 -3.43 C-33.36 -14.94 -15.98 -11.11 0 0 Z M271 19 C269.94 19.3 268.88 19.6 267.79 19.91 C256.31 23.47 245.34 28.92 235 35 C233.92 35.61 232.83 36.22 231.72 36.85 C216.18 45.75 202.31 57.07 189 69 C188.12 69.79 187.23 70.58 186.32 71.39 C183.43 74 183.43 74 181 77 C181.22 79.19 181.22 79.19 182 81 C182.66 81 183.32 81 184 81 C184 81.99 184 82.98 184 84 C183.41 83.87 182.81 83.74 182.2 83.6 C152.51 77.2 123.24 74.63 92.88 74.62 C91.73 74.62 90.58 74.62 89.4 74.62 C71.08 74.62 53.22 75.58 35.25 79.31 C34.19 79.53 33.13 79.75 32.04 79.97 C8.56 84.96 -13.81 95.17 -32 111 C-32.81 111.7 -33.61 112.39 -34.45 113.11 C-37 115.37 -39.51 117.67 -42 120 C-42.86 120.8 -43.73 121.6 -44.62 122.42 C-52.74 130.2 -59.42 138.91 -66 148 C-66.41 148.56 -66.82 149.13 -67.24 149.71 C-71.9 156.22 -75.66 162.99 -79.12 170.2 C-80.36 172.77 -81.7 175.26 -83.13 177.74 C-99.57 206.56 -109.57 240 -118.05 271.94 C-118.39 273.18 -118.72 274.42 -119.07 275.69 C-119.49 277.32 -119.49 277.32 -119.93 278.99 C-121.47 283.32 -124.04 286.47 -126.85 290.05 C-141.6 310.3 -148.82 339.32 -145 364 C-141.3 386.07 -132.92 404.35 -118 421 C-116.83 422.4 -115.67 423.79 -114.5 425.19 C-79.28 464.88 -22.97 484.04 26.98 496.23 C27.72 496.42 28.46 496.6 29.22 496.78 C32.83 497.66 36.44 498.52 40.06 499.35 C41.36 499.66 42.66 499.97 43.96 500.27 C45.1 500.54 46.25 500.8 47.43 501.07 C48.27 501.38 49.12 501.68 50 502 C50.33 502.99 50.66 503.98 51 505 C49.93 505.02 48.86 505.04 47.75 505.06 C47.02 505.08 46.28 505.11 45.53 505.13 C43 505 43 505 40.25 504.21 C36.72 503.35 34.56 503.14 31 504 C26.3 507.62 22.99 512.83 19.64 517.65 C18.06 519.92 16.43 522.15 14.78 524.37 C9.6 531.4 4.6 538.56 -0.39 545.73 C-6.38 554.33 -12.46 562.79 -19 571 C-19.75 571.94 -20.49 572.88 -21.26 573.85 C-29.73 584.36 -38.41 593.62 -49 602 C-76.6 624.66 -99.59 648.76 -104.75 685.5 C-104.86 687 -104.94 688.5 -105 690 C-105.05 691.18 -105.1 692.36 -105.16 693.57 C-105.56 707.25 -104.61 720.84 -94.9 731.25 C-92.97 733.21 -91.01 735.12 -89 737 C-87.63 734.26 -88.64 732.83 -89.5 730.04 C-90.38 726.46 -90.33 722.91 -90.31 719.25 C-90.33 718.5 -90.34 717.74 -90.36 716.96 C-90.37 711.49 -90.37 711.49 -88.48 708.98 C-87.99 708.66 -87.5 708.33 -87 708 C-85.89 711.34 -85.79 714.11 -85.62 717.62 C-84.99 726.75 -83.83 733.18 -76.9 739.5 C-69.29 745.51 -62.5 746.56 -53 746 C-50.24 745.5 -47.69 744.81 -45 744 C-45.51 743.11 -45.51 743.11 -46.02 742.2 C-51.66 731.73 -52.51 722.71 -51 711 C-50.01 711.33 -49.02 711.66 -48 712 C-47.85 713.15 -47.71 714.29 -47.55 715.47 C-46.05 727.05 -46.05 727.05 -39 736 C-36.1 737.45 -34.23 737.37 -31 737 C-22.44 732.01 -19.47 722.13 -17.05 713.02 C-16.65 711.46 -16.27 709.89 -15.91 708.32 C-14.41 702.16 -12.13 697.98 -6.7 694.54 C-3.93 693 -1.13 691.56 1.69 690.12 C9.51 686.02 16.5 682.03 23 676 C23.57 675.57 24.14 675.13 24.73 674.68 C26.4 673.43 26.4 673.43 28 671 C27.79 668.27 27.46 665.69 27 663 C26.86 662.13 26.71 661.27 26.57 660.38 C26.25 658.44 25.92 656.51 25.59 654.58 C21.61 630.94 18.44 605.89 22 582 C22.99 581.67 23.98 581.34 25 581 C25.09 582.04 25.19 583.09 25.29 584.16 C29.58 630.93 35.39 677.48 55.62 720.44 C56.07 721.38 56.51 722.32 56.97 723.29 C59.43 728.33 62.13 732.75 65.61 737.15 C66.93 738.91 68.02 740.67 69.08 742.6 C89.13 778.12 129.68 802.55 168 813.23 C183.68 817.27 199.3 820.2 215.5 820.06 C217.02 820.06 217.02 820.06 218.57 820.05 C221.05 820.04 223.52 820.02 226 820 C225.98 819.25 225.97 818.49 225.95 817.72 C225.68 802.88 225.48 788.48 229 774 C229.17 773.3 229.33 772.61 229.5 771.89 C233.19 757 239.23 743.07 247.25 730 C247.66 729.32 248.07 728.65 248.5 727.95 C250.6 724.66 252.2 722.25 256 721 C256 724.74 255.88 725.72 254.28 728.81 C253.91 729.54 253.54 730.28 253.16 731.04 C252.75 731.83 252.35 732.62 251.94 733.44 C235.53 767.07 229.73 805.43 242.07 841.41 C246.93 854.72 256.5 877.25 270 884 C271.7 883.99 273.4 883.92 275.1 883.81 C276.14 883.75 277.18 883.69 278.25 883.63 C279.37 883.57 280.48 883.5 281.62 883.44 C294.94 882.8 309.49 882.61 322 888 C322.66 888.99 323.32 889.98 324 891 C321.06 892.47 318.97 891.61 315.75 891.06 C297.85 888.41 275.13 889.17 259.62 899.75 C253.67 904.57 250.53 910.42 249.66 917.95 C249.28 925.73 249.28 925.73 252.75 932.44 C258.83 938.28 266.69 941.93 275 943 C274.71 942.31 274.42 941.62 274.12 940.91 C270.05 930.6 270.28 924.19 273.73 913.7 C275.09 910.8 276.62 909.11 279 907 C280.13 910.42 280.02 910.96 278.56 914.56 C276 920.93 275.77 927.92 278.44 934.31 C281.81 940.11 287.36 943.15 293.58 945.16 C298.85 946.38 304.12 946.22 309.5 946.12 C310.51 946.12 311.53 946.11 312.57 946.1 C315.05 946.07 317.52 946.04 320 946 C319.34 945.67 318.68 945.34 318 945 C317.28 943.36 316.62 941.68 316 940 C315.64 939.18 315.27 938.37 314.89 937.53 C310.67 927.43 311.88 918.93 315.67 908.86 C317 907 317 907 319.64 906.23 C320.81 906.12 320.81 906.12 322 906 C321.29 907.58 321.29 907.58 320.56 909.19 C317.77 915.81 316.66 923.17 318.61 930.21 C321.53 936.9 327.38 941.2 334 944 C344.58 945.65 354.97 941.3 363.75 935.7 C370.94 930.28 376.07 922.83 378 914 C379.77 893.62 374.6 876.64 365.3 858.72 C363.94 855.87 363.73 854.12 364 851 C368.25 851.47 370.2 853.97 373 857 C377.43 853.32 379.47 848.6 381.88 843.5 C382.31 842.57 382.75 841.64 383.2 840.68 C403.44 796.56 401.01 743.42 384.81 698.44 C373 667.23 355.08 639.05 332 615 C330.76 613.61 329.53 612.22 328.31 610.81 C325.02 607.01 321.66 603.28 318.29 599.54 C314.84 595.71 311.42 591.86 308 588 C301.17 589.99 294.95 593.36 288.61 596.54 C287.71 596.99 286.8 597.43 285.87 597.88 C285.06 598.29 284.24 598.7 283.4 599.11 C280.78 600.08 278.77 600.17 276 600 C277.34 595.99 278.85 595.77 282.56 593.81 C319.8 573.43 356.86 543.63 383 510 C383.92 508.89 384.85 507.77 385.78 506.66 C408.8 479 427.43 445.84 425 409 C423.21 395.98 417.05 387.22 408 378 C407.48 377.46 406.97 376.92 406.44 376.36 C400.83 371.06 393.45 369.85 386 369.62 C371.49 370.05 360.04 376.96 350 387 C349.27 387.73 348.54 388.46 347.79 389.21 C342.38 394.94 337.93 401.22 333.44 407.68 C329.25 413.72 324.77 419.4 320 425 C319.12 426.06 318.25 427.12 317.38 428.18 C306.18 441.66 293.89 454.3 280 465 C278.66 466.07 277.33 467.15 276 468.23 C266.16 476.11 256.03 483.18 245.22 489.67 C243.19 490.89 241.17 492.14 239.16 493.39 C227.25 500.63 214.15 505.51 201 510 C199.93 510.39 199.93 510.39 198.84 510.79 C191.91 513.14 185.54 513.41 178.27 513.33 C177.07 513.33 175.87 513.32 174.64 513.32 C172.12 513.32 169.61 513.3 167.09 513.28 C163.28 513.25 159.46 513.24 155.65 513.23 C153.19 513.23 150.73 513.21 148.27 513.2 C147.14 513.2 146.02 513.19 144.87 513.19 C124.02 513.01 124.02 513.01 118 511 C118 510.34 118 509.68 118 509 C118.56 508.97 119.12 508.94 119.7 508.91 C152.66 507.16 152.66 507.16 185.56 504.44 C186.72 504.32 187.88 504.21 189.08 504.09 C199.72 502.96 208.07 500.92 217.56 495.88 C218.55 495.35 219.54 494.83 220.55 494.3 C236.97 485.43 252.51 474.75 267 463 C267.91 462.28 268.82 461.56 269.76 460.82 C284.56 448.97 298.98 435.68 310.76 420.8 C312.8 418.25 314.9 415.78 317.03 413.32 C321.33 408.34 325.35 403.26 329.12 397.88 C335.81 388.37 342.4 379.96 351.81 372.97 C355.27 368.28 354.9 363.7 355 358 C355.02 357.29 355.04 356.58 355.05 355.85 C355.2 349.9 355.25 343.95 355.25 338 C355.25 337.07 355.25 336.14 355.25 335.19 C355.19 282.11 342.28 231.71 317.16 185.04 C312 175.42 312 175.42 312 173 C315.88 174.75 315.88 174.75 317 177 C317.99 177 318.98 177 320 177 C320.33 177.66 320.66 178.32 321 179 C322.95 170.6 323.8 162.14 324.56 153.56 C324.63 152.85 324.69 152.14 324.76 151.4 C332.53 82.92 332.53 82.92 311.43 20.59 C308.01 16.8 306.15 15.16 300.8 14.76 C290.31 14.56 281.07 16.1 271 19 Z "
        fill="#000271" transform="translate(428,176)" />
    <path
        d="M0 0 C2.09 1.75 3.99 3.6 5.88 5.56 C6.92 6.58 6.92 6.58 7.98 7.63 C19.49 19.64 21.44 33.62 21.12 49.57 C19.9 81.43 -1.58 111.69 -21.12 135.56 C-21.55 136.09 -21.98 136.63 -22.42 137.18 C-29.17 145.55 -36.6 153.25 -44.18 160.87 C-45.09 161.79 -46 162.71 -46.94 163.66 C-53.02 169.72 -59.41 175.2 -66.12 180.56 C-67.14 181.42 -68.17 182.29 -69.18 183.17 C-86.71 198.19 -106.27 210.88 -126.3 222.28 C-126.9 222.7 -127.5 223.12 -128.12 223.56 C-128.12 224.22 -128.12 224.88 -128.12 225.56 C-119.99 225.13 -113.39 220.93 -106.3 217.24 C-104.81 216.5 -104.81 216.5 -103.29 215.73 C-102.39 215.27 -101.5 214.8 -100.57 214.33 C-98.12 213.56 -98.12 213.56 -95.95 214.27 C-93.25 216.17 -91.16 218.54 -88.99 221 C-88.51 221.53 -88.04 222.06 -87.54 222.61 C-86.55 223.71 -85.56 224.82 -84.58 225.93 C-82.36 228.41 -80.11 230.86 -77.87 233.31 C-73.9 237.68 -69.96 242.08 -66.12 246.56 C-65.38 247.4 -64.65 248.25 -63.89 249.12 C-23.94 295.87 -3.45 353.15 -7.39 414.62 C-9.41 438.77 -17.42 460.56 -29.12 481.56 C-30.11 481.56 -31.1 481.56 -32.12 481.56 C-33.78 479.89 -35.45 478.23 -37.12 476.56 C-38.11 476.56 -39.1 476.56 -40.12 476.56 C-39.61 482.33 -37.92 486.55 -35.3 491.68 C-29.29 503.94 -25.95 515.65 -25.87 529.37 C-25.84 530.65 -25.84 530.65 -25.8 531.95 C-25.74 542.43 -28.97 549.93 -36.12 557.56 C-44.32 565.36 -56.06 570.07 -67.38 569.97 C-73.5 569.05 -78.38 565.34 -82.62 561 C-86.19 555.19 -86.8 550.31 -86.12 543.56 C-85.34 540.46 -84.29 537.53 -83.12 534.56 C-82.79 533.57 -82.46 532.58 -82.12 531.56 C-84.55 531.72 -84.55 531.72 -87.12 532.56 C-91.43 538.61 -92.54 547.31 -92.12 554.56 C-91.14 558.41 -89.74 561.94 -88.12 565.56 C-87.78 566.47 -87.45 567.38 -87.11 568.31 C-86.33 570.72 -86.33 570.72 -84.12 571.56 C-87.62 571.62 -91.12 571.65 -94.62 571.68 C-95.6 571.7 -96.58 571.72 -97.59 571.73 C-107.52 571.8 -115.47 570.31 -123.12 563.56 C-127.13 558.64 -127.67 553.45 -127.46 547.24 C-126.96 543.36 -125.58 540.18 -124.12 536.56 C-124.47 534.39 -124.47 534.39 -125.12 532.56 C-130.59 537.4 -132.45 543.92 -133.47 551.03 C-133.7 557.27 -131.89 563.01 -129.12 568.56 C-138.3 567.08 -147.22 563.26 -153.12 555.74 C-155.82 549.83 -154.94 542.25 -152.99 536.18 C-148.87 527.23 -142.17 523.02 -133.12 519.56 C-128.49 518.26 -123.86 517.33 -119.12 516.56 C-118.33 516.43 -117.54 516.3 -116.72 516.16 C-104.77 514.52 -92.95 515.7 -81.12 517.56 C-81.12 516.57 -81.12 515.58 -81.12 514.56 C-95.61 507.63 -112.97 507.81 -128.69 509.33 C-135.14 509.89 -135.14 509.89 -138.12 507.56 C-139.99 505.34 -141.69 503.16 -143.37 500.81 C-143.85 500.14 -144.33 499.47 -144.83 498.78 C-164.79 470.59 -172.62 437.42 -167.04 403.09 C-163.91 386.83 -158.45 371.34 -150.96 356.6 C-150.41 355.49 -150.41 355.49 -149.84 354.37 C-149.51 353.73 -149.17 353.08 -148.83 352.42 C-147.88 350.27 -147.88 350.27 -148.12 346.56 C-151.24 347.87 -151.24 347.87 -153.12 350.56 C-156.4 349.46 -157 348.78 -159.12 346.18 C-162.08 342.68 -165.21 339.45 -168.49 336.25 C-173.81 331 -178.52 325.44 -183.12 319.56 C-183.61 318.94 -184.1 318.33 -184.61 317.69 C-213.87 281.09 -230.38 236.41 -225.66 189.18 C-223.58 172.37 -218.03 156.36 -212.12 140.56 C-212.78 140.23 -213.44 139.9 -214.12 139.56 C-209.61 137.86 -205.1 136.19 -200.58 134.54 C-189.41 130.46 -178.54 126.33 -168.12 120.56 C-166.64 119.75 -166.64 119.75 -165.14 118.92 C-134.26 101.43 -104.89 77.66 -83.12 49.56 C-82.17 48.39 -81.22 47.22 -80.27 46.05 C-75.28 39.91 -70.46 33.73 -65.93 27.25 C-61.74 21.27 -57.24 15.77 -52.12 10.56 C-51.48 9.91 -50.85 9.27 -50.2 8.6 C-37.71 -3.22 -15.52 -10.57 0 0 Z "
        fill="#F9A32A" transform="translate(832.1171875,550.44140625)" />
    <path
        d="M0 0 C11.08 3.06 19.91 8.36 29.06 15.15 C30.14 15.94 31.22 16.73 32.3 17.52 C38.66 22.22 44.98 26.91 50.44 32.65 C57.33 39.21 64.38 43.1 74 43.46 C85.79 43.16 94.61 35.7 103.06 28.15 C103.39 28.81 103.72 29.47 104.06 30.15 C104.62 29.79 105.18 29.43 105.76 29.05 C116.99 22.01 127.85 17.57 141.06 16.15 C142.3 15.93 143.54 15.7 144.81 15.46 C149.05 15.06 152.87 15.55 157.06 16.15 C158.02 16.25 158.98 16.35 159.96 16.46 C178.98 18.76 195.14 28.05 210.31 39.23 C216.08 43.49 221.98 47.43 228.05 51.25 C231.09 53.17 234.08 55.15 237.06 57.15 C246.74 63.55 255.05 68.95 267.06 68.15 C273.3 66.78 278.44 63.95 283.8 60.55 C285.84 59.29 287.9 58.19 290.06 57.15 C290.06 57.81 290.06 58.47 290.06 59.15 C290.75 58.86 291.45 58.57 292.16 58.27 C294.26 57.39 296.35 56.52 298.45 55.65 C300.86 54.65 303.27 53.64 305.67 52.62 C348.22 34.82 395.27 42.26 437.21 58.53 C444.29 61.45 451.18 64.8 458.06 68.15 C458.06 68.81 458.06 69.47 458.06 70.15 C458.72 70.15 459.38 70.15 460.06 70.15 C460.81 77.07 460.81 77.07 458.94 79.77 C457.3 81.33 455.59 82.75 453.81 84.15 C446.48 90.43 441.02 97.4 435.44 105.23 C423.42 121.98 409.77 137.48 395.25 152.09 C394.72 152.62 394.2 153.15 393.65 153.7 C392.14 155.21 390.61 156.68 389.06 158.15 C388.17 159.01 387.29 159.87 386.37 160.76 C382.14 164.2 377.03 165.75 371.94 167.53 C370.84 167.91 369.75 168.3 368.62 168.69 C347.99 175.77 326.7 180.51 305.06 183.15 C303.24 183.38 303.24 183.38 301.39 183.61 C240.52 190.7 171.58 189.32 112.06 173.15 C109.61 172.53 107.15 171.9 104.7 171.28 C81.29 165.21 57.79 157.87 36.06 147.15 C35.16 146.71 34.26 146.27 33.34 145.82 C20.56 139.5 8.48 132.71 -2.94 124.15 C-3.55 123.69 -4.17 123.24 -4.81 122.77 C-11.98 117.41 -18.58 111.84 -24.75 105.34 C-26.87 103.07 -26.87 103.07 -29.52 101.48 C-33.12 98.02 -33.89 94.15 -35.12 89.4 C-35.38 88.46 -35.63 87.52 -35.89 86.56 C-43.28 58.22 -38.53 32.43 -25.81 6.53 C-25.31 5.5 -25.31 5.5 -24.79 4.44 C-18.84 -7.33 -11.12 -2.93 0 0 Z "
        fill="#FCFCFC" transform="translate(321.9375,467.84765625)" />
    <path
        d="M0 0 C1.18 0.01 2.37 0.01 3.59 0.02 C29.68 0.38 49.58 9.4 67.93 27.95 C92.89 54.13 103.97 89.58 104 125.19 C104 125.87 104 126.56 104 127.27 C103.95 163.05 92.1 195.71 66.75 221.31 C66.15 221.98 65.55 222.64 64.93 223.32 C46.4 243.39 16.37 254 -10.39 255.43 C-15.04 255.58 -19.69 255.6 -24.35 255.57 C-26.75 255.56 -29.15 255.57 -31.55 255.59 C-55.8 255.61 -55.8 255.61 -62.25 251.31 C-62.63 248.48 -62.63 248.48 -62.66 244.86 C-62.68 243.51 -62.7 242.17 -62.72 240.83 C-62.72 240.12 -62.73 239.41 -62.73 238.69 C-62.89 219.93 -64.9 202.23 -69.71 184.06 C-69.93 183.23 -70.14 182.41 -70.36 181.56 C-70.55 180.83 -70.75 180.11 -70.95 179.36 C-71.3 177 -71.15 175.53 -70.25 173.31 C-67.4 172.11 -67.4 172.11 -63.62 171.06 C-42.46 164.67 -26.74 151.86 -15.91 132.64 C-11.16 123.13 -10.2 111.28 -13.23 100.99 C-15.23 96.87 -17.58 93.13 -21.25 90.31 C-26.68 88.5 -31.35 88.61 -36.5 91 C-41.08 93.57 -43.49 96.39 -45.44 101.31 C-46.62 105.95 -46.69 110.76 -46.91 115.52 C-47.25 118.31 -47.25 118.31 -49.25 120.31 C-57.73 121.59 -64.14 119.88 -71.25 115.31 C-72.32 114.63 -73.39 113.95 -74.5 113.25 C-83.28 105.31 -86.34 90.65 -87.25 79.31 C-87.33 78.36 -87.33 78.36 -87.41 77.38 C-87.88 66.48 -85.28 54.94 -80.25 45.31 C-79.93 44.54 -79.6 43.77 -79.27 42.97 C-75.81 35.06 -70.26 29.35 -64.25 23.31 C-63.55 22.58 -62.85 21.85 -62.13 21.09 C-45.87 5.18 -22 -0.11 0 0 Z "
        fill="#F9A329" transform="translate(897.25,707.6875)" />
    <path
        d="M0 0 C3.16 4.01 4.48 8.97 6.12 13.75 C11.97 30.04 20.25 43.49 31 57 C30.25 57.75 29.49 58.5 28.72 59.28 C27.82 60.18 26.92 61.07 26 62 C25.39 62.6 24.78 63.2 24.16 63.82 C17.27 71.08 13.53 80.23 12.75 90.19 C13.26 97.92 15.23 104.43 20.66 110.12 C37.45 123.61 59.87 124.36 80.42 124.26 C83 124.25 85.58 124.26 88.16 124.27 C109.97 124.29 131.2 122.13 148.54 107.47 C151.09 104.9 152.69 101.86 154.38 98.69 C154.73 98.04 155.08 97.4 155.45 96.73 C156.31 95.16 157.16 93.58 158 92 C171.47 94.13 185.03 96.74 198 101 C198.7 101.22 199.4 101.45 200.11 101.68 C206.25 103.8 212.33 106.5 216 112 C216.56 114.31 216.56 114.31 216 117 C204.28 132.64 170.87 133.98 153.34 136.5 C126.39 140.28 99.17 142.6 72 144 C71.22 144.04 70.45 144.08 69.65 144.12 C52.5 144.99 35.35 145.36 18.19 145.62 C17.48 145.64 16.78 145.65 16.06 145.66 C-188.14 148.84 -188.14 148.84 -232.46 119.62 C-234.57 117.4 -234.97 116.06 -235 113 C-228.24 102.12 -211.85 99.5 -200.26 96.73 C-194.24 95.38 -188.19 94.23 -182.12 93.12 C-180.94 92.91 -179.76 92.69 -178.54 92.47 C-172.61 91.45 -167.02 90.75 -161 91 C-160.57 92.01 -160.13 93.02 -159.69 94.06 C-154.75 102.64 -143.01 107.09 -134 110 C-121.37 112.9 -108.9 113.47 -95.98 113.39 C-93 113.38 -90.03 113.39 -87.05 113.41 C-66.16 113.43 -46.04 111.35 -29 98 C-19.55 88.56 -15.29 76.02 -14.69 62.88 C-14.98 52 -17.7 41 -21.13 30.73 C-22.81 25.46 -22.81 25.46 -23 23 C-21.78 20.75 -21.78 20.75 -19.94 18.44 C-16.35 13.67 -13.77 8.77 -11.26 3.37 C-9.01 -0.85 -4.4 -1.17 0 0 Z "
        fill="#C5A6D2" transform="translate(655,1007)" />
    <path
        d="M0 0 C0.74 0.1 1.49 0.21 2.25 0.31 C3.37 3.66 3.13 4.54 2.21 7.84 C1.96 8.76 1.71 9.68 1.46 10.64 C1.18 11.64 0.91 12.65 0.62 13.69 C-4.29 32.54 -7.8 51.78 -9.12 71.23 C-9.27 73.27 -9.5 75.29 -9.75 77.31 C-10.74 77.81 -10.74 77.81 -11.75 78.31 C-16.28 103.39 -12.42 132.37 -6.93 156.98 C-5.32 164.36 -5.32 164.36 -6.75 168.31 C-13.29 178.11 -27.33 184.44 -37.69 189.4 C-42.92 192.02 -46.56 195.11 -48.6 200.6 C-49.37 203.24 -50.04 205.89 -50.69 208.56 C-53.08 217.62 -55.68 225.04 -62.25 231.94 C-65.52 233.74 -67.06 234.05 -70.75 233.31 C-75.34 230.42 -78.1 227.53 -79.75 222.31 C-80.18 219.88 -80.56 217.45 -80.88 215 C-81.04 213.75 -81.21 212.49 -81.38 211.2 C-81.56 209.77 -81.56 209.77 -81.75 208.31 C-82.74 207.98 -83.73 207.65 -84.75 207.31 C-86.24 218.87 -85.52 228.08 -79.75 238.31 C-79.42 238.97 -79.09 239.63 -78.75 240.31 C-86.8 242.74 -95.75 244.04 -103.7 240.54 C-110.3 236.58 -116.43 231.6 -118.37 223.92 C-119.03 219.41 -119.33 214.9 -119.54 210.35 C-119.63 207.27 -119.63 207.27 -120.75 204.31 C-122.4 205.3 -122.4 205.3 -123.75 207.31 C-124.03 210.11 -124.13 212.65 -124.06 215.44 C-124.05 216.2 -124.05 216.96 -124.04 217.75 C-123.92 223.16 -123.27 228.09 -121.75 233.31 C-131.4 225.47 -136.55 218.22 -138.4 205.75 C-141.11 179 -133.87 152.32 -117.16 131.18 C-107.36 119.52 -96.8 109.13 -84.75 99.81 C-74.14 91.6 -65.03 82.93 -56.75 72.31 C-55.84 71.2 -54.93 70.09 -54.02 68.99 C-46.32 59.62 -39.4 49.79 -32.5 39.82 C-24.29 28.03 -15.74 16.53 -6.75 5.31 C-6.04 4.37 -5.34 3.42 -4.61 2.45 C-2.75 0.31 -2.75 0.31 0 0 Z "
        fill="#F9A42A" transform="translate(461.75,679.6875)" />
    <path
        d="M0 0 C1.18 0.01 2.37 0.01 3.59 0.02 C29.68 0.38 49.58 9.4 67.93 27.95 C92.89 54.13 103.97 89.58 104 125.19 C104 125.87 104 126.56 104 127.27 C103.95 163.05 92.1 195.71 66.75 221.31 C66.15 221.98 65.55 222.64 64.93 223.32 C46.4 243.39 16.37 254 -10.39 255.43 C-15.04 255.58 -19.69 255.6 -24.35 255.57 C-26.75 255.56 -29.15 255.57 -31.55 255.59 C-55.8 255.61 -55.8 255.61 -62.25 251.31 C-62.63 248.51 -62.63 248.51 -62.66 244.93 C-62.68 243.59 -62.7 242.26 -62.72 240.92 C-62.72 240.22 -62.73 239.52 -62.73 238.79 C-62.85 224.45 -63.99 210.5 -66.25 196.31 C-61.6 198.24 -57.19 200.37 -52.75 202.75 C-29.84 214.57 -2.18 213.7 21.95 206.21 C41.17 199.91 57.61 187.88 67.12 169.68 C78.89 145.06 76.6 116.83 68.06 91.56 C60.51 70.68 46.09 48.33 25.75 38.31 C24.38 37.64 24.38 37.64 22.98 36.95 C2.84 27.82 -19.35 28.04 -39.94 35.62 C-42.05 36.5 -44.16 37.39 -46.25 38.31 C-47.8 38.99 -47.8 38.99 -49.38 39.69 C-62.97 46.07 -72.82 55.06 -79.62 68.38 C-79.97 69.05 -80.32 69.72 -80.67 70.41 C-82.79 74.76 -83.81 78.5 -84.25 83.31 C-84.58 81.99 -84.91 80.67 -85.25 79.31 C-85.91 79.31 -86.57 79.31 -87.25 79.31 C-87.88 67.63 -85.67 55.7 -80.25 45.31 C-79.93 44.54 -79.6 43.77 -79.27 42.97 C-75.81 35.06 -70.26 29.35 -64.25 23.31 C-63.55 22.58 -62.85 21.85 -62.13 21.09 C-45.87 5.18 -22 -0.11 0 0 Z "
        fill="#FCFCFC" transform="translate(897.25,707.6875)" />
    <path
        d="M0 0 C3.1 3.06 6.11 6.18 9.04 9.4 C11.67 12.29 14.33 15.15 17 18 C17.52 18.56 18.04 19.12 18.58 19.69 C31.85 33.77 47.01 43.85 64 53 C64.69 53.37 65.38 53.75 66.08 54.13 C84.91 64.14 106.07 69.53 127 73 C127.7 73.12 128.39 73.23 129.11 73.35 C132.73 73.94 136.36 74.5 140 75 C140.7 76.6 140.7 76.6 141 79 C139.71 82.02 139.71 82.02 137.81 85.38 C136.89 87.03 136.89 87.03 135.96 88.71 C134 92 134 92 131.76 95.21 C129.72 97.9 129.72 97.9 130 101.19 C130.81 104.28 131.76 107.14 132.88 110.12 C138.1 124.19 141.81 142.2 135.45 156.58 C129.12 167.15 119.57 174.43 107.64 177.52 C100.54 178.81 94.35 179.35 88.06 175.38 C83.62 171.96 79.81 168.42 78 163 C77.38 155.13 78.25 148.39 81 141 C79.68 141 78.36 141 77 141 C76.35 142.56 75.7 144.12 75.06 145.69 C74.7 146.56 74.34 147.43 73.97 148.32 C70.46 157.99 71.9 165.82 76 175 C76.97 176.68 77.97 178.35 79 180 C75.35 180.09 71.71 180.14 68.06 180.19 C67.04 180.21 66.02 180.24 64.97 180.26 C56.09 180.35 48.7 179.3 42 173.06 C41.26 172.39 40.51 171.72 39.75 171.04 C36.06 166.75 36.74 161.46 36.77 156.05 C37.09 151.88 38.33 148.82 40 145 C40 144.01 40 143.02 40 142 C39.01 142 38.02 142 37 142 C30.81 153.56 29.62 162.34 33.34 174.91 C33.56 175.6 33.78 176.29 34 177 C26.7 175.84 21.76 173.64 16 169 C15.37 168.51 14.75 168.02 14.1 167.51 C10.28 163.9 9.56 160.85 9.38 155.62 C9.85 146.53 12.8 140.03 19.47 133.79 C36.84 121.49 63.04 123.15 83 126 C82.67 124.68 82.34 123.36 82 122 C68.36 117.59 55.14 117.71 40.98 118.24 C40.22 118.26 39.47 118.27 38.7 118.29 C37.28 118.33 35.86 118.38 34.44 118.46 C30.58 118.54 29.16 118.13 26.15 115.61 C25.44 114.75 24.73 113.89 24 113 C23.35 112.28 22.71 111.56 22.04 110.82 C3.26 88 -7.47 56.64 -5 27 C-4 17.86 -2.72 8.8 0 0 Z "
        fill="#F07F26" transform="translate(492,931)" />
    <path
        d="M0 0 C3.76 2.06 6.41 4.3 9.31 7.44 C33.17 31.68 66.3 47.12 98 58 C98.98 58.34 99.96 58.68 100.97 59.03 C113.6 63.37 126.37 67 139.31 70.25 C140.57 70.57 141.84 70.88 143.13 71.21 C146.39 72.01 149.65 72.78 152.91 73.53 C154.32 73.85 155.73 74.17 157.13 74.5 C173.3 78.24 189.69 79.79 206.19 81.25 C206.91 81.32 207.64 81.38 208.38 81.45 C250.5 85.23 292.95 86.18 335 81 C336.71 80.79 336.71 80.79 338.46 80.58 C361.59 77.61 384.36 71.95 406.15 63.65 C408.08 62.97 410.01 62.47 412 62 C395.59 78.89 373.89 92.16 353.08 102.91 C351.6 103.69 350.13 104.49 348.67 105.32 C342.34 108.77 336.71 110.02 329.56 110.69 C328.48 110.8 327.39 110.92 326.27 111.03 C322.85 111.38 319.43 111.7 316 112 C314.94 112.09 313.87 112.19 312.77 112.28 C293.22 113.95 273.6 114.93 254 116 C254 116.66 254 117.32 254 118 C263.13 121.04 273.9 120.06 283.42 119.99 C284.53 119.98 285.64 119.98 286.79 119.97 C291.44 119.93 296.1 119.89 300.75 119.83 C304.18 119.79 307.61 119.76 311.04 119.74 C312.1 119.72 313.16 119.7 314.24 119.69 C315.22 119.68 316.19 119.68 317.2 119.68 C318.06 119.67 318.91 119.66 319.8 119.65 C322.46 120.07 323.33 120.94 325 123 C275.92 141.86 221.15 152.78 170 134 C169.34 133.34 168.68 132.68 168 132 C168.17 129.71 168.17 129.71 168.75 126.94 C168.95 125.96 169.15 124.98 169.35 123.98 C169.57 122.99 169.78 122.01 170 121 C170.19 120.1 170.39 119.2 170.59 118.27 C171.04 116.18 171.52 114.09 172 112 C176.95 112 181.9 112 187 112 C186.67 111.01 186.34 110.02 186 109 C183 107.9 183 107.9 179.26 107.12 C177.8 106.78 176.35 106.44 174.89 106.1 C174.11 105.92 173.34 105.74 172.54 105.56 C122.6 94.03 72.22 77.13 33 43 C32.41 42.49 31.83 41.99 31.23 41.47 C20.44 32.08 10.4 21.93 4 9 C3.24 7.68 2.47 6.37 1.69 5.06 C0 2 0 2 0 0 Z "
        fill="#FCD0E8" transform="translate(292,569)" />
    <path
        d="M0 0 C11.14 9.56 21.01 22.98 23.12 37.84 C24.31 56.33 22.03 72.47 9.49 86.98 C-1.22 98.67 -14.31 106.21 -30.36 107.15 C-41.5 107.56 -53.03 106.97 -62.57 100.53 C-69.19 97.16 -76.98 99.67 -83.91 101.44 C-85.88 101.84 -85.88 101.84 -89.88 101.84 C-89.51 97.47 -89.04 93.39 -87.82 89.16 C-86.23 83.52 -86.45 80.41 -89.2 75.28 C-96.81 60.75 -96.84 43.7 -92.13 28.27 C-86.37 12.45 -75.39 0.89 -60.32 -6.39 C-40.56 -14.89 -17.37 -12.99 0 0 Z "
        fill="#FCFCFC" transform="translate(938.8828125,295.15625)" />
    <path
        d="M0 0 C2.09 1.75 3.99 3.6 5.88 5.56 C6.92 6.58 6.92 6.58 7.98 7.63 C19.49 19.64 21.44 33.62 21.12 49.57 C20.45 67.07 12.87 83.51 4.7 98.75 C4.09 99.9 4.09 99.9 3.47 101.09 C0.59 106.24 0.59 106.24 -2.3 107.53 C-3.69 107.54 -3.69 107.54 -5.12 107.56 C-5.82 107.6 -6.52 107.64 -7.24 107.68 C-29.59 108.79 -46.06 103.41 -63.12 88.56 C-63.72 88.05 -64.32 87.55 -64.94 87.02 C-71.21 81.31 -75.78 73.78 -80.12 66.56 C-80.12 65.9 -80.12 65.24 -80.12 64.56 C-82.95 67.37 -85.75 70.21 -88.51 73.09 C-113.15 98.58 -146.82 120.66 -181.12 130.56 C-182.11 130.23 -183.1 129.9 -184.12 129.56 C-183.46 129.56 -182.8 129.56 -182.12 129.56 C-182.12 128.9 -182.12 128.24 -182.12 127.56 C-180.81 126.92 -180.81 126.92 -179.48 126.27 C-142.85 108.31 -108.19 81.92 -83.12 49.56 C-82.17 48.39 -81.22 47.22 -80.27 46.05 C-75.28 39.91 -70.46 33.73 -65.93 27.25 C-61.74 21.27 -57.24 15.77 -52.12 10.56 C-51.48 9.91 -50.85 9.27 -50.2 8.6 C-37.71 -3.22 -15.52 -10.57 0 0 Z "
        fill="#FDFDFD" transform="translate(832.1171875,550.44140625)" />
    <path
        d="M0 0 C3.25 -0.33 5.28 -0.16 8.02 1.68 C21.2 15.96 18.67 48.22 18.6 66.2 C18.6 67.11 18.59 68.03 18.59 68.97 C18.42 121.6 18.42 121.6 6.29 138.51 C3.76 139.68 3.76 139.68 1.29 139.51 C-0.53 138.46 -0.53 138.46 -2.28 136.76 C-2.97 136.11 -3.66 135.46 -4.37 134.79 C-5.53 133.66 -5.53 133.66 -6.71 132.51 C-20.93 118.97 -36.34 108.15 -53.58 98.75 C-75.51 86.78 -75.51 86.78 -78.29 77.62 C-80.62 66.08 -76.27 55.24 -70.61 45.31 C-66.9 39.85 -62.32 35.22 -57.71 30.51 C-57.13 29.86 -56.54 29.22 -55.94 28.55 C-41.52 12.96 -20.52 3.87 0 0 Z "
        fill="#000271" transform="translate(726.71484375,202.48828125)" />
    <path
        d="M0 0 C0.88 0.37 1.77 0.74 2.68 1.12 C14.42 6.42 23.22 15.75 28.09 27.68 C30.82 35.98 30.65 43.04 27 51 C19.51 63.43 7.47 69.93 -6.33 73.46 C-30.55 78.39 -54.71 73.75 -75.47 60.45 C-84.71 54.22 -91.22 46.95 -94 36 C-95.33 27.4 -93.73 20.29 -89 13 C-68.07 -13.44 -28.21 -12.3 0 0 Z "
        fill="#FC7A7F" transform="translate(708,531)" />
    <path
        d="M0 0 C0.66 0.33 1.32 0.66 2 1 C3.34 0.69 4.67 0.35 6 0 C24.87 -1.46 42.73 -0.37 58 12 C70.15 23.38 76.47 37.96 80 54 C79.06 54.67 78.13 55.34 77.16 56.02 C73.64 58.97 72.49 62.26 71.38 66.62 C70.97 68.06 70.56 69.48 70.14 70.91 C69.95 71.61 69.76 72.31 69.56 73.02 C67.03 82 64.06 90.63 56 96 C52.85 96.57 50.88 96.55 48.12 94.83 C42.08 89.93 40.88 85.35 39.88 77.69 C39.62 75.81 39.62 75.81 39.37 73.89 C39.25 72.93 39.12 71.98 39 71 C38.01 70.67 37.02 70.34 36 70 C34.51 81.56 35.23 90.77 41 101 C41.33 101.66 41.66 102.32 42 103 C33.95 105.43 25 106.73 17.05 103.23 C10.45 99.27 4.32 94.28 2.38 86.61 C1.72 82.1 1.42 77.59 1.21 73.04 C1.12 69.96 1.12 69.96 0 67 C-1.65 67.99 -1.65 67.99 -3 70 C-3.28 72.8 -3.38 75.33 -3.31 78.12 C-3.3 78.89 -3.3 79.65 -3.29 80.43 C-3.17 85.85 -2.52 90.78 -1 96 C-10.65 88.16 -15.8 80.91 -17.65 68.43 C-20.01 45.16 -14.65 23.15 -3 3 C-1.26 1.05 -1.26 1.05 0 0 Z "
        fill="#FCFCFC" transform="translate(341,817)" />
    <path
        d="M0 0 C0.33 0 0.66 0 1 0 C1.73 39.12 -3.41 77.17 -31.75 106.69 C-33.16 108.13 -34.58 109.57 -36 111 C-36.6 111.66 -37.2 112.33 -37.82 113.01 C-56.35 133.07 -86.38 143.68 -113.14 145.11 C-117.79 145.27 -122.44 145.29 -127.1 145.26 C-129.5 145.25 -131.9 145.26 -134.3 145.27 C-158.55 145.3 -158.55 145.3 -165 141 C-165.38 138.2 -165.38 138.2 -165.41 134.61 C-165.43 133.28 -165.45 131.94 -165.47 130.61 C-165.47 129.91 -165.48 129.21 -165.48 128.48 C-165.6 114.13 -166.74 100.18 -169 86 C-164.35 87.93 -159.94 90.06 -155.5 92.44 C-132.59 104.26 -104.93 103.38 -80.8 95.9 C-61.88 89.7 -45.11 77.79 -35.84 59.73 C-35.56 59.16 -35.28 58.59 -35 58 C-34.67 58.66 -34.34 59.32 -34 60 C-14.83 44.07 -6.05 23.63 0 0 Z "
        fill="#FCD0E8" transform="translate(1000,818)" />
    <path
        d="M0 0 C2.99 3.01 4 5.77 4 10.06 C0.32 20.88 -8.69 25.62 -18.3 30.48 C-21.09 31.72 -21.09 31.72 -22 34 C-22.78 40.98 -20.92 47.68 -18 54 C-13.38 59.71 -8.25 63.4 -0.88 64.24 C4.94 64.58 8.27 63.38 13 60 C15.15 56.78 15.64 54.46 16.34 50.74 C16.67 49.88 16.67 49.88 17 49 C17.99 48.67 18.98 48.34 20 48 C22.86 52.29 22.84 55.97 22 61 C19.23 66.7 14.49 70.94 9 74 C8.15 74.25 7.31 74.5 6.44 74.76 C3.76 75.82 3.76 75.82 2.63 78.69 C2.1 80.33 2.1 80.33 1.56 82 C0.13 86.4 -1.49 89.83 -4.03 93.72 C-7.38 99.16 -8.33 104.22 -9.12 110.5 C-10.48 120.57 -11.8 130.27 -20.22 136.84 C-26.03 140.61 -31.15 140.93 -38 140 C-46.43 136.99 -53.24 132.97 -57.19 124.75 C-62.59 111.44 -62.42 98.35 -57 85 C-56.26 83.77 -55.5 82.56 -54.69 81.38 C-52.62 77.23 -52.04 74.38 -52.59 69.78 C-54.98 65.08 -59.43 63.31 -64.09 61.17 C-67.83 59.43 -69.66 58.53 -71.95 54.98 C-74.66 47.29 -74.03 42.39 -71 35 C-69.68 35.33 -68.36 35.66 -67 36 C-66.29 38.55 -65.94 40.77 -65.75 43.44 C-64.83 47.81 -63.46 49.25 -60 52 C-55.96 54.23 -52.57 54.52 -48 54 C-42.67 51.94 -37.56 49.59 -34 45 C-33.3 41.74 -33.3 41.74 -33.25 38.25 C-33.16 36.49 -33.16 36.49 -33.08 34.7 C-33.04 33.37 -33.04 33.37 -33 32 C-33.66 32 -34.32 32 -35 32 C-36.33 30.67 -37.67 29.33 -39 28 C-40.28 27.07 -41.58 26.16 -42.88 25.25 C-49.67 20.2 -54.64 13.51 -56 5 C-55.49 0.55 -54.79 -1.27 -51.5 -4.31 C-36.59 -11.5 -13.89 -8.59 0 0 Z "
        fill="#000271" transform="translate(503,493)" />
    <path
        d="M0 0 C0.33 0.66 0.66 1.32 1 2 C0.04 4.22 -0.97 6.35 -2.06 8.5 C-11.8 28.56 -16.21 49.25 -16.06 71.5 C-16.06 73.45 -16.06 73.45 -16.05 75.44 C-16.04 78.63 -16.02 81.81 -16 85 C-39.55 85.84 -61.63 82.32 -84 75 C-85.05 74.66 -85.05 74.66 -86.12 74.32 C-109.97 66.54 -131.67 52.97 -149.53 35.44 C-150.94 34.06 -152.38 32.71 -153.82 31.36 C-161.57 23.97 -167.76 15.67 -174 7 C-173.67 6.34 -173.34 5.68 -173 5 C-172.44 5.4 -171.88 5.8 -171.3 6.21 C-141 26.71 -101.84 34.67 -65.9 28.48 C-41.77 23.8 -20.18 13.88 0 0 Z "
        fill="#FCD0E8" transform="translate(670,911)" />
    <path
        d="M0 0 C1.31 0.31 1.31 0.31 2.65 0.62 C14.14 4 20.86 12.7 26.44 22.81 C30.35 30.28 32.34 37.64 33 46 C33.05 46.66 33.11 47.32 33.16 48 C33.77 62.48 28.37 76.91 19.19 88 C12 95.46 3.88 99.36 -6.38 100.31 C-17.39 99.36 -28.3 94.33 -35.94 86.25 C-44.46 75.51 -49.12 59.61 -48 46 C-46.31 31.77 -41.01 16.33 -29.53 6.99 C-20.4 1.09 -10.87 -2.65 0 0 Z "
        fill="#000271" transform="translate(592,437)" />
    <path
        d="M0 0 C1.77 6.1 2.34 11.6 2.31 17.94 C2.33 18.78 2.34 19.62 2.36 20.49 C2.37 30.91 -0.9 38.42 -8 46 C-16.21 53.8 -27.95 58.51 -39.27 58.41 C-45.38 57.49 -50.27 53.78 -54.5 49.44 C-58.07 43.63 -58.68 38.75 -58 32 C-57.22 28.9 -56.17 25.97 -55 23 C-54.5 21.52 -54.5 21.52 -54 20 C-56.44 20.16 -56.44 20.16 -59 21 C-63.31 27.05 -64.42 35.75 -64 43 C-63.02 46.85 -61.62 50.38 -60 54 C-59.67 54.91 -59.33 55.82 -58.99 56.75 C-58.22 59.16 -58.22 59.16 -56 60 C-59.5 60.06 -63 60.09 -66.5 60.12 C-67.48 60.14 -68.46 60.16 -69.48 60.18 C-79.4 60.24 -87.35 58.75 -95 52 C-99.02 47.08 -99.55 41.89 -99.34 35.68 C-98.85 31.8 -97.46 28.62 -96 25 C-96.35 22.83 -96.35 22.83 -97 21 C-102.47 25.84 -104.33 32.36 -105.36 39.47 C-105.59 45.71 -103.78 51.45 -101 57 C-110.18 55.52 -119.11 51.7 -125 44.18 C-127.71 38.27 -126.82 30.69 -124.88 24.62 C-120.76 15.68 -114.05 11.47 -105 8 C-100.37 6.7 -95.75 5.77 -91 5 C-89.81 4.8 -89.81 4.8 -88.61 4.6 C-77.64 3.1 -66.83 3.94 -55.98 5.76 C-55 5.84 -54.01 5.92 -53 6 C-52.34 5.34 -51.68 4.68 -51 4 C-48.62 3.8 -48.62 3.8 -45.64 3.88 C-44.55 3.89 -43.46 3.91 -42.34 3.93 C-40.59 3.96 -40.59 3.96 -38.81 4 C-22.62 4.28 -22.62 4.28 -6.86 0.93 C-4 0 -4 0 0 0 Z "
        fill="#FCFCFC" transform="translate(804,1062)" />
    <path
        d="M0 0 C2.97 11.47 4.36 25.48 -0.55 36.58 C-6.88 47.15 -16.43 54.43 -28.36 57.52 C-35.46 58.81 -41.65 59.35 -47.94 55.38 C-52.38 51.96 -56.19 48.42 -58 43 C-58.62 35.13 -57.75 28.39 -55 21 C-56.32 21 -57.64 21 -59 21 C-59.65 22.56 -60.3 24.12 -60.94 25.69 C-61.3 26.56 -61.66 27.43 -62.03 28.32 C-65.54 37.99 -64.1 45.82 -60 55 C-59.03 56.68 -58.03 58.35 -57 60 C-60.65 60.09 -64.29 60.14 -67.94 60.19 C-68.96 60.21 -69.98 60.24 -71.03 60.26 C-79.91 60.35 -87.3 59.3 -94 53.06 C-95.11 52.06 -95.11 52.06 -96.25 51.04 C-99.94 46.75 -99.26 41.46 -99.23 36.05 C-98.91 31.88 -97.67 28.82 -96 25 C-96 24.01 -96 23.02 -96 22 C-96.99 22 -97.98 22 -99 22 C-105.19 33.56 -106.38 42.34 -102.66 54.91 C-102.44 55.6 -102.22 56.29 -102 57 C-109.3 55.84 -114.24 53.64 -120 49 C-120.63 48.51 -121.25 48.02 -121.9 47.51 C-125.72 43.9 -126.44 40.85 -126.62 35.62 C-126.15 26.53 -123.2 20.03 -116.53 13.79 C-99.16 1.49 -72.96 3.15 -53 6 C-53 5.01 -53 4.02 -53 3 C-52.28 3.07 -51.56 3.14 -50.82 3.22 C-33.07 4.81 -16.97 0 0 0 Z "
        fill="#FBCFE7" transform="translate(628,1051)" />
    <path
        d="M0 0 C9.67 7.01 15.36 18.55 18 30 C19.72 46 16.34 61.44 6.22 74.25 C0.13 80.83 -8.19 86.4 -17.3 87.2 C-27.9 87.41 -36.64 83.28 -44.79 76.51 C-53.1 67.91 -55.3 54.99 -55.31 43.51 C-55.05 29.57 -50.14 16.43 -40.69 6.06 C-29.36 -4.38 -13.63 -7.23 0 0 Z "
        fill="#000271" transform="translate(416,425)" />
    <path
        d="M0 0 C0.66 0.33 1.32 0.66 2 1 C3.54 0.99 5.08 0.94 6.62 0.88 C25.63 0.75 44.77 7.56 58.7 20.52 C62.2 24.29 64.67 28.44 67 33 C67.56 33.9 67.56 33.9 68.13 34.81 C70.45 40.66 69.84 49.53 68.38 55.55 C64.02 65.2 54.35 71.8 45 76 C30.7 81.29 10.55 83.16 -4 78 C-6.97 76.37 -7.85 75.43 -9.01 72.21 C-13.96 47.38 -11.94 22.7 0 0 Z "
        fill="#FC7A7F" transform="translate(294,479)" />
    <path
        d="M0 0 C15.4 13.57 25.19 32.28 26.78 52.85 C27.08 64.88 25.2 76.52 19.5 87.2 C18.77 88.6 18.77 88.6 18.04 90.03 C10.77 103.33 1.41 111.77 -11.5 119.2 C-12.26 119.64 -13.01 120.08 -13.79 120.54 C-29.48 129.08 -47.95 128.78 -64.75 124.36 C-67.79 123.42 -70.22 122.46 -72.94 120.89 C-79.1 117.97 -84.47 119.72 -90.9 121.21 C-91.69 121.39 -92.47 121.57 -93.29 121.76 C-94.86 122.13 -96.43 122.51 -98 122.91 C-103.39 124.22 -108.33 124.78 -113.5 122.2 C-113.98 115.08 -111.82 109.25 -109.55 102.58 C-106.97 94.61 -107.89 89.31 -110.94 81.51 C-117.64 63.23 -116.92 44.8 -108.88 26.97 C-99.83 8.7 -86.27 -3.32 -67.5 -10.8 C-44.79 -18.46 -19.08 -14.88 0 0 Z M-92.2 20.08 C-102.13 33.01 -104.81 49.35 -103.5 65.2 C-102.58 71.84 -101.02 77.52 -97.75 83.39 C-93.74 90.81 -96.24 97.51 -98.5 105.2 C-98.67 107.99 -98.67 107.99 -98.5 110.2 C-93.85 109.76 -89.37 109.23 -84.82 108.14 C-78.89 106.81 -75.3 106.65 -69.82 109.51 C-56.31 116.55 -39.84 117.63 -25.2 113.23 C-15.77 109.62 -8.61 104.31 -1.5 97.2 C-0.85 96.55 -0.2 95.9 0.46 95.23 C12.35 82.51 15.31 68.17 14.84 51.3 C13.97 34.39 4.56 20.46 -7.5 9.2 C-34.73 -12.15 -70.33 -4.21 -92.2 20.08 Z "
        fill="#000271" transform="translate(947.50390625,286.80078125)" />
    <path
        d="M0 0 C0 0.66 0 1.32 0 2 C0.66 2 1.32 2 2 2 C6.34 19.75 7.39 37.47 7.31 55.69 C7.31 56.6 7.31 57.51 7.31 58.45 C7.25 77.25 6.84 96.23 0 114 C-3.85 111.67 -7.03 109.09 -10.31 106 C-14.84 101.86 -19.62 98.24 -24.62 94.69 C-25.33 94.18 -26.03 93.68 -26.76 93.16 C-31.33 89.97 -35.96 87.39 -41 85 C-41 84.34 -41 83.68 -41 83 C-40.05 82.57 -39.1 82.13 -38.12 81.69 C-34.8 80.21 -34.8 80.21 -33 77 C-32.44 72.19 -32.45 69.25 -35.19 65.19 C-37.43 62.38 -39.74 60.58 -43 59 C-42.58 58.6 -42.16 58.2 -41.72 57.79 C-37.92 53.84 -36.06 50.75 -35.75 45.21 C-36.17 41.48 -37.92 39.09 -40 36 C-40 35.34 -40 34.68 -40 34 C-40.69 33.82 -41.37 33.64 -42.08 33.45 C-43.43 33.07 -43.43 33.07 -44.81 32.69 C-45.71 32.44 -46.6 32.2 -47.52 31.95 C-50.05 30.98 -51.27 30.05 -53 28 C-39.53 14.87 -19.72 0 0 0 Z "
        fill="#FDFDFD" transform="translate(728,213)" />
    <path
        d="M0 0 C12.54 9.16 23.42 20.32 34.38 31.25 C34.86 31.72 35.33 32.19 35.82 32.68 C40.91 37.75 45.88 42.87 50.56 48.33 C52.36 50.4 54.28 52.33 56.26 54.25 C58.78 56.69 60.92 59.17 63.01 62 C59.53 62.65 56.05 63.29 52.57 63.93 C51.11 64.21 51.11 64.21 49.62 64.49 C46.75 65.01 43.88 65.51 41.01 66 C40.16 66.16 39.32 66.32 38.45 66.49 C34.52 67.13 32.73 67.42 29.2 65.37 C27 62.99 24.9 60.6 22.88 58.06 C22.11 57.09 21.33 56.12 20.53 55.12 C20.12 54.61 19.71 54.1 19.29 53.58 C16.62 50.28 13.85 47.06 11.09 43.83 C8.2 40.44 5.4 36.99 2.63 33.5 C-0.96 29.08 -4.8 24.98 -8.8 20.93 C-9.63 20.09 -9.63 20.09 -10.48 19.23 C-14.67 15.08 -17.05 13.15 -22.93 12.68 C-28.48 12.88 -31.48 15.28 -35.3 19.12 C-55.84 43.71 -61.48 86.64 -61 117.53 C-60.99 121.61 -61.14 125.67 -61.37 129.75 C-61.4 130.44 -61.43 131.13 -61.46 131.84 C-61.76 136.76 -61.76 136.76 -63.99 139 C-63.99 138.01 -63.99 137.02 -63.99 136 C-64.65 136 -65.31 136 -65.99 136 C-66.64 90.32 -66.64 90.32 -62.99 70 C-62.82 69.03 -62.65 68.07 -62.47 67.07 C-58.38 44.9 -52.21 13.83 -32.92 -0.55 C-22.67 -7.3 -10.14 -6.79 0 0 Z "
        fill="#F9A32A" transform="translate(416.9921875,181.00390625)" />
    <path
        d="M0 0 C0.66 0 1.32 0 2 0 C2 0.66 2 1.32 2 2 C3.1 2.05 4.2 2.1 5.33 2.15 C17.39 2.72 29.41 3.61 41.44 4.67 C44.49 4.94 47.53 5.2 50.58 5.45 C52.53 5.62 54.48 5.79 56.43 5.96 C57.34 6.04 58.24 6.11 59.17 6.19 C60.01 6.27 60.85 6.34 61.72 6.42 C62.82 6.52 62.82 6.52 63.94 6.61 C66.24 7.04 67.94 7.92 70 9 C84.21 11.35 99.41 10.02 113.75 9.83 C117.18 9.79 120.61 9.76 124.04 9.74 C125.1 9.72 126.16 9.7 127.24 9.69 C128.22 9.68 129.19 9.68 130.2 9.68 C131.06 9.67 131.91 9.66 132.8 9.65 C135.46 10.07 136.33 10.94 138 13 C88.92 31.86 34.15 42.78 -17 24 C-17.66 23.34 -18.32 22.68 -19 22 C-18.83 19.71 -18.83 19.71 -18.25 16.94 C-18.05 15.96 -17.85 14.98 -17.65 13.98 C-17.43 12.99 -17.22 12.01 -17 11 C-16.81 10.1 -16.61 9.2 -16.41 8.27 C-15.96 6.18 -15.48 4.09 -15 2 C-10.05 2 -5.1 2 0 2 C0 1.34 0 0.68 0 0 Z "
        fill="#FBCFE7" transform="translate(479,679)" />
    <path
        d="M0 0 C1.08 -0.01 2.17 -0.02 3.28 -0.03 C6.77 -0.05 10.26 -0.07 13.75 -0.07 C15.54 -0.08 15.54 -0.08 17.36 -0.09 C38.24 -0.12 58.66 1.25 79.32 4.24 C79.32 4.9 79.32 5.56 79.32 6.24 C72.1 6.35 64.94 6.24 57.73 5.83 C1.63 2.68 -62.76 12.6 -106.04 51.2 C-109.31 54.16 -112.5 57.19 -115.68 60.24 C-116.44 60.95 -117.19 61.66 -117.96 62.39 C-149.63 93.06 -170.96 136.03 -187.68 176.24 C-188.01 176.24 -188.34 176.24 -188.68 176.24 C-188.15 169.57 -186.82 163.79 -184.62 157.49 C-184.31 156.59 -184 155.68 -183.69 154.75 C-176.96 135.29 -169.32 116.67 -159.48 98.58 C-158.36 96.5 -157.27 94.4 -156.23 92.28 C-147.84 75.83 -136.37 61.53 -123.68 48.24 C-122.87 47.37 -122.06 46.51 -121.22 45.62 C-89.77 12.99 -44.19 0.33 0 0 Z "
        fill="#FBCFE6" transform="translate(506.68359375,250.76171875)" />
    <path
        d="M0 0 C3.16 4.01 4.48 8.97 6.12 13.75 C11.97 30.04 20.25 43.49 31 57 C30.25 57.75 29.49 58.51 28.71 59.28 C27.37 60.63 27.37 60.63 26 62 C25.4 62.59 24.81 63.18 24.19 63.78 C18.34 69.96 16.94 74.46 13 83 C3.1 83 -6.8 83 -17 83 C-16 74 -16 74 -15.44 70.5 C-13.75 57.01 -16.87 43.5 -21.13 30.73 C-22.81 25.46 -22.81 25.46 -23 23 C-21.78 20.75 -21.78 20.75 -19.94 18.44 C-16.35 13.67 -13.77 8.77 -11.26 3.37 C-9.01 -0.85 -4.4 -1.17 0 0 Z "
        fill="#FCD0E8" transform="translate(655,1007)" />
    <path
        d="M0 0 C11.02 3.76 18.19 16.05 25 25 C24 27 24 27 21.12 28.38 C17.87 30.07 16.62 30.76 15 34 C13.98 38.92 13.86 43.09 15 48 C13.99 48.44 13.99 48.44 12.95 48.88 C5.38 52.27 5.38 52.27 1 59 C1.19 61.21 1.4 63.42 1.62 65.62 C1.83 71.85 1.83 71.85 -0.2 74.65 C-3.53 78.03 -7.35 80.79 -11.16 83.59 C-13.93 85.71 -16.3 88.08 -18.75 90.56 C-19.53 91.35 -20.31 92.13 -21.11 92.94 C-23.15 95.05 -23.15 95.05 -25 98 C-25.66 98 -26.32 98 -27 98 C-27.93 68.4 -23.94 28.29 -5 4 C-2.12 1.38 -2.12 1.38 0 0 Z "
        fill="#FCFCFC" transform="translate(393,203)" />
    <path
        d="M0 0 C0.66 0 1.32 0 2 0 C2 0.66 2 1.32 2 2 C2.7 2.25 3.4 2.51 4.12 2.77 C7.31 4.13 10.06 5.85 13 7.69 C36.92 21.89 66.49 24.66 93.26 18.25 C105.52 15.08 116.67 11.11 127.7 4.81 C129.44 3.82 131.22 2.9 133 2 C133.99 2.5 133.99 2.5 135 3 C116.24 24 96.56 35.35 68 38 C47.94 39.12 27.57 36.77 10.61 25.08 C9 23.92 9 23.92 6.99 23.2 C5 22 5 22 4.09 20.08 C3.9 19.31 3.71 18.54 3.52 17.75 C3.3 16.92 3.09 16.08 2.87 15.22 C2.67 14.34 2.46 13.46 2.25 12.56 C2.03 11.69 1.81 10.82 1.58 9.92 C0.74 6.51 0 3.52 0 0 Z "
        fill="#F07E26" transform="translate(826,882)" />
    <path
        d="M0 0 C4.18 3.01 8.13 6.08 11.88 9.62 C48 42.1 98.72 55.84 144.86 66.5 C146.75 66.94 148.63 67.39 150.51 67.84 C163.91 70.82 177.66 71.89 191.31 73.19 C192.01 73.25 192.7 73.32 193.42 73.39 C233.45 77.21 273.85 78.24 313.85 73.36 C318.89 72.78 323.94 72.39 329 72 C322.12 77.23 316.28 78.66 307.81 79.56 C306.16 79.75 306.16 79.75 304.47 79.94 C288.87 81.63 273.22 82.67 257.55 83.53 C256.74 83.58 255.94 83.62 255.11 83.67 C251.13 83.89 247.15 84.1 243.16 84.3 C241.71 84.38 240.26 84.46 238.8 84.54 C236.87 84.63 236.87 84.63 234.9 84.73 C232.11 84.68 232.11 84.68 231 86 C222.79 86.49 214.61 85.74 206.45 84.91 C204.75 84.74 204.75 84.74 203.01 84.57 C199.42 84.22 195.84 83.86 192.25 83.5 C189.8 83.26 187.35 83.02 184.9 82.78 C178.93 82.19 172.97 81.6 167 81 C167 80.34 167 79.68 167 79 C166.02 78.76 165.05 78.52 164.04 78.27 C106.79 64.05 49.83 47.34 5.12 6.94 C4.61 6.47 4.09 6.01 3.55 5.53 C2.33 4.4 1.16 3.2 0 2 C0 1.34 0 0.68 0 0 Z "
        fill="#FDFDFD" transform="translate(314,600)" />
    <path
        d="M0 0 C10.29 6.93 19.75 17.95 23.71 29.82 C23.9 33.39 23.9 33.39 23.71 36.82 C19.75 40.78 14.4 40.13 9.05 40.14 C-4.84 39.89 -19.6 35.88 -29.95 26.29 C-33.28 22.66 -33.75 18.79 -33.6 13.94 C-32.81 8.6 -30.26 4.81 -26.54 1.01 C-17.41 -5.13 -9.69 -5.21 0 0 Z "
        fill="#FDFDFD" transform="translate(577.2890625,354.17578125)" />
    <path
        d="M0 0 C6.09 3.66 10.15 9.95 12.09 16.71 C14.17 29 13.5 44.26 6.42 54.93 C5.81 55.78 5.19 56.62 4.56 57.5 C2.14 53.87 2.32 51.13 2.25 46.94 C1.92 38.56 -0.14 32.48 -5.56 25.94 C-9.41 22.99 -13.78 22.9 -18.44 23.5 C-23.67 25.24 -27.54 27.7 -30.44 32.5 C-32.66 38.12 -32.82 43.7 -33.09 49.71 C-33.44 52.5 -33.44 52.5 -35.44 54.5 C-43.93 55.78 -50.25 53.95 -57.44 49.5 C-57.44 48.84 -57.44 48.18 -57.44 47.5 C-52.49 47 -52.49 47 -47.44 46.5 C-46.14 43.29 -44.89 40.06 -43.7 36.8 C-33.4 8.91 -33.4 8.91 -20.75 -0.5 C-14.13 -2.5 -6.44 -2.79 0 0 Z "
        fill="#F07F26" transform="translate(883.4375,773.5)" />
    <path
        d="M0 0 C14.77 20.75 14.2 54.69 14.19 78.94 C14.19 79.62 14.19 80.29 14.19 80.99 C14.15 101.86 12.69 122.63 10.5 143.38 C10.38 144.52 10.26 145.67 10.14 146.85 C10.02 147.9 9.9 148.95 9.78 150.02 C9.68 150.94 9.58 151.86 9.47 152.8 C9 155 9 155 7 157 C7 156.34 7 155.68 7 155 C6.01 155 5.02 155 4 155 C3.34 154.01 2.68 153.02 2 152 C1.01 151.67 0.02 151.34 -1 151 C-4.21 148.42 -6.42 145.83 -8 142 C-7.37 138.6 -6.08 135.9 -4.62 132.77 C-2.7 128.58 -1.74 124.31 -0.81 119.81 C-0.58 118.76 -0.58 118.76 -0.35 117.68 C2.61 103.15 3.33 88.53 3.26 73.74 C3.25 71.07 3.26 68.39 3.27 65.72 C3.29 50.83 2.49 35.82 -0.81 21.25 C-0.95 20.54 -1.09 19.82 -1.24 19.09 C-2.42 13.74 -4.53 10.25 -8 6 C-8.66 5.67 -9.32 5.34 -10 5 C-9.02 2.55 -8.31 1.22 -6.12 -0.31 C-3.51 -1.16 -2.53 -1.06 0 0 Z "
        fill="#F07F26" transform="translate(741,198)" />
    <path
        d="M0 0 C4.51 4.35 7.6 8.53 8.34 14.9 C8.42 21.11 8.41 25.23 4 30 C-1.25 35.25 -7.93 36.23 -15.09 36.33 C-16.13 36.32 -16.13 36.32 -17.19 36.31 C-17.92 36.31 -18.66 36.3 -19.42 36.3 C-30.36 36.06 -39.34 33.92 -48 27 C-47.65 19.94 -43.75 15.59 -38.8 10.92 C-28.85 2.53 -12.69 -8.19 0 0 Z "
        fill="#FDFDFD" transform="translate(453,342)" />
    <path
        d="M0 0 C0 0.66 0 1.32 0 2 C0.66 2 1.32 2 2 2 C2.5 3.98 2.5 3.98 3 6 C1.96 6.47 0.92 6.95 -0.15 7.43 C-14.05 13.95 -25.5 22.05 -31 37 C-33.64 48.1 -32.18 58.81 -26.45 68.68 C-21 76.56 -14.21 83.37 -7.62 90.3 C-5.45 92.57 -3.31 94.87 -1.19 97.19 C-0.58 97.84 0.02 98.49 0.64 99.17 C2.16 101.21 2.74 102.47 3 105 C2.44 107.36 2.44 107.36 1.56 109.75 C1.28 110.55 0.99 111.35 0.69 112.17 C0.46 112.78 0.24 113.38 0 114 C-3.85 111.67 -7.03 109.09 -10.31 106 C-14.84 101.86 -19.62 98.24 -24.62 94.69 C-25.33 94.18 -26.03 93.68 -26.76 93.16 C-31.33 89.97 -35.96 87.39 -41 85 C-41 84.34 -41 83.68 -41 83 C-40.05 82.57 -39.1 82.13 -38.12 81.69 C-34.8 80.21 -34.8 80.21 -33 77 C-32.44 72.19 -32.45 69.25 -35.19 65.19 C-37.43 62.38 -39.74 60.58 -43 59 C-42.58 58.6 -42.16 58.2 -41.72 57.79 C-37.92 53.84 -36.06 50.75 -35.75 45.21 C-36.17 41.48 -37.92 39.09 -40 36 C-40 35.34 -40 34.68 -40 34 C-40.69 33.82 -41.37 33.64 -42.08 33.45 C-43.43 33.07 -43.43 33.07 -44.81 32.69 C-45.71 32.44 -46.6 32.2 -47.52 31.95 C-50.05 30.98 -51.27 30.05 -53 28 C-39.53 14.87 -19.72 0 0 0 Z "
        fill="#FBCFE7" transform="translate(728,213)" />
    <path
        d="M0 0 C0.77 0.39 1.54 0.78 2.34 1.19 C4.53 2.33 4.53 2.33 6.65 3 C9.62 1.99 9.62 1.99 11.65 0 C14.79 -1.57 18.22 -1.38 21.65 -1 C25.8 0.57 27.48 2.98 29.66 6.71 C31.28 10.46 31.64 14.04 30.65 18 C27.28 24.17 22.17 28.96 17.28 33.94 C16.44 34.83 15.6 35.71 14.74 36.63 C13.92 37.46 13.1 38.29 12.25 39.15 C11.15 40.3 11.15 40.3 10.01 41.46 C7.65 43 7.65 43 4.67 43.01 C1.09 41.81 -0.6 40.35 -3.24 37.67 C-4.11 36.79 -4.99 35.91 -5.89 35 C-6.78 34.07 -7.68 33.14 -8.6 32.19 C-9.51 31.27 -10.42 30.36 -11.36 29.41 C-20.61 19.98 -20.61 19.98 -20.72 13.62 C-20.61 8.19 -18.26 5.22 -14.79 1.19 C-10.73 -2.17 -4.63 -1.97 0 0 Z "
        fill="#FC7A7F" transform="translate(898.34765625,322)" />
    <path
        d="M0 0 C6.06 3.49 9.45 10.14 11.69 16.56 C12.17 22.4 11.83 27.49 8.69 32.56 C4.34 37.22 0.42 41.2 -6.13 41.84 C-14.69 42.1 -20.56 41.03 -26.9 35.07 C-31.35 30.1 -32.81 25.5 -32.62 18.96 C-31.85 12.99 -29.42 8.21 -24.94 4.19 C-17.34 -1.59 -9.19 -3.84 0 0 Z "
        fill="#FC7A7F" transform="translate(816.3125,588.4375)" />
    <path
        d="M0 0 C4.49 13.48 -6.16 37.03 -12.19 49.46 C-14.67 54.38 -17.29 59.2 -20 64 C-20.99 64 -21.98 64 -23 64 C-24.67 62.33 -26.33 60.67 -28 59 C-28.99 59 -29.98 59 -31 59 C-30.5 64.82 -28.76 69.08 -26.12 74.25 C-22.95 80.7 -20.47 86.93 -19 94 C-22.47 94.99 -22.47 94.99 -26 96 C-26.26 94.97 -26.51 93.94 -26.78 92.88 C-31 76.83 -38.62 63.53 -48.03 49.98 C-50 47 -50 47 -51 44 C-47.12 41.49 -43.13 39.84 -38.81 38.25 C-32.15 35.7 -26.6 32.46 -21 28 C-20.17 27.38 -19.35 26.77 -18.5 26.13 C-10.47 19.28 -5.04 9.14 0 0 Z "
        fill="#F07F26" transform="translate(823,968)" />
    <path
        d="M0 0 C-0.22 0.81 -0.43 1.62 -0.66 2.46 C-4.03 15.87 -4.03 15.87 -1 29 C-0.34 29.33 0.32 29.66 1 30 C0.95 29.28 0.91 28.57 0.86 27.83 C0.52 18.37 2 9.81 7.06 1.69 C11.54 -0.88 15.95 -0.57 21 0 C21.66 0.33 22.32 0.66 23 1 C23 1.66 23 2.32 23 3 C23.66 3 24.32 3 25 3 C24.3 6.12 23.26 8.98 22.09 11.95 C19.43 19.17 18.23 26.56 16.93 34.12 C15.86 39.99 14.92 44.42 11 49 C7.25 50.87 3.08 50.54 -1 50 C-4.01 48.72 -6.45 47.03 -9 45 C-9.76 44.44 -10.53 43.89 -11.31 43.31 C-17.01 35.5 -16.88 25.25 -16 16 C-14.52 9.42 -12.41 4.16 -7 0 C-3.87 -1.04 -3.01 -0.93 0 0 Z "
        fill="#FC7A7F" transform="translate(467,574)" />
    <path
        d="M0 0 C1.77 6.1 2.34 11.6 2.31 17.94 C2.33 18.78 2.34 19.62 2.36 20.49 C2.37 30.91 -0.9 38.42 -8 46 C-16.21 53.8 -27.95 58.51 -39.27 58.41 C-45.41 57.48 -50.26 53.74 -54.56 49.44 C-56.07 46.89 -56.5 44.89 -57 42 C-56.32 42.05 -55.64 42.09 -54.94 42.14 C-40.99 42.66 -26.16 39.25 -15.6 29.7 C-8.29 21.92 -6.7 13.33 -6 3 C-6.66 2.67 -7.32 2.34 -8 2 C-4.91 0.24 -3.77 0 0 0 Z "
        fill="#FCD0E8" transform="translate(804,1062)" />
    <path
        d="M0 0 C6.29 3.89 10.3 9.11 13.62 15.62 C12.97 15.46 12.31 15.29 11.62 15.12 C6.91 14.34 2.58 13.86 -1.94 15.62 C-23.96 33.69 -29.95 72.57 -32.69 99.25 C-33.3 105.9 -33.49 112.48 -33.39 119.16 C-33.37 123.24 -33.53 127.3 -33.75 131.38 C-33.78 132.07 -33.81 132.76 -33.84 133.47 C-34.14 138.39 -34.14 138.39 -36.38 140.62 C-36.38 139.63 -36.38 138.64 -36.38 137.62 C-37.04 137.62 -37.69 137.62 -38.38 137.62 C-39.02 91.95 -39.02 91.95 -35.38 71.62 C-35.2 70.66 -35.03 69.7 -34.85 68.7 C-30.54 45.35 -24.15 16.2 -4.75 0.5 C-2.38 -0.38 -2.38 -0.38 0 0 Z "
        fill="#F07E26" transform="translate(389.375,179.375)" />
    <path
        d="M0 0 C0.33 0 0.66 0 1 0 C1.14 1.04 1.28 2.09 1.43 3.16 C1.96 7.07 2.49 10.98 3.03 14.89 C3.26 16.57 3.49 18.26 3.71 19.94 C4.04 22.38 4.38 24.81 4.71 27.25 C4.81 27.99 4.91 28.73 5.01 29.49 C5.65 34.09 6.52 38.57 7.6 43.08 C8.18 45.89 8.18 47.36 7 50 C-0.11 59.6 -14.27 67.16 -25 72 C-25.99 72 -26.98 72 -28 72 C-28.99 67.71 -29.98 63.42 -31 59 C-29.68 58.34 -28.36 57.68 -27 57 C-12.05 46.79 -6.83 30.03 -3.46 13.25 C-2.97 10.85 -2.47 8.46 -1.95 6.07 C-1.79 5.34 -1.63 4.61 -1.47 3.85 C-1 2 -1 2 0 0 Z "
        fill="#EF7E26" transform="translate(448,798)" />
    <path
        d="M0 0 C3.5 2.34 4.27 4.23 6 8 C6.5 8.99 6.5 8.99 7 10 C6.32 10.67 5.65 11.34 4.95 12.03 C2.81 14.17 0.7 16.34 -1.39 18.53 C-26.03 44.02 -59.71 66.1 -94 76 C-94.99 75.67 -95.98 75.34 -97 75 C-96.34 75 -95.68 75 -95 75 C-95 74.34 -95 73.68 -95 73 C-93.69 72.36 -93.69 72.36 -92.36 71.71 C-57.82 54.77 -24.23 30.12 0 0 Z "
        fill="#FBCFE5" transform="translate(745,605)" />
    <path
        d="M0 0 C1 3 1 3 0.1 5.35 C-3.78 12.48 -8.28 18.26 -14 24 C-14.61 24.64 -15.23 25.28 -15.86 25.93 C-26.28 35.95 -39.97 40.4 -54.19 40.38 C-55.01 40.37 -55.83 40.37 -56.67 40.37 C-65.47 40.2 -74.26 38.7 -81.69 33.69 C-88.31 30.32 -96.1 32.82 -103.03 34.6 C-105 35 -105 35 -109 35 C-108.58 28.8 -107.4 23.73 -105 18 C-104.67 18.66 -104.34 19.32 -104 20 C-102.67 20.35 -101.34 20.68 -100 21 C-98.13 21.93 -96.28 22.89 -94.44 23.88 C-77.29 32.6 -57.31 33.26 -39 28 C-37.95 27.71 -36.89 27.41 -35.8 27.11 C-22.86 22.85 -11.26 13.94 -3.38 2.86 C-2 1 -2 1 0 0 Z "
        fill="#C4A5D1" transform="translate(958,362)" />
    <path
        d="M0 0 C4.03 3.22 6.41 7.13 8 12 C8.72 18.82 8.81 26.07 5 32 C1.59 36.01 -1.38 38.63 -6.56 39.81 C-11.13 38.73 -14.03 36.61 -17 33 C-20.34 26.35 -19.88 18.26 -18 11.19 C-14.93 3.28 -8.49 -1.92 0 0 Z "
        fill="#FDFDFD" transform="translate(599,459)" />
    <path
        d="M0 0 C0.5 0.99 0.5 0.99 1 2 C-0.18 4.19 -0.18 4.19 -1.98 6.9 C-2.96 8.38 -2.96 8.38 -3.96 9.9 C-4.63 10.92 -5.3 11.95 -6 13 C-7.2 14.9 -8.39 16.81 -9.58 18.73 C-31.28 53.59 -31.28 53.59 -42 68 C-43.07 69.47 -43.07 69.47 -44.17 70.96 C-49.37 77.73 -55.32 82.73 -62.17 87.68 C-65.46 90.06 -68.69 92.5 -71.94 94.94 C-72.61 95.44 -73.28 95.94 -73.97 96.46 C-83.19 103.36 -92.35 110.38 -101 118 C-101.66 117.67 -102.32 117.34 -103 117 C-102.02 115.65 -101.01 114.32 -100 113 C-99.34 112.11 -98.68 111.23 -98 110.31 C-94.83 106.54 -91 103.63 -87.17 100.56 C-81.86 96.3 -76.73 91.82 -71.58 87.36 C-70.21 86.18 -68.82 85.01 -67.43 83.84 C-61.5 78.8 -56.8 73.1 -52 67 C-51.09 65.89 -50.17 64.77 -49.26 63.66 C-42.23 55.1 -35.83 46.19 -29.53 37.09 C-10.89 10.15 -10.89 10.15 -6 5 C-5.34 5 -4.68 5 -4 5 C-2.62 3.37 -1.28 1.71 0 0 Z "
        fill="#FBCFE6" transform="translate(457,685)" />
    <path
        d="M0 0 C0 0.66 0 1.32 0 2 C0.66 2 1.32 2 2 2 C2.5 3.98 2.5 3.98 3 6 C1.96 6.47 0.92 6.95 -0.15 7.43 C-13.18 13.54 -23.94 20.87 -30.09 34.41 C-31.38 38.1 -31.86 41.82 -32.44 45.67 C-32.62 46.44 -32.81 47.21 -33 48 C-33.99 48.5 -33.99 48.5 -35 49 C-35.27 47.78 -35.54 46.57 -35.81 45.31 C-36.69 41.76 -38.01 39.08 -40 36 C-40 35.34 -40 34.68 -40 34 C-40.69 33.82 -41.37 33.64 -42.08 33.45 C-43.43 33.07 -43.43 33.07 -44.81 32.69 C-45.71 32.44 -46.6 32.2 -47.52 31.95 C-50.05 30.98 -51.27 30.05 -53 28 C-39.53 14.87 -19.72 0 0 0 Z "
        fill="#FCD0E8" transform="translate(728,213)" />
    <path
        d="M0 0 C1.98 1.64 1.98 1.64 3.75 3.81 C4.34 4.52 4.94 5.23 5.55 5.96 C9.27 11.19 8.52 17.87 8 24 C6.49 29.24 3.83 33.3 -1 36 C-4.6 36.67 -6.82 36.75 -9.97 34.75 C-12.98 32.28 -14.74 30.77 -16 27 C-16.76 17.19 -16.36 10.15 -9.94 2.56 C-6.81 0.04 -3.92 -0.46 0 0 Z "
        fill="#FDFDFD" transform="translate(415,441)" />
    <path
        d="M0 0 C1.17 1.7 1.17 1.7 1.07 3.7 C-0 6.09 -1.16 7.14 -3.2 8.76 C-5.55 10.64 -7.74 12.54 -9.83 14.7 C-9.17 15.21 -8.51 15.73 -7.83 16.26 C-5.41 18.22 -3.01 20.19 -0.64 22.2 C0.03 22.77 0.71 23.33 1.4 23.92 C3.21 25.74 4.17 27.35 5.17 29.7 C3.79 30.6 2.39 31.47 0.98 32.32 C-0.18 33.06 -0.18 33.06 -1.37 33.8 C-3.83 34.7 -3.83 34.7 -6.31 34.05 C-12.32 30.82 -19.47 26.8 -22.83 20.7 C-23.62 14.81 -21.84 10.12 -19.83 4.7 C-19.58 3.73 -19.33 2.76 -19.08 1.76 C-17.83 -0.3 -17.83 -0.3 -14.77 -1.68 C-9.79 -2.47 -4.3 -3.06 0 0 Z "
        fill="#FCD0E8" transform="translate(680.828125,256.30078125)" />
    <path
        d="M0 0 C0.33 0.66 0.66 1.32 1 2 C3.44 2.27 5.79 2.42 8.25 2.49 C9.74 2.56 11.23 2.62 12.72 2.69 C15.08 2.79 17.44 2.88 19.8 2.95 C22.08 3.03 24.35 3.14 26.62 3.24 C27.33 3.26 28.04 3.28 28.77 3.29 C30.76 3.39 30.76 3.39 34 4 C35.38 5.89 35.38 5.89 36 8 C36.64 9.24 36.64 9.24 37.29 10.51 C37.73 11.37 38.17 12.24 38.62 13.12 C39.07 13.99 39.52 14.86 39.98 15.76 C41 18 41 18 41 20 C41.66 20.33 42.32 20.66 43 21 C39.5 21.06 36 21.09 32.5 21.12 C31.03 21.15 31.03 21.15 29.52 21.18 C19.64 21.24 11.59 19.78 4 13 C1.07 8.98 -0.63 5.05 0 0 Z "
        fill="#FCD0E8" transform="translate(705,1101)" />
    <path
        d="M0 0 C2.11 1.6 2.11 1.6 3.11 3.6 C2.42 3.44 1.73 3.28 1.02 3.12 C-28.44 -2.17 -62.47 16.5 -85.89 32.6 C-86.42 32.96 -86.95 33.32 -87.49 33.69 C-99.13 41.66 -110.15 50.36 -119.89 60.6 C-120.89 61.6 -121.89 62.6 -122.89 63.6 C-123.88 63.27 -124.87 62.94 -125.89 62.6 C-115.36 37.72 -71.51 16.63 -48.11 7.03 C-13.74 -6.67 -13.74 -6.67 0 0 Z "
        fill="#FBCEE2" transform="translate(734.890625,192.40234375)" />
    <path
        d="M0 0 C1.49 5.94 1.49 5.94 3 12 C2.06 12.67 1.13 13.34 0.16 14.02 C-3.36 16.97 -4.51 20.26 -5.62 24.62 C-6.03 26.06 -6.44 27.48 -6.86 28.91 C-7.05 29.61 -7.24 30.31 -7.44 31.02 C-9.97 40 -12.94 48.63 -21 54 C-24.52 54.37 -26.35 54.41 -29.38 52.5 C-29.91 52 -30.45 51.51 -31 51 C-29.87 47.62 -29.11 47.11 -26.38 45 C-16.94 36.78 -14 27.81 -11.86 15.79 C-10.72 9.76 -9.45 6.3 -5 2 C-2 0 -2 0 0 0 Z "
        fill="#FCD0E8" transform="translate(418,859)" />
    <path
        d="M0 0 C13.89 9.3 25.58 21.5 37.38 33.25 C37.85 33.72 38.32 34.19 38.81 34.68 C43.91 39.75 48.87 44.87 53.55 50.33 C55.35 52.41 57.27 54.34 59.25 56.25 C61.77 58.69 63.95 61.14 66 64 C64.02 64 62.04 64 60 64 C60 63.34 60 62.68 60 62 C59.4 61.73 58.8 61.46 58.17 61.18 C54.73 59.31 52.41 56.31 49.81 53.44 C43.34 46.41 36.73 39.55 30 32.77 C28.93 31.69 27.87 30.61 26.81 29.53 C8.51 10.48 8.51 10.48 -15.36 1.9 C-17.25 1.92 -17.25 1.92 -19.19 1.94 C-20.46 1.95 -21.73 1.96 -23.04 1.96 C-24.02 1.98 -24.99 1.99 -26 2 C-26 1.01 -26 0.02 -26 -1 C-17.78 -4.55 -7.91 -4.18 0 0 Z "
        fill="#FCD0E8" transform="translate(414,179)" />
    <path
        d="M0 0 C10.9 3.1 18.43 16.36 25 25 C24 27 24 27 21.12 28.38 C17.87 30.07 16.62 30.76 15 34 C13.94 39.07 13.97 42.86 15 48 C11.7 49.32 8.4 50.64 5 52 C5.5 50.68 5.99 49.36 6.5 48 C9.64 37.35 9.23 26.68 4.45 16.63 C2.73 13.51 0.94 10.47 -1.08 7.52 C-2 6 -2 6 -2 4 C-2.66 3.67 -3.32 3.34 -4 3 C-2.31 1.38 -2.31 1.38 0 0 Z "
        fill="#FCD0E8" transform="translate(393,203)" />
    <path
        d="M0 0 C0.33 0 0.66 0 1 0 C2.33 4.54 2.86 8.32 2 13 C-1.13 17.38 -5.85 20.41 -10.15 23.57 C-12.91 25.7 -15.3 28.08 -17.75 30.56 C-18.53 31.35 -19.31 32.13 -20.11 32.94 C-22.15 35.05 -22.15 35.05 -24 38 C-24.66 38 -25.32 38 -26 38 C-26 31.73 -26 25.46 -26 19 C-25.34 19.66 -24.68 20.32 -24 21 C-15.14 15.91 -7.44 9.95 -1.28 1.7 C-0.86 1.14 -0.44 0.58 0 0 Z "
        fill="#FCD0E8" transform="translate(392,263)" />
    <path
        d="M0 0 C3.38 2.15 5.75 4.14 7 8 C7.46 11.02 7.6 13.04 5.95 15.68 C3.24 19.02 1.55 20.82 -2.75 21.31 C-6.83 20.92 -8.82 19.53 -12 17 C-14.51 13.23 -14.14 11.49 -13.55 7.16 C-12.79 4.15 -11.51 2.77 -9 1 C-5.67 -0.11 -3.5 -0.35 0 0 Z "
        fill="#FC7A7F" transform="translate(819,563)" />
    <path
        d="M0 0 C0.15 1.49 0.15 1.49 0.3 3 C1.65 15.74 1.65 15.74 8.94 25.88 C14.81 29.95 20 30.48 27 31 C24.55 33.68 22.7 34.83 18.98 35.2 C10.62 35.38 4.94 32.65 -1.2 27.03 C-6.12 21.47 -7.68 14.64 -8.31 7.44 C-8 4 -8 4 -6.25 1.56 C-4 0 -4 0 0 0 Z "
        fill="#FCD0E8" transform="translate(488,523)" />
    <path
        d="M0 0 C0.33 0.66 0.66 1.32 1 2 C2.78 2.77 2.78 2.77 4.94 3.38 C5.74 3.64 6.55 3.91 7.38 4.19 C10 5.04 10 5.04 12.71 5.59 C15.67 6.39 17.6 7.06 20 9 C21.36 12.57 21.99 15.9 22.5 19.69 C22.94 22.62 23.49 24.49 25 27 C15.72 25.5 7.02 21.65 0.98 14.14 C-1.06 9.7 -0.42 4.77 0 0 Z "
        fill="#FCD0E8" transform="translate(678,1092)" />
    <path
        d="M0 0 C5.19 2.37 7.44 6.11 10 11 C11.31 14.92 11.2 17.86 11 22 C10.34 22.66 9.68 23.32 9 24 C4.93 23.92 2.75 23.71 -0.25 20.88 C-3.04 16.29 -5.03 12.79 -4.94 7.31 C-3.92 3.73 -2.86 2.31 0 0 Z "
        fill="#64508B" transform="translate(565,495)" />
    <path
        d="M0 0 C4.88 3.22 7.86 7.1 11 12 C11 12.66 11 13.32 11 14 C9.38 14.67 7.75 15.34 6.12 16 C5.22 16.37 4.32 16.74 3.38 17.12 C1 18 1 18 -1 18 C-1 17.34 -1 16.68 -1 16 C-1.99 15.67 -2.98 15.34 -4 15 C-7.01 11.45 -8.9 8.15 -9.31 3.5 C-9.21 2.68 -9.11 1.85 -9 1 C-5.85 -0.57 -3.48 -0.35 0 0 Z "
        fill="#FBCFE7" transform="translate(426,239)" />
    <path
        d="M0 0 C0.33 0 0.66 0 1 0 C1.51 3.13 1.64 5.88 1 9 C-2.75 14.02 -8.1 17.17 -14 19 C-19.71 19.73 -24.4 18.43 -29 15 C-30.23 12.86 -30.23 12.86 -31 11 C-30.11 11.05 -29.21 11.09 -28.29 11.14 C-19.43 11.4 -11.84 11.14 -4.87 5.18 C-3.64 3.95 -2.44 2.69 -1.28 1.39 C-0.86 0.93 -0.43 0.47 0 0 Z "
        fill="#FCD0E8" transform="translate(469,529)" />
    <path
        d="M0 0 C2.17 1.81 2.86 3.13 3.32 5.9 C3.52 9.49 3.36 11.44 1.38 14.5 C-1.72 16.45 -3.39 16.52 -7 16 C-9.81 14.94 -9.81 14.94 -12 13 C-13.15 9.1 -13.4 6.96 -11.81 3.19 C-8.23 -1.14 -5.4 -1.61 0 0 Z "
        fill="#FC7A7F" transform="translate(841,583)" />
    <path
        d="M0 0 C4.69 2.21 7.21 5.2 9 10 C10.67 18.66 10.67 18.66 9 22 C2.91 21.76 2.91 21.76 0.46 19.7 C-3.28 15.27 -4.33 11.71 -4.3 5.94 C-3.85 3.01 -2.3 1.73 0 0 Z "
        fill="#64508B" transform="translate(378,472)" />
    <path
        d="M0 0 C2.82 2.36 2.98 3.83 3.44 7.5 C3 11 3 11 1.44 13.44 C-1.96 15.61 -4.04 15.56 -8 15 C-10.79 13.3 -12.46 12.01 -14 9.12 C-14 5.81 -12.74 3.76 -11 1 C-7.52 -1.85 -4.17 -1.06 0 0 Z "
        fill="#FC7A7F" transform="translate(795,570)" />
    <path
        d="M0 0 C1.32 2.64 2.64 5.28 4 8 C-5.46 10.86 -13.93 11.21 -23 7 C-23.99 6.34 -24.98 5.68 -26 5 C-26 4.34 -26 3.68 -26 3 C-24.94 2.95 -23.88 2.9 -22.78 2.85 C-15.25 2.47 -7.28 0 0 0 Z "
        fill="#FCD0E8" transform="translate(379,912)" />
    <path
        d="M0 0 C0.72 0.12 1.44 0.25 2.19 0.38 C3.29 3.68 3.09 4.57 2.19 7.82 C1.96 8.67 1.73 9.52 1.5 10.39 C1.25 11.27 1 12.15 0.75 13.06 C0.51 13.96 0.26 14.85 0.01 15.77 C-0.59 17.97 -1.2 20.17 -1.81 22.38 C-4.78 21.38 -7.75 20.39 -10.81 19.38 C-10.36 14.35 -7.82 11.23 -4.81 7.38 C-6.46 8.7 -8.11 10.01 -9.81 11.38 C-8.21 6.41 -5.6 0.75 0 0 Z "
        fill="#F0832F" transform="translate(461.8125,679.625)" />
    <path
        d="M0 0 C4.54 0.06 8.17 0.44 12.38 2.19 C13.81 4.31 13.81 4.31 14.38 6.19 C10.21 8.21 6.98 8.66 2.38 8.19 C-0.42 7.06 -3.02 5.7 -5.62 4.19 C-5.62 -0.52 -4.25 0.03 0 0 Z "
        fill="#64508B" transform="translate(468.625,490.8125)" />
    <path
        d="M0 0 C1.54 0.1 3.09 0.21 4.63 0.32 C5.41 0.37 6.18 0.42 6.98 0.47 C10.23 0.69 13.09 0.98 16.19 2.01 C18.76 2.51 21.34 2.96 23.91 3.41 C26.19 4.01 26.19 4.01 28.19 6.01 C24.66 7.19 23.68 6.75 20.19 5.7 C11.66 3.41 2.96 2.79 -5.81 2.01 C-3.81 0.01 -3.81 0.01 0 0 Z "
        fill="#FCF4F9" transform="translate(468.80859375,482.98828125)" />
    <path d="M0 0 C-9 6 -9 6 -12 6 C-12.33 5.01 -12.66 4.02 -13 3 C-8.91 -1.48 -5.78 -0.98 0 0 Z "
        fill="#FACEE7" transform="translate(416,262)" />
</svg>
