<?xml version="1.0" encoding="UTF-8"?><!-- Generator: visioncortex VTracer 0.6.3 -->
<svg height="1280" version="1.1" width="1280" xmlns="http://www.w3.org/2000/svg">
    <path
        d="M0 0 C422.4 0 844.8 0 1280 0 C1280 422.4 1280 844.8 1280 1280 C857.6 1280 435.2 1280 0 1280 C0 857.6 0 435.2 0 0 Z "
        fill="#B9EEFD" transform="translate(0,0)" />
    <path
        d="M0 0 C14.47 10.12 26.98 22.03 39.46 34.44 C40.34 35.31 40.34 35.31 41.23 36.19 C48.5 43.41 55.25 50.76 61.59 58.82 C65.64 63.79 65.64 63.79 70.59 67.82 C78.47 67.38 86.08 65.05 93.69 63.08 C107.56 59.61 121.25 58.4 135.53 58.44 C136.24 58.44 136.95 58.44 137.68 58.44 C159.68 58.52 180.42 63.11 201.59 68.82 C202.01 67.93 202.01 67.93 202.43 67.01 C203.51 64.96 204.62 63.42 206.14 61.67 C206.64 61.09 207.15 60.5 207.68 59.9 C208.23 59.27 208.77 58.65 209.34 58.01 C209.91 57.35 210.49 56.69 211.08 56.02 C223.13 42.31 235.55 28.52 249.59 16.82 C250.13 16.36 250.67 15.9 251.23 15.42 C267.34 1.74 290.57 -17.21 313.03 -16.18 C323.22 -14.77 330.87 -11.1 337.43 -3.12 C341.45 2.35 345.04 8.03 348.59 13.82 C349.12 14.61 349.66 15.41 350.21 16.23 C374.13 52.83 377.69 105.53 378.59 147.82 C378.61 148.71 378.63 149.6 378.66 150.52 C379.18 174.84 378.09 199.68 375.2 223.85 C374.09 233.27 374.8 240.69 377.34 249.82 C379.64 258.54 381.5 267.22 382.9 276.13 C383.06 277.14 383.22 278.14 383.38 279.18 C385.14 290.77 385.8 302.3 386.2 314 C386.23 314.99 386.27 315.97 386.31 316.98 C386.34 317.86 386.37 318.74 386.4 319.65 C386.46 321.87 386.46 321.87 387.59 323.82 C388.21 323.24 388.83 322.66 389.46 322.07 C396.76 316.81 404.77 314.71 413.65 314.64 C414.35 314.63 415.05 314.63 415.78 314.62 C418.1 314.6 420.42 314.59 422.75 314.58 C423.54 314.58 424.34 314.57 425.16 314.57 C429.39 314.55 433.62 314.53 437.85 314.52 C442.19 314.51 446.53 314.48 450.87 314.44 C454.23 314.41 457.59 314.4 460.95 314.4 C462.54 314.39 464.14 314.38 465.74 314.36 C478.46 314.23 490.52 315.34 500.29 324.39 C508.56 332.95 512.69 343.81 512.74 355.61 C512.75 357.31 512.75 357.31 512.76 359.04 C512.76 360.88 512.76 360.88 512.77 362.76 C512.78 364.72 512.78 364.72 512.79 366.72 C512.81 371.03 512.82 375.35 512.83 379.66 C512.83 381.15 512.84 382.65 512.84 384.14 C512.86 391.16 512.87 398.17 512.88 405.19 C512.89 413.26 512.92 421.32 512.96 429.39 C512.99 435.64 513 441.9 513.01 448.16 C513.01 451.88 513.02 455.61 513.04 459.33 C513.07 463.5 513.07 467.67 513.06 471.84 C513.07 473.05 513.09 474.26 513.1 475.51 C513.03 487.31 510.94 498.59 502.92 507.63 C495.04 515.02 485.92 519.89 475.02 519.86 C466.01 519.49 466.01 519.49 457.97 522.71 C455.99 525.32 454.32 528.04 452.59 530.82 C428.2 558.28 393.13 574.15 357.59 580.82 C356.89 580.95 356.2 581.08 355.48 581.22 C335.03 584.89 312.02 584.03 291.59 580.82 C291.72 581.71 291.85 582.6 291.99 583.52 C293.34 593.09 294.15 602.61 294.71 612.26 C294.8 613.68 294.89 615.11 294.98 616.53 C295.19 619.96 295.39 623.39 295.59 626.82 C297.22 626.87 297.22 626.87 298.89 626.93 C317.51 627.7 333.43 631.67 346.59 645.82 C360.66 663.13 368.57 682.37 366.59 704.82 C364.18 721.68 355.11 737.22 341.71 747.63 C326.76 758.28 309.77 763.1 291.36 760.5 C288.42 760 285.51 759.43 282.61 758.8 C280.94 758.44 279.27 758.12 277.59 757.82 C275.77 759.63 276.46 762.45 276.46 764.9 C276.45 766.19 276.45 767.48 276.45 768.81 C276.46 773.91 276.51 779 276.56 784.09 C276.6 788.44 276.56 792.78 276.44 797.13 C276.36 800.38 276.36 803.63 276.34 806.88 C276.29 808.08 276.23 809.28 276.18 810.51 C276.2 814 276.34 816.56 277.59 819.82 C281.26 822.97 285.24 824.78 289.59 826.82 C302.12 835.63 310.35 849.89 313.14 864.77 C314.39 874.49 312.9 883.84 307.53 892.13 C299.79 902.1 289.44 907.87 277.59 911.82 C275.02 911.92 272.48 911.98 269.91 911.98 C269.13 911.98 268.35 911.99 267.55 911.99 C264.96 912.01 262.37 912.02 259.78 912.02 C257.98 912.03 256.17 912.03 254.36 912.04 C250.57 912.05 246.78 912.05 242.99 912.06 C238.16 912.06 233.33 912.09 228.49 912.12 C224.76 912.14 221.02 912.14 217.29 912.14 C215.51 912.14 213.73 912.15 211.95 912.17 C193.99 912.29 177.86 909.64 164.29 896.67 C153.89 885.38 150.97 870.61 150.46 855.69 C150.4 854.31 150.34 852.92 150.27 851.53 C150.12 848.29 149.98 845.04 149.84 841.79 C149.49 833.19 149.06 824.59 148.64 815.99 C148.61 815.3 148.57 814.6 148.54 813.89 C148.47 812.48 148.4 811.07 148.33 809.66 C148.13 805.46 147.93 801.26 147.74 797.07 C147.64 795.05 147.55 793.03 147.45 791.01 C147.34 788.52 147.22 786.03 147.11 783.54 C147.06 782.4 147 781.27 146.95 780.11 C146.9 779.13 146.86 778.15 146.81 777.15 C146.52 772.69 146.03 768.26 145.59 763.82 C135.69 763.49 125.79 763.16 115.59 762.82 C115.4 767.52 115.4 767.52 115.21 772.31 C114.79 782.71 114.35 793.11 113.89 803.5 C113.62 809.8 113.35 816.1 113.1 822.4 C112.86 828.49 112.6 834.58 112.32 840.66 C112.22 842.98 112.13 845.29 112.04 847.6 C111.28 867.93 108.64 886.08 93.13 900.78 C79.89 911.4 64.32 912.29 48.12 912.29 C46.35 912.29 44.58 912.3 42.81 912.31 C39.12 912.32 35.43 912.32 31.74 912.32 C27.04 912.31 22.34 912.34 17.64 912.38 C13.99 912.41 10.34 912.41 6.69 912.41 C4.96 912.41 3.22 912.42 1.49 912.44 C-8.87 912.53 -17.08 911.89 -26.41 906.82 C-27.33 906.32 -28.26 905.82 -29.21 905.31 C-40.44 899.05 -46.16 892.33 -50.72 880.38 C-53.43 866.37 -49.31 852.53 -41.41 840.82 C-34.33 831.41 -25.82 825.99 -15.41 820.82 C-15.4 820.19 -15.39 819.56 -15.38 818.92 C-15.27 812.26 -15.15 805.61 -15.04 798.96 C-15 796.49 -14.95 794.02 -14.91 791.55 C-14.66 775.96 -14.22 760.39 -13.41 744.82 C-14.08 744.96 -14.75 745.1 -15.44 745.24 C-16.33 745.43 -17.21 745.61 -18.13 745.8 C-19 745.98 -19.88 746.16 -20.78 746.35 C-38.09 749.44 -51.19 744.47 -65.41 734.82 C-77.09 726.61 -83.04 713.34 -86.41 699.82 C-87.68 688.08 -85.91 676.51 -79.22 666.56 C-77.1 663.96 -77.1 663.96 -77.66 660.94 C-77.91 660.24 -78.16 659.54 -78.41 658.82 C-79.2 658.69 -79.2 658.69 -80 658.57 C-83.33 657.53 -86.07 655.71 -88.97 653.82 C-89.59 653.42 -90.21 653.01 -90.85 652.6 C-108.88 640.65 -124.19 624.99 -128.96 603.31 C-130.8 589.02 -130.36 573.7 -126.41 559.82 C-125.92 558.02 -125.92 558.02 -125.41 556.18 C-120.74 540.73 -112.9 527.03 -102.41 514.82 C-101.94 514.27 -101.46 513.71 -100.98 513.15 C-94.38 505.55 -87.4 498.96 -79.41 492.82 C-78.47 492.05 -77.54 491.29 -76.57 490.5 C-30.82 453.82 -30.82 453.82 -13.41 453.82 C-13.41 453.16 -13.41 452.5 -13.41 451.82 C-14.07 451.82 -14.73 451.82 -15.41 451.82 C-15.41 451.16 -15.41 450.5 -15.41 449.82 C-16.05 449.74 -16.69 449.65 -17.35 449.57 C-48.77 441.87 -80.74 414.95 -97.21 387.91 C-122.08 344.83 -118.23 293.22 -106.41 246.82 C-106.02 245.61 -105.63 244.41 -105.23 243.17 C-103.09 234.38 -104.75 225.11 -105.64 216.22 C-112.27 148.92 -114.96 57.96 -70.8 1.7 C-70.01 0.75 -69.22 -0.2 -68.41 -1.18 C-67.68 -2.06 -66.96 -2.94 -66.21 -3.85 C-60.81 -9.8 -55 -12.72 -47.41 -15.18 C-46.78 -15.39 -46.14 -15.59 -45.49 -15.81 C-29.71 -18.65 -12.6 -8.53 0 0 Z "
        fill="#FBAE47" transform="translate(476.410400390625,196.181884765625)" />
    <path
        d="M0 0 C38.19 9.53 77.45 13.79 116.8 13.73 C117.64 13.73 118.48 13.73 119.35 13.73 C157.02 13.64 194.44 9.37 231.08 0.57 C232.23 0.29 233.37 0.02 234.55 -0.27 C235.46 -0.5 236.36 -0.73 237.3 -0.97 C244.16 -2.2 249.33 -0.94 255.73 1.3 C288.04 11.98 322.07 14.73 353.98 1.55 C355.6 3.17 355.13 4.98 355.16 7.22 C355.17 27.65 355.17 27.65 365.07 44.84 C368.24 47.66 371.33 50.37 374.98 52.55 C375.8 53.06 375.8 53.06 376.62 53.59 C384.41 57.83 393.12 57.15 401.73 57.17 C404.12 57.19 406.5 57.21 408.89 57.24 C410.36 57.26 411.84 57.27 413.31 57.27 C417.31 57.31 420.38 57.79 423.98 59.55 C401.45 87.41 366.74 101.7 331.98 106.55 C330.69 106.73 329.4 106.92 328.06 107.11 C321.48 107.81 314.85 107.73 308.23 107.73 C305.95 107.73 303.67 107.75 301.39 107.77 C276.11 107.87 276.11 107.87 269.66 104.24 C267.77 102.33 266.95 100.79 265.98 98.29 C265.46 97.02 265.46 97.02 264.94 95.73 C264.58 94.82 264.23 93.92 263.86 92.98 C257.67 77.95 249.67 59.24 237.98 47.55 C239.21 51.49 240.67 54.94 242.67 58.55 C254.26 81.46 258.22 108.3 260.98 133.55 C261.12 134.67 261.25 135.8 261.39 136.96 C261.7 140.16 261.84 143.34 261.98 146.55 C262.09 148.1 262.09 148.1 262.19 149.68 C262.41 153.09 262.54 156.51 262.67 159.92 C262.75 161.05 262.83 162.18 262.91 163.35 C263 166.69 262.93 169.34 261.98 172.55 C259.02 175.64 255.71 177.5 251.98 179.55 C241.62 187.6 236.26 201.97 233.98 214.55 C232.51 227.63 234.91 239.9 242.98 250.55 C244.22 251.69 244.22 251.69 245.48 252.86 C246.98 255.55 246.98 255.55 246.48 257.49 C246.19 258.3 245.9 259.1 245.6 259.93 C243.01 268.81 243.61 277.93 243.69 287.09 C243.7 289.07 243.7 291.05 243.7 293.03 C243.72 298.21 243.75 303.38 243.78 308.56 C243.81 313.86 243.82 319.15 243.84 324.45 C243.87 334.81 243.92 345.18 243.98 355.55 C242.85 355.67 241.71 355.78 240.54 355.91 C239.02 356.07 237.5 356.24 235.98 356.41 C235.24 356.48 234.49 356.56 233.72 356.64 C216.48 358.57 201.68 366.4 190.28 379.5 C187.78 382.8 186.65 385.51 185.98 389.55 C186.4 389.12 186.81 388.7 187.24 388.26 C201.73 374.47 220.73 371.03 239.98 370.55 C240.96 370.48 241.93 370.42 242.93 370.36 C251.74 369.93 258.38 372.89 265.11 378.48 C273.73 386.72 280.83 398.01 281.36 410.17 C281.05 417.34 277.82 422.44 273.09 427.62 C266.26 433.88 259.45 436.69 250.31 436.74 C249.53 436.75 248.74 436.76 247.94 436.76 C245.35 436.79 242.76 436.81 240.18 436.82 C239.29 436.83 238.4 436.83 237.49 436.84 C232.79 436.86 228.08 436.88 223.38 436.9 C219.51 436.91 215.63 436.94 211.76 436.98 C207.07 437.03 202.38 437.05 197.69 437.06 C195.91 437.07 194.13 437.08 192.35 437.11 C178.69 437.28 167.84 435.58 156.96 426.5 C146.98 416.62 146.14 404.58 145.5 391.3 C145.46 390.53 145.43 389.76 145.38 388.96 C145.26 386.44 145.13 383.92 145.01 381.4 C144.92 379.62 144.84 377.84 144.75 376.06 C144.56 372.33 144.38 368.6 144.2 364.88 C143.97 360.16 143.73 355.44 143.5 350.72 C143.31 347.04 143.13 343.36 142.95 339.68 C142.87 337.94 142.78 336.2 142.69 334.47 C142.09 322.48 141.88 310.55 141.98 298.55 C142.71 298.23 143.43 297.9 144.17 297.57 C147.12 296.25 150.05 294.9 152.98 293.55 C153.94 293.11 154.91 292.68 155.89 292.23 C166.63 287.16 175.96 280.19 184.98 272.55 C184.43 272.83 183.88 273.11 183.31 273.4 C147.25 291.16 97.86 293.92 59.77 281.01 C53.58 278.72 47.78 275.69 41.98 272.55 C40.65 271.87 39.32 271.2 37.98 270.55 C41.51 274.24 45.2 277.4 49.36 280.36 C49.96 280.79 50.57 281.22 51.19 281.66 C60.47 288.12 70.58 293.15 80.98 297.55 C81.64 297.88 82.3 298.21 82.98 298.55 C82.36 319.49 81.55 340.41 80.54 361.34 C80.33 365.76 80.13 370.19 79.94 374.61 C79.75 378.99 79.55 383.37 79.33 387.75 C79.26 389.39 79.18 391.03 79.12 392.67 C78.57 406.05 76.78 417.63 66.98 427.55 C56.02 436.71 44.5 437.04 30.88 437.09 C29.11 437.1 27.34 437.11 25.57 437.12 C21.87 437.15 18.17 437.16 14.47 437.16 C9.76 437.16 5.06 437.21 0.35 437.28 C-3.3 437.32 -6.96 437.33 -10.61 437.33 C-12.34 437.33 -14.08 437.35 -15.81 437.38 C-29.77 437.59 -40.12 435.23 -50.77 425.48 C-55.72 419.93 -56.49 414.77 -56.33 407.48 C-55.06 395.57 -48.27 385.81 -39.3 378.27 C-27.46 369.36 -13.84 369.67 0.36 371.23 C15.61 373.5 28.43 379.24 39.98 389.55 C39.55 388.85 39.12 388.15 38.67 387.43 C38.12 386.52 37.56 385.61 36.98 384.67 C36.43 383.77 35.87 382.86 35.3 381.93 C33.98 379.55 33.98 379.55 33.98 377.55 C33.41 377.3 32.83 377.06 32.23 376.81 C29.58 375.32 28.02 373.56 25.98 371.3 C14.89 360.04 -1.23 356.38 -16.6 355.72 C-19.02 355.55 -19.02 355.55 -20.02 354.55 C-20.09 352.68 -20.08 350.82 -20.05 348.96 C-20.04 347.75 -20.02 346.55 -20 345.32 C-19.98 344 -19.95 342.68 -19.93 341.33 C-19.91 339.95 -19.89 338.58 -19.87 337.21 C-19.82 334.31 -19.77 331.4 -19.72 328.5 C-19.65 324.86 -19.6 321.22 -19.54 317.58 C-19.29 301.08 -18.86 284.6 -18.13 268.11 C-17.26 252.86 -17.26 252.86 -22.02 238.55 C-41.66 200.74 -38.86 149.58 -27.02 109.55 C-26.71 108.52 -26.41 107.5 -26.1 106.45 C-21.19 90.14 -14.85 74.79 -7.43 59.47 C-5.7 55.89 -4.01 52.3 -2.33 48.7 C-0.9 45.64 0.54 42.59 1.98 39.55 C1.37 40.16 0.75 40.78 0.12 41.41 C-1.31 42.84 -2.75 44.26 -4.2 45.67 C-10.01 51.5 -15.38 57.7 -20.45 64.17 C-24.76 69.49 -29.59 73.43 -35.02 77.55 C-42.18 83.51 -49.13 89.53 -54.02 97.55 C-59.58 96.66 -64.78 94.62 -70.07 92.72 C-75.42 90.87 -80.37 90 -86.02 89.55 C-85.3 89.85 -84.58 90.16 -83.85 90.47 C-70.69 96.52 -61.01 106.24 -51.02 116.55 C-49.35 118.22 -47.69 119.88 -46.02 121.55 C-45.02 122.55 -45.02 122.55 -44.86 126.42 C-44.91 130.87 -45.44 135.15 -46.08 139.55 C-50.76 171.99 -52.94 218.14 -32.64 245.92 C-30.83 249.95 -30.52 253.4 -30.39 257.73 C-30.36 258.44 -30.32 259.14 -30.28 259.86 C-30.29 261.9 -30.29 261.9 -31.02 265.55 C-33.74 267.91 -33.74 267.91 -37.02 269.55 C-37.8 269.95 -38.59 270.35 -39.39 270.76 C-48.4 273.46 -58.13 272.55 -66.52 268.55 C-77.72 262.13 -85.28 254.15 -90.45 242.23 C-92.25 230.48 -91.36 219.96 -84.77 209.86 C-84.19 209.1 -83.61 208.33 -83.02 207.55 C-73.69 208.74 -66.29 213.28 -60.45 220.58 C-58.55 223.19 -56.73 225.81 -55.02 228.55 C-54.42 217.41 -58.84 209.86 -66.02 201.55 C-71.41 196.06 -76.93 192.87 -83.95 189.86 C-94.24 185.21 -103.13 179.47 -112.02 172.55 C-112.92 171.86 -113.82 171.17 -114.75 170.46 C-125.07 162.01 -132.74 149.94 -134.54 136.68 C-136.91 111.72 -129.92 86.24 -114.28 66.48 C-94.33 42.43 -68.38 26 -41.02 11.55 C-39.89 10.95 -38.77 10.35 -37.61 9.74 C-34.49 8.08 -31.36 6.45 -28.22 4.83 C-26.97 4.19 -25.72 3.54 -24.48 2.88 C-22.73 1.96 -20.96 1.06 -19.19 0.16 C-18.17 -0.37 -17.15 -0.9 -16.09 -1.44 C-10.61 -3.25 -5.44 -1.4 0 0 Z "
        fill="#FBAE47" transform="translate(495.015625,657.453125)" />
    <path
        d="M0 0 C14.47 10.12 26.98 22.03 39.46 34.44 C40.34 35.31 40.34 35.31 41.23 36.19 C48.5 43.41 55.25 50.76 61.59 58.82 C65.64 63.79 65.64 63.79 70.59 67.82 C78.47 67.38 86.08 65.05 93.69 63.08 C107.56 59.61 121.25 58.4 135.53 58.44 C136.24 58.44 136.95 58.44 137.68 58.44 C159.68 58.52 180.42 63.11 201.59 68.82 C202.01 67.93 202.01 67.93 202.43 67.01 C203.51 64.96 204.62 63.42 206.14 61.67 C206.64 61.09 207.15 60.5 207.68 59.9 C208.23 59.27 208.77 58.65 209.34 58.01 C209.91 57.35 210.49 56.69 211.08 56.02 C223.13 42.31 235.55 28.52 249.59 16.82 C250.13 16.36 250.67 15.9 251.23 15.42 C267.34 1.74 290.57 -17.21 313.03 -16.18 C323.22 -14.77 330.87 -11.1 337.43 -3.12 C341.45 2.35 345.04 8.03 348.59 13.82 C349.12 14.61 349.66 15.41 350.21 16.23 C374.13 52.83 377.69 105.53 378.59 147.82 C378.61 148.71 378.63 149.6 378.66 150.52 C379.18 174.84 378.09 199.68 375.2 223.85 C374.09 233.27 374.8 240.69 377.34 249.82 C379.64 258.54 381.5 267.22 382.9 276.13 C383.06 277.14 383.22 278.14 383.38 279.18 C385.14 290.77 385.8 302.3 386.2 314 C386.23 314.99 386.27 315.97 386.31 316.98 C386.34 317.86 386.37 318.74 386.4 319.65 C386.46 321.87 386.46 321.87 387.59 323.82 C388.21 323.24 388.83 322.66 389.46 322.07 C396.76 316.81 404.77 314.71 413.65 314.64 C414.35 314.63 415.05 314.63 415.78 314.62 C418.1 314.6 420.42 314.59 422.75 314.58 C423.54 314.58 424.34 314.57 425.16 314.57 C429.39 314.55 433.62 314.53 437.85 314.52 C442.19 314.51 446.53 314.48 450.87 314.44 C454.23 314.41 457.59 314.4 460.95 314.4 C462.54 314.39 464.14 314.38 465.74 314.36 C478.46 314.23 490.52 315.34 500.29 324.39 C508.56 332.95 512.69 343.81 512.74 355.61 C512.75 357.31 512.75 357.31 512.76 359.04 C512.76 360.88 512.76 360.88 512.77 362.76 C512.78 364.72 512.78 364.72 512.79 366.72 C512.81 371.03 512.82 375.35 512.83 379.66 C512.83 381.15 512.84 382.65 512.84 384.14 C512.86 391.16 512.87 398.17 512.88 405.19 C512.89 413.26 512.92 421.32 512.96 429.39 C512.99 435.64 513 441.9 513.01 448.16 C513.01 451.88 513.02 455.61 513.04 459.33 C513.07 463.5 513.07 467.67 513.06 471.84 C513.07 473.05 513.09 474.26 513.1 475.51 C513.03 487.31 510.94 498.59 502.92 507.63 C495.04 515.02 485.92 519.89 475.02 519.86 C466.01 519.49 466.01 519.49 457.97 522.71 C455.99 525.32 454.32 528.04 452.59 530.82 C428.2 558.28 393.13 574.15 357.59 580.82 C356.89 580.95 356.2 581.08 355.48 581.22 C335.03 584.89 312.02 584.03 291.59 580.82 C291.72 581.71 291.85 582.6 291.99 583.52 C293.34 593.09 294.15 602.61 294.71 612.26 C294.8 613.68 294.89 615.11 294.98 616.53 C295.19 619.96 295.39 623.39 295.59 626.82 C297.22 626.87 297.22 626.87 298.89 626.93 C317.51 627.7 333.43 631.67 346.59 645.82 C360.66 663.13 368.57 682.37 366.59 704.82 C364.18 721.68 355.11 737.22 341.71 747.63 C326.76 758.28 309.77 763.1 291.36 760.5 C288.42 760 285.51 759.43 282.61 758.8 C280.94 758.44 279.27 758.12 277.59 757.82 C275.77 759.63 276.46 762.45 276.46 764.9 C276.45 766.19 276.45 767.48 276.45 768.81 C276.46 773.91 276.51 779 276.56 784.09 C276.6 788.44 276.56 792.78 276.44 797.13 C276.36 800.38 276.36 803.63 276.34 806.88 C276.29 808.08 276.23 809.28 276.18 810.51 C276.2 814 276.34 816.56 277.59 819.82 C281.26 822.97 285.24 824.78 289.59 826.82 C302.12 835.63 310.35 849.89 313.14 864.77 C314.39 874.49 312.9 883.84 307.53 892.13 C299.79 902.1 289.44 907.87 277.59 911.82 C275.02 911.92 272.48 911.98 269.91 911.98 C269.13 911.98 268.35 911.99 267.55 911.99 C264.96 912.01 262.37 912.02 259.78 912.02 C257.98 912.03 256.17 912.03 254.36 912.04 C250.57 912.05 246.78 912.05 242.99 912.06 C238.16 912.06 233.33 912.09 228.49 912.12 C224.76 912.14 221.02 912.14 217.29 912.14 C215.51 912.14 213.73 912.15 211.95 912.17 C193.99 912.29 177.86 909.64 164.29 896.67 C153.89 885.38 150.97 870.61 150.46 855.69 C150.4 854.31 150.34 852.92 150.27 851.53 C150.12 848.29 149.98 845.04 149.84 841.79 C149.49 833.19 149.06 824.59 148.64 815.99 C148.61 815.3 148.57 814.6 148.54 813.89 C148.47 812.48 148.4 811.07 148.33 809.66 C148.13 805.46 147.93 801.26 147.74 797.07 C147.64 795.05 147.55 793.03 147.45 791.01 C147.34 788.52 147.22 786.03 147.11 783.54 C147.06 782.4 147 781.27 146.95 780.11 C146.9 779.13 146.86 778.15 146.81 777.15 C146.52 772.69 146.03 768.26 145.59 763.82 C135.69 763.49 125.79 763.16 115.59 762.82 C115.4 767.52 115.4 767.52 115.21 772.31 C114.79 782.71 114.35 793.11 113.89 803.5 C113.62 809.8 113.35 816.1 113.1 822.4 C112.86 828.49 112.6 834.58 112.32 840.66 C112.22 842.98 112.13 845.29 112.04 847.6 C111.28 867.93 108.64 886.08 93.13 900.78 C79.89 911.4 64.32 912.29 48.12 912.29 C46.35 912.29 44.58 912.3 42.81 912.31 C39.12 912.32 35.43 912.32 31.74 912.32 C27.04 912.31 22.34 912.34 17.64 912.38 C13.99 912.41 10.34 912.41 6.69 912.41 C4.96 912.41 3.22 912.42 1.49 912.44 C-8.87 912.53 -17.08 911.89 -26.41 906.82 C-27.33 906.32 -28.26 905.82 -29.21 905.31 C-40.44 899.05 -46.16 892.33 -50.72 880.38 C-53.43 866.37 -49.31 852.53 -41.41 840.82 C-34.33 831.41 -25.82 825.99 -15.41 820.82 C-15.4 820.19 -15.39 819.56 -15.38 818.92 C-15.27 812.26 -15.15 805.61 -15.04 798.96 C-15 796.49 -14.95 794.02 -14.91 791.55 C-14.66 775.96 -14.22 760.39 -13.41 744.82 C-14.08 744.96 -14.75 745.1 -15.44 745.24 C-16.33 745.43 -17.21 745.61 -18.13 745.8 C-19 745.98 -19.88 746.16 -20.78 746.35 C-38.09 749.44 -51.19 744.47 -65.41 734.82 C-77.09 726.61 -83.04 713.34 -86.41 699.82 C-87.68 688.08 -85.91 676.51 -79.22 666.56 C-77.1 663.96 -77.1 663.96 -77.66 660.94 C-77.91 660.24 -78.16 659.54 -78.41 658.82 C-79.2 658.69 -79.2 658.69 -80 658.57 C-83.33 657.53 -86.07 655.71 -88.97 653.82 C-89.59 653.42 -90.21 653.01 -90.85 652.6 C-108.88 640.65 -124.19 624.99 -128.96 603.31 C-130.8 589.02 -130.36 573.7 -126.41 559.82 C-125.92 558.02 -125.92 558.02 -125.41 556.18 C-120.74 540.73 -112.9 527.03 -102.41 514.82 C-101.94 514.27 -101.46 513.71 -100.98 513.15 C-94.38 505.55 -87.4 498.96 -79.41 492.82 C-78.47 492.05 -77.54 491.29 -76.57 490.5 C-30.82 453.82 -30.82 453.82 -13.41 453.82 C-13.41 453.16 -13.41 452.5 -13.41 451.82 C-14.07 451.82 -14.73 451.82 -15.41 451.82 C-15.41 451.16 -15.41 450.5 -15.41 449.82 C-16.05 449.74 -16.69 449.65 -17.35 449.57 C-48.77 441.87 -80.74 414.95 -97.21 387.91 C-122.08 344.83 -118.23 293.22 -106.41 246.82 C-106.02 245.61 -105.63 244.41 -105.23 243.17 C-103.09 234.38 -104.75 225.11 -105.64 216.22 C-112.27 148.92 -114.96 57.96 -70.8 1.7 C-70.01 0.75 -69.22 -0.2 -68.41 -1.18 C-67.68 -2.06 -66.96 -2.94 -66.21 -3.85 C-60.81 -9.8 -55 -12.72 -47.41 -15.18 C-46.78 -15.39 -46.14 -15.59 -45.49 -15.81 C-29.71 -18.65 -12.6 -8.53 0 0 Z M-61.41 11.82 C-62.18 12.82 -62.18 12.82 -62.96 13.84 C-102.76 69.79 -99.02 159.69 -91.02 224.85 C-89.8 234.98 -90.95 242.8 -93.66 252.63 C-104.48 294.33 -108.02 342.18 -85.41 380.82 C-74.21 398.27 -58.95 412 -41.41 422.82 C-40.41 423.44 -40.41 423.44 -39.38 424.07 C-6.61 443.99 31.76 452.76 69.34 458.07 C70.4 458.22 71.46 458.37 72.56 458.53 C93.32 461.28 114.1 462.2 135.03 462.13 C136.2 462.13 137.37 462.13 138.58 462.12 C207.14 461.92 286.63 452.01 338.28 402.57 C364.06 375.84 372.43 342.78 371.92 306.45 C371.5 285.74 367.81 265.06 361.93 245.21 C359.42 235.98 360.86 227.09 361.82 217.67 C368.73 149.19 371.21 64.07 327.15 6.88 C323.56 2.62 320.15 -0.9 314.59 -2.18 C292.33 -3.57 270.98 16.65 255.35 30.24 C250.58 34.5 246.07 39.04 241.57 43.58 C239.83 45.32 238.09 47.06 236.34 48.79 C230.38 54.75 224.74 60.79 219.51 67.41 C216.91 70.67 214.17 73.79 211.36 76.86 C210.28 78.05 209.23 79.27 208.23 80.52 C207.03 81.94 207.03 81.94 204.59 83.82 C199.83 83.5 195.54 82.26 191.04 80.8 C154.4 68.92 114.53 69.17 78.07 81.62 C69.23 84.58 69.23 84.58 64.59 82.82 C62.02 80.59 62.02 80.59 59.59 77.82 C58.79 76.96 57.99 76.09 57.16 75.2 C52.89 70.49 48.64 65.75 44.46 60.95 C37.62 53.14 30.56 45.6 23.21 38.26 C22.35 37.37 21.48 36.49 20.58 35.59 C14.57 29.56 8.25 24.11 1.59 18.82 C0.47 17.89 -0.65 16.96 -1.77 16.03 C-11.83 7.94 -27.78 -3.25 -41.28 -2.58 C-50.29 -0.88 -56.05 4.76 -61.41 11.82 Z M-1.97 462.33 C-3.08 462.88 -3.08 462.88 -4.21 463.45 C-6.62 464.64 -9.01 465.85 -11.41 467.07 C-12.23 467.48 -13.04 467.89 -13.88 468.31 C-53.61 488.34 -95.44 513.67 -111.73 557.35 C-117 574.31 -119.91 596.5 -111.41 612.82 C-109.29 616.34 -106.94 619.59 -104.41 622.82 C-103.92 623.48 -103.43 624.15 -102.93 624.83 C-93.06 637.31 -77.02 645.76 -62.91 652.45 C-50.66 658.31 -43.62 665.84 -37.41 677.82 C-36.07 681.81 -36.34 685.64 -36.41 689.82 C-36.92 689.08 -37.43 688.35 -37.95 687.59 C-44.05 678.94 -50.06 672.26 -60.41 668.82 C-63.05 668.66 -63.05 668.66 -65.41 669.82 C-67.29 672.42 -67.29 672.42 -68.66 675.63 C-69.16 676.69 -69.66 677.75 -70.18 678.84 C-73.68 687.29 -73.99 698.04 -70.57 706.6 C-66.14 715.05 -60.44 721.68 -52.41 726.82 C-51.54 727.4 -50.67 727.98 -49.77 728.58 C-41.44 733.47 -32.86 734.42 -23.41 732.82 C-19.41 731.47 -15.44 729.85 -12.41 726.82 C-11.03 715.76 -12.98 708.38 -18.31 698.74 C-28.83 679.66 -29.63 655.89 -29.66 634.63 C-29.66 633.89 -29.67 633.15 -29.67 632.38 C-29.68 620.68 -28.85 609.33 -27.07 597.75 C-25.65 589.21 -25.65 589.21 -27.91 581.19 C-30.64 578.6 -33.43 576.13 -36.29 573.69 C-38.33 571.89 -40.17 569.99 -42.04 568.01 C-45.57 564.42 -49.4 561.44 -53.47 558.51 C-54.05 558.08 -54.63 557.66 -55.22 557.23 C-59.12 554.49 -62.97 552.56 -67.41 550.82 C-60.89 551.34 -55.3 552.61 -49.16 554.82 C-42.4 557.24 -42.4 557.24 -35.41 558.82 C-35.02 558.28 -34.63 557.75 -34.23 557.2 C-28.06 548.98 -21.31 541.7 -12.85 535.82 C-7.15 531.82 -2.84 527.16 1.59 521.82 C2.77 520.4 2.77 520.4 3.97 518.95 C6.73 515.59 9.47 512.23 12.16 508.83 C14.28 506.17 15.29 504.92 18.59 503.82 C18.92 503.49 19.25 503.16 19.59 502.82 C19.15 503.74 18.7 504.66 18.25 505.61 C3.93 535.4 -10.2 565.66 -14.41 598.82 C-14.51 599.58 -14.61 600.34 -14.72 601.13 C-19.06 635.16 -19.63 672.8 -1.83 703.22 C3.4 712.8 0.6 727.22 0.12 737.84 C-0.49 752.22 -0.75 766.6 -0.97 780.99 C-1.02 784.66 -1.09 788.33 -1.15 792 C-1.2 794.85 -1.25 797.7 -1.29 800.56 C-1.32 802.57 -1.36 804.58 -1.4 806.59 C-1.41 807.79 -1.43 808.99 -1.45 810.23 C-1.46 811.29 -1.48 812.34 -1.5 813.44 C-1.68 815.77 -1.68 815.77 -0.41 816.82 C1.5 817.01 3.41 817.2 5.32 817.36 C22.97 818.88 36.44 823.92 48.74 837.06 C50.41 839.05 50.41 839.05 52.59 838.82 C52.84 839.5 53.08 840.18 53.34 840.88 C54.83 844.39 56.66 847.53 58.59 850.82 C58.01 850.31 57.42 849.8 56.82 849.28 C43.87 838.41 28.55 832.45 11.59 831.82 C10.57 831.77 9.56 831.71 8.51 831.66 C-5.36 831.27 -15.43 834.38 -25.63 843.89 C-33.84 852.45 -37.79 862.32 -37.62 874.07 C-37.15 880.31 -34.34 884.85 -29.79 888.95 C-18.63 897.72 -8.41 898.85 5.29 898.64 C7.06 898.64 8.83 898.64 10.6 898.64 C14.28 898.64 17.96 898.61 21.65 898.57 C26.34 898.51 31.03 898.5 35.73 898.51 C39.37 898.51 43.02 898.49 46.66 898.47 C48.39 898.46 50.12 898.45 51.85 898.45 C64.55 898.43 75.35 897.43 85.52 888.94 C94.07 880.19 96.75 870.81 97.28 858.99 C97.32 858.02 97.37 857.06 97.42 856.07 C97.58 852.91 97.73 849.74 97.88 846.58 C97.99 844.37 98.1 842.15 98.21 839.94 C98.43 835.32 98.66 830.69 98.88 826.06 C99.16 820.14 99.45 814.23 99.74 808.31 C100.02 802.65 100.29 796.99 100.57 791.33 C100.62 790.25 100.67 789.18 100.72 788.08 C100.87 785.02 101.02 781.96 101.16 778.91 C101.21 778.02 101.25 777.13 101.29 776.21 C101.55 770.74 101.63 765.29 101.59 759.82 C97.65 757.84 93.71 755.87 89.73 753.96 C81.19 749.83 73.32 745.35 65.59 739.82 C64.36 738.96 64.36 738.96 63.11 738.09 C57.73 734.23 57.73 734.23 56.59 730.82 C57.2 731.25 57.81 731.69 58.43 732.14 C70.69 740.47 84 744.63 98.59 746.82 C99.61 746.97 99.61 746.97 100.64 747.13 C132.73 751.79 172.72 751.68 201.53 734.63 C202.54 734.03 203.55 733.43 204.59 732.82 C200.93 736.48 196.63 739.59 192.59 742.82 C191.82 743.44 191.06 744.05 190.27 744.69 C183.03 750.15 174.85 753.49 166.54 756.97 C164.52 757.85 162.56 758.83 160.59 759.82 C160.49 772.64 160.76 785.39 161.39 798.19 C161.48 799.97 161.56 801.75 161.65 803.54 C161.83 807.23 162.01 810.93 162.19 814.63 C162.42 819.33 162.64 824.04 162.86 828.74 C163.03 832.41 163.21 836.07 163.39 839.74 C163.48 841.47 163.56 843.21 163.64 844.94 C164.32 868.18 164.32 868.18 175.59 887.82 C183.94 894.21 192.29 898.27 202.83 898.25 C203.62 898.26 204.4 898.27 205.2 898.28 C207.76 898.31 210.33 898.32 212.89 898.32 C214.68 898.33 216.48 898.34 218.28 898.35 C222.04 898.37 225.81 898.38 229.57 898.37 C234.36 898.37 239.15 898.41 243.94 898.47 C247.66 898.5 251.37 898.51 255.08 898.5 C256.85 898.51 258.61 898.52 260.38 898.54 C273.09 898.7 282.93 897.33 292.65 888.26 C297.93 882.42 299.99 877.18 299.86 869.37 C298.66 858.15 291.65 846.96 283.55 839.32 C271.67 830.25 258.13 830.92 243.96 832.51 C229.21 834.76 216.14 840.29 204.59 849.82 C207.81 839.45 216.54 831.7 225.66 826.31 C235.68 821.19 245.69 818.16 256.87 817.27 C258.48 817.14 258.48 817.14 260.12 817.01 C260.94 816.95 261.75 816.88 262.59 816.82 C262.58 815.18 262.58 815.18 262.57 813.51 C262.51 803.2 262.46 792.89 262.43 782.58 C262.42 777.27 262.4 771.97 262.36 766.67 C262.33 761.55 262.31 756.43 262.3 751.31 C262.3 749.36 262.29 747.41 262.27 745.46 C262.12 726.8 262.12 726.8 265.24 718.94 C265.84 716.69 265.84 716.69 264.3 714.45 C263.1 713 261.86 711.59 260.58 710.22 C252.58 700.58 251.6 687.78 252.59 675.82 C255.06 661.8 261.22 647.74 272.59 638.82 C273.26 638.5 273.94 638.19 274.63 637.87 C276.99 636.71 278.73 635.69 280.59 633.82 C281.71 629.99 281.48 626.33 281.28 622.38 C281.25 621.24 281.21 620.1 281.18 618.93 C279.9 583.22 275.58 542.09 256.59 510.82 C256.92 510.49 257.25 510.16 257.59 509.82 C268.5 524.07 276.69 540.26 283.75 556.69 C285.99 562.69 285.99 562.69 290.53 566.71 C291.61 566.89 291.61 566.89 292.71 567.07 C293.42 567.2 294.12 567.33 294.85 567.46 C295.75 567.58 296.66 567.7 297.59 567.82 C298.83 567.99 300.07 568.17 301.35 568.35 C337.14 572.2 377.44 568.01 408.59 548.82 C409.89 548.03 409.89 548.03 411.23 547.23 C422.4 540.35 434.98 531.68 442.59 520.82 C438.35 518.74 434.56 518.58 429.94 518.65 C428.42 518.64 426.91 518.64 425.39 518.63 C423.04 518.62 420.68 518.63 418.32 518.66 C404.29 518.83 394.29 516.12 383.46 506.57 C379.16 501.9 377.2 496.89 375.59 490.82 C375.42 490.22 375.25 489.62 375.07 489 C374.51 486.44 374.38 484.01 374.27 481.4 C374.23 480.37 374.19 479.35 374.15 478.29 C374.11 477.23 374.07 476.16 374.03 475.07 C373.98 473.99 373.94 472.91 373.9 471.8 C373.79 469.14 373.69 466.48 373.59 463.82 C372.93 463.49 372.27 463.16 371.59 462.82 C369.81 463.5 368.07 464.26 366.34 465.07 C336.45 477.97 298.3 471.96 268.75 460.74 C261.19 458.54 254.49 460.65 247.09 462.51 C211.02 471.16 173.9 475.06 136.84 475.01 C136 475 135.15 475 134.29 475 C94.46 474.91 54.59 470.57 16.03 460.39 C15.25 460.19 14.46 459.98 13.65 459.77 C12.96 459.59 12.27 459.4 11.56 459.21 C6.18 458.13 2.68 459.98 -1.97 462.33 Z "
        fill="#370274" transform="translate(476.410400390625,196.181884765625)" />
    <path
        d="M0 0 C3.55 2.79 6.75 5.87 10 9 C23.43 21 37.44 29.64 55.88 29.44 C57.32 29.43 57.32 29.43 58.8 29.41 C72.46 29.09 82.38 23.72 93.6 16.27 C113.5 3.11 136.85 -5.5 160.94 -1.32 C175.68 2.58 184.91 9.97 192.75 22.94 C193.86 24.95 194.94 26.97 196 29 C196.44 29.82 196.87 30.65 197.32 31.5 C204.9 47.68 198.35 70.62 192.83 86.62 C180.45 120.69 151.59 144.61 119.55 159.66 C37.24 196.7 -68.74 195.91 -176.28 165.86 C-195.78 158.26 -215.24 149.04 -231 135 C-232.22 133.96 -232.22 133.96 -233.46 132.9 C-257.27 112.17 -270.23 85.45 -272.83 53.98 C-273.14 48.59 -273.1 43.21 -273.06 37.81 C-273.06 36.67 -273.05 35.53 -273.05 34.35 C-273.04 31.57 -273.02 28.78 -273 26 C-272.34 26.66 -271.68 27.32 -271 28 C-270.72 27.37 -270.44 26.74 -270.15 26.09 C-263.49 11.87 -253.99 5.85 -239.76 -0.02 C-221.11 -6.64 -200.35 -0.31 -183.25 7.69 C-176.14 11.13 -169.59 15.05 -163.13 19.58 C-149.27 29.22 -135.41 30.08 -119 29 C-114.88 28.25 -111.66 27.01 -108 25 C-107.06 24.54 -106.12 24.07 -105.14 23.6 C-98.42 20.04 -93.17 15.61 -87.71 10.42 C-63.08 -13 -29.38 -18.12 0 0 Z "
        fill="#F9F2E9" transform="translate(648,471)" />
    <path
        d="M0 0 C9.26 0.54 18.48 1.28 27.71 2.25 C42.71 3.76 57.74 4.2 72.81 4.19 C73.65 4.19 74.49 4.19 75.35 4.19 C86.49 4.18 97.57 3.91 108.69 3.12 C109.86 3.05 111.02 2.97 112.23 2.88 C117.48 2.49 122.62 1.94 127.8 1 C140.79 -1.26 140.79 -1.26 145.5 2.02 C148.86 4.95 151.41 8.4 154 12 C154.96 13.23 155.92 14.46 156.89 15.69 C171.09 34.05 180.72 53.74 187 76 C187.21 76.72 187.41 77.43 187.63 78.17 C190.01 86.52 191.47 94.52 191.82 103.21 C191.89 106.08 191.89 106.08 193 109 C194.69 143.17 188.4 179.8 165 206 C157.81 213.79 150.26 221.66 141 227 C140.01 227 139.02 227 138 227 C138 226.67 138 226.34 138 226 C137 226.8 137 226.8 135.98 227.61 C121.3 238.86 101.72 243.1 83.38 243.2 C82.57 243.21 81.75 243.21 80.91 243.22 C79.19 243.23 77.47 243.24 75.74 243.24 C73.17 243.25 70.59 243.28 68.02 243.31 C35.41 243.52 5.73 232.68 -18 210 C-18.69 209.39 -19.37 208.78 -20.08 208.14 C-39.72 189.98 -48.9 159.55 -50.17 133.55 C-51.64 86.73 -38.73 41.85 -6.25 7.13 C-4 5 -4 5 -2 5 C-1.34 3.35 -0.68 1.7 0 0 Z "
        fill="#F9F2E9" transform="translate(539,667)" />
    <path
        d="M0 0 C32.3 10.68 66.34 13.43 98.25 0.25 C99.87 1.87 99.4 3.68 99.43 5.92 C99.44 26.36 99.44 26.36 109.34 43.54 C112.5 46.37 115.6 49.07 119.25 51.25 C120.06 51.76 120.06 51.76 120.89 52.29 C128.68 56.53 137.38 55.85 146 55.88 C148.38 55.89 150.77 55.91 153.15 55.95 C154.63 55.97 156.1 55.98 157.58 55.97 C161.57 56.01 164.65 56.49 168.25 58.25 C145.72 86.12 111 100.41 76.25 105.25 C74.96 105.44 73.66 105.62 72.33 105.81 C65.74 106.51 59.11 106.44 52.5 106.44 C50.22 106.44 47.94 106.46 45.66 106.47 C20.38 106.58 20.38 106.58 13.93 102.94 C12.04 101.03 11.22 99.5 10.24 97 C9.9 96.15 9.56 95.31 9.21 94.43 C8.85 93.53 8.49 92.62 8.12 91.69 C1.94 76.65 -6.06 57.94 -17.75 46.25 C-16.53 50.2 -15.07 53.65 -13.06 57.25 C-1.48 80.16 2.49 107 5.25 132.25 C5.38 133.38 5.52 134.51 5.65 135.67 C5.97 138.86 6.1 142.04 6.25 145.25 C6.32 146.28 6.39 147.32 6.46 148.39 C6.67 151.8 6.81 155.21 6.94 158.62 C7.06 160.32 7.06 160.32 7.18 162.05 C7.26 165.39 7.2 168.04 6.25 171.25 C3.28 174.34 -0.02 176.2 -3.75 178.25 C-14.11 186.3 -19.47 200.67 -21.75 213.25 C-23.23 226.33 -20.83 238.6 -12.75 249.25 C-11.92 250.01 -11.1 250.78 -10.25 251.56 C-8.75 254.25 -8.75 254.25 -9.25 256.2 C-9.54 257 -9.84 257.81 -10.14 258.63 C-12.72 267.51 -12.12 276.64 -12.04 285.79 C-12.04 287.77 -12.03 289.75 -12.03 291.73 C-12.02 296.91 -11.99 302.09 -11.96 307.26 C-11.93 312.56 -11.91 317.85 -11.9 323.15 C-11.86 333.52 -11.81 343.88 -11.75 354.25 C-13.45 354.43 -13.45 354.43 -15.19 354.61 C-16.71 354.78 -18.23 354.94 -19.75 355.11 C-20.5 355.19 -21.24 355.26 -22.01 355.34 C-39.26 357.27 -54.05 365.11 -65.45 378.21 C-67.95 381.51 -69.08 384.22 -69.75 388.25 C-69.33 387.83 -68.92 387.4 -68.49 386.96 C-54 373.17 -35.01 369.73 -15.75 369.25 C-14.29 369.16 -14.29 369.16 -12.8 369.06 C-4 368.63 2.65 371.59 9.38 377.19 C17.99 385.43 25.09 396.72 25.62 408.88 C25.31 416.05 22.08 421.14 17.36 426.32 C10.53 432.58 3.72 435.39 -5.43 435.44 C-6.21 435.45 -6.99 435.46 -7.79 435.47 C-10.38 435.49 -12.97 435.51 -15.56 435.52 C-16.45 435.53 -17.33 435.53 -18.25 435.54 C-22.95 435.57 -27.65 435.59 -32.35 435.6 C-36.23 435.61 -40.1 435.64 -43.98 435.68 C-48.67 435.73 -53.36 435.76 -58.05 435.76 C-59.83 435.77 -61.61 435.79 -63.39 435.81 C-77.05 435.98 -87.9 434.29 -98.78 425.2 C-108.76 415.32 -109.59 403.29 -110.23 390 C-110.27 389.23 -110.31 388.46 -110.35 387.67 C-110.48 385.15 -110.6 382.62 -110.72 380.1 C-110.81 378.32 -110.9 376.54 -110.99 374.76 C-111.17 371.03 -111.35 367.31 -111.53 363.58 C-111.76 358.86 -112 354.14 -112.24 349.42 C-112.42 345.74 -112.6 342.06 -112.78 338.38 C-112.87 336.64 -112.95 334.91 -113.04 333.17 C-113.64 321.19 -113.85 309.25 -113.75 297.25 C-112.67 296.77 -112.67 296.77 -111.57 296.28 C-108.62 294.95 -105.68 293.6 -102.75 292.25 C-101.79 291.82 -100.83 291.38 -99.84 290.93 C-89.11 285.86 -79.77 278.9 -70.75 271.25 C-71.3 271.53 -71.86 271.81 -72.43 272.11 C-108.47 289.85 -157.9 292.65 -195.96 279.71 C-203.71 276.84 -211.15 273.24 -217.75 268.25 C-218.62 267.96 -219.48 267.67 -220.38 267.38 C-222.75 266.25 -222.75 266.25 -223.88 263.94 C-224.16 263.05 -224.45 262.16 -224.75 261.25 C-225.29 260.38 -225.82 259.52 -226.38 258.62 C-227.75 256.25 -227.75 256.25 -227.75 253.25 C-227.03 253.54 -226.31 253.83 -225.57 254.14 C-194.49 266.42 -160.46 271.73 -127.75 262.25 C-126.63 261.94 -126.63 261.94 -125.49 261.63 C-113.04 258.17 -101.97 252.58 -90.75 246.25 C-91.08 245.59 -91.41 244.93 -91.75 244.25 C-90.96 243.89 -90.18 243.52 -89.37 243.15 C-83.03 240.11 -77.84 237.11 -72.75 232.25 C-72.09 232.58 -71.43 232.91 -70.75 233.25 C-70.75 233.58 -70.75 233.91 -70.75 234.25 C-43.41 214.43 -28.47 190.74 -22.04 157.57 C-18.39 135.73 -18.39 135.73 -20.75 114.25 C-20.88 112.19 -20.98 110.13 -21.06 108.06 C-23.59 71.21 -43.31 34.4 -69.75 9.25 C-66.47 7.37 -63.48 6.72 -59.75 6.14 C-58.56 5.94 -57.38 5.75 -56.15 5.55 C-54.25 5.25 -54.25 5.25 -52.31 4.94 C-42.22 3.28 -32.26 1.39 -22.36 -1.23 C-14.08 -3.36 -7.99 -2.79 0 0 Z "
        fill="#C07751" transform="translate(750.75,658.75)" />
    <path
        d="M0 0 C0.68 0.19 1.37 0.39 2.08 0.59 C27.04 7.71 48.35 20.96 61.32 43.99 C72.36 64.69 74.65 84.75 68.04 107.27 C64.94 116.37 59.9 123.54 54 131 C53.34 131.85 52.68 132.69 52 133.57 C46.81 139.79 40.57 144.33 34 149 C33.36 149.5 32.72 149.99 32.06 150.5 C15.81 163 -7.55 167.57 -27.61 167.34 C-29.76 167.31 -31.92 167.32 -34.07 167.32 C-40.89 167.31 -47.43 167.06 -54.08 165.43 C-57.96 164.56 -60.66 165.18 -64.01 167.23 C-65.55 168.28 -67.08 169.33 -68.59 170.4 C-70.92 171.95 -73.23 173.17 -75.75 174.38 C-81.05 176.92 -85.96 179.99 -90.92 183.13 C-99.06 188.07 -99.06 188.07 -103.25 187.75 C-106 187 -106 187 -108 186 C-107.65 177.9 -105.56 170.82 -102.94 163.19 C-102.19 161 -101.45 158.8 -100.71 156.61 C-100.39 155.65 -100.06 154.69 -99.72 153.7 C-98.98 150.93 -98.64 148.85 -99 146 C-100.23 144.22 -100.23 144.22 -102.04 142.8 C-102.68 142.24 -103.32 141.67 -103.98 141.09 C-105.01 140.21 -105.01 140.21 -106.06 139.31 C-111.98 134.02 -117.03 128.96 -121 122 C-121.53 121.08 -122.06 120.16 -122.6 119.21 C-132.28 101.14 -134.94 80.73 -129 61 C-120.56 36.22 -102.96 18.77 -79.88 7.25 C-55.85 -3.84 -25.53 -7.63 0 0 Z "
        fill="#F9F2E9" transform="translate(1059,309)" />
    <path
        d="M0 0 C6.72 0.81 10.57 5.18 15 10 C18.05 14.15 20.59 18.45 23 23 C23.53 23.99 24.06 24.99 24.61 26.01 C32.74 43.1 26.73 65.51 20.83 82.62 C8.45 116.69 -20.41 140.61 -52.45 155.66 C-134.76 192.7 -240.74 191.91 -348.28 161.86 C-367.78 154.26 -387.24 145.04 -403 131 C-404.22 129.96 -404.22 129.96 -405.46 128.9 C-427.6 109.62 -439.02 86.73 -444 58 C-444.13 57.27 -444.26 56.53 -444.39 55.77 C-444.69 53.86 -444.85 51.93 -445 50 C-444.34 49.34 -443.68 48.68 -443 48 C-442.45 48.75 -441.91 49.5 -441.35 50.27 C-436.86 56.36 -432.25 62.13 -427.12 67.69 C-425.17 69.81 -423.3 71.99 -421.44 74.19 C-417.93 78.2 -414.07 81.58 -410 85 C-409.2 85.72 -408.39 86.43 -407.56 87.17 C-369.3 120.48 -319.99 138.08 -270 143 C-269.29 143.07 -268.58 143.14 -267.84 143.21 C-197.41 149.76 -120.57 130.95 -64.56 86.88 C-63.03 85.59 -61.51 84.3 -60 83 C-58.85 82.03 -57.7 81.06 -56.55 80.1 C-46.63 71.74 -38.08 63.18 -30 53 C-29.18 51.99 -28.36 50.97 -27.52 49.93 C-17.42 37.28 -10.19 23.91 -4 9 C-3.19 7.16 -2.38 5.33 -1.56 3.5 C-1.05 2.35 -0.53 1.19 0 0 Z "
        fill="#B5ABCB" transform="translate(820,475)" />
    <path
        d="M0 0 C0.71 -0 1.42 -0.01 2.15 -0.02 C4.5 -0.03 6.84 -0.04 9.19 -0.04 C10.83 -0.05 12.46 -0.05 14.1 -0.06 C17.53 -0.07 20.96 -0.08 24.4 -0.08 C28.78 -0.08 33.16 -0.11 37.55 -0.14 C40.93 -0.16 44.31 -0.16 47.69 -0.16 C49.3 -0.17 50.92 -0.17 52.53 -0.19 C70.32 -0.32 70.32 -0.32 77.6 5.11 C84.99 12.62 89.1 20.1 89.13 30.74 C89.14 31.88 89.15 33.02 89.15 34.19 C89.15 36.05 89.15 36.05 89.15 37.96 C89.16 39.93 89.16 39.93 89.17 41.93 C89.18 45.53 89.19 49.13 89.19 52.73 C89.2 54.98 89.2 57.24 89.21 59.49 C89.22 66.54 89.23 73.59 89.23 80.64 C89.24 88.77 89.25 96.89 89.28 105.02 C89.3 111.31 89.32 117.6 89.32 123.89 C89.32 127.64 89.32 131.39 89.34 135.15 C89.36 138.68 89.36 142.21 89.35 145.75 C89.35 147.65 89.36 149.55 89.38 151.46 C89.33 161.66 87.87 168.95 80.75 176.44 C71.45 185.55 62.18 185.63 49.81 185.59 C48.23 185.6 46.66 185.6 45.08 185.61 C41.78 185.62 38.48 185.62 35.18 185.61 C30.97 185.6 26.77 185.62 22.56 185.65 C19.3 185.66 16.05 185.66 12.79 185.66 C11.24 185.66 9.69 185.66 8.14 185.68 C-3.25 185.75 -12.79 184.88 -21.44 176.79 C-22.65 175.69 -22.65 175.69 -23.88 174.58 C-28.7 169.1 -30.12 163.62 -30.15 156.52 C-30.16 155.36 -30.17 154.21 -30.18 153.03 C-30.18 151.14 -30.18 151.14 -30.18 149.21 C-30.19 147.87 -30.2 146.53 -30.2 145.19 C-30.22 140.78 -30.23 136.38 -30.24 131.97 C-30.25 130.45 -30.25 128.93 -30.26 127.41 C-30.28 120.26 -30.29 113.12 -30.3 105.97 C-30.31 97.74 -30.33 89.51 -30.38 81.28 C-30.41 74.91 -30.42 68.53 -30.42 62.16 C-30.43 58.36 -30.43 54.56 -30.46 50.76 C-30.48 47.18 -30.49 43.6 -30.48 40.02 C-30.48 38.09 -30.5 36.17 -30.52 34.24 C-30.46 24.46 -28.78 15.03 -21.85 7.66 C-15.38 2.41 -8.21 0.04 0 0 Z "
        fill="#3DD2FD" transform="translate(890.006591796875,520.8388671875)" />
    <path
        d="M0 0 C1.87 0.08 1.87 0.08 3.79 0.15 C5.74 0.25 5.74 0.25 7.74 0.36 C9.06 0.41 10.37 0.47 11.72 0.52 C21.46 0.95 21.46 0.95 22.62 2.11 C22.81 3.67 22.94 5.24 23.05 6.81 C23.15 8.42 23.15 8.42 23.26 10.07 C23.34 11.3 23.41 12.53 23.49 13.8 C23.57 15.1 23.66 16.4 23.74 17.74 C24.84 35.63 25.64 53.54 26.47 71.45 C26.56 73.47 26.66 75.48 26.75 77.5 C26.87 79.99 26.98 82.48 27.1 84.98 C27.59 101.43 27.59 101.43 31.24 117.36 C31.64 118.51 31.64 118.51 32.05 119.69 C36.67 132.32 45.23 139.19 57.18 144.92 C67.77 149.76 78.64 149.45 90.01 149.48 C91.81 149.49 93.61 149.5 95.4 149.51 C99.16 149.52 102.91 149.53 106.67 149.53 C111.46 149.54 116.24 149.58 121.02 149.62 C124.73 149.65 128.44 149.66 132.15 149.66 C133.91 149.67 135.68 149.68 137.44 149.7 C147.9 149.81 156.19 149.24 165.62 144.11 C166.73 143.52 167.84 142.94 168.98 142.34 C176.34 137.64 181.42 132.8 185.62 125.11 C186.28 125.44 186.94 125.77 187.62 126.11 C188.99 126.14 190.36 126.11 191.73 126.06 C199.17 125.99 206.5 126.96 213.87 127.86 C214.62 127.95 215.36 128.04 216.14 128.13 C262.11 133.66 262.11 133.66 269.99 140.61 C271.62 143.11 271.62 143.11 271.44 145.14 C270.39 147.66 269.6 148.04 267.12 149.11 C226.8 165.14 175.47 163.15 132.62 165.11 C131.51 165.16 130.41 165.21 129.28 165.27 C121.72 165.62 114.17 165.88 106.62 166.11 C105.21 166.15 103.8 166.2 102.39 166.25 C51.72 167.86 0.81 167.98 -49.85 166.2 C-52.49 166.11 -55.13 166.02 -57.76 165.93 C-96.28 164.62 -134.88 162.45 -173.13 157.61 C-173.9 157.51 -174.67 157.42 -175.47 157.32 C-211.36 152.79 -211.36 152.79 -219.38 144.11 C-210.1 132.59 -188.71 131.52 -174.91 129.8 C-172.62 129.66 -170.64 129.66 -168.38 130.11 C-166.01 132.67 -166.01 132.67 -164.87 134.33 C-158.73 141.7 -147.3 146.14 -138.38 149.11 C-135.85 149.22 -133.33 149.27 -130.8 149.27 C-130.03 149.28 -129.25 149.28 -128.46 149.29 C-125.9 149.3 -123.35 149.31 -120.79 149.31 C-119.01 149.32 -117.23 149.32 -115.44 149.33 C-111.7 149.34 -107.95 149.35 -104.21 149.35 C-99.44 149.36 -94.67 149.38 -89.9 149.41 C-86.21 149.43 -82.52 149.43 -78.83 149.43 C-77.07 149.44 -75.32 149.44 -73.56 149.46 C-57.06 149.57 -41.34 147.76 -28.57 136.11 C-18.61 125.39 -14.11 110.83 -13.63 96.47 C-13.59 95.46 -13.54 94.45 -13.5 93.41 C-13.4 91.24 -13.31 89.06 -13.23 86.88 C-13.1 83.44 -12.95 80 -12.8 76.56 C-12.43 68.02 -12.08 59.48 -11.73 50.94 C-11.44 43.71 -11.13 36.47 -10.81 29.23 C-10.67 25.84 -10.54 22.44 -10.41 19.05 C-10.32 16.98 -10.23 14.91 -10.13 12.84 C-10.1 11.89 -10.07 10.95 -10.04 9.97 C-10 9.11 -9.96 8.24 -9.91 7.35 C-9.88 6.6 -9.85 5.85 -9.82 5.07 C-8.61 -0.35 -4.84 -0.22 0 0 Z "
        fill="#B5ABCB" transform="translate(600.3828125,957.890625)" />
    <path
        d="M0 0 C0.74 0.25 1.47 0.5 2.23 0.76 C3.01 1.03 3.78 1.3 4.58 1.58 C36.88 12.26 70.91 15.01 102.83 1.83 C104.45 3.45 103.98 5.26 104 7.5 C104.02 27.93 104.02 27.93 113.91 45.12 C117.08 47.94 120.18 50.65 123.83 52.83 C124.37 53.17 124.91 53.51 125.47 53.87 C133.26 58.11 141.96 57.43 150.58 57.45 C152.96 57.47 155.35 57.49 157.73 57.52 C159.21 57.54 160.68 57.55 162.16 57.55 C166.15 57.59 169.23 58.07 172.83 59.83 C150.3 87.69 115.58 101.98 80.83 106.83 C79.53 107.01 78.24 107.2 76.91 107.39 C70.32 108.09 63.69 108.01 57.07 108.01 C54.79 108.02 52.52 108.03 50.24 108.05 C24.96 108.15 24.96 108.15 18.51 104.52 C16.61 102.61 15.8 101.07 14.82 98.57 C14.48 97.73 14.14 96.88 13.79 96.01 C13.43 95.11 13.07 94.2 12.7 93.27 C6.46 78.09 -1.66 59.34 -13.43 47.57 C-14 47 -14.58 46.42 -15.17 45.83 C-15.17 45.17 -15.17 44.51 -15.17 43.83 C-16.16 43.5 -17.15 43.17 -18.17 42.83 C-19.71 41.23 -19.71 41.23 -21.23 39.33 C-23.35 36.65 -23.35 36.65 -26.17 34.83 C-25.7 36.31 -25.7 36.31 -25.22 37.82 C-21.02 51.6 -19.05 65.57 -17.17 79.83 C-16.94 81.53 -16.71 83.23 -16.48 84.94 C-15.06 95.72 -15.06 95.72 -15.17 100.83 C-16.16 100.5 -17.15 100.17 -18.17 99.83 C-18.86 98.09 -18.86 98.09 -19.31 95.8 C-19.49 94.96 -19.67 94.11 -19.86 93.24 C-20.04 92.32 -20.23 91.4 -20.42 90.45 C-26.69 62.21 -39.81 37.15 -59.89 16.25 C-61.84 14.18 -63.5 12.11 -65.17 9.83 C-64.14 9.64 -63.11 9.45 -62.05 9.25 C-58.13 8.52 -54.21 7.79 -50.3 7.06 C-48.62 6.74 -46.94 6.43 -45.26 6.12 C-35.72 4.35 -26.23 2.51 -16.84 0.06 C-11.1 -1.38 -5.65 -2 0 0 Z "
        fill="#FBAD47" transform="translate(746.171875,657.171875)" />
    <path
        d="M0 0 C1.21 0.03 1.21 0.03 2.44 0.06 C2.42 0.82 2.4 1.58 2.38 2.36 C2.22 15.97 3.15 29.54 3.94 43.12 C5.72 73.97 5.72 73.97 5.44 85.06 C16.95 85.37 27.79 85.65 38.95 82.52 C39.77 82.37 40.59 82.22 41.44 82.06 C42.43 83.05 42.43 83.05 43.44 84.06 C43.11 84.85 42.78 85.63 42.44 86.44 C41.32 88.91 41.32 88.91 41.44 91.06 C42.74 89.79 42.74 89.79 44.06 88.5 C58.28 76.42 76.43 73.52 94.44 73.06 C95.41 73 96.38 72.94 97.38 72.87 C106.19 72.44 112.83 75.4 119.56 81 C128.18 89.24 135.28 100.53 135.81 112.69 C135.5 119.86 132.27 124.95 127.54 130.13 C120.71 136.39 113.91 139.2 104.76 139.26 C103.98 139.26 103.2 139.27 102.39 139.28 C99.81 139.3 97.22 139.32 94.63 139.34 C93.74 139.34 92.86 139.35 91.94 139.35 C87.24 139.38 82.54 139.4 77.84 139.41 C73.96 139.43 70.09 139.45 66.21 139.49 C61.52 139.54 56.83 139.57 52.14 139.58 C50.36 139.58 48.58 139.6 46.8 139.62 C33.14 139.8 22.29 138.1 11.41 129.02 C1.43 119.13 0.59 107.1 -0.04 93.81 C-0.08 93.04 -0.12 92.27 -0.16 91.48 C-0.29 88.96 -0.41 86.44 -0.54 83.91 C-0.62 82.13 -0.71 80.35 -0.8 78.57 C-0.98 74.85 -1.17 71.12 -1.35 67.39 C-1.58 62.67 -1.81 57.95 -2.05 53.23 C-2.23 49.55 -2.41 45.87 -2.59 42.19 C-2.68 40.46 -2.76 38.72 -2.85 36.98 C-3.32 27.79 -3.64 18.61 -3.68 9.41 C-3.68 8.58 -3.69 7.76 -3.69 6.91 C-3.68 0.09 -3.68 0.09 0 0 Z "
        fill="#F9F2E9" transform="translate(640.5625,954.9375)" />
    <path
        d="M0 0 C6.45 1.92 10.15 5.98 13.39 11.7 C18.11 21.2 18.25 31.73 18.73 42.11 C18.81 43.73 18.9 45.35 18.99 46.97 C19.21 51.2 19.42 55.43 19.62 59.66 C19.84 63.99 20.06 68.32 20.29 72.65 C20.73 81.12 21.15 89.59 21.56 98.06 C20.55 98.46 19.54 98.85 18.49 99.25 C17.14 99.79 15.79 100.32 14.44 100.85 C13.77 101.11 13.11 101.36 12.42 101.63 C2.07 105.72 -7.19 111.69 -13.44 121.06 C-16.44 121.62 -16.44 121.62 -18.36 121.81 C-20.53 122.07 -22.52 122.59 -24.62 123.12 C-30.05 124.26 -35.42 124.25 -40.94 124.25 C-41.83 124.25 -42.73 124.25 -43.66 124.25 C-50.17 124.2 -50.17 124.2 -52.44 123.06 C-52.96 114.18 -53.49 105.29 -54 96.41 C-54.24 92.28 -54.48 88.15 -54.73 84.03 C-54.97 80.03 -55.2 76.04 -55.43 72.04 C-55.52 70.53 -55.61 69.02 -55.7 67.51 C-56.21 58.9 -56.52 50.36 -56.37 41.73 C-56.25 39.09 -56.25 39.09 -57.44 37.06 C-56.69 36.77 -55.94 36.48 -55.16 36.18 C-42.46 31.09 -31.27 23.99 -20.88 15.06 C-18.44 13.06 -18.44 13.06 -16.44 13.06 C-16.29 12.44 -16.15 11.83 -16 11.19 C-15.44 9.06 -15.44 9.06 -14.44 7.06 C-12.44 6.06 -10.44 5.06 -8.44 4.06 C-7.63 3.32 -6.83 2.58 -6 1.81 C-3.44 0.06 -3.44 0.06 0 0 Z "
        fill="#FBAD47" transform="translate(698.4375,916.9375)" />
    <path
        d="M0 0 C1.36 1.11 2.68 2.27 3.99 3.44 C3.63 2.89 3.27 2.33 2.9 1.76 C2.2 0.68 2.2 0.68 1.49 -0.43 C0.8 -1.51 0.8 -1.51 0.09 -2.61 C-1.01 -4.56 -1.01 -4.56 -1.01 -6.56 C2.99 -6.13 6.57 -5.68 10.44 -4.52 C16.33 -3.01 22.32 -3.39 28.37 -3.5 C30.71 -3.53 33.05 -3.56 35.39 -3.59 C36.42 -3.6 37.45 -3.62 38.51 -3.64 C40.99 -3.56 40.99 -3.56 42.99 -2.56 C42.94 1.21 42.84 4.98 42.74 8.75 C42.73 9.81 42.71 10.86 42.7 11.94 C42.35 23.45 39.2 33.14 30.99 41.44 C20.02 50.61 8.51 50.94 -5.11 50.98 C-6.88 50.99 -8.65 51.01 -10.42 51.02 C-14.12 51.04 -17.82 51.05 -21.52 51.05 C-26.23 51.06 -30.94 51.11 -35.64 51.17 C-39.3 51.21 -42.95 51.22 -46.6 51.22 C-48.34 51.23 -50.07 51.24 -51.8 51.27 C-65.76 51.49 -76.11 49.12 -86.76 39.38 C-91.72 33.83 -92.48 28.66 -92.32 21.38 C-91.05 9.46 -84.26 -0.29 -75.3 -7.84 C-53.87 -23.96 -19.48 -15.13 0 0 Z "
        fill="#FAF3EA" transform="translate(531.0078125,1043.55859375)" />
    <path
        d="M0 0 C0.68 0.19 1.37 0.39 2.08 0.59 C27.04 7.71 48.35 20.96 61.32 43.99 C72.36 64.69 74.65 84.75 68.04 107.27 C64.94 116.37 59.9 123.54 54 131 C53.34 131.85 52.68 132.69 52 133.57 C46.81 139.79 40.57 144.33 34 149 C33.36 149.5 32.72 149.99 32.06 150.5 C15.81 163 -7.55 167.57 -27.61 167.34 C-29.76 167.31 -31.92 167.32 -34.07 167.32 C-40.89 167.31 -47.43 167.06 -54.08 165.43 C-57.96 164.56 -60.66 165.18 -64.01 167.23 C-65.55 168.28 -67.08 169.33 -68.59 170.4 C-70.92 171.95 -73.23 173.17 -75.75 174.38 C-81.05 176.92 -85.96 179.99 -90.92 183.13 C-99.06 188.07 -99.06 188.07 -103.25 187.75 C-106 187 -106 187 -108 186 C-107.65 177.9 -105.56 170.82 -102.94 163.19 C-102.19 161 -101.45 158.8 -100.71 156.61 C-100.39 155.65 -100.06 154.69 -99.72 153.7 C-98.98 150.93 -98.64 148.85 -99 146 C-100.23 144.22 -100.23 144.22 -102.04 142.8 C-102.68 142.24 -103.32 141.67 -103.98 141.09 C-105.01 140.21 -105.01 140.21 -106.06 139.31 C-111.98 134.02 -117.03 128.96 -121 122 C-121.53 121.08 -122.06 120.16 -122.6 119.21 C-132.28 101.14 -134.94 80.73 -129 61 C-120.56 36.22 -102.96 18.77 -79.88 7.25 C-55.85 -3.84 -25.53 -7.63 0 0 Z M-94 30 C-95.13 30.87 -95.13 30.87 -96.29 31.76 C-106.25 39.94 -112.9 50.86 -117 63 C-117.48 64.41 -117.48 64.41 -117.96 65.86 C-122.62 81.74 -120.22 97.58 -113.25 112.44 C-107.59 122.39 -98.07 132.47 -88 138 C-85.41 141.45 -85.78 144.81 -86 149 C-86.69 151.97 -87.61 154.85 -88.56 157.75 C-90.64 163.3 -90.64 163.3 -90 169 C-88.94 168.38 -88.94 168.38 -87.86 167.75 C-84.66 165.87 -81.45 164 -78.25 162.12 C-77.14 161.47 -76.03 160.82 -74.88 160.15 C-73.81 159.53 -72.74 158.9 -71.64 158.26 C-70.16 157.39 -70.16 157.39 -68.66 156.51 C-61.95 152.69 -61.95 152.69 -57.75 153.25 C-56.87 153.36 -56 153.46 -55.09 153.57 C-52.82 153.89 -50.55 154.2 -48.28 154.52 C-19.47 158.46 7.92 154.06 31.56 136.31 C46.17 124.91 57.42 109.68 60 91 C61.1 70.01 55.3 52.44 41.41 36.53 C23.46 17.03 -1.07 9.46 -26.88 7.82 C-51 7.21 -75.06 15.05 -94 30 Z "
        fill="#370274" transform="translate(1059,309)" />
    <path
        d="M0 0 C11.91 9.82 20.64 24.41 22.94 39.62 C24.08 55.29 21.58 69.99 11.25 82.31 C2.04 92.08 -9.49 98.13 -23 98.83 C-33.8 99.01 -45.35 99.02 -55.06 93.62 C-55.64 86.26 -55.23 78.96 -51.06 72.62 C-48.85 71.6 -46.98 71.38 -44.56 71.12 C-37.84 69.79 -32.4 64.11 -27.81 59.31 C-24.79 56.17 -22.5 54.35 -18.06 53.62 C-14.73 54.74 -13.43 56.1 -11.06 58.62 C-11.52 53.76 -12.71 51.18 -16.06 47.62 C-20.48 45.42 -26.59 45.93 -31.25 47.24 C-35.38 49.13 -38.3 51.73 -41.56 54.88 C-44.38 57.46 -46.31 59.22 -50.19 59.5 C-55.19 58.37 -57.9 56.64 -61.06 52.62 C-65.76 44.63 -65.1 33.89 -63.37 25.12 C-60.33 14.35 -55.47 5.04 -46.06 -1.38 C-31.87 -9.04 -13.68 -8.93 0 0 Z "
        fill="#FBAD47" transform="translate(806.0625,844.375)" />
    <path
        d="M0 0 C0.71 -0 1.42 -0.01 2.15 -0.02 C4.5 -0.03 6.84 -0.04 9.19 -0.04 C10.83 -0.05 12.46 -0.05 14.1 -0.06 C17.53 -0.07 20.96 -0.08 24.4 -0.08 C28.78 -0.08 33.16 -0.11 37.55 -0.14 C40.93 -0.16 44.31 -0.16 47.69 -0.16 C49.3 -0.17 50.92 -0.17 52.53 -0.19 C70.32 -0.32 70.32 -0.32 77.6 5.11 C84.99 12.62 89.1 20.1 89.13 30.74 C89.14 31.88 89.15 33.02 89.15 34.19 C89.15 36.05 89.15 36.05 89.15 37.96 C89.16 39.93 89.16 39.93 89.17 41.93 C89.18 45.53 89.19 49.13 89.19 52.73 C89.2 54.98 89.2 57.24 89.21 59.49 C89.22 66.54 89.23 73.59 89.23 80.64 C89.24 88.77 89.25 96.89 89.28 105.02 C89.3 111.31 89.32 117.6 89.32 123.89 C89.32 127.64 89.32 131.39 89.34 135.15 C89.36 138.68 89.36 142.21 89.35 145.75 C89.35 147.65 89.36 149.55 89.38 151.46 C89.33 161.66 87.87 168.95 80.75 176.44 C71.45 185.55 62.18 185.63 49.81 185.59 C48.23 185.6 46.66 185.6 45.08 185.61 C41.78 185.62 38.48 185.62 35.18 185.61 C30.97 185.6 26.77 185.62 22.56 185.65 C19.3 185.66 16.05 185.66 12.79 185.66 C11.24 185.66 9.69 185.66 8.14 185.68 C-3.25 185.75 -12.79 184.88 -21.44 176.79 C-22.65 175.69 -22.65 175.69 -23.88 174.58 C-28.7 169.1 -30.12 163.62 -30.15 156.52 C-30.16 155.36 -30.17 154.21 -30.18 153.03 C-30.18 151.14 -30.18 151.14 -30.18 149.21 C-30.19 147.87 -30.2 146.53 -30.2 145.19 C-30.22 140.78 -30.23 136.38 -30.24 131.97 C-30.25 130.45 -30.25 128.93 -30.26 127.41 C-30.28 120.26 -30.29 113.12 -30.3 105.97 C-30.31 97.74 -30.33 89.51 -30.38 81.28 C-30.41 74.91 -30.42 68.53 -30.42 62.16 C-30.43 58.36 -30.43 54.56 -30.46 50.76 C-30.48 47.18 -30.49 43.6 -30.48 40.02 C-30.48 38.09 -30.5 36.17 -30.52 34.24 C-30.46 24.46 -28.78 15.03 -21.85 7.66 C-15.38 2.41 -8.21 0.04 0 0 Z M-17.38 16.6 C-20.07 20.83 -21.26 24.33 -21.27 29.35 C-21.27 30.37 -21.28 31.39 -21.29 32.45 C-21.29 33.56 -21.28 34.67 -21.28 35.82 C-21.29 37 -21.29 38.18 -21.3 39.39 C-21.31 42.62 -21.31 45.85 -21.31 49.07 C-21.31 51.77 -21.31 54.47 -21.32 57.17 C-21.33 63.54 -21.33 69.91 -21.32 76.28 C-21.32 82.84 -21.33 89.4 -21.35 95.96 C-21.37 101.6 -21.37 107.24 -21.37 112.88 C-21.37 116.25 -21.37 119.61 -21.38 122.98 C-21.4 126.74 -21.39 130.49 -21.38 134.25 C-21.39 135.35 -21.39 136.46 -21.4 137.6 C-21.36 143.54 -21.08 148 -18.01 153.16 C-10.17 160.53 0.16 160.03 10.19 159.92 C11.84 159.92 13.49 159.93 15.13 159.93 C18.56 159.94 22 159.92 25.43 159.89 C29.81 159.85 34.19 159.86 38.57 159.88 C41.96 159.9 45.36 159.89 48.75 159.87 C50.36 159.86 51.98 159.86 53.59 159.87 C65.79 160.12 65.79 160.12 75.99 154.16 C81.33 147.94 81.72 142.19 81.66 134.23 C81.67 133.05 81.68 131.88 81.69 130.67 C81.71 126.81 81.71 122.94 81.69 119.08 C81.7 117.06 81.7 115.05 81.71 113.03 C81.73 106.7 81.72 100.37 81.7 94.04 C81.68 87.53 81.7 81.03 81.73 74.52 C81.76 68.91 81.77 63.3 81.76 57.69 C81.75 54.35 81.76 51.01 81.78 47.67 C81.8 43.94 81.78 40.21 81.75 36.48 C81.77 35.39 81.78 34.3 81.8 33.18 C81.68 25.4 79.87 19.35 74.99 13.16 C70.75 9.81 65.67 9.78 60.44 9.76 C59.72 9.75 59 9.74 58.26 9.74 C55.9 9.72 53.54 9.72 51.18 9.73 C49.53 9.72 47.88 9.72 46.23 9.71 C42.77 9.7 39.32 9.71 35.86 9.72 C31.45 9.73 27.04 9.71 22.62 9.68 C19.21 9.66 15.8 9.66 12.39 9.66 C10.77 9.66 9.14 9.66 7.51 9.65 C-6.14 9.41 -6.14 9.41 -17.38 16.6 Z "
        fill="#BAEFFC" transform="translate(890.006591796875,520.8388671875)" />
    <path
        d="M0 0 C9.79 6.69 16.3 18.05 19.25 29.44 C21.45 42.84 18.86 55.2 11.43 66.6 C5.59 74.59 -2.1 80.11 -11.87 82.46 C-20.61 83.8 -29.15 81.81 -36.78 77.27 C-39.06 75.56 -41.13 73.78 -43.19 71.81 C-43.82 71.23 -44.46 70.64 -45.12 70.04 C-52.96 62.07 -56.24 50.69 -56.44 39.69 C-56.28 26.59 -51.5 14.42 -42.56 4.86 C-30.13 -5.84 -14.27 -8.19 0 0 Z "
        fill="#370274" transform="translate(542.1875,409.1875)" />
    <path
        d="M0 0 C10.5 8.67 17.79 19.26 19.22 33.09 C20.17 48.39 16.39 58.77 7.75 71.25 C0.83 78.17 -8.13 82.33 -17.81 83.44 C-27.02 83.01 -35.24 79.06 -42 73 C-42.69 72.43 -43.38 71.85 -44.09 71.26 C-50.97 65.09 -55.29 56.29 -56.19 47.02 C-56.78 31.87 -55 19.77 -45.29 7.41 C-33.46 -5.03 -15.09 -9.04 0 0 Z "
        fill="#370274" transform="translate(717,409)" />
    <path
        d="M0 0 C4.27 1.41 7.71 3.68 11.43 6.14 C35.77 22.2 63.87 28.15 92.76 22.55 C108.02 19.17 121.74 13.17 135 5 C134.67 4.01 134.34 3.02 134 2 C134.99 2.32 135.97 2.65 136.99 2.98 C141.03 4.13 144.98 4.31 149.16 4.34 C150.3 4.37 150.3 4.37 151.45 4.39 C154.65 4.45 157.85 4.49 161.05 4.53 C163.4 4.57 165.75 4.61 168.1 4.66 C169.18 4.66 169.18 4.66 170.28 4.67 C174.28 4.75 177.39 5.24 181 7 C158.47 34.87 123.75 49.16 89 54 C87.71 54.19 86.41 54.37 85.08 54.56 C78.49 55.26 71.86 55.19 65.25 55.19 C62.97 55.19 60.69 55.21 58.41 55.22 C33.13 55.33 33.13 55.33 26.68 51.69 C24.79 49.78 23.97 48.25 22.99 45.75 C22.65 44.9 22.31 44.05 21.96 43.18 C21.6 42.28 21.24 41.37 20.88 40.44 C15.42 27.15 8.51 14.86 0.96 2.65 C0 1 0 1 0 0 Z "
        fill="#C17751" transform="translate(738,710)" />
    <path
        d="M0 0 C1.25 0.05 2.5 0.1 3.79 0.15 C5.74 0.25 5.74 0.25 7.74 0.36 C9.06 0.41 10.37 0.47 11.72 0.52 C21.46 0.95 21.46 0.95 22.62 2.11 C22.81 3.67 22.94 5.24 23.05 6.81 C23.15 8.42 23.15 8.42 23.26 10.07 C23.34 11.3 23.41 12.53 23.49 13.8 C23.62 15.75 23.62 15.75 23.74 17.74 C24.84 35.63 25.64 53.54 26.47 71.45 C26.56 73.47 26.66 75.48 26.75 77.5 C26.87 79.99 26.98 82.48 27.1 84.98 C27.37 90.69 27.67 96.41 28.06 102.12 C28.17 103.64 28.17 103.64 28.27 105.2 C28.72 109 29.74 112.48 31 116.09 C31.62 118.11 31.62 118.11 31.62 121.11 C15.45 121.11 -0.72 121.11 -17.38 121.11 C-16.38 114.11 -16.38 114.11 -15.36 110.82 C-14.12 106.12 -13.92 101.65 -13.74 96.82 C-13.68 95.3 -13.68 95.3 -13.61 93.75 C-13.52 91.57 -13.42 89.38 -13.34 87.2 C-13.2 83.75 -13.05 80.29 -12.89 76.84 C-12.46 67.02 -12.04 57.2 -11.64 47.38 C-11.39 41.37 -11.12 35.36 -10.85 29.35 C-10.75 27.06 -10.65 24.77 -10.56 22.47 C-10.44 19.28 -10.3 16.08 -10.15 12.89 C-10.12 11.94 -10.08 10.98 -10.05 10 C-10.01 9.14 -9.96 8.27 -9.92 7.37 C-9.89 6.62 -9.86 5.86 -9.82 5.08 C-8.61 -0.35 -4.85 -0.22 0 0 Z "
        fill="#B9EEFC" transform="translate(600.3828125,957.890625)" />
    <path
        d="M0 0 C13.72 0.58 24.55 14.09 33.3 23.55 C37.58 28.32 41.42 33.38 45.19 38.56 C45.75 39.34 46.32 40.11 46.9 40.91 C47.42 41.64 47.94 42.37 48.48 43.13 C48.94 43.78 49.41 44.43 49.88 45.1 C51.04 47.07 51.57 48.77 52 51 C50.92 51.74 49.85 52.48 48.74 53.24 C39.38 59.72 30.53 66.47 22 74 C21.22 74.67 20.45 75.33 19.64 76.02 C7.42 86.68 -4.64 98.27 -14.5 111.16 C-16 113 -16 113 -18 114 C-19.87 108.44 -20.31 103.53 -20.3 97.68 C-20.31 96.8 -20.31 95.91 -20.32 95 C-20.33 92.15 -20.32 89.29 -20.31 86.44 C-20.31 85.47 -20.31 84.49 -20.31 83.49 C-20.26 69.49 -20.03 55.73 -17 42 C-16.82 41.17 -16.64 40.34 -16.45 39.49 C-13.17 25.17 -9.18 11.72 0 0 Z "
        fill="#FAF3EA" transform="translate(438,237)" />
    <path
        d="M0 0 C17.5 22.1 19.41 55.66 19.21 82.55 C19.19 85.09 19.19 87.64 19.19 90.19 C19.17 98.19 19.02 106.05 18 114 C13.94 109.99 10.02 105.86 6.12 101.69 C5.5 101.02 4.88 100.35 4.24 99.67 C1.15 96.34 -1.91 93 -4.88 89.56 C-10.71 82.8 -17.18 76.76 -24 71 C-24.79 70.32 -25.58 69.65 -26.39 68.95 C-32.53 63.78 -38.93 59.18 -45.61 54.72 C-46.59 54.06 -46.59 54.06 -47.59 53.38 C-48.18 52.99 -48.76 52.61 -49.37 52.21 C-51.08 50.94 -52.53 49.55 -54 48 C-14.2 -6.11 -14.2 -6.11 0 0 Z "
        fill="#FAF3EA" transform="translate(786,238)" />
    <path
        d="M0 0 C7.47 4.88 12.05 12.26 15.5 20.31 C15.8 21 16.09 21.69 16.4 22.4 C25.98 45.46 28.2 70.5 28.19 95.25 C28.19 96.28 28.19 96.28 28.19 97.33 C28.18 106.92 27.88 116.44 27.12 126 C27.05 127 26.97 128 26.89 129.03 C26.4 134.53 25.71 139.74 24 145 C21 147 21 147 18.62 146.88 C12.72 144.91 9.35 140.16 5.75 135.38 C1.71 130.11 -2.48 125.09 -6.98 120.21 C-8.74 118.28 -10.44 116.31 -12.12 114.31 C-21.15 103.99 -31.07 94.29 -42 86 C-42.84 85.36 -42.84 85.36 -43.7 84.71 C-52.53 78.02 -61.61 71.86 -71 66 C-69.37 47.95 -45.91 24.49 -32.49 12.96 C-24.33 6.54 -10.83 -4.03 0 0 Z M-30 27 C-30.73 27.66 -31.46 28.32 -32.22 29 C-41.75 38.07 -49.4 49.32 -57 60 C-54.39 62.86 -51.39 64.85 -48.19 67 C-26.65 81.74 -5.7 99.97 9.57 121.27 C11.18 123.22 12.96 124.52 15 126 C16.2 116.47 16.24 106.97 16.25 97.38 C16.25 96.51 16.25 95.64 16.25 94.75 C16.22 67.3 14.46 33.22 -4 11 C-14.15 11 -22.95 20.58 -30 27 Z "
        fill="#370274" transform="translate(789,226)" />
    <path
        d="M0 0 C5.12 3.24 9.36 7.24 13.64 11.49 C15.13 12.97 16.65 14.42 18.18 15.87 C30.02 27.23 39.25 40.25 48.14 53.98 C48.8 54.97 49.46 55.96 50.14 56.98 C50.47 59.5 50.47 59.5 50.14 61.98 C48.81 63.5 48.81 63.5 46.89 64.8 C46.16 65.3 45.42 65.81 44.66 66.34 C43.83 66.88 43 67.42 42.14 67.98 C29.53 76.24 17.88 85.11 6.89 95.42 C4.41 97.73 1.89 99.96 -0.67 102.17 C-4.07 105.18 -7.06 108.34 -9.99 111.8 C-12.18 114.36 -14.45 116.82 -16.73 119.3 C-20.14 123.03 -23.42 126.82 -26.61 130.73 C-27.34 131.63 -28.08 132.53 -28.83 133.45 C-30.1 135.03 -31.34 136.64 -32.54 138.27 C-34.05 140.23 -34.05 140.23 -36.86 142.98 C-40.19 143.11 -41.83 142.77 -44.48 140.75 C-46.34 138.37 -46.47 136.57 -46.81 133.58 C-46.93 132.46 -47.06 131.34 -47.19 130.19 C-47.31 128.97 -47.43 127.74 -47.55 126.48 C-47.67 125.21 -47.8 123.93 -47.93 122.61 C-51.54 83.12 -50.94 37.42 -28.86 2.98 C-19.68 -7.1 -11.17 -5.9 0 0 Z M-18.54 8.5 C-32.91 28.64 -37 56.91 -37.03 81.12 C-37.03 82.04 -37.03 82.97 -37.04 83.92 C-37.04 85.86 -37.04 87.79 -37.04 89.73 C-37.05 92.67 -37.07 95.62 -37.08 98.57 C-37.09 100.46 -37.09 102.35 -37.09 104.25 C-37.1 105.12 -37.1 105.99 -37.11 106.89 C-37.09 111.98 -36.5 116.16 -34.86 120.98 C-31.47 117.64 -28.19 114.21 -24.95 110.72 C-0.64 84.51 -0.64 84.51 13.14 73.98 C14.22 73.14 15.3 72.29 16.38 71.44 C22.46 66.68 28.62 62.13 35.14 57.98 C33.63 53.59 31.28 50.03 28.58 46.3 C28.14 45.68 27.69 45.07 27.24 44.43 C23.83 39.77 20.16 35.44 16.22 31.21 C14.31 29.17 12.5 27.06 10.7 24.92 C4.06 17.36 -3.19 10.36 -12.86 6.98 C-16.74 6.54 -16.74 6.54 -18.54 8.5 Z "
        fill="#370274" transform="translate(454.859375,230.015625)" />
    <path
        d="M0 0 C3 1 3 1 5 4 C5.18 6.99 5.18 6.99 5.09 10.67 C5.07 12.04 5.04 13.41 5.02 14.78 C5 15.86 5 15.86 4.98 16.96 C4.52 41.85 5.03 72.37 20.38 93.38 C22.18 97.41 22.5 100.85 22.62 105.19 C22.66 105.89 22.7 106.59 22.73 107.32 C22.73 109.36 22.73 109.36 22 113 C19.27 115.36 19.27 115.36 16 117 C15.21 117.4 14.43 117.8 13.62 118.21 C4.62 120.91 -5.12 120 -13.5 116 C-24.71 109.58 -32.26 101.61 -37.44 89.69 C-39.23 77.94 -38.34 67.42 -31.75 57.31 C-31.17 56.55 -30.6 55.79 -30 55 C-20.67 56.19 -13.28 60.73 -7.44 68.03 C-5.53 70.64 -3.71 73.26 -2 76 C-1.4 64.81 -5.86 57.39 -13 49 C-14.49 47.76 -16.01 46.55 -17.56 45.38 C-20.86 42.63 -20.86 42.63 -21.45 40.03 C-21.29 37.51 -20.76 35.41 -20 33 C-19.52 31.48 -19.52 31.48 -19.04 29.92 C-14.91 18.21 -8.51 8.95 0 0 Z "
        fill="#F9F2E9" transform="translate(442,810)" />
    <path
        d="M0 0 C4.03 3.37 6.72 6.93 7.44 12.19 C6.84 17.38 4.96 19.7 1 23 C-3.71 26.02 -8.47 28.88 -14 30 C-14.41 36.4 -13.75 42.72 -9.49 47.8 C-2.29 54.32 6.13 56.38 15.64 56.21 C23.75 55.5 29.58 51.99 35 46 C37.33 42.19 38.68 38.26 40 34 C42.64 36.64 42.3 37.94 42.31 41.62 C42.15 49.71 40.31 55.35 34.8 61.33 C26.3 69.2 18.03 71.52 6.56 71.31 C-4.83 70.32 -14.21 64.09 -22 56 C-22.45 56.51 -22.9 57.02 -23.36 57.54 C-30.15 64.8 -38.2 70.51 -48.32 71.24 C-60.98 71.49 -70.32 68.49 -80 60 C-84.51 54.47 -86.13 49.53 -86.25 42.44 C-86.28 41.49 -86.3 40.54 -86.33 39.56 C-85.95 36.63 -85.29 35.79 -83 34 C-82.84 34.65 -82.68 35.3 -82.52 35.98 C-80.43 43.82 -77.66 48.63 -70.5 52.81 C-62.88 56.96 -54.17 57.02 -45.88 54.94 C-39.91 52.93 -35.05 49.51 -31.84 44.01 C-30.05 39.73 -29.27 35.63 -30 31 C-31.98 29.19 -31.98 29.19 -35 28 C-48.53 20.94 -48.53 20.94 -51 16 C-51.38 11 -51.27 7.89 -48 4 C-35.11 -6.38 -14.61 -7.32 0 0 Z "
        fill="#370274" transform="translate(632,475)" />
    <path
        d="M0 0 C0.72 -0.01 1.44 -0.01 2.18 -0.02 C4.56 -0.03 6.93 -0.03 9.31 -0.03 C10.96 -0.03 12.62 -0.03 14.28 -0.04 C17.75 -0.05 21.22 -0.05 24.69 -0.04 C29.13 -0.04 33.57 -0.05 38.01 -0.08 C41.43 -0.09 44.85 -0.09 48.28 -0.09 C49.91 -0.09 51.55 -0.09 53.18 -0.1 C55.47 -0.12 57.77 -0.11 60.06 -0.1 C61.36 -0.1 62.66 -0.1 64 -0.1 C68.1 0.32 71.4 0.69 74.66 3.27 C80.4 10.56 81.53 17.56 81.42 26.6 C81.43 27.77 81.44 28.95 81.45 30.17 C81.47 34.03 81.45 37.89 81.42 41.76 C81.42 44.46 81.43 47.16 81.43 49.86 C81.44 55.5 81.42 61.14 81.39 66.79 C81.35 73.3 81.35 79.8 81.37 86.31 C81.39 92.6 81.39 98.89 81.37 105.18 C81.36 107.84 81.36 110.51 81.37 113.17 C81.38 116.9 81.35 120.62 81.32 124.34 C81.33 125.98 81.33 125.98 81.35 127.66 C81.23 135.34 79.56 140.48 73.99 145.89 C67.7 151.16 58.59 150.02 50.86 149.97 C49.21 149.98 47.57 149.99 45.93 150 C42.49 150.01 39.05 150 35.62 149.98 C31.24 149.96 26.86 149.99 22.48 150.03 C19.09 150.05 15.7 150.05 12.3 150.04 C10.69 150.04 9.08 150.04 7.47 150.06 C-1.85 150.15 -11.13 150.06 -18.34 143.27 C-21.96 137.19 -21.77 131.36 -21.75 124.41 C-21.75 123.23 -21.76 122.05 -21.77 120.84 C-21.78 117.62 -21.78 114.41 -21.78 111.19 C-21.77 108.5 -21.78 105.81 -21.79 103.12 C-21.8 96.77 -21.8 90.41 -21.79 84.06 C-21.78 77.52 -21.79 70.99 -21.82 64.45 C-21.84 58.82 -21.85 53.19 -21.84 47.56 C-21.84 44.21 -21.84 40.86 -21.86 37.5 C-21.87 33.76 -21.86 30.01 -21.84 26.27 C-21.85 25.17 -21.86 24.07 -21.87 22.93 C-21.81 16.54 -21.08 11.59 -17.34 6.27 C-12.06 1.13 -7.25 0.03 0 0 Z M-11.34 11.27 C-16.51 19.03 -14.51 31.97 -14.47 41.02 C-14.46 41.76 -14.46 42.49 -14.46 43.24 C-14.44 46.65 -14.42 50.06 -14.39 53.47 C-14.35 59.63 -14.34 65.79 -14.35 71.94 C-14.36 79.22 -14.35 86.5 -14.31 93.78 C-14.29 97.91 -14.28 102.03 -14.3 106.16 C-14.31 110.11 -14.3 114.05 -14.26 118 C-14.25 119.48 -14.25 120.96 -14.27 122.43 C-14.59 130.36 -14.59 130.36 -11.79 137.5 C-8.02 140.81 -4.87 142.4 0.14 142.4 C1.08 142.41 2.01 142.41 2.97 142.41 C4.5 142.41 4.5 142.41 6.05 142.41 C7.11 142.41 8.17 142.41 9.26 142.41 C11.51 142.41 13.76 142.41 16.02 142.41 C19.39 142.4 22.76 142.4 26.14 142.41 C32.65 142.42 39.15 142.37 45.66 142.27 C46.69 142.26 47.72 142.25 48.77 142.23 C51.68 142.19 54.58 142.11 57.48 142.02 C58.34 142 59.2 141.99 60.08 141.98 C63.97 141.82 66.2 141.54 69.61 139.54 C72.95 135.85 73.91 132.3 73.93 127.39 C73.93 126.44 73.94 125.48 73.95 124.5 C73.95 123.46 73.95 122.42 73.95 121.35 C73.96 120.25 73.96 119.15 73.97 118.02 C73.99 114.38 73.99 110.74 73.99 107.09 C74 104.56 74.01 102.03 74.01 99.5 C74.03 94.19 74.03 88.88 74.03 83.58 C74.03 77.45 74.05 71.33 74.08 65.2 C74.11 59.3 74.12 53.4 74.12 47.49 C74.12 44.99 74.13 42.48 74.14 39.97 C74.16 36.47 74.16 32.96 74.14 29.45 C74.16 28.42 74.17 27.39 74.18 26.32 C74.12 20.08 73.34 16.37 69.66 11.27 C69.22 10.65 68.78 10.02 68.33 9.37 C65.63 7.6 63.1 7.84 59.91 7.78 C59.23 7.76 58.55 7.75 57.85 7.73 C55.59 7.68 53.34 7.65 51.08 7.62 C49.51 7.6 47.94 7.57 46.37 7.54 C43.07 7.48 39.78 7.44 36.48 7.4 C32.27 7.35 28.06 7.27 23.85 7.18 C20.6 7.12 17.36 7.07 14.11 7.03 C12.56 7.01 11.01 6.98 9.46 6.95 C-1.69 6.45 -1.69 6.45 -11.34 11.27 Z "
        fill="#370274" transform="translate(890.34130859375,530.725341796875)" />
    <path
        d="M0 0 C3.95 -0.02 7.9 -0.04 11.85 -0.05 C13.86 -0.06 15.87 -0.08 17.87 -0.09 C19.76 -0.09 19.76 -0.09 21.68 -0.1 C22.84 -0.1 24 -0.11 25.2 -0.11 C28 0 28 0 30 1 C29.95 4.77 29.85 8.54 29.75 12.31 C29.74 13.37 29.72 14.42 29.71 15.5 C29.35 27.01 26.21 36.7 18 45 C7.03 54.16 -4.48 54.5 -18.11 54.54 C-19.88 54.55 -21.64 54.56 -23.41 54.58 C-27.12 54.6 -30.82 54.61 -34.52 54.61 C-39.22 54.62 -43.93 54.67 -48.63 54.73 C-52.29 54.77 -55.94 54.78 -59.6 54.78 C-61.33 54.79 -63.06 54.8 -64.79 54.83 C-78.81 55.05 -89.06 52.62 -99.81 42.94 C-102.68 39.8 -104 37.39 -104 33 C-103.67 33.66 -103.34 34.32 -103 35 C-100.98 35.52 -98.94 36.02 -96.89 36.43 C-94.83 36.84 -92.78 37.3 -90.73 37.79 C-63.5 44.07 -37.41 37.59 -13.48 23.98 C-11.3 22.74 -9.09 21.56 -6.84 20.46 C-3.89 18.84 -2.02 17.7 0 15 C0.83 9.86 0.6 5.15 0 0 Z "
        fill="#B5ABCB" transform="translate(544,1040)" />
    <path
        d="M0 0 C9.95 4.04 16.38 17.8 21 27 C26.67 40.46 27.08 57.3 22 71 C12.99 92.62 -3.74 107.71 -25.14 116.91 C-44.04 124.11 -63.15 125.32 -83.02 122.54 C-83.97 122.41 -83.97 122.41 -84.94 122.29 C-86.42 122.08 -87.91 121.83 -89.38 121.54 C-96.41 120.41 -100.37 122.03 -106.31 125.75 C-107.47 126.43 -107.47 126.43 -108.65 127.13 C-111.77 128.99 -114.84 130.9 -117.92 132.83 C-120 134 -120 134 -122 134 C-121.38 129.94 -119.28 127.24 -116.94 123.94 C-116.54 123.37 -116.14 122.81 -115.73 122.23 C-114.49 120.48 -113.25 118.74 -112 117 C-111.61 116.45 -111.21 115.9 -110.81 115.34 C-104.37 106.37 -104.37 106.37 -103 105 C-101.18 105.09 -101.18 105.09 -98.88 105.38 C-98.13 105.47 -97.38 105.56 -96.62 105.65 C-94.76 105.9 -92.91 106.19 -91.07 106.52 C-75.76 108.71 -57.83 108.58 -43 104 C-42.37 103.81 -41.74 103.62 -41.09 103.43 C-22.26 97.67 -5.7 85.91 4.5 68.84 C12.11 54.42 14.89 38.68 11.13 22.54 C8.87 15.35 5.64 9.17 1.36 2.98 C0 1 0 1 0 0 Z "
        fill="#B4AACA" transform="translate(1094,341)" />
    <path
        d="M0 0 C2.8 1.33 5.33 2.83 7.87 4.61 C15.69 9.99 23.24 15.01 32.01 18.72 C35.75 20.32 39.37 22.15 43 24 C42.5 41.36 41.82 58.71 41 76.06 C40.96 76.96 40.92 77.85 40.87 78.78 C40.75 81.38 40.63 83.99 40.5 86.6 C40.46 87.35 40.43 88.11 40.39 88.89 C40.06 95.61 39.52 102.28 39 109 C29.76 109 20.52 109 11 109 C10.21 105.06 9.89 102.09 9.92 98.15 C9.92 96.99 9.93 95.84 9.94 94.65 C9.95 93.4 9.96 92.15 9.97 90.87 C9.98 88.88 9.99 86.9 10 84.91 C10.02 80.04 10.06 75.17 10.1 70.3 C10.83 39.73 10.83 39.73 3.88 10.25 C3.5 9.24 3.13 8.24 2.75 7.2 C1.85 4.79 0.94 2.39 0 0 Z "
        fill="#C07651" transform="translate(535,932)" />
    <path
        d="M0 0 C0.99 0.5 0.99 0.5 2 1 C2.21 9.76 2.37 18.52 2.47 27.29 C2.51 31.36 2.58 35.43 2.68 39.49 C2.78 43.42 2.83 47.35 2.85 51.28 C2.87 52.78 2.9 54.28 2.95 55.77 C3.32 67.49 3.32 67.49 0.05 71.23 C-2.25 72.8 -4.43 73.94 -7 75 C-8.6 75.8 -8.6 75.8 -10.23 76.61 C-33.96 85.76 -61.97 83.15 -86 76 C-83.26 73.02 -80.87 71.23 -77.18 69.59 C-76.24 69.16 -75.3 68.74 -74.33 68.3 C-73.34 67.85 -72.34 67.4 -71.31 66.94 C-56.47 60.04 -43.36 51.76 -31 41 C-30.25 40.39 -29.49 39.78 -28.72 39.16 C-16.28 28.82 -7.03 14.41 0 0 Z "
        fill="#B9EEFC" transform="translate(848,573)" />
    <path
        d="M0 0 C9.26 0.54 18.48 1.28 27.71 2.25 C42.71 3.76 57.74 4.2 72.81 4.19 C73.65 4.19 74.49 4.19 75.35 4.19 C86.49 4.18 97.57 3.91 108.69 3.12 C109.86 3.05 111.02 2.97 112.23 2.88 C117.48 2.49 122.62 1.94 127.8 1 C139.88 -1.09 139.88 -1.09 143.93 1 C149.99 5.47 153.95 11.77 158 18 C112.21 39.15 54.75 26.15 9.79 10.06 C5.78 8.54 1.88 6.82 -2 5 C-1.34 3.35 -0.68 1.7 0 0 Z "
        fill="#B5ABCB" transform="translate(539,667)" />
    <path
        d="M0 0 C5.72 3.69 10.99 7.73 16.19 12.12 C17.14 12.89 18.09 13.66 19.07 14.45 C27.4 21.27 35.02 28.77 42.62 36.38 C43.15 36.89 43.67 37.41 44.2 37.95 C50.08 43.83 55.82 49.77 61.19 56.12 C61.71 56.73 62.23 57.34 62.76 57.97 C64.79 60.34 66.81 62.72 68.82 65.1 C70.26 66.79 71.72 68.46 73.19 70.12 C74.01 71.07 74.83 72.01 75.68 72.99 C78.78 75.63 80.1 76.14 84.19 76.12 C87.73 75.29 91.13 74.11 94.56 72.94 C131.14 61.33 170.31 61.56 206.66 73.93 C213.36 76.28 213.36 76.28 220.19 75.12 C222.15 73.26 223.68 71.56 225.31 69.44 C226.15 68.39 226.98 67.35 227.82 66.3 C228.31 65.68 228.81 65.06 229.32 64.43 C237.49 54.37 246.11 44.86 255.29 35.71 C257.06 33.94 258.83 32.15 260.59 30.36 C274.13 16.74 289.36 4.37 306.56 -4.31 C307.54 -4.81 307.54 -4.81 308.54 -5.31 C315.36 -8.63 322.43 -11.34 330.05 -9.4 C339.18 -5.77 345.03 4.21 350.19 12.12 C349.86 12.78 349.53 13.44 349.19 14.12 C348.68 13.52 348.17 12.92 347.65 12.3 C341.81 5.52 336.46 0.26 327.3 -1.17 C307.82 -2.5 286.5 14.62 272.55 26.52 C270.17 28.61 267.85 30.75 265.55 32.91 C263.55 34.78 261.53 36.55 259.44 38.31 C249.96 46.58 241.12 55.63 233.31 65.48 C230.92 68.45 228.47 71.34 225.94 74.19 C225.15 75.09 224.36 75.98 223.55 76.91 C218.65 81.51 213.7 81.6 207.25 81.52 C201.36 81.11 195.69 79.49 190 78.05 C159.06 70.23 127.69 72.57 97.09 80.68 C91.32 82.03 84.6 81.82 78.94 80.19 C72.55 75.39 67.3 69.35 62.1 63.32 C55.34 55.55 48.27 48.11 41 40.81 C40.35 40.16 39.69 39.5 39.02 38.82 C22.7 22.55 -1.64 0.21 -25.88 -1.56 C-34.58 -1.02 -41.88 3.64 -47.56 10 C-48.67 11.36 -49.76 12.73 -50.81 14.12 C-50.81 10.49 -49.73 9.15 -47.81 6.12 C-47.51 5.49 -47.21 4.86 -46.9 4.21 C-43.58 -2.15 -38.83 -6.41 -32.32 -9.28 C-20.7 -12.04 -9.71 -5.81 0 0 Z "
        fill="#FAF3EA" transform="translate(462.8125,203.875)" />
    <path
        d="M0 0 C12.33 4.29 19.65 14.2 25.47 25.42 C28.78 32.6 29.68 39.35 27.41 46.98 C22.39 55.88 15.25 62.16 5.47 65.42 C2.86 65.52 0.29 65.57 -2.32 65.57 C-3.11 65.57 -3.9 65.57 -4.72 65.58 C-7.34 65.59 -9.96 65.59 -12.59 65.59 C-14.41 65.59 -16.23 65.6 -18.05 65.6 C-21.87 65.61 -25.7 65.61 -29.52 65.61 C-34.41 65.61 -39.31 65.62 -44.2 65.64 C-47.97 65.65 -51.73 65.65 -55.49 65.65 C-57.3 65.65 -59.1 65.66 -60.91 65.66 C-63.43 65.67 -65.96 65.67 -68.48 65.66 C-69.23 65.67 -69.97 65.68 -70.74 65.68 C-74.78 65.66 -77.89 65.22 -81.53 63.42 C-78.85 60.74 -77.48 61.16 -73.74 61.11 C-72.56 61.09 -71.38 61.07 -70.16 61.04 C-68.9 61.02 -67.64 61 -66.34 60.98 C-46.45 60.46 -27.63 58.12 -12.75 43.7 C-6.58 37.07 -4.93 30.42 -5.18 21.45 C-6.1 13.53 -10.12 6.9 -14.53 0.42 C-10.15 -1.77 -4.66 -1.06 0 0 Z "
        fill="#B5ABCB" transform="translate(747.53125,1028.578125)" />
    <path
        d="M0 0 C9.22 8.1 14.34 18.99 16 31 C16.87 46.78 14.77 61.2 4.31 73.69 C-4.9 83.45 -16.43 89.51 -29.93 90.2 C-40.74 90.39 -52.29 90.4 -62 85 C-62.39 78.02 -61.63 72.48 -59 66 C-58.33 66.43 -57.66 66.87 -56.97 67.31 C-47.08 73.05 -37.69 73.73 -26.67 71.25 C-15.66 67.33 -7.03 59.16 -1.88 48.81 C1.66 41.26 3.38 34.28 3.31 25.94 C3.31 25.21 3.31 24.49 3.31 23.74 C3.2 17.26 2.1 11.18 0.66 4.88 C0 2 0 2 0 0 Z "
        fill="#C17751" transform="translate(813,853)" />
    <path
        d="M0 0 C0.5 0.99 0.5 0.99 1 2 C0.28 3.91 0.28 3.91 -0.92 6.29 C-1.59 7.64 -1.59 7.64 -2.26 9.03 C-2.75 10.03 -3.24 11.03 -3.75 12.06 C-17.72 41.64 -27.08 74.56 -31 107 C-31.09 107.7 -31.19 108.4 -31.28 109.12 C-32.19 116.79 -32.22 124.49 -32.24 132.2 C-32.25 134.53 -32.28 136.87 -32.31 139.2 C-32.45 158.21 -28.95 175.29 -19.61 192.02 C-14.61 201.25 -13.83 209.86 -13.88 220.19 C-13.87 221.65 -13.87 221.65 -13.86 223.15 C-13.87 228.89 -14.18 234.53 -14.75 240.24 C-15.19 245.11 -15.38 249.99 -15.56 254.88 C-15.63 256.6 -15.63 256.6 -15.69 258.36 C-16.3 277.56 -16.08 296.79 -16 316 C-18.33 316.04 -20.67 316.04 -23 316 C-24 315 -24 315 -24.09 312.62 C-24.06 311.03 -24.06 311.03 -24.04 309.41 C-24.02 308.21 -24 307.01 -23.99 305.77 C-23.96 304.45 -23.94 303.14 -23.91 301.78 C-23.89 300.41 -23.87 299.03 -23.85 297.66 C-23.8 294.76 -23.75 291.86 -23.7 288.95 C-23.64 285.31 -23.58 281.67 -23.52 278.03 C-23.27 261.53 -22.84 245.05 -22.11 228.57 C-21.25 213.31 -21.25 213.31 -26 199 C-45.64 161.19 -42.84 110.04 -31 70 C-30.7 68.98 -30.4 67.96 -30.09 66.9 C-24.85 49.54 -17.95 33.27 -10 17 C-9.18 15.28 -8.35 13.57 -7.53 11.85 C-6.81 10.38 -6.09 8.91 -5.38 7.44 C-5.06 6.78 -4.74 6.13 -4.41 5.45 C-2.24 1.12 -2.24 1.12 0 0 Z "
        fill="#FAF2E8" transform="translate(499,697)" />
    <path
        d="M0 0 C10.61 0.45 18.95 8.66 26 16 C26.5 17.49 26.5 17.49 27 19 C26.35 18.77 25.7 18.54 25.02 18.31 C18.09 15.93 18.09 15.93 11 17 C1.58 25.19 -0.89 41.08 -2 53 C-3.03 72.7 -3.03 72.7 -1.32 92.25 C-1 96 -1 96 -2.02 98.13 C-2.54 98.65 -3.07 99.17 -3.61 99.7 C-4.46 100.58 -4.46 100.58 -5.34 101.48 C-6.25 102.36 -6.25 102.36 -7.19 103.25 C-7.78 103.85 -8.37 104.45 -8.98 105.06 C-10.63 106.73 -12.31 108.37 -14 110 C-15.33 111.33 -16.67 112.67 -18 114 C-19.87 108.44 -20.31 103.53 -20.3 97.68 C-20.31 96.8 -20.31 95.91 -20.32 95 C-20.33 92.15 -20.32 89.29 -20.31 86.44 C-20.31 85.47 -20.31 84.49 -20.31 83.49 C-20.26 69.49 -20.03 55.73 -17 42 C-16.82 41.17 -16.64 40.34 -16.45 39.49 C-13.17 25.17 -9.18 11.72 0 0 Z "
        fill="#B4AACA" transform="translate(438,237)" />
    <path
        d="M0 0 C1.31 0.26 1.31 0.26 2.65 0.54 C3.41 0.71 4.16 0.88 4.94 1.06 C6.1 1.33 6.1 1.33 7.28 1.6 C8.13 1.8 8.13 1.8 9 2 C9 2.66 9 3.32 9 4 C7.38 4.33 7.38 4.33 5.73 4.66 C-0.07 6.12 -5.27 8.75 -10.62 11.38 C-11.72 11.91 -12.82 12.44 -13.94 12.99 C-36.42 24.01 -58.61 36.04 -78 52 C-78.58 52.47 -79.15 52.94 -79.75 53.42 C-101.35 71.11 -119.95 94.72 -124.49 123.07 C-124.74 125.72 -124.89 128.35 -125 131 C-125.18 133.06 -125.37 135.13 -125.56 137.19 C-125.65 138.11 -125.73 139.03 -125.82 139.98 C-125.88 140.65 -125.94 141.31 -126 142 C-126.66 142 -127.32 142 -128 142 C-130.55 114.52 -124.93 88.04 -106.95 66.35 C-86.93 43.21 -61.85 27.18 -35 13 C-33.88 12.4 -32.75 11.8 -31.6 11.19 C-28.47 9.53 -25.34 7.9 -22.2 6.29 C-20.95 5.64 -19.71 4.99 -18.47 4.34 C-16.71 3.41 -14.94 2.51 -13.18 1.61 C-12.15 1.09 -11.13 0.56 -10.08 0.01 C-6.31 -1.23 -3.84 -0.82 0 0 Z "
        fill="#F9F2E8" transform="translate(489,656)" />
    <path
        d="M0 0 C1.81 0.05 1.81 0.05 4 0.31 C4.72 0.39 5.44 0.47 6.19 0.55 C7.08 0.77 7.08 0.77 8 1 C8.33 1.66 8.66 2.32 9 3 C10.73 3.86 12.48 4.66 14.25 5.44 C25.98 11.16 35.01 20.72 44 30 C45.66 31.67 47.33 33.34 49 35 C50 36 50 36 50.16 39.78 C50.09 45.76 49.29 51.64 48.5 57.56 C48.36 58.67 48.21 59.77 48.07 60.91 C47.72 63.61 47.36 66.3 47 69 C46.34 69 45.68 69 45 69 C43.59 66.75 42.29 64.5 41 62.19 C35.41 52.51 28.45 44.91 19.93 37.66 C10.18 29.29 1.74 18.51 -2 6 C-1.49 1.49 -1.49 1.49 0 0 Z "
        fill="#C07752" transform="translate(400,744)" />
    <path
        d="M0 0 C1.92 2.65 1.92 2.65 3.75 5.94 C4.36 7.02 4.98 8.1 5.61 9.21 C7 12 7 12 7 14 C6.47 14.18 5.93 14.37 5.38 14.56 C-10.91 20.9 -20.55 36.71 -28.93 51.18 C-29.41 52.02 -29.9 52.86 -30.4 53.72 C-30.83 54.47 -31.26 55.22 -31.7 56 C-32.96 57.95 -34.3 59.43 -36 61 C-42.12 57.16 -48.17 53.28 -54 49 C-48.82 40.18 -42.7 32.66 -36 25 C-35.39 24.27 -34.79 23.54 -34.16 22.79 C-28.03 15.46 -10.89 -4.97 0 0 Z "
        fill="#B5ABCB" transform="translate(786,238)" />
    <path
        d="M0 0 C3.37 3.02 5.3 5.8 7 10 C7.03 12.6 6.94 15.04 6.75 17.62 C6.37 27.4 8.78 36.2 11.29 45.58 C13.89 55.34 15.73 64.98 17 75 C17.13 75.92 17.26 76.84 17.39 77.78 C18.4 85.8 18.08 93.94 18 102 C14.99 100.5 14.94 98.32 13.88 95.19 C9.69 84.01 3.12 72.89 -8 67.56 C-8.99 67.28 -8.99 67.28 -10 67 C-9.89 66.46 -9.78 65.93 -9.67 65.38 C-9.1 62.58 -8.55 59.79 -8 57 C-7.75 55.72 -7.49 54.44 -7.23 53.12 C-6.97 51.75 -6.7 50.38 -6.44 49 C-6.19 47.72 -5.94 46.44 -5.68 45.12 C-3.88 34.81 -3.74 24.44 -3.6 13.99 C-3.57 12.06 -3.52 10.12 -3.48 8.19 C-3.46 7.05 -3.44 5.91 -3.42 4.73 C-3.28 3.83 -3.14 2.93 -3 2 C-2.01 1.34 -1.02 0.68 0 0 Z "
        fill="#C17751" transform="translate(830,408)" />
    <path
        d="M0 0 C0.99 0.99 0.99 0.99 2 2 C1.18 2.89 1.18 2.89 0.35 3.8 C-3.75 8.3 -7.69 12.84 -11.44 17.62 C-15.74 22.95 -20.58 26.88 -26 31 C-33.17 36.96 -40.11 42.99 -45 51 C-49.28 50.29 -53.25 48.93 -57.31 47.44 C-58.28 47.09 -58.28 47.09 -59.27 46.73 C-60.85 46.16 -62.42 45.58 -64 45 C-63 36.23 -53.87 29.4 -47.47 23.92 C-33.79 13.27 -16.52 5.18 0 0 Z "
        fill="#C07651" transform="translate(486,704)" />
    <path
        d="M0 0 C2.86 4.3 3.13 7.48 3.14 12.58 C3.15 13.72 3.15 14.86 3.16 16.03 C3.16 17.89 3.16 17.89 3.16 19.8 C3.17 21.76 3.17 21.76 3.18 23.77 C3.19 27.37 3.2 30.97 3.2 34.57 C3.2 36.82 3.21 39.07 3.21 41.33 C3.23 48.38 3.24 55.43 3.24 62.48 C3.24 70.61 3.26 78.73 3.29 86.86 C3.31 93.15 3.32 99.44 3.32 105.73 C3.32 109.48 3.33 113.23 3.35 116.98 C3.36 120.52 3.37 124.05 3.36 127.58 C3.36 129.49 3.37 131.39 3.38 133.29 C3.33 143.5 1.87 150.79 -5.25 158.28 C-14.6 167.45 -23.88 167.44 -36.32 167.36 C-37.91 167.36 -39.5 167.36 -41.09 167.36 C-44.4 167.36 -47.72 167.35 -51.04 167.34 C-55.28 167.31 -59.52 167.31 -63.76 167.32 C-67.03 167.32 -70.31 167.32 -73.59 167.31 C-75.15 167.3 -76.71 167.3 -78.28 167.3 C-80.46 167.3 -82.65 167.29 -84.84 167.27 C-86.08 167.27 -87.32 167.27 -88.6 167.26 C-92.04 167 -94.79 166.24 -98 165 C-95.18 162.18 -93.35 162.75 -89.4 162.74 C-88.38 162.74 -88.38 162.74 -87.34 162.73 C-85.87 162.73 -84.39 162.72 -82.91 162.73 C-80.57 162.73 -78.23 162.71 -75.89 162.7 C-69.23 162.65 -62.57 162.63 -55.9 162.62 C-51.83 162.61 -47.76 162.59 -43.68 162.55 C-42.13 162.54 -40.59 162.54 -39.04 162.55 C-27.14 162.59 -18.69 161.19 -9.79 152.93 C-4.25 146.96 -1.89 141.48 -1.85 133.38 C-1.84 132.23 -1.83 131.09 -1.82 129.9 C-1.82 128.65 -1.81 127.4 -1.81 126.11 C-1.8 124.77 -1.79 123.44 -1.79 122.1 C-1.77 119.23 -1.75 116.36 -1.74 113.48 C-1.72 108.94 -1.69 104.4 -1.66 99.86 C-1.6 89.4 -1.54 78.94 -1.49 68.48 C-1.44 58.89 -1.38 49.3 -1.32 39.71 C-1.29 35.19 -1.27 30.67 -1.25 26.16 C-1.24 23.35 -1.22 20.54 -1.2 17.74 C-1.19 15.81 -1.18 13.89 -1.18 11.96 C-1.17 10.82 -1.16 9.67 -1.15 8.5 C-1.15 7.5 -1.14 6.51 -1.14 5.48 C-1 3 -1 3 0 0 Z "
        fill="#B5ABCB" transform="translate(976,539)" />
    <path
        d="M0 0 C6.24 5.3 10.76 15.42 11.73 23.47 C11.95 27.46 12.02 31.1 11 35 C3.36 41.48 -5.19 42.06 -14.79 41.33 C-24.76 39.85 -33.14 32.98 -40 26 C-37.28 24.64 -35.97 25.4 -33 26 C-22.68 26.93 -22.68 26.93 -12.88 24.56 C-6.1 18.53 -3.38 12.21 -1.54 3.41 C-1 1 -1 1 0 0 Z "
        fill="#B5ABCB" transform="translate(453,888)" />
    <path
        d="M0 0 C5.3 3.88 7.96 8.5 9.27 14.88 C9.5 16.38 9.71 17.88 9.89 19.38 C7.18 17.77 4.52 16.13 1.89 14.38 C-5.21 13.4 -11.27 14.15 -17.11 18.38 C-18.62 19.78 -20.12 21.2 -21.61 22.63 C-24.42 25.21 -26.36 26.97 -30.23 27.26 C-35.17 26.14 -37.85 24.19 -41.11 20.38 C-42.73 17.55 -43.25 16.28 -42.73 13.07 C-42.53 12.51 -42.32 11.96 -42.11 11.38 C-41.06 11.31 -40.02 11.23 -38.94 11.15 C-34.59 10.28 -33.01 9.05 -29.8 6.07 C-21.05 -1.45 -10.9 -6.14 0 0 Z "
        fill="#C17750" transform="translate(786.109375,876.6171875)" />
    <path
        d="M0 0 C6.72 5.12 11.62 12.65 16.18 19.66 C15.85 20.32 15.52 20.98 15.18 21.66 C14.68 21.06 14.17 20.46 13.64 19.84 C7.81 13.06 2.46 7.79 -6.7 6.37 C-26.18 5.04 -47.5 22.16 -61.45 34.06 C-63.83 36.15 -66.15 38.29 -68.46 40.45 C-70.45 42.32 -72.48 44.09 -74.57 45.85 C-84.09 54.15 -92.88 63.22 -100.68 73.14 C-104.31 77.43 -108.53 81.04 -112.82 84.66 C-113.48 84.33 -114.14 84 -114.82 83.66 C-106.61 74.09 -106.61 74.09 -104.88 72.08 C-103.31 70.24 -101.75 68.4 -100.2 66.55 C-93.38 58.43 -86.23 50.73 -78.72 43.25 C-76.94 41.48 -75.18 39.69 -73.41 37.9 C-59.87 24.28 -44.65 11.91 -27.44 3.23 C-26.79 2.9 -26.13 2.57 -25.46 2.23 C-17.16 -1.81 -8.6 -4.66 0 0 Z "
        fill="#FAF1E5" transform="translate(796.81640625,196.3359375)" />
    <path
        d="M0 0 C0.66 0 1.32 0 2 0 C2.42 38.04 -3.38 73.59 -30.64 101.92 C-36.54 107.93 -42.66 113.77 -50 118 C-50.99 118 -51.98 118 -53 118 C-51.99 116.64 -50.96 115.29 -49.94 113.94 C-49.08 112.81 -49.08 112.81 -48.21 111.65 C-46.43 109.51 -44.63 107.62 -42.63 105.68 C-39.01 102.11 -35.95 98.28 -32.94 94.19 C-32.15 93.12 -32.15 93.12 -31.35 92.04 C-12.63 66.44 -3.56 35.64 -1.26 4.22 C-1 2 -1 2 0 0 Z "
        fill="#B5AACA" transform="translate(730,776)" />
    <path
        d="M0 0 C5.26 2.84 9.19 6.56 11.88 11.94 C12.46 19.15 12.46 19.15 10.06 22.38 C4.94 26.03 -1.1 25.35 -7.12 24.94 C-13.27 23.72 -17.83 20.41 -22.12 15.94 C-23.56 13.06 -23.43 11.15 -23.12 7.94 C-21.64 3.94 -19.87 1.46 -16.38 -1 C-10.12 -3.05 -5.89 -2.68 0 0 Z "
        fill="#FAF3EA" transform="translate(536.125,370.0625)" />
    <path
        d="M0 0 C3.29 2.73 4.8 4.87 5.65 9.11 C6 13.07 6.02 15.71 3.57 18.95 C-3.1 24.96 -8.76 26.27 -17.64 26.14 C-22.08 25.68 -24.31 24.54 -27.81 21.81 C-29.81 18.81 -29.81 18.81 -29.69 16 C-28.07 10.11 -24.84 6.17 -19.81 2.81 C-13.26 -0.83 -7.29 -3.08 0 0 Z "
        fill="#FAF3EA" transform="translate(700.8125,369.1875)" />
    <path
        d="M0 0 C16.26 13.39 19.43 43.4 21.6 62.89 C22.27 70.92 22.15 79 22.13 87.06 C22.13 89.86 22.13 92.66 22.14 95.46 C22.15 117.56 22.15 117.56 21 124 C18.64 126.36 17.22 126.49 14 127 C12.97 123.92 13 122.52 13.34 119.36 C13.48 117.93 13.48 117.93 13.62 116.47 C13.73 115.43 13.83 114.39 13.94 113.31 C17.17 76.93 17.22 36.16 0 3 C0 2.01 0 1.02 0 0 Z "
        fill="#FAF3EA" transform="translate(801,239)" />
    <path
        d="M0 0 C-0.7 4.9 -1.82 7.25 -5.75 10.31 C-7.49 11.56 -9.24 12.79 -11 14 C-31.51 28.24 -51.03 45 -66.31 64.87 C-68.09 67.11 -69.84 69.12 -72 71 C-75.25 71.25 -75.25 71.25 -78 71 C-78.33 70.34 -78.66 69.68 -79 69 C-73.06 61.55 -66.86 54.46 -60.37 47.49 C-58.16 45.08 -55.99 42.63 -53.81 40.19 C-49.78 35.76 -45.58 31.84 -41 28 C-39.99 27.11 -38.99 26.22 -37.99 25.33 C-31.6 19.68 -25.04 14.42 -18.06 9.5 C-17.02 8.76 -17.02 8.76 -15.95 8.01 C-4.41 0 -4.41 0 0 0 Z "
        fill="#FAF3EA" transform="translate(505,294)" />
    <path
        d="M0 0 C-8.84 8.12 -17.68 15.75 -27.88 22.12 C-28.52 22.54 -29.16 22.96 -29.82 23.38 C-34.34 26.12 -34.34 26.12 -37.1 25.61 C-39.81 23.31 -42.2 20.78 -44.56 18.12 C-45.04 17.6 -45.53 17.07 -46.02 16.52 C-48.5 13.77 -50.81 10.97 -53 8 C-51.94 7.8 -50.88 7.61 -49.79 7.41 C-45.81 6.67 -41.83 5.92 -37.85 5.17 C-36.14 4.85 -34.43 4.53 -32.71 4.22 C-30.23 3.76 -27.75 3.29 -25.27 2.82 C-24.06 2.6 -24.06 2.6 -22.82 2.37 C-17.24 1.3 -11.78 -0.03 -6.34 -1.67 C-3.54 -2.06 -2.35 -1.49 0 0 Z "
        fill="#C17750" transform="translate(734,659)" />
    <path
        d="M0 0 C3.45 2.79 5.6 5.81 7 10 C7.14 11.95 7.22 13.92 7.25 15.88 C7.28 16.9 7.3 17.93 7.33 18.99 C6.83 23.57 4.89 26.11 1.69 29.31 C-1.7 31.44 -3.06 31.77 -7 31 C-10.85 28.83 -14.08 26.42 -16.5 22.69 C-17.74 16.03 -17.61 10.64 -14.19 4.66 C-10.83 -0.03 -5.54 -1.55 0 0 Z "
        fill="#FAF3EA" transform="translate(693,420)" />
    <path
        d="M0 0 C4.98 4.87 7.29 8.95 7.38 15.88 C7.27 22.24 5.61 25.39 1.12 29.88 C-1.96 31.51 -3.54 31.6 -7 31 C-10.88 28.83 -14.11 26.41 -16.5 22.62 C-17.91 15.25 -17.16 9.34 -13 3 C-8.82 -0.06 -5.11 -0.84 0 0 Z "
        fill="#FAF3EA" transform="translate(539,420)" />
    <path
        d="M0 0 C1.79 2.68 2.93 5.03 4.12 8 C4.65 9.3 4.65 9.3 5.2 10.62 C6.92 15.73 5.16 20.28 3 25 C-1.2 31.19 -6.18 35.48 -13.38 37.75 C-24.83 38.84 -33.9 37.44 -43 30 C-45.56 27.12 -45.56 27.12 -47 25 C-46.34 24.67 -45.68 24.34 -45 24 C-45 24.66 -45 25.32 -45 26 C-39.12 26.85 -33.3 27.16 -27.38 27.25 C-26.66 27.27 -25.94 27.29 -25.21 27.31 C-18.94 27.35 -14.65 25.66 -9.31 22.31 C-3.9 16.9 -2.49 10.63 -1.39 3.22 C-1 1 -1 1 0 0 Z "
        fill="#B5ABCB" transform="translate(666,494)" />
    <path
        d="M0 0 C5.63 0.37 10.72 2.08 16.06 3.81 C30.54 8.32 45.81 11.49 61 12 C62 12.04 63.01 12.08 64.04 12.12 C80.63 12.46 95.7 9.32 111 3 C112 4 112 4 112.1 6.07 C112.09 6.89 112.07 7.71 112.06 8.56 C112.05 9.39 112.04 10.22 112.04 11.07 C112.02 11.7 112.01 12.34 112 13 C89.69 19.89 65.73 20.49 43 15 C41.98 14.76 40.97 14.52 39.92 14.27 C25.72 10.84 11.76 6.91 -2 2 C-1.34 1.34 -0.68 0.68 0 0 Z "
        fill="#F9F2E9" transform="translate(738,656)" />
    <path
        d="M0 0 C-0.68 0.54 -1.36 1.07 -2.06 1.62 C-3.03 2.41 -4 3.19 -5 4 C-5.57 4.44 -6.13 4.87 -6.71 5.32 C-14.15 11.28 -17.53 17.55 -19 27 C-19.3 31.53 -19.31 36.06 -19.32 40.6 C-19.33 41.95 -19.34 43.3 -19.35 44.65 C-19.38 48.29 -19.39 51.93 -19.4 55.58 C-19.42 59.39 -19.45 63.21 -19.47 67.02 C-19.52 74.24 -19.56 81.45 -19.59 88.67 C-19.63 96.88 -19.68 105.1 -19.73 113.32 C-19.83 130.21 -19.92 147.11 -20 164 C-20.66 164 -21.32 164 -22 164 C-22.97 160.73 -23.13 157.76 -23.15 154.35 C-23.15 153.2 -23.16 152.05 -23.17 150.87 C-23.17 148.98 -23.17 148.98 -23.18 147.05 C-23.18 145.71 -23.19 144.37 -23.2 143.03 C-23.22 138.62 -23.23 134.21 -23.24 129.81 C-23.24 128.29 -23.25 126.77 -23.25 125.25 C-23.27 118.1 -23.28 110.95 -23.29 103.81 C-23.3 95.58 -23.33 87.35 -23.37 79.12 C-23.4 72.74 -23.41 66.37 -23.42 60 C-23.42 56.2 -23.43 52.4 -23.45 48.6 C-23.48 45.02 -23.48 41.44 -23.47 37.85 C-23.47 35.93 -23.49 34.01 -23.51 32.08 C-23.45 22.12 -21.73 12.87 -14.64 5.44 C-10.16 1.51 -6.13 -0.6 0 0 Z "
        fill="#F8F2EA" transform="translate(883,523)" />
    <path
        d="M0 0 C3.11 2.26 5.64 5.18 6.41 9.05 C6.58 13.31 6.42 16.24 3.56 19.56 C0.31 22.31 -2.55 22.82 -6.75 22.52 C-10.59 21.63 -13.38 19.95 -16 17 C-17.74 12.29 -16.87 8.58 -15 4 C-10.99 -0.89 -5.92 -1.01 0 0 Z "
        fill="#370274" transform="translate(996,377)" />
    <path
        d="M0 0 C2.5 1.75 2.5 1.75 4 4 C4.41 4.6 4.83 5.2 5.25 5.81 C6.4 9.17 6.48 11.47 6 15 C4.47 17.99 2.76 20.08 0 22 C-4.72 23.24 -8.12 22.43 -12.44 20.31 C-15.25 17.77 -16.34 16.72 -17 13 C-16.67 8.47 -15.81 5.04 -13 1.44 C-8.66 -0.64 -4.73 -0.8 0 0 Z "
        fill="#370274" transform="translate(1074,377)" />
    <path
        d="M0 0 C2.5 1.75 2.5 1.75 4 4 C4.41 4.6 4.83 5.2 5.25 5.81 C6.4 9.17 6.48 11.47 6 15 C4.47 17.99 2.76 20.08 0 22 C-4.72 23.24 -8.12 22.43 -12.44 20.31 C-15.25 17.77 -16.34 16.72 -17 13 C-16.67 8.47 -15.81 5.04 -13 1.44 C-8.66 -0.64 -4.73 -0.8 0 0 Z "
        fill="#370274" transform="translate(1035,377)" />
    <path
        d="M0 0 C1.44 0.43 2.88 0.87 4.31 1.31 C5.11 1.56 5.91 1.8 6.74 2.05 C9.15 3.06 10.41 3.93 12 6 C12.75 12.36 11.4 17.9 7.49 22.96 C1.98 28.84 -4.23 31.78 -12.36 32.09 C-16.69 32.15 -20.78 32.13 -25 31 C-23 28 -23 28 -20.71 27.48 C-19.8 27.38 -18.88 27.29 -17.94 27.19 C-10.78 26.05 -5.42 23.18 -1 17.38 C0.49 12.34 2.44 4.89 0 0 Z "
        fill="#B5ABCB" transform="translate(591,500)" />
    <path
        d="M0 0 C9.21 0.06 18.41 0.14 27.62 0.24 C31.89 0.28 36.16 0.32 40.44 0.35 C44.56 0.37 48.69 0.41 52.81 0.46 C54.38 0.48 55.96 0.49 57.53 0.5 C59.74 0.51 61.94 0.54 64.14 0.57 C65.4 0.58 66.65 0.59 67.94 0.6 C71 1 71 1 72.93 2.4 C74 4 74 4 74 6 C66.75 6.07 59.5 6.12 52.25 6.16 C48.88 6.17 45.52 6.19 42.15 6.23 C38.28 6.26 34.41 6.28 30.54 6.29 C28.73 6.32 28.73 6.32 26.88 6.34 C25.76 6.34 24.64 6.34 23.48 6.34 C22.49 6.35 21.5 6.35 20.49 6.36 C17.55 5.93 16.95 5.13 15 3 C12.37 2.62 9.95 2.4 7.31 2.31 C6.26 2.26 6.26 2.26 5.19 2.21 C3.46 2.13 1.73 2.06 0 2 C0 1.34 0 0.68 0 0 Z "
        fill="#AFACCD" transform="translate(886,538)" />
    <path
        d="M0 0 C2 0 2 0 3.61 1.58 C5.46 4.79 5.32 7 5.25 10.7 C5.24 11.36 5.23 12.02 5.22 12.71 C5.19 14.89 5.13 17.08 5.07 19.27 C5.05 20.78 5.02 22.3 4.99 23.82 C4.92 27.81 4.83 31.81 4.74 35.8 C4.65 39.87 4.58 43.95 4.5 48.02 C4.35 56.02 4.18 64.01 4 72 C2.68 71.34 1.36 70.68 0 70 C0 46.9 0 23.8 0 0 Z "
        fill="#B3AACA" transform="translate(877,596)" />
    <path
        d="M0 0 C3.27 4.67 3.97 9.46 3 15 C1 18.06 1 18.06 -1 20 C-4.01 19.67 -5.78 19.16 -8.25 17.38 C-10.62 14.15 -10.93 11.99 -11 8 C-9.08 1.84 -9.08 1.84 -6.06 -0.5 C-3.47 -1.13 -2.39 -1.23 0 0 Z "
        fill="#704C8C" transform="translate(716,453)" />
    <path
        d="M0 0 C2.76 1.09 3.54 2.27 5.06 4.81 C5.46 7.69 5.46 7.69 5.44 10.81 C5.45 11.84 5.45 12.88 5.46 13.94 C5.02 17.14 4.31 18.53 2.06 20.81 C-0.38 21.31 -0.38 21.31 -2.94 20.81 C-5.18 18.94 -6.63 17.42 -7.94 14.81 C-8.45 8.71 -7.99 5.7 -3.94 0.81 C-1.94 -0.19 -1.94 -0.19 0 0 Z "
        fill="#704C8C" transform="translate(510.9375,452.1875)" />
    <path
        d="M0 0 C1.24 -0.03 2.48 -0.05 3.75 -0.08 C7 0.25 7 0.25 8.92 1.54 C10.69 4.35 10.24 7.03 10 10.25 C7.84 12.41 3.11 11.48 0.12 11.5 C-0.7 11.52 -1.53 11.54 -2.39 11.56 C-3.18 11.57 -3.98 11.57 -4.8 11.58 C-5.54 11.59 -6.27 11.6 -7.02 11.61 C-9.52 11.16 -10.4 10.16 -12 8.25 C-11.19 4.81 -11.19 4.81 -10 1.25 C-6.52 0.09 -3.67 0.05 0 0 Z "
        fill="#370274" transform="translate(920,685.75)" />
    <path
        d="M0 0 C0 0.33 0 0.66 0 1 C-0.75 1.15 -1.5 1.29 -2.27 1.45 C-15.33 4.31 -24.04 10.1 -31.5 21.24 C-35.67 28.62 -36.74 36.74 -38 45 C-38.33 45 -38.66 45 -39 45 C-39.75 31.87 -38.3 21.32 -29.65 10.74 C-21.56 2.2 -11.71 -2.3 0 0 Z "
        fill="#FAF1E6" transform="translate(782,839)" />
    <path
        d="M0 0 C2.8 0.39 3.82 0.8 5.75 2.94 C7 5 7 5 7 7 C6.31 7.66 6.31 7.66 5.61 8.33 C3.67 10.35 3.12 12.03 2.31 14.69 C2.06 15.5 1.81 16.3 1.55 17.14 C1.37 17.75 1.19 18.37 1 19 C0.34 18.67 -0.32 18.34 -1 18 C-1.33 29.55 -1.66 41.1 -2 53 C-2.66 53 -3.32 53 -4 53 C-4.02 47.95 -4.04 42.9 -4.05 37.85 C-4.06 36.14 -4.07 34.43 -4.08 32.71 C-4.21 4.87 -4.21 4.87 0 0 Z "
        fill="#9CB3D5" transform="translate(880,541)" />
    <path
        d="M0 0 C2.31 1.98 4.62 3.96 7 6 C4.77 10.46 3.76 11.18 -0.49 13.18 C-5.2 14.72 -10.08 14.84 -15 15 C-13.8 11.39 -12.92 11.09 -9.75 9.19 C-5.6 6.55 -2.91 3.94 0 0 Z "
        fill="#B6ACCB" transform="translate(609,530)" />
    <path
        d="M0 0 C1.88 2.05 1.88 2.05 3 4 C-0.87 6.58 -4.96 6.33 -9.44 6.31 C-10.56 6.34 -10.56 6.34 -11.71 6.36 C-16.33 6.37 -19.19 5.87 -23 3 C-22.67 2.34 -22.34 1.68 -22 1 C-14.81 -1.28 -7.39 -1.78 0 0 Z "
        fill="#B5ABCB" transform="translate(621,475)" />
    <path
        d="M0 0 C5.61 0.66 11.22 1.32 17 2 C17.33 2.99 17.66 3.98 18 5 C17.01 5.99 16.02 6.98 15 8 C9.8 6.4 4.93 4.26 0 2 C0 1.34 0 0.68 0 0 Z "
        fill="#C07752" transform="translate(522,664)" />
</svg>
