<?xml version="1.0" encoding="UTF-8"?><!-- Generator: visioncortex VTracer 0.6.3 -->
<svg height="1280" version="1.1" width="1280" xmlns="http://www.w3.org/2000/svg">
    <path
        d="M0 0 C422.4 0 844.8 0 1280 0 C1280 422.4 1280 844.8 1280 1280 C857.6 1280 435.2 1280 0 1280 C0 857.6 0 435.2 0 0 Z "
        fill="#F8E0A5" transform="translate(0,0)" />
    <path
        d="M0 0 C7.17 4.63 14.37 9.23 21.58 13.8 C24.58 15.72 27.55 17.69 30.52 19.66 C33 21.3 35.5 22.91 38 24.51 C39.19 25.29 40.38 26.07 41.56 26.88 C48.28 31.57 48.28 31.57 56.14 32.87 C59.2 32.11 62.05 31.12 65 30 C66.69 29.55 68.39 29.12 70.1 28.72 C71.31 28.42 71.31 28.42 72.55 28.11 C119.42 16.71 170.07 16.84 216.57 30.07 C225.54 32.64 225.54 32.64 234.19 29.87 C235.8 28.88 237.4 27.89 239 26.88 C239.87 26.34 240.74 25.8 241.64 25.25 C244.44 23.51 247.22 21.76 250 20 C251.35 19.15 251.35 19.15 252.73 18.28 C261.03 13.05 269.29 7.75 277.54 2.42 C330.79 -31.87 330.79 -31.87 351.5 -28.63 C364.38 -25.39 370.41 -19.69 377.12 -8.56 C398.83 29.43 389.34 84.08 378.86 124.03 C371.31 151.63 371.31 151.63 366.08 158.54 C364.61 161.88 365.6 163.84 366.87 167.14 C367.24 168.08 367.62 169.03 368 170 C368.9 172.56 369.79 175.13 370.67 177.7 C371.04 178.76 371.04 178.76 371.41 179.85 C382.86 213.13 390.02 246.91 394.01 281.91 C394.8 288.58 396.2 293.17 400.25 298.62 C411.46 314.37 417.34 331.78 419 351 C419.59 350.95 420.17 350.91 420.77 350.86 C439.15 350.09 460.77 356.74 474.62 368.94 C480.52 375.22 485.81 384.54 486.94 393.12 C487.37 395.88 487.6 396.7 489.86 398.41 C491.43 399.23 493.02 400.02 494.63 400.78 C504.79 406.01 510.87 418.2 514.29 428.59 C518.41 442.58 515.77 457.27 509 470 C502.07 482.55 493.38 493.26 482.78 502.9 C478.87 507.52 478.71 512.89 478.74 518.7 C478.74 519.46 478.73 520.22 478.73 521 C478.72 523.52 478.72 526.04 478.73 528.57 C478.72 530.38 478.72 532.2 478.71 534.01 C478.7 538.93 478.7 543.85 478.7 548.77 C478.7 552.88 478.69 556.98 478.69 561.09 C478.68 570.78 478.68 580.47 478.68 590.16 C478.69 600.16 478.68 610.16 478.66 620.15 C478.64 628.74 478.63 637.32 478.64 645.91 C478.64 651.03 478.64 656.16 478.62 661.29 C478.61 666.11 478.61 670.93 478.62 675.75 C478.63 677.51 478.62 679.28 478.62 681.05 C478.61 683.47 478.61 685.88 478.63 688.3 C478.62 688.99 478.61 689.69 478.6 690.41 C478.66 695.68 480.01 699.61 483.39 703.67 C483.86 704.1 484.33 704.53 484.82 704.97 C485.35 705.47 485.88 705.97 486.43 706.49 C486.99 707.01 487.55 707.53 488.12 708.06 C494.45 714.17 499.32 720.52 504 728 C504.65 729.01 505.3 730.02 505.96 731.06 C514.45 744.84 518.37 759.95 514.94 776 C511.02 790.06 502.47 800.49 489.96 807.55 C478.57 813.11 464.11 812.77 452.12 809 C441.3 804.8 431.01 799.36 422 792 C418.88 793.43 416.08 795.22 413.23 797.12 C402.91 803.97 390.8 811.43 378 811 C378.6 811.76 379.21 812.52 379.83 813.31 C384.41 819.23 388.56 824.85 391 832 C391.33 832.98 391.33 832.98 391.68 833.98 C394.35 843.1 393.8 853.15 389.7 861.73 C383.28 872.87 373.12 879.23 361 883 C346.03 886.79 330.8 887.24 315.44 887.25 C314.64 887.25 313.85 887.25 313.03 887.25 C291.6 887.22 268.2 885.88 251.9 869.95 C250.19 868.01 248.58 866.05 247 864 C245.67 862.33 244.33 860.67 243 859 C241.92 859.38 240.84 859.75 239.72 860.14 C177.4 881.15 99.22 879.44 37 859 C36.45 859.79 35.91 860.57 35.35 861.38 C24.66 876.27 12.14 882.82 -6 886 C-14.76 887.3 -23.54 887.2 -32.38 887.19 C-33.58 887.19 -33.58 887.19 -34.81 887.19 C-59.11 887.14 -85.6 886.56 -104.42 868.81 C-108.15 864.53 -109.86 859.56 -111.61 854.24 C-112 853.05 -112 853.05 -112.4 851.82 C-112.7 850.92 -112.7 850.92 -113 850 C-113.99 850.02 -113.99 850.02 -114.99 850.03 C-167.91 850.76 -218.03 841.34 -257.64 803.82 C-284.62 777.45 -298.77 740.86 -304 704 C-304.1 703.35 -304.19 702.69 -304.29 702.02 C-310.09 657.33 -299.15 606.62 -272.81 569.75 C-271.56 568.15 -270.29 566.57 -269 565 C-268.29 564.1 -267.59 563.19 -266.86 562.26 C-251 542.24 -231.9 528.78 -207.81 520.62 C-206.83 520.29 -205.84 519.96 -204.83 519.61 C-170.86 508.62 -133.32 513.49 -101.81 529.37 C-95.67 532.62 -90.36 536.57 -85 541 C-83.59 542.03 -82.18 543.06 -80.75 544.06 C-79.84 544.7 -78.94 545.34 -78 546 C-77.62 545.57 -77.24 545.15 -76.85 544.71 C-66.47 533.69 -53.55 525.11 -40.89 516.96 C-34.41 512.76 -30.91 510.05 -29 502.25 C-27.89 498 -26.78 494.18 -24.69 490.31 C-24.13 489.22 -23.57 488.13 -23 487 C-23.68 483.82 -23.68 483.82 -26.39 482.68 C-27.43 482.25 -28.47 481.81 -29.55 481.36 C-31.27 480.63 -31.27 480.63 -33.03 479.88 C-33.64 479.62 -34.24 479.37 -34.87 479.1 C-45.11 474.79 -54.8 470.29 -64 464 C-65.43 463.07 -66.87 462.15 -68.31 461.23 C-77.82 455.09 -86.55 448.52 -95 441 C-96.15 440.03 -96.15 440.03 -97.33 439.04 C-111.35 427.21 -121.6 411.64 -129 395 C-129.72 393.4 -129.72 393.4 -130.46 391.77 C-140.3 368.24 -141.2 342.31 -131.57 318.61 C-128.11 310.58 -124.1 302.16 -117.92 295.89 C-115.02 291.52 -114.71 287.13 -114 282 C-113.8 280.6 -113.59 279.2 -113.38 277.8 C-112.92 274.59 -112.45 271.39 -112 268.18 C-107.05 233.72 -99.06 201.01 -86.83 168.37 C-85 163.2 -85 163.2 -86.41 158.04 C-86.73 157.27 -87.06 156.5 -87.4 155.71 C-87.76 154.88 -88.13 154.04 -88.5 153.19 C-107.47 107.59 -119.3 46.05 -100.62 -1.5 C-95.76 -12.3 -89.06 -21.74 -77.81 -26.44 C-50.7 -35.83 -21.64 -14.04 0 0 Z "
        fill="#000271" transform="translate(511,215)" />
    <path
        d="M0 0 C10.29 0.75 19.32 8.81 27.44 14.62 C28.21 15.18 28.98 15.73 29.77 16.29 C39.8 23.59 39.8 23.59 42 28 C40.86 28.74 40.86 28.74 39.69 29.5 C36.29 32.66 34.91 35.47 34 40 C33.94 44.9 35.29 49.44 37 54 C36.46 54.35 35.91 54.7 35.36 55.07 C30.43 58.47 27.68 61.03 26 67 C25.41 72.45 26.32 77.22 29 82 C31.02 83.56 31.02 83.56 33 84 C35.98 81.9 35.98 81.9 38 79 C38 76.07 37.63 73.4 37.1 70.52 C37 68 37 68 38.11 66.24 C40.6 64.61 42.75 64.26 45.69 63.81 C46.68 63.65 47.68 63.5 48.7 63.33 C49.46 63.22 50.22 63.11 51 63 C49.62 64.5 49.62 64.5 48 66 C47.34 66 46.68 66 46 66 C45.67 67.65 45.34 69.3 45 71 C48.92 71.28 50.75 70.89 53.79 68.4 C54.82 67.58 54.82 67.58 55.87 66.73 C56.6 66.14 57.32 65.55 58.06 64.94 C64.77 59.63 71.44 55.03 79 51 C80.43 50.2 81.86 49.4 83.29 48.61 C94.2 42.6 105.19 37.89 117 34 C117.78 33.74 118.56 33.47 119.36 33.2 C139.29 26.55 160.08 22.71 181 21 C182.26 20.89 183.52 20.78 184.81 20.66 C222.15 17.83 261.05 20.81 296.78 32.29 C298.87 32.96 300.96 33.59 303.05 34.21 C311.91 36.95 319.91 40.72 328.08 45.02 C329.88 45.94 331.7 46.79 333.52 47.65 C344.27 52.69 353.79 59.39 363.15 66.67 C363.84 67.21 364.54 67.75 365.26 68.31 C365.88 68.8 366.5 69.29 367.15 69.8 C369.1 71.07 370.72 71.57 373 72 C372.5 70.91 372.01 69.81 371.5 68.69 C370 65 370 65 370 62 C371.46 62.59 372.92 63.2 374.38 63.81 C375.19 64.15 376 64.49 376.84 64.83 C379 66 379 66 381 69 C381.28 72.49 380.78 75.6 380 79 C381.98 80.65 383.96 82.3 386 84 C389.73 80.64 391.63 77.96 392.26 72.93 C392.56 67.04 391.22 63.88 388 59 C387.67 58.01 387.34 57.02 387 56 C385.35 55.28 383.69 54.62 382 54 C381.34 53.34 380.68 52.68 380 52 C380.71 51.29 380.71 51.29 381.44 50.56 C383.73 46.8 384.37 43.4 384 39 C382.11 34.15 379.14 30.11 376 26 C384.66 19.66 393.33 13.35 402.25 7.38 C402.84 6.97 403.44 6.57 404.05 6.16 C413.46 -0.08 413.46 -0.08 417.25 0.11 C420.69 1.85 421.77 5.56 423 9 C425.72 19.34 427.14 29.57 427.24 40.24 C427.25 41.11 427.26 41.98 427.27 42.88 C427.5 69.53 425.64 94.31 418 120 C413.1 116.42 410.28 112.28 406.96 107.27 C406.32 106.52 405.67 105.77 405 105 C403.68 105 402.36 105 401 105 C401.55 109.85 403.11 113.62 405.38 117.88 C429.62 165.05 441.92 213.44 449.89 265.58 C450.17 267.34 450.17 267.34 450.45 269.14 C450.8 271.38 451.14 273.61 451.47 275.84 C452.55 282.86 452.55 282.86 456 289 C457 290.37 457 290.37 458.02 291.77 C458.75 292.77 459.49 293.78 460.25 294.81 C470.08 308.68 474.52 323.03 474 340 C469.38 342.12 469.38 342.12 466 341 C466.16 340.26 466.33 339.51 466.5 338.75 C468.07 326.97 467 317.08 459.81 307.31 C448.34 293.69 433.61 287.3 416 285 C394.6 283.61 373.98 288 356.94 301.65 C352.16 306.03 349.53 311.09 347 317 C346.57 317.95 346.13 318.9 345.69 319.88 C343.67 329.04 344.66 337.67 349 346 C357.84 359.01 373.14 367.11 388.18 370.49 C394.13 371.56 399.9 372.19 405.94 372.19 C406.66 372.19 407.39 372.19 408.14 372.19 C415.84 372.12 423.39 371.15 431 370 C430.35 375.17 429.64 380.43 427 385 C424.19 387.03 421.55 388.34 418.36 389.65 C408.91 393.52 404.42 400.96 400.25 409.97 C395.04 422.57 395.36 434.64 397 448 C394.15 449.56 391.3 451.09 388.44 452.62 C387.66 453.05 386.88 453.48 386.07 453.92 C373.2 460.79 360.34 465.02 346.12 468 C344.55 468.34 342.97 468.68 341.4 469.02 C320.39 473.51 299.3 477.44 278 480.25 C276.86 480.4 275.72 480.55 274.54 480.71 C270.7 481.19 266.85 481.61 263 482 C262.14 482.09 261.29 482.17 260.41 482.26 C243.27 483.95 226.2 484.37 208.99 484.32 C206.9 484.31 204.82 484.31 202.73 484.31 C182.66 484.27 162.9 483.81 143 481 C141.7 480.83 140.41 480.66 139.07 480.48 C119.08 477.83 99.34 474.12 79.65 469.8 C77.42 469.31 75.18 468.83 72.94 468.36 C31.03 459.6 -14.43 431.82 -38.84 396.13 C-52.93 374.38 -60.28 348.29 -54.97 322.41 C-51.74 309.39 -45.21 297.37 -36.49 287.24 C-34.74 284.6 -34.34 282.64 -33.85 279.51 C-33.67 278.41 -33.5 277.3 -33.31 276.17 C-33.13 274.97 -32.95 273.77 -32.77 272.54 C-32.36 269.97 -31.95 267.4 -31.54 264.84 C-31.32 263.48 -31.11 262.12 -30.9 260.77 C-29.82 253.87 -28.69 246.98 -27.55 240.1 C-27.44 239.42 -27.33 238.75 -27.21 238.06 C-24.81 223.51 -21.96 209.21 -18 195 C-17.52 193.25 -17.52 193.25 -17.02 191.46 C-9.25 163.86 0.98 134.03 17 110 C17.17 106.87 17.17 106.87 17 104 C12.97 106.14 10.53 108.46 7.75 112.06 C7.06 112.94 6.38 113.82 5.67 114.72 C3.99 116.88 3.99 116.88 3 119 C2.34 119 1.68 119 1 119 C1 118.34 1 117.68 1 117 C0.34 117 -0.32 117 -1 117 C-6.35 95.26 -9.27 74.69 -9.38 52.31 C-9.38 51.45 -9.39 50.59 -9.4 49.7 C-9.51 33.98 -9.17 16.37 -2 2 C-1.34 1.34 -0.68 0.68 0 0 Z "
        fill="#F7A426" transform="translate(442,227)" />
    <path
        d="M0 0 C2.01 1.57 2.99 2.95 4.28 5.14 C10.11 14.3 17.67 22.47 25.45 30.01 C30.26 35 30.89 40.04 31.04 46.7 C31.07 47.98 31.1 49.26 31.13 50.57 C31.22 55.64 31.28 60.71 31.33 65.78 C31.37 69.63 31.42 73.47 31.52 77.31 C31.61 81.04 31.66 84.76 31.67 88.49 C31.69 89.91 31.72 91.32 31.76 92.74 C32.1 103.74 32.1 103.74 28.89 107.76 C26.59 109.59 24.37 111.01 21.78 112.39 C20.94 112.88 20.09 113.37 19.22 113.88 C16.45 115.47 13.62 116.92 10.78 118.39 C9.33 119.17 7.87 119.96 6.42 120.74 C-1.32 124.9 -9.09 128.95 -17.09 132.58 C-18.06 133.03 -18.06 133.03 -19.06 133.5 C-21.7 134.66 -24.02 135.38 -26.91 135.57 C-30.71 133.63 -31.65 130.2 -33.22 126.39 C-33.71 125.25 -33.71 125.25 -34.21 124.09 C-35.27 121.61 -36.31 119.13 -37.34 116.64 C-40.55 109.07 -43.94 101.63 -47.59 94.27 C-48.01 93.42 -48.43 92.57 -48.86 91.7 C-49.45 90.52 -49.45 90.52 -50.05 89.32 C-50.4 88.63 -50.75 87.94 -51.1 87.23 C-52.29 85.28 -53.47 83.86 -55.22 82.39 C-55.88 82.39 -56.54 82.39 -57.22 82.39 C-56.68 89.03 -54.32 94.63 -51.84 100.77 C-39.38 132.52 -28.42 165.41 -24.22 199.39 C-25.06 199.36 -25.89 199.32 -26.75 199.29 C-48.87 198.77 -68.53 205.78 -84.8 220.86 C-104.1 239.63 -112.96 265.92 -119.22 291.39 C-117.9 292.05 -116.58 292.71 -115.22 293.39 C-114.92 292.67 -114.63 291.94 -114.32 291.2 C-102.44 262.32 -88.01 229.6 -58.22 215.39 C-41.74 209.05 -23.82 208.47 -7.57 215.65 C2.89 220.7 12.29 229.46 16.78 240.39 C15.85 243.53 13.91 245.45 11.66 247.77 C4.43 255.85 -0.77 266.16 -4.22 276.39 C-4.63 277.59 -5.04 278.78 -5.47 280.02 C-7.93 291.08 -6.68 302.07 -2.22 312.39 C-1.92 313.13 -1.62 313.87 -1.31 314.62 C2.57 323.28 8.4 328.43 16.57 332.96 C19.54 334.88 20.85 337.46 22.78 340.39 C24.66 341.55 24.66 341.55 26.84 342.58 C35.7 347.12 43.2 355.11 46.78 364.39 C48.98 371.96 48.09 379.29 44.78 386.39 C40.99 392.26 35.84 395.08 29.78 398.39 C27.47 394.92 27.7 394.2 28.03 390.2 C28.24 381.4 24.67 373.17 20.78 365.39 C21.11 366.55 21.44 367.7 21.78 368.89 C23.52 376.89 24.97 387.81 20.59 395.14 C19.2 396.91 19.2 396.91 17.78 398.39 C16.64 399.6 16.64 399.6 15.47 400.83 C9.33 404.4 1.2 403.52 -5.72 403.45 C-6.64 403.45 -7.55 403.44 -8.5 403.44 C-10.74 403.43 -12.98 403.41 -15.22 403.39 C-16.22 401.39 -16.22 401.39 -15.66 399.32 C-15.37 398.5 -15.08 397.68 -14.78 396.83 C-11.66 386.71 -13.8 379.28 -17.22 369.39 C-17.22 371.32 -17.18 373.25 -17.08 375.18 C-16.75 385.05 -18.43 392.08 -24.41 400.02 C-27.2 402.92 -28 403.35 -32.16 404.08 C-33.85 403.91 -35.54 403.67 -37.22 403.39 C-39.09 403.11 -39.09 403.11 -41 402.83 C-55.42 400.53 -67.09 396.18 -76.62 384.7 C-90.41 364.76 -90.43 334.67 -91.48 311.32 C-91.52 310.62 -91.55 309.92 -91.59 309.2 C-91.69 307.28 -91.77 305.35 -91.86 303.43 C-92.01 300.22 -92.01 300.22 -94.22 297.39 C-94.93 298.88 -94.93 298.88 -95.66 300.39 C-95.92 300.95 -96.19 301.5 -96.46 302.08 C-98.42 308.09 -98.39 314.62 -98.42 320.89 C-98.43 321.68 -98.43 322.47 -98.44 323.29 C-98.45 324.96 -98.46 326.63 -98.46 328.3 C-98.47 330.79 -98.5 333.28 -98.53 335.78 C-98.59 345.3 -97.87 354.25 -95.96 363.58 C-95.19 367.52 -94.68 371.41 -94.22 375.39 C-126.58 385.72 -158.24 388.66 -192.09 388.7 C-193.76 388.71 -193.76 388.71 -195.45 388.71 C-269.54 388.84 -269.54 388.84 -291.22 374.39 C-290.73 370.24 -290.19 366.12 -289.46 362 C-286.06 342.03 -283.69 316.98 -290.22 297.39 C-291.54 297.72 -292.86 298.05 -294.22 298.39 C-294.23 299.13 -294.25 299.88 -294.26 300.64 C-295.8 371.39 -295.8 371.39 -315.8 392.27 C-324.31 399.75 -336.15 402.5 -347.22 403.39 C-347.95 403.49 -348.68 403.59 -349.43 403.69 C-354.11 404.1 -356.81 403.46 -360.53 400.52 C-366.42 394.62 -368.37 388.62 -368.48 380.34 C-368.46 377.35 -368.36 374.37 -368.22 371.39 C-372.55 377.89 -372.92 384.77 -372.22 392.39 C-371.42 396.13 -370.37 399.74 -369.22 403.39 C-372.72 403.45 -376.22 403.48 -379.72 403.52 C-380.7 403.53 -381.68 403.55 -382.7 403.57 C-391.74 403.63 -398.8 402.91 -405.58 396.43 C-410.42 390.4 -409.3 383.05 -408.51 375.8 C-408.36 374.61 -408.36 374.61 -408.22 373.39 C-408.22 373.06 -408.22 372.73 -408.22 372.39 C-414.55 379.59 -413.44 388.37 -413.22 397.39 C-419.74 396.49 -425.33 392.58 -429.72 387.73 C-434.37 381.03 -434 372.75 -432.86 364.96 C-430.12 354.63 -421.4 347.98 -412.6 342.77 C-411.82 342.31 -411.03 341.86 -410.22 341.39 C-409.23 340.73 -408.24 340.07 -407.22 339.39 C-408.02 331.36 -409.35 323.48 -410.76 315.54 C-415.03 290.71 -415.67 260.34 -401.22 238.39 C-393.68 239.29 -393.68 239.29 -390.94 239.91 C-368.51 243.84 -337.77 240.23 -318.22 228.39 C-317.55 227.79 -316.89 227.2 -316.21 226.58 C-314.22 225.39 -314.22 225.39 -311.69 225.98 C-292.62 236.83 -278.93 270.53 -272.22 290.39 C-272.22 291.05 -272.22 291.71 -272.22 292.39 C-270.57 292.72 -268.92 293.05 -267.22 293.39 C-267.67 279.54 -273.07 265.67 -279.22 253.39 C-279.75 252.22 -279.75 252.22 -280.29 251.04 C-286.43 237.88 -295.12 226.7 -305.22 216.39 C-304.91 215.49 -304.91 215.49 -304.6 214.56 C-304.19 213.36 -304.19 213.36 -303.78 212.14 C-303.51 211.35 -303.25 210.56 -302.97 209.75 C-302.72 208.97 -302.48 208.19 -302.22 207.39 C-302.03 206.8 -301.84 206.2 -301.64 205.59 C-298.99 191.79 -301.55 177.14 -309.28 165.45 C-315.69 156.45 -324.8 152.56 -334.48 147.87 C-337.66 146.15 -340.2 144.16 -342.82 141.69 C-344.4 140.16 -344.4 140.16 -347.22 138.39 C-345.61 129.56 -342.44 121.34 -339.34 112.95 C-338.81 111.49 -338.27 110.02 -337.74 108.56 C-337.21 107.13 -336.69 105.7 -336.16 104.27 C-335.91 103.58 -335.66 102.89 -335.4 102.18 C-333.67 97.5 -331.78 92.91 -329.68 88.39 C-329 86.31 -329 86.31 -330.13 84.13 C-330.49 83.55 -330.85 82.98 -331.22 82.39 C-334.39 85.07 -335.99 88.48 -337.78 92.14 C-338.12 92.83 -338.46 93.51 -338.81 94.22 C-342.79 102.37 -346.35 110.71 -349.92 119.04 C-350.5 120.38 -350.5 120.38 -351.09 121.75 C-351.84 123.51 -352.58 125.28 -353.3 127.05 C-353.64 127.86 -353.98 128.68 -354.33 129.52 C-354.77 130.61 -354.77 130.61 -355.22 131.71 C-356.22 133.39 -356.22 133.39 -359.22 134.39 C-361.13 134.06 -361.13 134.06 -363.28 133.48 C-381.92 129.01 -402.41 133.11 -418.68 142.87 C-420.91 144.31 -423.07 145.82 -425.22 147.39 C-425.83 147.84 -426.44 148.28 -427.07 148.74 C-430.12 151.1 -431.59 152.6 -432.22 156.39 C-433.2 157.41 -434.2 158.41 -435.22 159.39 C-435.22 160.05 -435.22 160.71 -435.22 161.39 C-434.6 160.54 -433.98 159.7 -433.34 158.83 C-422.04 145.45 -403.81 140.59 -387.03 139.11 C-378.27 138.83 -367.05 139.41 -360.22 145.39 C-361.13 145.42 -362.04 145.44 -362.97 145.47 C-386.69 146.54 -407.1 155.24 -423.7 172.32 C-429.49 179.37 -433.27 187.24 -434.22 196.39 C-432.9 196.72 -431.58 197.05 -430.22 197.39 C-429.91 196.18 -429.91 196.18 -429.59 194.95 C-424.3 181.23 -412.34 170.49 -399.22 164.39 C-378.06 155.65 -353.07 152.74 -331.28 161.02 C-322.97 165.2 -316.83 172.95 -313.22 181.39 C-311.95 185.8 -311.92 190.08 -311.84 194.64 C-311.79 195.87 -311.79 195.87 -311.73 197.13 C-311.62 204.82 -314.4 209.35 -319.53 214.89 C-320.09 215.39 -320.64 215.88 -321.22 216.39 C-321.41 215.48 -321.61 214.57 -321.81 213.64 C-323.55 206.34 -325.68 199.78 -329.22 193.14 C-329.55 192.51 -329.88 191.88 -330.22 191.23 C-332.12 187.82 -333.88 185.45 -337.22 183.39 C-336.8 184.22 -336.38 185.05 -335.94 185.91 C-335.39 187 -334.85 188.08 -334.28 189.2 C-333.74 190.28 -333.19 191.36 -332.63 192.47 C-329.15 199.66 -328.84 209.39 -330.97 217.12 C-332.75 220.83 -334.68 223.36 -338.22 225.39 C-341.39 226.23 -344.6 226.73 -347.84 227.2 C-349.15 227.42 -349.15 227.42 -350.48 227.65 C-355.31 228.39 -355.31 228.39 -357.22 228.39 C-357.88 227.73 -358.54 227.07 -359.22 226.39 C-359.2 225.11 -359.18 223.83 -359.16 222.52 C-358.98 211.4 -363.29 201.6 -369.22 192.39 C-369.88 192.06 -370.54 191.73 -371.22 191.39 C-370.94 191.92 -370.66 192.45 -370.38 193 C-370.02 193.71 -369.65 194.41 -369.28 195.14 C-368.92 195.84 -368.56 196.53 -368.19 197.25 C-364.67 205 -364.67 217.4 -367.66 225.39 C-369.22 228.39 -369.22 228.39 -370.22 229.39 C-382.15 231.42 -393.1 231.41 -403.66 224.88 C-412.85 218.2 -418 209.79 -422.22 199.39 C-423.21 199.39 -424.2 199.39 -425.22 199.39 C-425.22 205.97 -423.36 210.79 -420.47 216.58 C-420.13 217.25 -419.8 217.93 -419.45 218.63 C-417.72 221.97 -415.92 224.88 -413.44 227.73 C-411.22 230.39 -411.22 230.39 -411.41 232.77 C-411.67 233.3 -411.94 233.84 -412.22 234.39 C-423.3 233.78 -432.41 228.08 -440.22 220.39 C-452.46 205.17 -453.33 187.08 -452.22 168.39 C-451.52 162.54 -450.03 156.98 -448.22 151.39 C-448.01 150.73 -447.8 150.07 -447.59 149.39 C-440.44 127.44 -427.89 107.4 -411.74 90.95 C-410.07 89.24 -408.43 87.51 -406.79 85.78 C-395.09 73.58 -382.11 63.73 -367.97 54.52 C-367.17 53.98 -366.37 53.45 -365.55 52.91 C-360.02 49.4 -360.02 49.4 -356.65 49.35 C-354 50.48 -351.36 51.63 -348.75 52.87 C-318.09 67.41 -283.85 74.91 -250.22 78.39 C-250.22 79.05 -250.22 79.71 -250.22 80.39 C-249.56 80.39 -248.9 80.39 -248.22 80.39 C-249.17 83.59 -249.61 85.05 -252.59 86.7 C-256.79 89.4 -258.45 93.74 -259.81 98.44 C-261.08 104.53 -260.25 110.03 -257.22 115.39 C-255.66 116.83 -255.66 116.83 -253.87 118.12 C-249.85 121.43 -248.01 125.04 -245.84 129.7 C-238.13 145.15 -225.4 153.81 -209.22 159.39 C-193.94 163.93 -178.23 161.54 -164.22 154.39 C-152.59 147.23 -143.49 137.47 -138.72 124.52 C-136.87 120.67 -134.82 119.57 -131.22 117.39 C-126.74 112.45 -126.81 106.93 -126.88 100.5 C-127.48 95.01 -129.8 90.6 -133.89 86.87 C-134.43 86.44 -134.97 86.02 -135.53 85.58 C-136.42 84.86 -137.31 84.13 -138.22 83.39 C-138.22 82.07 -138.22 80.75 -138.22 79.39 C-137.26 79.24 -136.31 79.08 -135.32 78.92 C-79.15 71.12 -79.15 71.12 -33.62 40.4 C-27.44 31.41 -26.77 22.04 -27.22 11.39 C-23.23 9.36 -19.23 7.37 -15.22 5.39 C-13.46 4.5 -13.46 4.5 -11.67 3.59 C-10.53 3.03 -9.39 2.47 -8.22 1.89 C-7.17 1.36 -6.12 0.84 -5.03 0.3 C-2.22 -0.61 -2.22 -0.61 0 0 Z "
        fill="#FBFCFE" transform="translate(844.21875,686.609375)" />
    <path
        d="M0 0 C-0.63 0.22 -1.25 0.44 -1.9 0.66 C-7.1 2.67 -7.1 2.67 -10.88 6.62 C-11.08 12.05 -9.23 15.7 -6 20 C-1.08 24.46 4.32 28.16 10.12 31.38 C13 33 13 33 15 36 C16.03 42.72 15.03 48.5 11 54 C6.02 59.31 1.47 62.04 -5.88 62.31 C-10.68 62.21 -13.77 61.24 -18 59 C-18.81 58.58 -19.61 58.15 -20.45 57.72 C-24.22 55.18 -26.4 51.74 -29.04 48.08 C-29.68 47.39 -30.33 46.71 -31 46 C-32.32 46 -33.64 46 -35 46 C-33.4 57.12 -33.4 57.12 -26.8 65.72 C-24.25 67.31 -21.69 68.68 -19 70 C-18.35 70.34 -17.7 70.68 -17.03 71.04 C-9.5 74.47 -0.38 74.19 7.31 71.44 C12.3 69.18 16.14 65.84 20 62 C20.68 62.46 21.36 62.92 22.05 63.39 C33.33 70.83 42.8 75.2 56.58 72.49 C64.37 70.18 69.31 66.67 73.44 59.62 C75.74 55.11 76.67 52.01 76 47 C74.68 46.67 73.36 46.34 72 46 C71.74 46.74 71.49 47.48 71.23 48.24 C68.72 53.89 63.77 58.6 58.06 61 C51.62 62.94 45.19 62.75 38.99 60.11 C33.91 57.28 29.91 54.02 27.5 48.69 C27.34 47.47 27.17 46.25 27 45 C26.79 44.24 26.58 43.47 26.37 42.69 C25.83 39.56 25.81 37.97 27 35 C30.31 31.83 34.29 29.61 38.23 27.32 C41.68 25.31 44.29 22.96 47 20 C47.91 19.05 48.82 18.1 49.75 17.12 C52.34 13.53 52.92 11.4 53 7 C52.2 3.73 51.75 2.46 48.88 0.69 C48.26 0.46 47.64 0.23 47 0 C49 -1 49 -1 52.35 0.08 C53.78 0.65 55.21 1.22 56.62 1.81 C57.38 2.13 58.14 2.44 58.92 2.77 C70.59 7.79 80.77 15.05 90.97 22.51 C104.82 32.48 118.53 35.09 135.28 32.49 C143.44 30.13 150.43 25.23 157.55 20.75 C180.68 6.3 208.53 -1.69 235.7 4.39 C248.16 7.62 261.26 12.57 268 24 C269.41 25.94 270.83 27.88 272.25 29.81 C282.08 43.68 286.52 58.03 286 75 C281.38 77.12 281.38 77.12 278 76 C278.16 75.26 278.33 74.51 278.5 73.75 C280.07 61.97 279 52.08 271.81 42.31 C260.34 28.69 245.61 22.3 228 20 C206.6 18.61 185.98 23 168.94 36.65 C164.16 41.03 161.53 46.09 159 52 C158.57 52.95 158.13 53.9 157.69 54.88 C155.67 64.04 156.66 72.67 161 81 C169.84 94.01 185.14 102.11 200.18 105.49 C206.13 106.56 211.9 107.19 217.94 107.19 C218.66 107.19 219.39 107.19 220.14 107.19 C227.84 107.12 235.39 106.15 243 105 C242.35 110.17 241.64 115.43 239 120 C236.19 122.03 233.55 123.34 230.36 124.65 C220.91 128.52 216.42 135.96 212.25 144.97 C207.04 157.57 207.36 169.64 209 183 C206.15 184.56 203.3 186.09 200.44 187.62 C199.66 188.05 198.88 188.48 198.07 188.92 C185.2 195.79 172.34 200.02 158.12 203 C156.55 203.34 154.97 203.68 153.4 204.02 C132.39 208.51 111.3 212.44 90 215.25 C88.86 215.4 87.72 215.55 86.54 215.71 C82.7 216.19 78.85 216.61 75 217 C74.14 217.09 73.29 217.17 72.41 217.26 C55.27 218.95 38.2 219.37 20.99 219.32 C18.9 219.31 16.82 219.31 14.73 219.31 C-5.34 219.27 -25.1 218.81 -45 216 C-46.95 215.74 -46.95 215.74 -48.93 215.48 C-68.92 212.83 -88.66 209.12 -108.35 204.8 C-110.58 204.31 -112.82 203.83 -115.06 203.36 C-156.97 194.6 -202.43 166.82 -226.84 131.13 C-240.93 109.38 -248.28 83.29 -242.97 57.41 C-239.97 45.28 -234.03 33.57 -226 24 C-224 21.42 -222.38 18.97 -221 16 C-220.34 16 -219.68 16 -219 16 C-216.54 14.78 -214.12 13.53 -211.69 12.25 C-191.28 1.76 -168.03 -0.53 -145.98 6.36 C-145.33 6.57 -144.67 6.78 -144 7 C-143.33 7.21 -142.65 7.43 -141.96 7.65 C-130.84 11.27 -121.21 16.56 -111.29 22.67 C-96.63 31.65 -84.05 34.94 -66.91 32.57 C-59 30.49 -52.51 25.47 -45.91 20.82 C-38.17 15.39 -30.3 10.53 -22 6 C-21.24 5.58 -20.48 5.15 -19.69 4.72 C-13.86 1.62 -6.57 -2.22 0 0 Z "
        fill="#FBFCFE" transform="translate(630,492)" />
    <path
        d="M0 0 C4.37 4.66 8.8 9.86 11.25 15.81 C10.32 18.95 8.38 20.87 6.12 23.19 C-1.1 31.27 -6.31 41.59 -9.75 51.81 C-10.16 53.01 -10.58 54.21 -11 55.44 C-13.46 66.51 -12.21 77.49 -7.75 87.81 C-7.45 88.55 -7.15 89.29 -6.84 90.05 C-2.97 98.7 2.87 103.85 11.04 108.38 C14.01 110.3 15.32 112.88 17.25 115.81 C19.13 116.97 19.13 116.97 21.31 118 C30.17 122.55 37.67 130.54 41.25 139.81 C43.45 147.39 42.56 154.71 39.25 161.81 C35.46 167.68 30.31 170.5 24.25 173.81 C21.94 170.34 22.17 169.62 22.5 165.62 C22.7 156.83 19.14 148.6 15.25 140.81 C15.58 141.97 15.91 143.12 16.25 144.31 C17.99 152.31 19.43 163.24 15.06 170.56 C13.66 172.33 13.66 172.33 12.25 173.81 C11.11 175.02 11.11 175.02 9.94 176.25 C3.8 179.82 -4.33 178.94 -11.25 178.88 C-12.17 178.87 -13.09 178.87 -14.03 178.86 C-16.27 178.85 -18.51 178.83 -20.75 178.81 C-21.75 176.81 -21.75 176.81 -21.19 174.75 C-20.9 173.92 -20.61 173.1 -20.31 172.25 C-17.19 162.13 -19.33 154.7 -22.75 144.81 C-22.75 146.74 -22.71 148.67 -22.61 150.6 C-22.28 160.47 -23.96 167.5 -29.94 175.44 C-32.73 178.34 -33.53 178.77 -37.69 179.5 C-39.38 179.33 -41.07 179.09 -42.75 178.81 C-44 178.63 -45.25 178.44 -46.53 178.25 C-60.95 175.95 -72.62 171.61 -82.16 160.12 C-95.95 140.18 -95.96 110.09 -97.02 86.74 C-97.05 86.04 -97.09 85.34 -97.12 84.62 C-97.22 82.7 -97.3 80.77 -97.39 78.85 C-97.54 75.64 -97.54 75.64 -99.75 72.81 C-100.22 73.8 -100.7 74.79 -101.19 75.81 C-101.45 76.37 -101.72 76.93 -102 77.5 C-103.96 83.51 -103.92 90.04 -103.95 96.31 C-103.96 97.1 -103.96 97.89 -103.97 98.71 C-103.98 100.38 -103.99 102.05 -103.99 103.72 C-104 106.21 -104.03 108.71 -104.06 111.2 C-104.12 120.72 -103.41 129.67 -101.5 139 C-100.73 142.94 -100.21 146.83 -99.75 150.81 C-132.11 161.14 -163.78 164.08 -197.62 164.12 C-199.29 164.13 -199.29 164.13 -200.98 164.14 C-275.07 164.26 -275.07 164.26 -296.75 149.81 C-296.26 145.66 -295.72 141.54 -295 137.42 C-291.59 117.45 -289.22 92.41 -295.75 72.81 C-297.07 73.14 -298.39 73.47 -299.75 73.81 C-299.76 74.55 -299.78 75.3 -299.79 76.06 C-301.33 146.81 -301.33 146.81 -321.34 167.69 C-329.84 175.17 -341.69 177.92 -352.75 178.81 C-353.48 178.91 -354.21 179.01 -354.96 179.11 C-359.64 179.52 -362.34 178.88 -366.06 175.94 C-371.95 170.04 -373.9 164.04 -374.01 155.76 C-373.99 152.77 -373.89 149.79 -373.75 146.81 C-378.08 153.31 -378.45 160.19 -377.75 167.81 C-376.95 171.55 -375.9 175.17 -374.75 178.81 C-378.25 178.87 -381.75 178.91 -385.25 178.94 C-386.23 178.95 -387.21 178.97 -388.23 178.99 C-397.27 179.05 -404.33 178.33 -411.11 171.85 C-415.95 165.82 -414.83 158.48 -414.04 151.22 C-413.9 150.03 -413.9 150.03 -413.75 148.81 C-413.75 148.48 -413.75 148.15 -413.75 147.81 C-420.08 155.01 -418.98 163.79 -418.75 172.81 C-425.28 171.91 -430.86 168 -435.25 163.16 C-439.9 156.45 -439.53 148.17 -438.39 140.38 C-435.65 130.05 -426.93 123.4 -418.13 118.19 C-417.35 117.73 -416.56 117.28 -415.75 116.81 C-414.26 115.82 -414.26 115.82 -412.75 114.81 C-413.55 106.79 -414.88 98.9 -416.29 90.96 C-420.56 66.13 -421.2 35.76 -406.75 13.81 C-399.21 14.71 -399.21 14.71 -396.47 15.34 C-374.04 19.26 -343.3 15.66 -323.75 3.81 C-322.75 2.92 -322.75 2.92 -321.74 2 C-319.75 0.81 -319.75 0.81 -317.22 1.41 C-298.16 12.25 -284.47 45.95 -277.75 65.81 C-277.75 66.47 -277.75 67.13 -277.75 67.81 C-275.35 68.49 -275.35 68.49 -272.75 68.81 C-272.09 68.15 -271.43 67.49 -270.75 66.81 C-269.58 67.83 -268.42 68.85 -267.25 69.88 C-266.51 70.52 -265.78 71.16 -265.02 71.82 C-263.61 73.06 -262.21 74.3 -260.82 75.55 C-239.06 95.11 -216.69 101.78 -187.98 101 C-181.53 100.63 -175.79 99.09 -169.75 96.81 C-168.77 96.5 -167.79 96.18 -166.79 95.86 C-153.58 91.12 -141.59 81.58 -132.12 71.38 C-130.68 69.92 -130.68 69.92 -127.75 67.81 C-123.88 67.99 -123.88 67.99 -120.75 68.81 C-120.46 68.09 -120.16 67.37 -119.86 66.62 C-108 37.82 -93.55 4.91 -63.75 -9.19 C-59.14 -10.84 -54.52 -12.11 -49.75 -13.19 C-49.03 -13.35 -48.32 -13.51 -47.58 -13.68 C-31.03 -16.55 -12.17 -11.51 0 0 Z "
        fill="#F7A326" transform="translate(849.75,911.1875)" />
    <path
        d="M0 0 C0.97 0.7 1.94 1.39 2.94 2.11 C10.27 7.65 10.27 7.65 12 13 C11.27 13.78 11.27 13.78 10.53 14.58 C-7.2 34.05 -23.11 60.13 -27.8 86.46 C-29 90 -29 90 -31.86 91.48 C-33.57 91.83 -33.57 91.83 -35.31 92.19 C-42.25 93.89 -42.25 93.89 -47 99 C-53.37 111.09 -53.85 123.39 -49.94 136.25 C-42.05 159.48 -23.8 174.25 -2.44 184.88 C-1.32 185.41 -0.21 185.94 0.94 186.49 C8.73 190.33 8.73 190.33 9.88 193.19 C10 196 10 196 9.52 199.48 C7.14 217.84 9.17 236.97 13 255 C13.69 258.38 13.69 258.38 13 262 C10.72 263.98 8.28 265.51 5.74 267.14 C-3.69 273.55 -7.5 282.51 -11 293 C-14.14 294.57 -17.5 294.18 -20.95 294.2 C-21.76 294.21 -22.56 294.22 -23.39 294.22 C-54.37 294.43 -82.8 291.9 -111 278 C-112.13 277.44 -113.26 276.89 -114.42 276.32 C-126.81 269.9 -137.58 262.05 -147.56 252.39 C-148.96 251.04 -150.38 249.73 -151.81 248.42 C-180.38 221.39 -192.73 179.57 -194.29 141.24 C-195.29 99.03 -182.96 55.82 -156 23 C-155.32 22.17 -155.32 22.17 -154.62 21.32 C-136.43 -0.44 -110.64 -14.47 -82.44 -17.8 C-54.07 -20.11 -23.65 -17.21 0 0 Z "
        fill="#F7A326" transform="translate(411,759)" />
    <path
        d="M0 0 C2.68 2.33 3.64 4.35 4.75 7.69 C9.12 18.85 17.65 23.91 28 29 C32.55 30.89 37.13 32.21 42 33 C42 33.66 42 34.32 42 35 C42.99 35 43.98 35 45 35 C45 35.66 45 36.32 45 37 C44.67 37.33 44.34 37.66 44 38 C45.05 37.28 45.05 37.28 46.13 36.54 C49.32 34.83 51.38 34.55 54.97 34.38 C56.12 34.31 57.27 34.24 58.45 34.17 C59.64 34.12 60.83 34.06 62.06 34 C79.72 33.14 97.5 29.59 110 16 C112.09 13.5 114.11 10.95 116.12 8.38 C122.59 0.19 122.59 0.19 126.43 -0.32 C131.17 0.27 133.88 3.59 137 7 C145.21 17.85 148.27 27.39 147 41 C144.16 56.99 133.9 68.71 123 80 C114 89.36 109.84 97.35 109.86 110.48 C109.86 111.23 109.85 111.97 109.85 112.74 C109.84 115.23 109.84 117.72 109.84 120.21 C109.83 122 109.83 123.78 109.82 125.57 C109.81 130.42 109.8 135.28 109.8 140.13 C109.8 143.17 109.79 146.2 109.79 149.23 C109.77 158.74 109.76 168.24 109.76 177.74 C109.76 188.69 109.74 199.65 109.71 210.6 C109.69 219.08 109.68 227.55 109.68 236.03 C109.68 241.09 109.67 246.15 109.65 251.2 C109.64 255.97 109.63 260.73 109.64 265.49 C109.64 267.23 109.64 268.97 109.63 270.72 C109.56 283.37 109.81 294.7 119.2 304.23 C120.94 305.95 122.67 307.66 124.41 309.37 C136.56 321.72 146.93 336.83 147.5 354.56 C147.15 365.93 143.31 374.73 135.27 382.72 C128.47 388.85 121.66 391.4 112.45 391.21 C96.71 389.87 83.7 383.38 72 373 C71.12 372.24 70.24 371.48 69.34 370.7 C62.2 364.44 62.2 364.44 59.44 360.81 C54.76 355.42 48.43 351.97 42 349 C41.67 349.33 41.34 349.66 41 350 C41.48 350.42 41.97 350.83 42.47 351.26 C49.03 357.29 52.89 364.22 57 372 C45.98 383.54 30.86 390.71 14.88 391.25 C3.38 390.51 -4.4 386.09 -12.44 377.69 C-18.92 369.31 -20.14 359.33 -19.27 349.06 C-16.9 331.07 -5.11 317.3 7.81 305.5 C14.16 299.29 17.79 290.37 18.13 281.59 C18.13 280.27 18.14 278.95 18.14 277.59 C18.14 276.86 18.15 276.12 18.15 275.36 C18.16 272.9 18.16 270.44 18.16 267.98 C18.17 266.21 18.17 264.44 18.18 262.67 C18.19 257.87 18.2 253.07 18.2 248.27 C18.2 245.27 18.21 242.27 18.21 239.27 C18.23 229.87 18.24 220.48 18.24 211.08 C18.24 200.25 18.26 189.41 18.29 178.58 C18.31 170.2 18.32 161.81 18.32 153.43 C18.32 148.43 18.33 143.43 18.35 138.42 C18.36 133.72 18.37 129.01 18.36 124.3 C18.36 122.58 18.36 120.85 18.37 119.13 C18.45 104.47 16.79 92.17 6.26 81.12 C4.72 79.61 3.17 78.11 1.61 76.61 C-10.5 64.84 -19.04 51.35 -19.38 34.19 C-19.35 23.5 -16.28 14.88 -9 7 C-6.21 4.33 -3.47 1.73 0 0 Z "
        fill="#FCFDFF" transform="translate(868,624)" />
    <path
        d="M0 0 C0.99 0.33 1.98 0.66 3 1 C4.65 1.2 6.31 1.36 7.97 1.49 C8.99 1.58 10.01 1.66 11.06 1.75 C12.17 1.84 13.28 1.92 14.43 2.02 C16.82 2.21 19.21 2.41 21.6 2.61 C22.86 2.72 24.12 2.82 25.42 2.93 C100.68 9.19 100.68 9.19 133.75 18.56 C134.74 18.84 134.74 18.84 135.76 19.12 C141.33 20.83 145.73 23.1 149 28 C149.06 30.44 149.06 30.44 148 33 C89.39 70.8 -25.79 59.11 -93.56 61.69 C-94.36 61.72 -95.16 61.75 -95.98 61.78 C-107.98 62.24 -119.99 62.65 -132 63 C-133.26 63.04 -133.26 63.04 -134.55 63.08 C-172.06 64.17 -209.58 64.2 -247.11 64.19 C-249.52 64.19 -251.93 64.19 -254.35 64.19 C-303.22 64.18 -352.06 63.98 -400.91 62.08 C-403.04 62 -405.17 61.92 -407.3 61.84 C-571.27 55.7 -571.27 55.7 -631.88 40.94 C-633.24 40.61 -633.24 40.61 -634.63 40.27 C-650.13 36.15 -650.13 36.15 -653.28 30.84 C-653.52 30.23 -653.76 29.63 -654 29 C-644.96 16.42 -621.87 14.36 -607.56 11.97 C-594.75 9.88 -581.93 8.1 -569 7 C-569 6.67 -569 6.34 -569 6 C-563.09 6.48 -557.18 6.98 -551.27 7.54 C-536.15 8.91 -521.18 9.24 -506 9 C-503.17 15.58 -503.17 15.58 -501.97 18.48 C-501.52 19.54 -501.52 19.54 -501.06 20.62 C-500.76 21.34 -500.47 22.05 -500.16 22.79 C-494.73 33.14 -482.69 38.56 -472 42 C-457.04 45.82 -441.79 46.24 -426.44 46.25 C-425.64 46.25 -424.85 46.25 -424.03 46.25 C-403.88 46.22 -381.7 45.47 -366 31 C-363.44 27.9 -361.11 24.78 -358.81 21.48 C-357 19 -357 19 -355 18 C-352.3 18.82 -349.66 19.7 -347 20.62 C-286.18 40.61 -209.4 37.64 -149 18 C-148.47 18.79 -147.93 19.57 -147.38 20.38 C-136.81 35.29 -122.93 41.86 -105 45 C-96.26 46.3 -87.5 46.2 -78.69 46.19 C-77.48 46.19 -77.48 46.19 -76.25 46.18 C-54.45 46.13 -32.55 46.04 -14 33 C-12.64 32.13 -12.64 32.13 -11.25 31.25 C-2.41 22.41 -0.94 11.9 0 0 Z "
        fill="#C7B59E" transform="translate(904,1055)" />
    <path
        d="M0 0 C0.97 0.7 1.94 1.39 2.94 2.11 C10.27 7.65 10.27 7.65 12 13 C11.5 13.55 11.01 14.09 10.5 14.65 C5.75 19.93 1.28 25.34 -3 31 C-3.86 30.62 -4.72 30.25 -5.61 29.86 C-12.91 26.77 -20.21 24.21 -27.88 22.19 C-28.65 21.98 -29.42 21.77 -30.21 21.56 C-54.29 15.42 -79.23 19.44 -101 31 C-128.69 48.24 -145.7 76.98 -154 108 C-154.29 109.03 -154.29 109.03 -154.58 110.08 C-162.29 138.63 -159.74 169.44 -145.19 195.31 C-141.72 200.75 -137.51 205.41 -133 210 C-132.35 210.68 -131.69 211.36 -131.02 212.05 C-107.48 234.73 -72.91 240.68 -41.58 240.28 C-24.88 239.87 -10.66 234.65 4.04 226.92 C6 226 6 226 8 226 C9.17 228.34 9.38 230.24 9.72 232.83 C9.85 233.8 9.97 234.76 10.11 235.75 C10.24 236.76 10.37 237.77 10.5 238.81 C10.76 240.8 11.02 242.78 11.28 244.77 C11.4 245.65 11.51 246.54 11.63 247.44 C12 249.99 12.47 252.49 13 255 C13.69 258.38 13.69 258.38 13 262 C10.72 263.98 8.28 265.51 5.74 267.14 C-3.69 273.55 -7.5 282.51 -11 293 C-14.14 294.57 -17.5 294.18 -20.95 294.2 C-21.76 294.21 -22.56 294.22 -23.39 294.22 C-54.37 294.43 -82.8 291.9 -111 278 C-112.13 277.44 -113.26 276.89 -114.42 276.32 C-126.81 269.9 -137.58 262.05 -147.56 252.39 C-148.96 251.04 -150.38 249.73 -151.81 248.42 C-180.38 221.39 -192.73 179.57 -194.29 141.24 C-195.29 99.03 -182.96 55.82 -156 23 C-155.32 22.17 -155.32 22.17 -154.62 21.32 C-136.43 -0.44 -110.64 -14.47 -82.44 -17.8 C-54.07 -20.11 -23.65 -17.21 0 0 Z "
        fill="#FCFDFF" transform="translate(411,759)" />
    <path
        d="M0 0 C3.39 1.45 6.73 2.96 10.05 4.54 C17.97 8.18 26.04 11.11 34.3 13.85 C35.42 14.22 36.54 14.6 37.69 14.98 C44.86 17.33 52.08 19.31 59.43 21.04 C57.2 45.48 50.74 69.4 44.68 93.11 C44.47 93.96 44.25 94.8 44.03 95.67 C43.62 97.26 43.21 98.86 42.8 100.45 C41.79 104.2 41.79 104.2 41.43 108.04 C36.78 106.31 32.44 104.08 28.05 101.79 C26.96 101.23 26.96 101.23 25.84 100.67 C21.39 98.34 17.66 95.77 13.95 92.38 C12.26 90.83 12.26 90.83 9.43 89.04 C11.04 80.21 14.2 71.99 17.3 63.6 C17.84 62.14 18.38 60.67 18.91 59.21 C19.43 57.78 19.96 56.35 20.48 54.92 C20.74 54.23 20.99 53.54 21.25 52.82 C22.98 48.14 24.87 43.56 26.97 39.03 C27.65 36.96 27.65 36.96 26.52 34.78 C26.16 34.2 25.8 33.63 25.43 33.04 C22.26 35.72 20.66 39.13 18.87 42.79 C18.53 43.47 18.19 44.16 17.84 44.87 C13.86 53.02 10.3 61.36 6.73 69.69 C6.15 71.03 6.15 71.03 5.56 72.4 C4.81 74.16 4.07 75.92 3.35 77.7 C3.01 78.51 2.67 79.33 2.32 80.17 C2.03 80.89 1.73 81.62 1.43 82.36 C0.43 84.04 0.43 84.04 -2.57 85.04 C-4.48 84.71 -4.48 84.71 -6.63 84.12 C-25.27 79.66 -45.76 83.76 -62.03 93.52 C-64.26 94.96 -66.43 96.47 -68.57 98.04 C-69.18 98.49 -69.79 98.93 -70.43 99.39 C-73.47 101.75 -74.94 103.24 -75.57 107.04 C-76.55 108.06 -77.55 109.06 -78.57 110.04 C-78.57 110.7 -78.57 111.36 -78.57 112.04 C-77.64 110.77 -77.64 110.77 -76.7 109.48 C-65.39 96.09 -47.16 91.24 -30.38 89.76 C-21.63 89.48 -10.4 90.06 -3.57 96.04 C-4.48 96.06 -5.39 96.09 -6.32 96.12 C-30.04 97.19 -50.45 105.89 -67.05 122.97 C-72.84 130.02 -76.62 137.89 -77.57 147.04 C-76.25 147.37 -74.93 147.7 -73.57 148.04 C-73.26 146.83 -73.26 146.83 -72.95 145.6 C-67.65 131.88 -55.69 121.14 -42.57 115.04 C-21.41 106.3 3.58 103.39 25.37 111.66 C33.68 115.84 39.81 123.6 43.43 132.04 C44.7 136.44 44.73 140.73 44.8 145.29 C44.86 146.52 44.86 146.52 44.92 147.78 C45.03 155.46 42.25 159.99 37.12 165.54 C36.56 166.03 36 166.53 35.43 167.04 C35.23 166.13 35.04 165.22 34.84 164.29 C33.1 156.99 30.97 150.43 27.43 143.79 C27.1 143.16 26.77 142.53 26.42 141.88 C24.53 138.47 22.77 136.09 19.43 134.04 C19.85 134.87 20.27 135.7 20.71 136.56 C21.25 137.65 21.8 138.73 22.37 139.85 C22.91 140.93 23.46 142.01 24.02 143.12 C27.49 150.31 27.81 160.04 25.68 167.77 C23.9 171.48 21.97 174.01 18.43 176.04 C15.25 176.88 12.05 177.37 8.8 177.85 C7.5 178.07 7.5 178.07 6.16 178.29 C1.34 179.04 1.34 179.04 -0.57 179.04 C-1.23 178.38 -1.89 177.72 -2.57 177.04 C-2.55 175.76 -2.53 174.48 -2.51 173.16 C-2.33 162.04 -6.64 152.25 -12.57 143.04 C-13.23 142.71 -13.89 142.38 -14.57 142.04 C-14.29 142.57 -14.02 143.1 -13.73 143.65 C-13.37 144.35 -13.01 145.06 -12.63 145.79 C-12.27 146.49 -11.91 147.18 -11.54 147.9 C-8.02 155.65 -8.02 168.05 -11.01 176.04 C-12.57 179.04 -12.57 179.04 -13.57 180.04 C-25.5 182.07 -36.45 182.05 -47.01 175.53 C-56.2 168.84 -61.35 160.44 -65.57 150.04 C-66.56 150.04 -67.55 150.04 -68.57 150.04 C-68.57 156.62 -66.72 161.44 -63.82 167.23 C-63.49 167.9 -63.15 168.58 -62.8 169.28 C-61.07 172.62 -59.27 175.53 -56.79 178.38 C-54.57 181.04 -54.57 181.04 -54.76 183.41 C-55.03 183.95 -55.29 184.49 -55.57 185.04 C-66.65 184.42 -75.76 178.73 -83.57 171.04 C-95.81 155.82 -96.68 137.73 -95.57 119.04 C-94.87 113.19 -93.38 107.63 -91.57 102.04 C-91.36 101.38 -91.15 100.72 -90.94 100.04 C-83.79 78.08 -71.24 58.05 -55.09 41.6 C-53.42 39.89 -51.79 38.16 -50.14 36.43 C-38.44 24.23 -25.46 14.38 -11.32 5.16 C-10.12 4.37 -10.12 4.37 -8.9 3.56 C-3.37 0.05 -3.37 0.05 0 0 Z "
        fill="#F7A326" transform="translate(487.5703125,735.9609375)" />
    <path
        d="M0 0 C2.01 1.57 2.99 2.95 4.28 5.14 C10.11 14.3 17.67 22.47 25.45 30.01 C30.26 35 30.89 40.04 31.04 46.7 C31.07 47.98 31.1 49.26 31.13 50.57 C31.22 55.64 31.28 60.71 31.33 65.78 C31.37 69.63 31.42 73.47 31.52 77.31 C31.61 81.04 31.66 84.76 31.67 88.49 C31.69 89.91 31.72 91.32 31.76 92.74 C32.1 103.74 32.1 103.74 28.89 107.76 C26.59 109.59 24.37 111.01 21.78 112.39 C20.94 112.88 20.09 113.37 19.22 113.88 C16.45 115.47 13.62 116.92 10.78 118.39 C9.33 119.17 7.87 119.96 6.42 120.74 C-1.32 124.9 -9.09 128.95 -17.09 132.58 C-18.06 133.03 -18.06 133.03 -19.06 133.5 C-21.7 134.66 -24.02 135.38 -26.91 135.57 C-30.71 133.63 -31.65 130.2 -33.22 126.39 C-33.55 125.63 -33.87 124.87 -34.21 124.09 C-35.27 121.61 -36.31 119.13 -37.34 116.64 C-40.55 109.07 -43.94 101.63 -47.59 94.27 C-48.01 93.42 -48.43 92.57 -48.86 91.7 C-49.25 90.91 -49.65 90.13 -50.05 89.32 C-50.4 88.63 -50.75 87.94 -51.1 87.23 C-52.29 85.28 -53.47 83.86 -55.22 82.39 C-55.88 82.39 -56.54 82.39 -57.22 82.39 C-56.68 89.03 -54.32 94.63 -51.84 100.77 C-39.38 132.52 -28.42 165.41 -24.22 199.39 C-25.06 199.36 -25.89 199.32 -26.75 199.29 C-41.13 198.95 -53.91 202.2 -67.22 207.39 C-67.2 206.75 -67.19 206.11 -67.17 205.44 C-66.54 175.43 -72.65 148.37 -80.01 119.38 C-82.42 109.85 -84.77 100.35 -86.66 90.7 C-86.82 89.88 -86.98 89.07 -87.15 88.22 C-88.04 83.47 -88.33 79.06 -88.08 74.23 C-88.04 72.14 -88.04 72.14 -90.22 70.39 C-89.6 70.21 -88.98 70.02 -88.35 69.83 C-55.22 59.96 -55.22 59.96 -31.18 36.47 C-27.31 28.11 -26.83 20.55 -27.22 11.39 C-23.23 9.36 -19.23 7.37 -15.22 5.39 C-14.05 4.8 -12.88 4.2 -11.67 3.59 C-10.53 3.03 -9.39 2.47 -8.22 1.89 C-7.17 1.36 -6.12 0.84 -5.03 0.3 C-2.22 -0.61 -2.22 -0.61 0 0 Z "
        fill="#F7A326" transform="translate(844.21875,686.609375)" />
    <path
        d="M0 0 C4.56 1.91 8.5 3.86 12.62 6.62 C46.08 27.55 87.33 35.64 125.7 26.97 C147.35 21.77 167.75 12.99 186.46 0.92 C188 0 188 0 189 0 C188.98 1.27 188.97 2.55 188.95 3.86 C188.9 8.67 188.86 13.48 188.84 18.29 C188.82 20.36 188.8 22.43 188.77 24.49 C188.63 36.04 188.89 47 191.25 58.33 C192.04 62.22 192.55 66.06 193 70 C160.64 80.33 128.97 83.27 95.12 83.31 C93.46 83.32 93.46 83.32 91.77 83.32 C17.68 83.45 17.68 83.45 -4 69 C-3.53 64.98 -3.03 61.01 -2.25 57.03 C1.22 38.23 0.27 19.03 0 0 Z "
        fill="#F18228" transform="translate(557,992)" />
    <path
        d="M0 0 C10.29 0.75 19.32 8.81 27.44 14.62 C28.59 15.45 28.59 15.45 29.77 16.29 C39.8 23.59 39.8 23.59 42 28 C41.24 28.5 40.47 28.99 39.69 29.5 C36.29 32.66 34.91 35.47 34 40 C33.94 44.9 35.29 49.44 37 54 C36.46 54.35 35.91 54.7 35.36 55.07 C30.43 58.47 27.68 61.03 26 67 C25.41 72.45 26.32 77.22 29 82 C31.02 83.56 31.02 83.56 33 84 C35.98 81.9 35.98 81.9 38 79 C38 76.07 37.63 73.4 37.1 70.52 C37 68 37 68 38.11 66.24 C40.6 64.61 42.75 64.26 45.69 63.81 C46.68 63.65 47.68 63.5 48.7 63.33 C49.46 63.22 50.22 63.11 51 63 C49.62 64.5 49.62 64.5 48 66 C47.34 66 46.68 66 46 66 C45.67 67.65 45.34 69.3 45 71 C48.92 71.28 50.75 70.89 53.79 68.4 C54.82 67.58 54.82 67.58 55.87 66.73 C56.6 66.14 57.32 65.55 58.06 64.94 C64.77 59.63 71.44 55.03 79 51 C80.43 50.2 81.86 49.4 83.29 48.61 C94.2 42.6 105.19 37.89 117 34 C117.78 33.74 118.56 33.47 119.36 33.2 C139.29 26.55 160.08 22.71 181 21 C182.26 20.89 183.52 20.78 184.81 20.66 C222.15 17.83 261.05 20.81 296.78 32.29 C298.87 32.96 300.96 33.59 303.05 34.21 C311.91 36.95 319.91 40.72 328.08 45.02 C329.88 45.94 331.7 46.79 333.52 47.65 C344.27 52.69 353.79 59.39 363.15 66.67 C363.84 67.21 364.54 67.75 365.26 68.31 C365.88 68.8 366.5 69.29 367.15 69.8 C369.1 71.07 370.72 71.57 373 72 C372.5 70.91 372.01 69.81 371.5 68.69 C370 65 370 65 370 62 C371.46 62.59 372.92 63.2 374.38 63.81 C375.19 64.15 376 64.49 376.84 64.83 C379 66 379 66 381 69 C381.28 72.49 380.78 75.6 380 79 C381.98 80.65 383.96 82.3 386 84 C389.73 80.64 391.63 77.96 392.26 72.93 C392.56 67.04 391.22 63.88 388 59 C387.67 58.01 387.34 57.02 387 56 C385.35 55.28 383.69 54.62 382 54 C381.34 53.34 380.68 52.68 380 52 C380.71 51.29 380.71 51.29 381.44 50.56 C383.73 46.8 384.37 43.4 384 39 C382.11 34.15 379.14 30.11 376 26 C384.66 19.66 393.33 13.35 402.25 7.38 C402.84 6.97 403.44 6.57 404.05 6.16 C413.46 -0.08 413.46 -0.08 417.25 0.11 C420.69 1.85 421.77 5.56 423 9 C425.72 19.34 427.14 29.57 427.24 40.24 C427.25 41.11 427.26 41.98 427.27 42.88 C427.5 69.53 425.64 94.31 418 120 C413.1 116.42 410.28 112.28 406.96 107.27 C406.32 106.52 405.67 105.77 405 105 C403.68 105 402.36 105 401 105 C401.54 108.38 402.11 111.7 403 115 C399.61 111.65 396.33 108.22 393.12 104.69 C392.25 103.72 391.37 102.75 390.46 101.75 C388.51 99.57 386.62 97.37 384.75 95.12 C369.77 78.07 351.08 65.3 331 55 C329.98 54.47 329.98 54.47 328.94 53.93 C304.91 41.49 277.78 34.35 251 31 C250.18 30.9 249.37 30.79 248.53 30.68 C211.61 26.18 173.07 28.08 137 37 C136.12 37.21 135.23 37.43 134.32 37.65 C108.97 43.95 84.27 54.77 63 70 C61.99 70.72 60.99 71.44 59.95 72.18 C54.09 76.48 48.58 81.02 43.24 85.95 C41.31 87.72 39.34 89.4 37.31 91.06 C31.25 96.23 26.45 102.59 21.68 108.92 C19.91 111.11 18.02 113.05 16 115 C16.33 111.37 16.66 107.74 17 104 C12.97 106.14 10.53 108.46 7.75 112.06 C7.06 112.94 6.38 113.82 5.67 114.72 C3.99 116.88 3.99 116.88 3 119 C2.34 119 1.68 119 1 119 C1 118.34 1 117.68 1 117 C0.34 117 -0.32 117 -1 117 C-6.35 95.26 -9.27 74.69 -9.38 52.31 C-9.39 51.02 -9.39 51.02 -9.4 49.7 C-9.51 33.98 -9.17 16.37 -2 2 C-1.34 1.34 -0.68 0.68 0 0 Z "
        fill="#FBFCFE" transform="translate(442,227)" />
    <path
        d="M0 0 C0.99 0.33 1.98 0.66 3 1 C3.06 1.65 3.13 2.29 3.19 2.96 C6.56 28.91 20.84 53.58 40 71 C40.99 71.5 40.99 71.5 42 72 C42 72.66 42 73.32 42 74 C42.92 74.13 42.92 74.13 43.86 74.25 C46 75 46 75 47.17 76.71 C47.5 77.45 47.84 78.18 48.19 78.94 C51.24 84.82 55.38 89.3 60 94 C60.65 94.68 61.31 95.36 61.98 96.06 C85.53 118.73 120.09 124.68 151.42 124.28 C168.12 123.87 182.34 118.65 197.04 110.92 C199 110 199 110 201 110 C202.17 112.34 202.38 114.24 202.72 116.83 C202.91 118.28 202.91 118.28 203.11 119.75 C203.24 120.76 203.37 121.77 203.5 122.81 C203.76 124.8 204.02 126.78 204.28 128.77 C204.45 130.09 204.45 130.09 204.63 131.44 C205 133.99 205.47 136.49 206 139 C206.69 142.38 206.69 142.38 206 146 C203.72 147.98 201.28 149.51 198.74 151.14 C189.31 157.55 185.5 166.51 182 177 C178.86 178.57 175.5 178.18 172.05 178.2 C171.24 178.21 170.44 178.22 169.61 178.22 C138.63 178.43 110.2 175.9 82 162 C80.87 161.44 79.74 160.89 78.58 160.32 C66.19 153.9 55.42 146.05 45.44 136.39 C44.04 135.04 42.62 133.73 41.19 132.42 C13.44 106.16 0.49 65.24 -1.14 27.87 C-1.37 18.51 -1.35 9.28 0 0 Z "
        fill="#CACBE3" transform="translate(218,875)" />
    <path
        d="M0 0 C11.83 9.08 21.51 23.13 24.07 37.97 C25.48 50.69 24.36 62.04 18.64 73.52 C16.12 78.82 16 82.21 17.39 87.83 C17.64 88.9 17.88 89.96 18.14 91.06 C18.85 93.99 19.6 96.92 20.39 99.83 C15.73 99.39 11.3 98.86 6.76 97.71 C1.13 96.42 -3.25 97.01 -8.36 99.71 C-20.71 106.15 -36.18 107 -49.52 103.05 C-66.18 96.48 -78.69 86.47 -86.31 70.16 C-92.49 54.4 -91.49 38.49 -85.15 23 C-78.64 9.59 -67.26 -1.11 -53.31 -6.43 C-35.3 -11.96 -15.79 -10.95 0 0 Z "
        fill="#FCFDFF" transform="translate(307.61328125,286.16796875)" />
    <path
        d="M0 0 C0.65 0.52 1.31 1.04 1.98 1.57 C2.58 2.05 3.18 2.52 3.8 3.02 C7.87 6.65 10.63 10.95 13.36 15.63 C13.87 16.52 13.87 16.52 14.4 17.42 C18.76 25.23 19.09 34.01 16.92 42.57 C15.07 48.17 11.87 52.21 7.98 56.57 C7.23 57.48 7.23 57.48 6.46 58.41 C-4.05 70.17 -19.87 74.79 -35.02 76.57 C-57.68 77.77 -77.71 72.87 -95.46 58.01 C-102.05 51.94 -105.41 45.16 -106.38 36.3 C-106.82 25.16 -104.07 16.76 -96.83 8.26 C-72.84 -16.45 -28.05 -20.34 0 0 Z "
        fill="#F96D6F" transform="translate(504.01953125,523.4296875)" />
    <path
        d="M0 0 C1.25 1.02 2.48 2.06 3.69 3.12 C4.29 3.65 4.9 4.17 5.52 4.71 C12.71 11.38 18.24 20.03 18.87 29.98 C18.94 33.04 18.85 36.06 18.69 39.12 C18.59 41.04 18.59 41.04 18.5 43 C15.35 48.43 9.31 49.83 3.69 52.12 C-4.82 56.18 -11.26 62.25 -16.31 70.12 C-16.58 70.89 -16.85 71.65 -17.12 72.44 C-18.85 74.88 -21.04 75.12 -23.85 75.73 C-46.95 79.43 -68.92 76.96 -88.48 63.29 C-97.1 56.7 -103.08 49.93 -105.31 39.12 C-106.41 28.85 -104.35 19.81 -98.33 11.33 C-75.59 -15.27 -28.64 -20.55 0 0 Z "
        fill="#F86C6F" transform="translate(891.3125,522.875)" />
    <path
        d="M0 0 C0.52 8.22 -0.87 14.14 -6.12 20.62 C-30.83 41.04 -75.18 54.41 -107 52 C-109.35 49.96 -111.35 47.78 -113.34 45.39 C-123.07 34.57 -138.63 28.86 -152.87 28 C-169.22 27.98 -185.4 34.29 -197.06 45.75 C-199.89 48.63 -199.89 48.63 -202 52 C-239.31 49.15 -281.13 41.75 -314 23 C-313.03 15.32 -310.66 6.66 -305 1 C-296.97 1.48 -289.2 3.41 -281.37 5.15 C-253.65 11.26 -225.35 16.15 -197 18 C-195.23 18.13 -195.23 18.13 -193.42 18.25 C-130.64 22.51 -64.91 16.17 -4.18 -0.58 C-2 -1 -2 -1 0 0 Z "
        fill="#F96D6F" transform="translate(806,703)" />
    <path
        d="M0 0 C0.33 0.66 0.66 1.32 1 2 C1.66 1.67 2.32 1.34 3 1 C6.56 0.88 6.56 0.88 10 1 C10.5 1.49 10.5 1.49 11 2 C13.11 2.14 15.21 2.2 17.32 2.25 C18.67 2.28 20.01 2.31 21.35 2.34 C22.06 2.36 22.77 2.37 23.5 2.39 C37.41 2.7 51.16 3.53 65 5 C65.33 5 65.66 5 66 5 C64.35 3.68 62.7 2.36 61 1 C64.91 -0.3 68.18 0.39 72.18 0.96 C73.38 1.13 73.38 1.13 74.61 1.29 C77.18 1.65 79.74 2.01 82.31 2.38 C84.03 2.61 85.75 2.85 87.47 3.09 C100.67 4.91 100.67 4.91 107 6 C107 6.66 107 7.32 107 8 C107.66 8 108.32 8 109 8 C107.07 26.43 102.27 45.21 88 58 C79.52 63.72 69.09 66.19 59 67 C58.27 67.1 57.54 67.2 56.79 67.3 C52.11 67.71 49.41 67.07 45.69 64.12 C39.8 58.23 37.85 52.22 37.74 43.95 C37.76 40.96 37.86 37.98 38 35 C33.67 41.5 33.3 48.38 34 56 C34.8 59.74 35.85 63.35 37 67 C33.5 67.06 30 67.09 26.5 67.12 C25.52 67.14 24.54 67.16 23.52 67.18 C14.48 67.24 7.42 66.52 0.64 60.04 C-4.2 54.01 -3.08 46.66 -2.29 39.41 C-2.19 38.61 -2.1 37.82 -2 37 C-2 36.67 -2 36.34 -2 36 C-8.33 43.2 -7.23 51.98 -7 61 C-13.53 60.1 -19.11 56.19 -23.5 51.34 C-28.15 44.64 -27.78 36.36 -26.64 28.57 C-23.9 18.24 -15.18 11.59 -6.38 6.38 C-5.6 5.92 -4.81 5.47 -4 5 C-0.75 3.28 -0.75 3.28 0 0 Z "
        fill="#FBFCFE" transform="translate(438,1023)" />
    <path
        d="M0 0 C10.52 3.74 22.29 14.2 27.38 24.04 C30.23 31.72 30.06 39.09 27.17 46.72 C23.79 53.99 18.01 57.06 11.21 60.79 C8.9 57.31 9.13 56.59 9.46 52.6 C9.67 43.8 6.1 35.57 2.21 27.79 C2.54 28.94 2.87 30.1 3.21 31.29 C4.95 39.29 6.39 50.21 2.02 57.54 C0.62 59.3 0.62 59.3 -0.79 60.79 C-1.93 61.99 -1.93 61.99 -3.1 63.22 C-9.24 66.79 -17.37 65.91 -24.29 65.85 C-25.21 65.84 -26.12 65.84 -27.07 65.83 C-29.31 65.82 -31.55 65.81 -33.79 65.79 C-34.79 63.79 -34.79 63.79 -34.23 61.72 C-33.94 60.9 -33.65 60.07 -33.35 59.22 C-30.23 49.1 -32.37 41.67 -35.79 31.79 C-35.79 33.71 -35.75 35.64 -35.65 37.57 C-35.32 47.45 -37 54.47 -42.98 62.41 C-45.77 65.31 -46.57 65.75 -50.73 66.47 C-52.42 66.31 -54.11 66.07 -55.79 65.79 C-57.04 65.6 -58.28 65.42 -59.57 65.23 C-73.99 62.92 -85.66 58.58 -95.2 47.09 C-103.56 34.99 -106.3 18.18 -106.79 3.79 C-106.46 4.45 -106.13 5.11 -105.79 5.79 C-104.76 5.5 -103.74 5.21 -102.68 4.92 C-96.36 3.34 -89.92 2.55 -83.48 1.66 C-82.22 1.48 -80.97 1.3 -79.67 1.11 C-72.33 0.09 -65.21 -0.47 -57.79 -0.21 C-58.45 0.45 -59.11 1.11 -59.79 1.79 C-60.78 1.79 -61.77 1.79 -62.79 1.79 C-62.79 2.45 -62.79 3.11 -62.79 3.79 C-61.19 3.79 -59.6 3.53 -58 3.35 C-41.25 1.51 -24.62 1.58 -7.79 1.79 C-7.79 1.13 -7.79 0.47 -7.79 -0.21 C-4.97 -1.63 -2.94 -0.8 0 0 Z "
        fill="#FBFCFE" transform="translate(862.7890625,1024.21484375)" />
    <path
        d="M0 0 C0.66 0 1.32 0 2 0 C2.6 1.2 2.6 1.2 3.21 2.42 C26.14 46.72 72.61 72.26 118.44 87.19 C152.95 98.01 188.92 103.91 225 106 C226.44 106.08 226.44 106.08 227.9 106.17 C298.1 110.1 375.09 104.75 439.51 74.44 C444.72 72 444.72 72 448 72 C449.23 76.52 450.13 80.29 450 85 C447.15 86.56 444.3 88.09 441.44 89.62 C440.27 90.27 440.27 90.27 439.07 90.92 C426.2 97.79 413.34 102.02 399.12 105 C397.55 105.34 395.97 105.68 394.4 106.02 C373.39 110.51 352.3 114.44 331 117.25 C329.86 117.4 328.72 117.55 327.54 117.71 C323.7 118.19 319.85 118.61 316 119 C315.14 119.09 314.29 119.17 313.41 119.26 C296.27 120.95 279.2 121.37 261.99 121.32 C259.9 121.31 257.82 121.31 255.73 121.31 C235.66 121.27 215.9 120.81 196 118 C194.7 117.83 193.41 117.66 192.07 117.48 C172.08 114.83 152.34 111.12 132.65 106.8 C130.42 106.31 128.18 105.83 125.94 105.36 C83.94 96.58 38.71 68.81 14.17 33.15 C8.22 24.01 0 11.15 0 0 Z "
        fill="#CACBE3" transform="translate(389,590)" />
    <path
        d="M0 0 C7.18 6.75 12.54 14.26 12.91 24.32 C12.95 25.99 12.98 27.65 13.01 29.31 C13.07 30.54 13.07 30.54 13.12 31.8 C13.23 39.48 10.45 44.01 5.32 49.56 C4.77 50.05 4.21 50.55 3.64 51.06 C3.44 50.15 3.24 49.24 3.04 48.3 C1.31 41 -0.83 34.45 -4.36 27.81 C-4.7 27.18 -5.03 26.55 -5.37 25.9 C-7.26 22.49 -9.03 20.11 -12.36 18.06 C-11.94 18.89 -11.52 19.72 -11.09 20.58 C-10.54 21.66 -9.99 22.75 -9.43 23.87 C-8.88 24.95 -8.34 26.03 -7.77 27.14 C-4.3 34.33 -3.98 44.06 -6.12 51.79 C-7.89 55.5 -9.82 58.03 -13.36 60.06 C-16.54 60.9 -19.74 61.39 -22.99 61.87 C-23.86 62.02 -24.73 62.16 -25.63 62.31 C-30.46 63.06 -30.46 63.06 -32.36 63.06 C-33.02 62.4 -33.68 61.74 -34.36 61.06 C-34.34 59.78 -34.32 58.5 -34.3 57.18 C-34.12 46.06 -38.44 36.27 -44.36 27.06 C-45.35 26.56 -45.35 26.56 -46.36 26.06 C-46.09 26.59 -45.81 27.12 -45.52 27.67 C-44.98 28.73 -44.98 28.73 -44.43 29.81 C-44.07 30.5 -43.71 31.2 -43.34 31.92 C-39.81 39.67 -39.81 52.07 -42.8 60.06 C-44.36 63.06 -44.36 63.06 -45.36 64.06 C-57.3 66.08 -68.24 66.07 -78.8 59.55 C-87.56 53.18 -92.63 45.14 -97.2 35.46 C-98.15 33.16 -98.15 33.16 -99.36 32.06 C-99.44 30.6 -99.45 29.14 -99.43 27.68 C-99.42 26.89 -99.41 26.1 -99.4 25.29 C-99.39 24.55 -99.38 23.82 -99.36 23.06 C-99.36 22.07 -99.36 21.08 -99.36 20.06 C-88.15 3.8 -70.43 -3.82 -51.72 -7.7 C-35.61 -10.28 -13.43 -11.04 0 0 Z "
        fill="#FBFCFE" transform="translate(519.36328125,851.94140625)" />
    <path
        d="M0 0 C6.41 5.25 11.71 11.88 12.64 20.3 C12.16 24.72 11.04 25.76 7.76 28.66 C4.21 31.95 1.1 35.17 -1.8 39.04 C-8.29 47.33 -16.21 52.65 -26.3 55.6 C-35.38 56.53 -35.38 56.53 -40.12 54.16 C-45.07 49.43 -44.62 41.18 -44.85 34.78 C-44.86 32.47 -44.84 30.16 -44.74 27.85 C-48.23 37.96 -49.28 46.24 -48.74 56.85 C-66.1 57.42 -66.1 57.42 -72.74 52.16 C-78.11 46.9 -79.63 40.31 -79.87 32.98 C-79.82 29.19 -79.36 25.58 -78.74 21.85 C-79.4 21.85 -80.06 21.85 -80.74 21.85 C-81.01 23.03 -81.27 24.21 -81.55 25.43 C-81.9 26.99 -82.26 28.54 -82.62 30.1 C-82.79 30.88 -82.97 31.66 -83.14 32.46 C-83.32 33.21 -83.49 33.97 -83.67 34.74 C-83.91 35.78 -83.91 35.78 -84.15 36.84 C-84.79 39 -85.68 40.87 -86.74 42.85 C-90.04 40.18 -91.74 36.9 -92.74 32.85 C-93.76 23 -92.91 13.92 -87.2 5.61 C-85.49 3.53 -83.7 1.69 -81.74 -0.15 C-81.18 -0.69 -80.62 -1.24 -80.04 -1.8 C-59.58 -19.32 -20.35 -14.99 0 0 Z "
        fill="#FBFCFE" transform="translate(973.7421875,590.1484375)" />
    <path
        d="M0 0 C14.59 12.35 25.35 29.92 27.22 49.25 C27.34 51.55 27.38 53.83 27.38 56.12 C27.37 57.35 27.37 57.35 27.37 58.6 C27.2 67.4 25.64 76.19 21.36 83.98 C17.87 91.73 21.41 99.17 23.96 106.71 C26.68 115.17 26.68 115.17 25 120 C21.4 122.4 20.72 122.09 16.62 121.31 C15.56 121.12 14.5 120.92 13.4 120.71 C9.98 120 6.59 119.2 3.19 118.38 C-4.36 116.62 -8.93 116.29 -15.75 119.91 C-29.77 126.71 -48.64 125.96 -63.21 121.26 C-81 114.93 -95.02 102.9 -103.29 86.08 C-111.4 68.84 -112.01 50.87 -105.93 32.84 C-99.23 15.72 -88.31 2.71 -71.88 -5.57 C-47.73 -16.03 -22.03 -15.05 0 0 Z M-86.94 20.27 C-96.67 33.24 -99.95 48.39 -98.54 64.32 C-96.37 79.21 -88.8 91.69 -77 101 C-62.89 110.89 -47.2 115.58 -29.99 112.66 C-24.38 111.44 -19.05 109.89 -14.25 106.69 C-7.9 103.39 -0.67 105.91 5.99 107.6 C8.31 108.13 8.31 108.13 12 108 C11.8 107.24 11.59 106.48 11.38 105.69 C10.54 102.47 9.76 99.24 9 96 C8.69 94.84 8.69 94.84 8.37 93.66 C7.05 87.23 9.66 82.88 12.5 77.18 C18.4 64.69 17.33 48.82 13 36 C6.65 21.07 -4.93 8.18 -20 2 C-43.75 -7.57 -70.79 1.33 -86.94 20.27 Z "
        fill="#000271" transform="translate(316,278)" />
    <path
        d="M0 0 C0.99 0.33 1.98 0.66 3 1 C3.07 14.18 3.12 27.36 3.16 40.53 C3.17 46.65 3.19 52.77 3.23 58.89 C3.26 64.8 3.28 70.71 3.28 76.61 C3.29 78.87 3.3 81.12 3.32 83.37 C3.34 86.53 3.34 89.68 3.34 92.84 C3.35 93.77 3.36 94.7 3.37 95.66 C3.35 101.21 2.55 105.05 0 110 C-4.58 108.63 -6.23 106.76 -8.81 102.81 C-16.14 92.36 -24.69 87.64 -36.24 82.58 C-39.32 80.81 -39.72 80.19 -41 77 C-41.5 75.04 -41.93 73.06 -42.33 71.08 C-42.57 69.92 -42.81 68.75 -43.06 67.55 C-43.31 66.32 -43.56 65.08 -43.81 63.81 C-45.68 54.79 -47.64 45.9 -50.53 37.15 C-51.77 33.31 -52.21 30.03 -52 26 C-51.24 25.72 -50.47 25.44 -49.68 25.15 C-37.5 20.59 -25.9 15.34 -14.73 8.64 C-11.48 6.69 -8.17 4.86 -4.84 3.04 C-3.18 2.1 -1.59 1.06 0 0 Z "
        fill="#F9E1A6" transform="translate(872,807)" />
    <path
        d="M0 0 C3.44 1.74 4.52 5.45 5.75 8.89 C8.47 19.23 9.89 29.46 9.99 40.12 C10.01 41.43 10.01 41.43 10.02 42.76 C10.26 69.42 8.39 94.19 0.75 119.89 C-4.11 116.32 -6.96 112.22 -10.28 107.25 C-12.32 104.8 -13.14 104.18 -16.25 103.89 C-16.25 103.23 -16.25 102.57 -16.25 101.89 C-16.82 101.67 -17.4 101.45 -17.99 101.22 C-20.96 99.46 -22.35 97.33 -24.31 94.51 C-25.32 93.08 -25.32 93.08 -26.34 91.61 C-26.97 90.71 -27.6 89.81 -28.25 88.89 C-29.24 87.55 -30.24 86.21 -31.25 84.89 C-30.9 84.42 -30.55 83.95 -30.19 83.46 C-29.5 82.53 -29.5 82.53 -28.81 81.57 C-28.13 80.65 -28.13 80.65 -27.44 79.71 C-24.66 75.45 -24.63 70.79 -25.25 65.89 C-26.34 63.3 -27.69 61.25 -29.25 58.89 C-29.74 57.4 -29.74 57.4 -30.25 55.89 C-31.89 55.17 -33.56 54.5 -35.25 53.89 C-35.91 53.23 -36.57 52.57 -37.25 51.89 C-36.77 51.41 -36.3 50.94 -35.81 50.45 C-33.51 46.68 -32.88 43.28 -33.25 38.89 C-35.14 34.04 -38.11 30 -41.25 25.89 C-32.59 19.55 -23.91 13.23 -15 7.26 C-14.4 6.86 -13.81 6.46 -13.2 6.05 C-3.79 -0.19 -3.79 -0.19 0 0 Z "
        fill="#FBFCFE" transform="translate(859.24609375,227.11328125)" />
    <path
        d="M0 0 C2.38 2.87 2.98 4.51 3.12 8.25 C-0.16 19.19 -9.87 25.12 -19 31 C-20.32 31.7 -21.64 32.38 -23 33 C-23.35 39.37 -23.57 45.47 -20 51 C-14.74 56.23 -9.06 58.99 -1.62 59.31 C5.11 59.11 9.94 57.32 14.81 52.62 C17.32 49.94 19.14 47.17 21 44 C21.99 43.67 22.98 43.34 24 43 C26 45 26 45 26.5 47.94 C26.32 54.49 22.07 60.88 17.62 65.44 C7.9 71.23 -1.22 74.12 -12.69 71.35 C-19.32 68.86 -25.16 64.95 -31 61 C-31.55 61.54 -32.09 62.09 -32.65 62.64 C-39.92 69.54 -45.44 72.05 -55.44 72.44 C-61.7 72.27 -66.5 70.94 -72 68 C-72.82 67.56 -73.63 67.13 -74.48 66.68 C-81.21 62.67 -83.58 58.25 -86 51 C-86.04 48.67 -86.04 46.33 -86 44 C-84.02 43.5 -84.02 43.5 -82 43 C-81.43 43.75 -80.86 44.5 -80.28 45.27 C-74.95 52.07 -70.73 57.19 -62 59 C-55.14 59.71 -49.67 59.1 -44 55 C-38.98 50.34 -36.93 45.69 -36.62 38.94 C-36.52 35.7 -36.63 34.46 -38.69 31.91 C-41.15 29.88 -43.65 28.21 -46.38 26.56 C-54.3 21.57 -60 17.32 -63 8 C-62.54 4.41 -61.99 2.9 -59.33 0.48 C-44.86 -8.7 -14.64 -8.66 0 0 Z "
        fill="#000271" transform="translate(681,494)" />
    <path
        d="M0 0 C11.65 10.51 15.2 24.84 17 40 C17.11 40.89 17.22 41.78 17.34 42.7 C21.33 81.39 14.21 122.99 0 159 C-0.66 159 -1.32 159 -2 159 C-3 156 -3 156 -1.75 153.38 C-1.17 152.26 -0.6 151.15 0 150 C4.14 139.64 5.3 128.39 7.06 117.44 C7.24 116.38 7.41 115.32 7.59 114.23 C9.58 101.83 10.24 89.73 10.25 77.19 C10.25 76.37 10.25 75.54 10.25 74.7 C10.31 43.21 10.31 43.21 -2.67 15.32 C-4.71 13.3 -6 13 -8.88 12.62 C-26.25 13.12 -44.08 30.67 -57.25 40.47 C-68.03 48.5 -78.95 56.34 -90 64 C-90.81 63.61 -90.81 63.61 -91.63 63.22 C-94.11 62.04 -96.59 60.86 -99.06 59.69 C-99.91 59.28 -100.76 58.88 -101.63 58.46 C-106.38 56.21 -111.15 54.03 -116 52 C-114.63 47.88 -112.57 47.25 -108.88 45.06 C-107.2 44.06 -107.2 44.06 -105.49 43.04 C-103.19 41.68 -100.87 40.37 -98.54 39.06 C-94.73 36.89 -91.12 34.46 -87.5 32 C-83.35 29.18 -79.2 26.51 -74.82 24.05 C-71.33 22.03 -67.99 19.78 -64.62 17.56 C-58.86 13.81 -53.13 10.14 -47 7 C-46.12 6.54 -46.12 6.54 -45.22 6.07 C-29.5 -2.1 -29.5 -2.1 -22 -4 C-21.03 -4.25 -20.06 -4.5 -19.06 -4.75 C-11.72 -5.35 -5.82 -4.87 0 0 Z "
        fill="#F8A426" transform="translate(870,203)" />
    <path
        d="M0 0 C5.16 3.33 10.33 6.61 15.61 9.74 C16.43 10.22 17.24 10.71 18.08 11.21 C19.71 12.18 21.34 13.14 22.98 14.09 C24.11 14.76 24.11 14.76 25.25 15.45 C25.93 15.84 26.6 16.24 27.3 16.65 C29.28 18.22 30.04 19.68 31 22 C28.52 23.25 26.04 24.5 23.56 25.75 C22.87 26.1 22.19 26.45 21.48 26.8 C20.06 27.52 18.64 28.21 17.21 28.9 C15.69 29.66 14.2 30.47 12.73 31.33 C7.19 34.35 7.19 34.35 4 33.41 C1.87 32.14 0.03 30.72 -1.88 29.12 C-2.6 28.57 -3.32 28.01 -4.06 27.44 C-5.6 26.26 -7.13 25.06 -8.66 23.85 C-12.5 20.81 -16.48 17.95 -20.44 15.06 C-22.03 13.89 -23.62 12.71 -25.21 11.53 C-48.89 -8.69 -48.89 -8.69 -77 -17 C-83.03 -14.85 -84.81 -11.69 -87.51 -6.11 C-93.34 6.71 -95.09 21.47 -95.24 35.43 C-95.25 36.2 -95.26 36.98 -95.27 37.78 C-95.56 67.14 -93.15 96 -82.6 123.69 C-81.94 126.22 -82.13 127.56 -83 130 C-86.04 125.02 -88.17 120.26 -89.88 114.69 C-90.13 113.88 -90.38 113.07 -90.63 112.23 C-96.17 93.81 -99.87 75.11 -102 56 C-102.13 54.95 -102.26 53.9 -102.4 52.81 C-105.09 27.77 -105.11 -5.96 -89 -27 C-67.11 -52.84 -19.39 -12.56 0 0 Z "
        fill="#F7A326" transform="translate(517,233)" />
    <path
        d="M0 0 C2.08 0.67 4.18 1.3 6.27 1.92 C15.13 4.66 23.12 8.43 31.3 12.73 C33.09 13.65 34.92 14.5 36.74 15.36 C47.49 20.4 57.01 27.1 66.36 34.38 C67.06 34.92 67.76 35.46 68.48 36.02 C69.1 36.51 69.72 37 70.36 37.51 C72.32 38.78 73.94 39.28 76.22 39.71 C75.72 38.62 75.23 37.52 74.72 36.4 C73.22 32.71 73.22 32.71 73.22 29.71 C74.68 30.3 76.14 30.91 77.59 31.52 C78.4 31.86 79.22 32.2 80.05 32.54 C82.22 33.71 82.22 33.71 84.22 36.71 C84.49 40.2 83.99 43.31 83.22 46.71 C84.09 47.39 84.97 48.07 85.87 48.77 C89.41 51.72 92.09 55.1 94.84 58.77 C95.77 59.99 96.7 61.21 97.63 62.43 C98.07 63 98.5 63.57 98.95 64.16 C100.32 65.9 100.32 65.9 102.55 67.93 C104.22 69.71 104.22 69.71 104.34 73.08 C104.3 74.28 104.26 75.48 104.22 76.71 C105.13 80.03 105.13 80.03 106.22 82.71 C102.82 79.36 99.55 75.93 96.34 72.4 C95.46 71.43 94.58 70.46 93.68 69.46 C91.73 67.28 89.84 65.08 87.97 62.83 C72.99 45.78 54.3 33.01 34.22 22.71 C33.2 22.18 33.2 22.18 32.16 21.64 C8.12 9.2 -19 2.06 -45.78 -1.29 C-46.6 -1.39 -47.41 -1.5 -48.26 -1.61 C-85.17 -6.11 -123.71 -4.21 -159.78 4.71 C-160.67 4.92 -161.55 5.14 -162.46 5.36 C-187.81 11.66 -212.51 22.48 -233.78 37.71 C-234.79 38.43 -235.8 39.15 -236.83 39.89 C-242.69 44.19 -248.2 48.73 -253.54 53.66 C-255.47 55.43 -257.45 57.11 -259.47 58.77 C-265.53 63.94 -270.33 70.3 -275.11 76.63 C-276.87 78.82 -278.77 80.76 -280.78 82.71 C-281.04 74.37 -278.97 69.71 -273.79 63.24 C-271.39 60.21 -269.6 57.11 -267.78 53.71 C-267.12 53.71 -266.46 53.71 -265.78 53.71 C-265.78 52.72 -265.78 51.73 -265.78 50.71 C-264.79 50.71 -263.8 50.71 -262.78 50.71 C-260.31 49.49 -260.31 49.49 -258.78 46.71 C-258.86 43.83 -259.23 41.11 -259.72 38.27 C-259.78 35.71 -259.78 35.71 -258.67 33.94 C-256.18 32.32 -254.02 31.97 -251.09 31.52 C-249.6 31.28 -249.6 31.28 -248.08 31.04 C-247.32 30.93 -246.56 30.82 -245.78 30.71 C-247.16 32.21 -247.16 32.21 -248.78 33.71 C-249.44 33.71 -250.1 33.71 -250.78 33.71 C-251.11 35.36 -251.44 37.01 -251.78 38.71 C-247.87 38.99 -246.03 38.6 -243 36.11 C-242.31 35.56 -241.62 35.01 -240.91 34.44 C-239.83 33.55 -239.83 33.55 -238.72 32.65 C-232.01 27.34 -225.35 22.74 -217.78 18.71 C-216.35 17.91 -214.92 17.11 -213.49 16.32 C-202.59 10.31 -191.6 5.6 -179.78 1.71 C-179 1.45 -178.22 1.18 -177.42 0.91 C-157.5 -5.74 -136.7 -9.58 -115.78 -11.29 C-114.52 -11.4 -113.27 -11.51 -111.97 -11.63 C-74.63 -14.46 -35.74 -11.48 0 0 Z "
        fill="#F8E0A5" transform="translate(738.7822265625,259.2900390625)" />
    <path
        d="M0 0 C4.8 4.29 6.69 7.72 7.3 14.14 C7.32 15.26 7.35 16.38 7.37 17.54 C7.4 18.82 7.43 20.09 7.46 21.41 C7.48 22.79 7.5 24.18 7.51 25.56 C7.52 26.26 7.53 26.96 7.54 27.69 C7.59 31.41 7.62 35.12 7.65 38.84 C7.67 42.66 7.75 46.49 7.84 50.31 C7.9 53.27 7.92 56.22 7.93 59.18 C7.94 60.59 7.97 62 8.01 63.41 C8.32 74.35 8.32 74.35 5.1 78.37 C2.81 80.19 0.58 81.62 -2 83 C-2.84 83.49 -3.69 83.98 -4.56 84.49 C-7.33 86.07 -10.16 87.53 -13 89 C-14.46 89.78 -15.91 90.57 -17.36 91.35 C-25.1 95.51 -32.87 99.56 -40.88 103.19 C-41.85 103.64 -41.85 103.64 -42.84 104.11 C-45.48 105.27 -47.8 105.99 -50.7 106.18 C-54.45 104.26 -55.46 100.71 -57 97 C-57.34 96.21 -57.69 95.43 -58.04 94.62 C-59.15 92.06 -60.23 89.5 -61.31 86.94 C-65.02 78.2 -68.91 69.57 -73 61 C-72.34 61 -71.68 61 -71 61 C-71 61.66 -71 62.32 -71 63 C-66.56 62.93 -62.11 62.84 -57.67 62.74 C-56.17 62.7 -54.66 62.68 -53.16 62.65 C-38.16 62.42 -21.56 61.66 -10.12 50.69 C-1.86 40.16 -2.25 24 -1.39 11.27 C-1.14 7.46 -0.74 3.75 0 0 Z "
        fill="#F18228" transform="translate(868,716)" />
    <path
        d="M0 0 C4.67 1.9 9.05 4.07 13.46 6.52 C32.53 17.01 54.85 24.07 76.78 24.2 C77.87 24.21 77.87 24.21 78.99 24.22 C80.53 24.23 82.06 24.24 83.6 24.24 C85.9 24.25 88.2 24.28 90.49 24.31 C103.79 24.41 116.46 22.68 129.06 18.25 C129.8 18 130.53 17.75 131.29 17.49 C138.79 14.86 145.86 11.5 153 8 C153 15.59 153 23.18 153 31 C119.22 47.78 85.67 51.08 49.4 38.96 C30.82 32.23 9.87 19.6 0 2 C0 1.34 0 0.68 0 0 Z "
        fill="#F08128" transform="translate(266,954)" />
    <path
        d="M0 0 C1.38 1.03 2.73 2.09 4.06 3.19 C4.66 3.67 5.26 4.14 5.88 4.64 C11.89 9.98 15.45 17.13 19.06 24.19 C19.52 25.06 19.98 25.94 20.46 26.84 C23.18 32.93 23.43 38.86 23.5 45.44 C23.52 46.72 23.52 46.72 23.53 48.02 C23.45 53.45 22.69 57.4 20.06 62.19 C17.56 63.31 17.56 63.31 15.06 63.19 C12.47 61.13 11.61 59.43 10.92 56.23 C10.74 55.45 10.56 54.68 10.38 53.88 C10.19 53.05 10 52.23 9.81 51.38 C6.6 38.35 1.67 26.02 -8.94 17.19 C-19.85 11 -31.71 11.12 -43.59 14.08 C-57.74 18.76 -65.42 27.5 -72.24 40.08 C-73.94 43.19 -73.94 43.19 -75.94 46.19 C-81.81 45.31 -81.81 45.31 -82.94 44.19 C-84.16 33.16 -78.39 22.72 -71.94 14.19 C-55.21 -6.33 -23.19 -14.61 0 0 Z "
        fill="#000271" transform="translate(562.9375,443.8125)" />
    <path
        d="M0 0 C10.12 8.35 20.9 21.83 22.24 35.41 C22.31 37.67 22.36 39.76 22 42 C21.01 42.99 21.01 42.99 20 44 C16.64 43.68 15.17 42.49 13 40 C11.92 38.17 10.89 36.31 9.88 34.44 C3.15 22.87 -4.23 15.61 -17 11 C-28.96 7.88 -40.47 8.7 -51.44 14.62 C-64.18 23.18 -68.77 38.13 -71.71 52.49 C-72.81 57.81 -72.81 57.81 -75 60 C-77.94 60.12 -77.94 60.12 -81 59 C-85.88 51.03 -84.95 40.15 -83.31 31.24 C-79.57 17 -72.62 5.24 -60.04 -2.92 C-41.12 -12.96 -17.7 -12.81 0 0 Z "
        fill="#000271" transform="translate(800,447)" />
    <path
        d="M0 0 C1.02 -0.01 2.04 -0.01 3.09 -0.02 C6.47 -0.04 9.85 -0.03 13.22 -0.01 C15.57 -0.02 17.91 -0.02 20.25 -0.03 C25.17 -0.03 30.08 -0.02 34.99 -0 C41.3 0.02 47.6 0.01 53.91 -0.02 C58.74 -0.03 63.58 -0.03 68.42 -0.02 C70.75 -0.02 73.07 -0.02 75.4 -0.03 C78.64 -0.04 81.89 -0.02 85.14 0 C86.59 -0.01 86.59 -0.01 88.06 -0.02 C94.56 0.06 94.56 0.06 97.16 2.41 C98.18 4.79 98.47 6.5 98.44 9.08 C98.45 10.23 98.45 10.23 98.47 11.4 C97.96 14.07 97.18 14.83 95.07 16.52 C93.1 16.9 93.1 16.9 90.83 16.9 C89.97 16.91 89.1 16.92 88.21 16.92 C86.8 16.92 86.8 16.92 85.35 16.91 C84.36 16.91 83.36 16.92 82.33 16.92 C79.03 16.93 75.72 16.93 72.42 16.92 C70.13 16.92 67.83 16.92 65.54 16.92 C60.73 16.93 55.92 16.92 51.11 16.91 C44.94 16.89 38.78 16.9 32.61 16.92 C27.87 16.93 23.14 16.93 18.4 16.92 C16.13 16.92 13.85 16.92 11.58 16.93 C8.4 16.93 5.22 16.92 2.04 16.91 C1.1 16.91 0.16 16.92 -0.81 16.92 C-5.62 16.88 -9.07 16.76 -12.93 13.52 C-13.53 11.4 -13.53 11.4 -13.43 9.08 C-13.42 8.32 -13.41 7.56 -13.4 6.77 C-11.82 -0.85 -6.6 -0.06 0 0 Z "
        fill="#F8A426" transform="translate(607.931640625,781.482421875)" />
    <path
        d="M0 0 C6.74 5.11 12.2 11.29 16.28 18.73 C16.28 19.39 16.28 20.05 16.28 20.73 C-11.44 20.73 -39.16 20.73 -67.72 20.73 C-68.05 20.07 -68.38 19.41 -68.72 18.73 C-60.98 6.22 -52.15 -1.96 -37.66 -5.65 C-24.42 -8.73 -11.64 -7.66 0 0 Z "
        fill="#F7A426" transform="translate(676.72265625,749.2734375)" />
    <path
        d="M0 0 C4.35 3.39 7.44 7.82 9.18 13.02 C9.87 18.96 10.22 24.42 6.74 29.52 C2.08 34.83 -4.04 36.84 -10.82 38.02 C-14.78 38.26 -18.74 38.25 -22.7 38.27 C-23.76 38.29 -24.83 38.31 -25.92 38.33 C-33.96 38.37 -39.51 37.32 -45.82 32.02 C-45.45 23.14 -39.76 16.33 -33.82 10.02 C-24.66 2.58 -12.12 -6.51 0 0 Z "
        fill="#FCFDFF" transform="translate(572.82421875,334.98046875)" />
    <path
        d="M0 0 C5.93 4.77 11.34 9.98 16 16 C16.76 16.97 17.53 17.94 18.31 18.94 C20.5 22.9 20.93 25.48 21 30 C19.54 32.73 18.01 33 15.1 34.05 C3.03 37.38 -14.83 36.98 -26 31 C-29.83 28.13 -32.48 25.57 -34 21 C-34.7 13.95 -34.5 7.73 -30 2 C-21.03 -6.42 -10.27 -7.07 0 0 Z "
        fill="#FCFDFF" transform="translate(754,338)" />
    <path
        d="M0 0 C-0.19 11.12 -1.93 17.2 -9.81 25 C-29.1 41.3 -57.53 45.5 -82 44 C-91.57 42.94 -91.57 42.94 -95 39 C-94.01 37.68 -93.02 36.36 -92 35 C-93.12 33.65 -93.12 33.65 -95.99 33.97 C-97.91 34.02 -97.91 34.02 -99.88 34.06 C-110.64 34.15 -119.56 33.35 -128 26 C-130.6 22.96 -131.8 21.03 -132.56 17.12 C-131.54 11.43 -128.15 6.93 -124 3 C-121 4 -121 4 -119.89 6.04 C-119.54 6.89 -119.18 7.75 -118.81 8.62 C-113.49 19.58 -102.87 24.54 -92 29 C-88.94 29.96 -86.18 30.55 -83 31 C-83 31.66 -83 32.32 -83 33 C-82.01 33 -81.02 33 -80 33 C-80 33.66 -80 34.32 -80 35 C-80.33 35.33 -80.66 35.66 -81 36 C-79.95 35.28 -79.95 35.28 -78.87 34.54 C-75.68 32.83 -73.62 32.55 -70.03 32.38 C-68.88 32.31 -67.73 32.24 -66.55 32.17 C-65.36 32.12 -64.17 32.06 -62.94 32 C-45.27 31.14 -27.51 27.59 -15 14 C-12.89 11.49 -10.85 8.94 -8.86 6.33 C-3.81 0 -3.81 0 0 0 Z "
        fill="#C9CAE2" transform="translate(993,626)" />
    <path
        d="M0 0 C4.27 3.26 7.2 7.21 10.16 11.65 C10.71 16.92 10.71 16.92 8.91 19.31 C6.72 20.98 5.54 21.03 2.8 21.05 C1.92 21.07 1.05 21.08 0.14 21.09 C-0.81 21.09 -1.76 21.09 -2.74 21.08 C-4.22 21.09 -4.22 21.09 -5.73 21.1 C-7.82 21.1 -9.91 21.1 -12.01 21.09 C-15.17 21.09 -18.33 21.11 -21.49 21.15 C-49 21.24 -49 21.24 -57.84 12.65 C-59.23 8.47 -59.24 6.53 -57.4 2.52 C-42.88 -13.77 -16.87 -10.81 0 0 Z "
        fill="#F9E1A6" transform="translate(839.83984375,909.3515625)" />
    <path
        d="M0 0 C5.75 2.71 7.61 7.15 10.27 12.59 C18.01 27.77 31.12 36.52 47 42 C62.28 46.54 77.99 44.15 92 37 C103.7 29.79 112.72 20.01 117.56 7 C119 4 119 4 121.56 2.56 C124 2 124 2 126 2 C123.24 16.34 117.47 27.81 107 38 C106.31 38.71 105.63 39.42 104.92 40.14 C94.93 49.83 81.77 55.04 68 56 C67.26 56.05 66.53 56.11 65.77 56.16 C48.1 56.82 32.16 50.72 19 39 C18.25 38.37 17.5 37.74 16.73 37.09 C6.82 28.08 0.47 15.32 -1 2 C-0.67 1.34 -0.34 0.68 0 0 Z "
        fill="#CACBE3" transform="translate(588,804)" />
    <path
        d="M0 0 C2.77 1.63 2.77 1.63 5.44 0.62 C6.64 -0.02 6.64 -0.02 7.88 -0.69 C11.61 -2.61 14.67 -3.08 18.88 -2.43 C22.61 -1.04 24.8 2.02 26.88 5.31 C28.48 10.13 28.58 13.81 26.41 18.45 C23.35 23.54 19.16 27.62 15 31.81 C14.21 32.65 13.42 33.48 12.61 34.34 C11.83 35.13 11.06 35.91 10.26 36.72 C9.56 37.43 8.86 38.15 8.15 38.88 C5.88 40.31 5.88 40.31 2.91 40.31 C-0.68 39.13 -2.37 37.69 -5.02 35.02 C-6.33 33.7 -6.33 33.7 -7.66 32.36 C-8.56 31.44 -9.45 30.51 -10.38 29.56 C-11.29 28.65 -12.2 27.75 -13.13 26.81 C-20.71 19.12 -20.71 19.12 -22.12 14.31 C-21.94 8.48 -21.1 4.81 -17.12 0.31 C-10.96 -3.29 -6.29 -3.4 0 0 Z "
        fill="#F96D6F" transform="translate(271.125,314.6875)" />
    <path
        d="M0 0 C-1.13 8.98 -2.41 19.07 -7 27 C-11.18 29.7 -15.15 30.24 -20 31 C-26.05 34.91 -28.3 42.25 -30 49 C-30.9 56.94 -30.31 65.15 -29 73 C-37.94 65.85 -40.56 52.83 -42 42 C-43.02 29.22 -42.39 16.37 -34 6 C-25.05 -3.63 -11.79 -6.43 0 0 Z "
        fill="#F18228" transform="translate(389,822)" />
    <path
        d="M0 0 C0.66 0 1.32 0 2 0 C2.25 0.76 2.5 1.53 2.75 2.31 C4.13 5.28 5.19 6.38 8 8 C8.99 8 9.98 8 11 8 C11 8.66 11 9.32 11 10 C11.66 10 12.32 10 13 10 C13 15.61 13 21.22 13 27 C14.98 26.67 16.96 26.34 19 26 C18.52 29.17 17.74 31.6 16.44 34.56 C14.74 37.99 14.74 37.99 15 42 C16.32 42.33 17.64 42.66 19 43 C19.27 42.09 19.54 41.18 19.81 40.25 C20.9 37.27 21.86 35.31 24 33 C24.66 33 25.32 33 26 33 C26 36.96 26 40.92 26 45 C25.34 45 24.68 45 24 45 C24 51.58 25.85 56.4 28.75 62.19 C29.09 62.86 29.42 63.54 29.77 64.24 C31.5 67.58 33.3 70.49 35.78 73.34 C38 76 38 76 37.81 78.38 C37.54 78.91 37.28 79.45 37 80 C25.92 79.38 16.81 73.69 9 66 C-3.28 50.74 -4.01 32.72 -3 14 C-2.43 9.23 -1.36 4.61 0 0 Z "
        fill="#F08128" transform="translate(395,841)" />
    <path
        d="M0 0 C2.19 1.74 2.86 3.17 3.32 5.92 C3.71 13.18 1.66 19.61 -2.84 25.34 C-7.78 30.58 -11.99 32.94 -19.29 33.34 C-29.17 33.52 -37.75 32.87 -47 29 C-47.87 28.64 -48.74 28.28 -49.63 27.9 C-59.83 23.19 -68.39 16.19 -76 8 C-75.34 7.34 -74.68 6.68 -74 6 C-73.47 6.27 -72.93 6.53 -72.38 6.8 C-58.64 13.32 -41.75 14.6 -27.19 9.94 C-21.32 7.71 -15.6 5.09 -10.01 2.24 C-6.53 0.5 -3.9 -0.52 0 0 Z "
        fill="#CACBE3" transform="translate(1006,974)" />
    <path
        d="M0 0 C5.92 4.42 11.53 9.54 14.51 16.42 C15.05 21.67 15.05 21.67 13.32 24.09 C10.86 25.9 9.23 25.76 6.2 25.67 C4.81 25.65 4.81 25.65 3.4 25.62 C0.51 25.42 0.51 25.42 -2.16 24.91 C-6.02 24.34 -9.77 24.33 -13.66 24.39 C-15.23 24.41 -16.79 24.42 -18.36 24.43 C-20.81 24.46 -23.26 24.48 -25.71 24.52 C-28.09 24.55 -30.47 24.57 -32.85 24.58 C-33.95 24.6 -33.95 24.6 -35.08 24.62 C-36.88 24.63 -38.69 24.54 -40.49 24.42 C-42.49 22.42 -42.49 22.42 -42.86 19.36 C-42.04 10.71 -37.67 4.34 -31.49 -1.58 C-21.73 -8.62 -9.65 -6.12 0 0 Z "
        fill="#F18228" transform="translate(491.48828125,988.578125)" />
    <path
        d="M0 0 C0.89 0.01 1.78 0.02 2.7 0.03 C3.38 0.04 4.05 0.05 4.75 0.06 C5.12 1.07 5.49 2.08 5.88 3.12 C6.5 4.77 7.12 6.42 7.75 8.06 C8.21 9.28 8.67 10.5 9.14 11.76 C9.66 13.09 10.17 14.42 10.69 15.75 C11.05 16.71 11.05 16.71 11.42 17.69 C13 21.75 14.97 24.74 17.75 28.06 C17.75 28.72 17.75 29.38 17.75 30.06 C16.84 30.06 15.93 30.05 15 30.05 C11.61 30.03 8.22 30.02 4.83 30.01 C3.37 30 1.91 30 0.45 29.99 C-1.66 29.97 -3.77 29.97 -5.88 29.96 C-7.15 29.96 -8.42 29.95 -9.72 29.95 C-13 30.05 -16.03 30.47 -19.25 31.06 C-21.14 31.17 -23.04 31.24 -24.94 31.25 C-25.87 31.26 -26.8 31.28 -27.76 31.29 C-30.25 31.06 -30.25 31.06 -33.25 29.06 C-34.12 23.63 -32.8 20.39 -29.78 16.04 C-22.48 6.61 -12.24 -0.16 0 0 Z "
        fill="#F18228" transform="translate(831.25,982.9375)" />
    <path
        d="M0 0 C0.66 0.33 1.32 0.66 2 1 C1.01 1.66 0.02 2.32 -1 3 C-0.01 3.66 0.98 4.32 2 5 C2 5.66 2 6.32 2 7 C2.58 7.06 3.15 7.12 3.75 7.19 C6.89 8.32 8.09 10.34 10 13 C9.43 13.13 8.86 13.25 8.28 13.38 C2.5 15.21 0.03 17.79 -2.81 23.12 C-9.1 36.45 -11.08 51.82 -11.24 66.43 C-11.25 67.2 -11.26 67.98 -11.27 68.78 C-11.56 98.14 -9.15 127 1.4 154.69 C2.06 157.22 1.87 158.56 1 161 C-2.04 156.02 -4.17 151.26 -5.88 145.69 C-6.13 144.88 -6.38 144.07 -6.63 143.23 C-12.17 124.81 -15.87 106.11 -18 87 C-18.13 85.95 -18.26 84.9 -18.4 83.81 C-21.08 58.87 -21.18 24.92 -5 4 C-2.12 1.38 -2.12 1.38 0 0 Z "
        fill="#F18228" transform="translate(433,202)" />
    <path
        d="M0 0 C0.33 0.66 0.66 1.32 1 2 C1.99 1.67 2.98 1.34 4 1 C4.23 2.04 4.46 3.08 4.7 4.15 C7.76 17.46 11.3 28.14 23.07 36.07 C34.8 43.37 46.97 46.2 60.6 47.51 C63.59 47.94 65.46 48.44 68 50 C66.53 54.85 64.01 58.89 60 62 C56.46 62.57 54.47 62.53 51 62 C49.75 61.82 48.5 61.63 47.21 61.45 C32.79 59.13 21.13 54.8 11.59 43.3 C3.23 31.21 0.49 14.39 0 0 Z "
        fill="#C9CAE2" transform="translate(756,1028)" />
    <path
        d="M0 0 C1.32 0 2.64 0 4 0 C4 0.66 4 1.32 4 2 C4.66 2 5.32 2 6 2 C4.07 20.43 -0.73 39.21 -15 52 C-23.48 57.72 -33.91 60.19 -44 61 C-45.09 61.15 -45.09 61.15 -46.21 61.3 C-49.85 61.62 -52.12 61.55 -55.28 59.58 C-58.6 56.76 -61.48 54.17 -63 50 C-62.67 49.01 -62.34 48.02 -62 47 C-62 47.66 -62 48.32 -62 49 C-61.5 48.69 -61 48.37 -60.48 48.05 C-57.14 46.64 -53.82 46.49 -50.25 46.19 C-35.36 44.66 -20.15 40.36 -9.6 29.11 C-3.11 20.53 0.45 10.72 0 0 Z "
        fill="#CACBE3" transform="translate(541,1029)" />
    <path
        d="M0 0 C12.43 10.65 14.4 29.68 15.69 45.09 C18.32 82.68 11.81 122 -2 157 C-2.66 157 -3.32 157 -4 157 C-5 154 -5 154 -3.75 151.38 C-3.17 150.26 -2.6 149.15 -2 148 C2.14 137.64 3.3 126.39 5.06 115.44 C5.24 114.38 5.41 113.32 5.59 112.23 C7.58 99.83 8.24 87.73 8.25 75.19 C8.25 74.37 8.25 73.54 8.25 72.7 C8.39 41.27 8.39 41.27 -4.44 13.39 C-6.73 11.35 -9.02 10.57 -12 10 C-10.6 6.59 -9.17 5.16 -6 3.31 C-5.3 2.9 -4.6 2.48 -3.88 2.05 C-2.6 1.34 -1.31 0.65 0 0 Z "
        fill="#F18228" transform="translate(872,205)" />
    <path
        d="M0 0 C0.79 0.69 0.79 0.69 1.59 1.39 C0.23 1.43 0.23 1.43 -1.16 1.47 C-25.43 2.57 -45.08 11.69 -62.09 28.78 C-64.46 31.3 -64.46 31.3 -66.05 34.14 C-67.76 36.98 -69.3 37.47 -72.41 38.39 C-73.89 37.27 -73.89 37.27 -75.41 35.39 C-75.73 32.58 -75.73 32.58 -75.66 29.39 C-75.64 28.34 -75.63 27.29 -75.61 26.21 C-75.41 23.39 -75.41 23.39 -74.41 20.39 C-75.07 20.06 -75.73 19.73 -76.41 19.39 C-68.29 11.13 -60.31 4.52 -49.41 0.39 C-48.66 0.1 -47.91 -0.2 -47.14 -0.5 C-33.66 -5.43 -12.63 -8.43 0 0 Z "
        fill="#F8A326" transform="translate(482.40625,830.60546875)" />
    <path
        d="M0 0 C3.89 1.67 5.6 4.13 7.27 7.97 C8.29 12.79 8.36 16.96 5.97 21.35 C1.65 26.73 -3.24 29.4 -10.09 30.27 C-12.61 30.41 -15.09 30.44 -17.61 30.41 C-18.93 30.4 -18.93 30.4 -20.29 30.39 C-32.13 30.09 -40.55 25.41 -48.73 16.97 C-48.24 15.49 -48.24 15.49 -47.73 13.97 C-46.5 14.02 -45.27 14.07 -44 14.11 C-29.32 14.51 -19.14 12.62 -7.54 3.24 C-3.37 -0.03 -3.37 -0.03 0 0 Z "
        fill="#CACBE3" transform="translate(906.734375,977.02734375)" />
    <path
        d="M0 0 C0.99 0.33 1.98 0.66 3 1 C3.03 1.55 3.07 2.1 3.1 2.67 C4.35 21.31 7.14 43.08 21.93 56.38 C29.78 62.52 37.42 67.13 47 70 C47 70.66 47 71.32 47 72 C47.66 72 48.32 72 49 72 C48.34 73.98 47.68 75.96 47 78 C32.44 73.19 20.99 65.66 10 55 C9.29 54.37 8.58 53.73 7.86 53.08 C-2.09 43.88 -7.79 31.87 -8.38 18.31 C-8.12 12.23 -6.68 6.35 -2.31 1.94 C-1.55 1.3 -0.79 0.66 0 0 Z "
        fill="#F8E0A5" transform="translate(377,861)" />
    <path
        d="M0 0 C3.41 1.14 3.76 1.76 5.69 4.62 C16.32 19.25 33.73 27.39 51.14 30.5 C66.98 32.57 82.73 30.35 97 23 C97.71 22.45 98.42 21.91 99.14 21.34 C101 20 101 20 104 20 C104.67 22.12 105.34 24.25 106 26.38 C106.37 27.56 106.74 28.74 107.12 29.96 C108 33 108 33 108 35 C103.34 34.56 98.91 34.03 94.38 32.88 C88.74 31.59 84.36 32.18 79.25 34.88 C66.9 41.32 51.43 42.17 38.09 38.22 C21.16 31.54 8.79 21.41 1.11 4.84 C0 2 0 2 0 0 Z "
        fill="#CACBE3" transform="translate(220,351)" />
    <path
        d="M0 0 C1.47 0.97 1.47 0.97 3 3 C3.36 5.91 3.52 8.53 3.5 11.44 C3.49 12.25 3.49 13.05 3.48 13.88 C3.15 25.22 -1.54 33.67 -9 42 C-9.57 42.67 -10.14 43.33 -10.73 44.02 C-23.82 58.22 -43.86 66.58 -62 72 C-62.66 71.34 -63.32 70.68 -64 70 C-64 67.67 -64 65.33 -64 63 C-64.66 62.34 -65.32 61.68 -66 61 C-65.38 60.82 -64.77 60.63 -64.13 60.44 C-31 50.57 -31 50.57 -6.96 27.08 C-3.46 19.5 -2.72 13.02 -3.19 4.69 C-3.13 3.8 -3.06 2.91 -3 2 C-1.51 1.01 -1.51 1.01 0 0 Z "
        fill="#F18228" transform="translate(820,696)" />
    <path
        d="M0 0 C10.4 1.01 19.19 8.71 27.44 14.62 C28.59 15.45 28.59 15.45 29.77 16.29 C39.8 23.59 39.8 23.59 42 28 C41.24 28.5 40.47 28.99 39.69 29.5 C36.29 32.66 34.91 35.47 34 40 C33.94 44.9 35.29 49.44 37 54 C33.53 55.98 33.53 55.98 30 58 C28.58 54.27 27.18 50.56 25.93 46.77 C21.7 34.18 15.58 24.09 7 14 C6.43 13.31 5.86 12.61 5.27 11.89 C2.92 9.08 1.09 7.06 -2 5 C-1.12 1.12 -1.12 1.12 0 0 Z "
        fill="#C9CAE2" transform="translate(442,227)" />
    <path
        d="M0 0 C2.29 1.22 2.69 2.63 3.75 4.94 C3.27 5.34 2.78 5.74 2.28 6.15 C-13.14 19.23 -25.48 37.5 -28.25 57.94 C-28.91 57.94 -29.57 57.94 -30.25 57.94 C-30.25 57.28 -30.25 56.62 -30.25 55.94 C-31.03 55.65 -31.82 55.36 -32.62 55.06 C-35.25 53.94 -35.25 53.94 -37.25 51.94 C-36.78 51.46 -36.3 50.99 -35.81 50.5 C-33.52 46.73 -32.88 43.33 -33.25 38.94 C-35.14 34.09 -38.11 30.05 -41.25 25.94 C-32.59 19.6 -23.92 13.28 -15 7.31 C-14.41 6.91 -13.81 6.51 -13.2 6.1 C-3.84 -0.11 -3.84 -0.11 0 0 Z "
        fill="#CACBE3" transform="translate(859.25,227.0625)" />
    <path
        d="M0 0 C0.99 0 1.98 0 3 0 C2.93 0.87 2.93 0.87 2.86 1.77 C2.44 11.33 4.92 20.72 11.12 28.19 C22.54 39.19 35.99 40.45 51 41 C51.87 43.85 52.08 44.76 51.06 47.69 C48.63 50.42 47.02 50.73 43.43 50.94 C42.63 50.96 41.83 50.98 41 51 C39.61 51.09 39.61 51.09 38.2 51.19 C27.61 51.63 19.19 48.81 11.06 41.97 C4.78 35.96 0.86 29.22 -2.84 21.41 C-3.79 19.1 -3.79 19.1 -5 18 C-5.07 16.54 -5.08 15.08 -5.06 13.62 C-5.05 12.83 -5.04 12.04 -5.04 11.23 C-5.02 10.49 -5.01 9.76 -5 9 C-5 8.01 -5 7.02 -5 6 C-2.69 2.81 -2.69 2.81 0 0 Z "
        fill="#C9CAE2" transform="translate(425,866)" />
    <path
        d="M0 0 C1.3 0 2.6 0.01 3.95 0.01 C5.33 0.02 6.71 0.03 8.09 0.04 C9.47 0.04 10.86 0.04 12.25 0.05 C15.65 0.06 19.06 0.08 22.46 0.1 C23.62 3.78 23.62 3.78 22.2 6.61 C14.99 16.54 5.17 25.36 -7.29 27.59 C-9.72 27.87 -12.09 28.12 -14.54 28.1 C-16.63 26.01 -16.41 22.42 -16.68 19.61 C-16.54 17.1 -16.54 17.1 -14.23 14.16 C-12.9 13.14 -12.9 13.14 -11.54 12.1 C-9.58 9.15 -9.28 8.3 -9.04 4.97 C-8.87 3.69 -8.71 2.42 -8.54 1.1 C-5.67 -0.34 -3.2 -0.01 0 0 Z "
        fill="#F8A426" transform="translate(669.5390625,808.90234375)" />
    <path
        d="M0 0 C1.26 0 2.51 0.01 3.81 0.01 C5.13 0.02 6.45 0.03 7.8 0.04 C9.14 0.04 10.48 0.04 11.82 0.05 C15.11 0.06 18.39 0.08 21.68 0.1 C23.06 2.68 23.79 4.62 24.43 7.54 C25.37 11.34 25.37 11.34 28.8 13.29 C30.41 14.43 30.41 14.43 31.68 16.1 C32.21 20.14 32.03 24.04 31.68 28.1 C18.4 27.53 7.91 22.36 -1.5 12.91 C-8.32 5.22 -8.32 5.22 -8.32 1.1 C-5.5 -0.31 -3.15 -0.01 0 0 Z "
        fill="#F8A426" transform="translate(616.3203125,808.90234375)" />
    <path
        d="M0 0 C0.99 0.33 1.98 0.66 3 1 C3.4 5.08 3.51 7.27 1.12 10.69 C-12.47 20.75 -31.75 20.64 -48 21 C-49.06 21.03 -50.11 21.05 -51.2 21.08 C-54.55 21.16 -57.9 21.21 -61.25 21.25 C-62.3 21.27 -63.34 21.29 -64.42 21.32 C-70.68 21.34 -75.33 20.69 -81 18 C-81.66 17.34 -82.32 16.68 -83 16 C-83 15.01 -83 14.02 -83 13 C-83.66 12.67 -84.32 12.34 -85 12 C-78.41 12.9 -78.41 12.9 -75.75 13.52 C-51.91 17.65 -20.2 13.46 0 0 Z "
        fill="#F18228" transform="translate(529,913)" />
    <path
        d="M0 0 C1.38 0.66 2.77 1.31 4.15 1.97 C12.06 5.61 20.14 8.54 28.4 11.28 C29.51 11.65 30.63 12.03 31.78 12.41 C38.96 14.76 46.17 16.71 53.52 18.47 C53.19 22.1 52.86 25.73 52.52 29.47 C34.86 24.22 17.45 18.61 0.59 11.16 C-1.14 10.4 -1.14 10.4 -2.89 9.63 C-7.88 7.37 -11.75 5.57 -15.48 1.47 C-9.21 -2.58 -7.05 -3.1 0 0 Z "
        fill="#F08228" transform="translate(493.4765625,738.53125)" />
    <path
        d="M0 0 C-0.33 3.3 -0.66 6.6 -1 10 C-10.69 12.89 -20.4 15.45 -30.31 17.44 C-31.65 17.72 -31.65 17.72 -33 18.01 C-38.68 19.1 -41.83 19.02 -46.8 15.85 C-48.28 14.65 -49.64 13.33 -51 12 C-51 10.68 -51 9.36 -51 8 C-49.99 7.83 -48.97 7.66 -47.93 7.48 C-44.13 6.84 -40.34 6.19 -36.54 5.55 C-34.9 5.27 -33.27 4.99 -31.63 4.71 C-21.09 2.97 -21.09 2.97 -10.62 0.81 C-6.87 -0.03 -3.82 -0.16 0 0 Z "
        fill="#C9CAE2" transform="translate(757,758)" />
    <path
        d="M0 0 C2.5 2.12 2.5 2.12 4.5 5.12 C3.86 4.91 3.22 4.69 2.56 4.47 C1.69 4.19 0.83 3.91 -0.06 3.62 C-0.91 3.35 -1.76 3.07 -2.63 2.78 C-20.56 -1.32 -41.7 12.45 -56.31 21.55 C-58.71 23.07 -61.11 24.59 -63.5 26.12 C-65.49 27.39 -67.49 28.66 -69.48 29.93 C-82 37.89 -82 37.89 -94.37 46.07 C-95.28 46.68 -96.19 47.3 -97.13 47.92 C-98.83 49.07 -100.53 50.23 -102.22 51.4 C-102.98 51.91 -103.74 52.42 -104.52 52.94 C-105.17 53.39 -105.82 53.84 -106.49 54.3 C-109.14 55.39 -110.79 54.89 -113.5 54.12 C-112.13 50.01 -110.07 49.38 -106.38 47.19 C-104.7 46.18 -104.7 46.18 -102.99 45.16 C-100.69 43.81 -98.37 42.49 -96.04 41.18 C-92.23 39.02 -88.62 36.59 -85 34.12 C-80.85 31.3 -76.7 28.63 -72.32 26.18 C-68.83 24.16 -65.49 21.9 -62.12 19.69 C-56.36 15.93 -50.63 12.26 -44.5 9.12 C-43.62 8.67 -43.62 8.67 -42.72 8.2 C-27 0.03 -27 0.03 -19.5 -1.88 C-18.53 -2.12 -17.56 -2.37 -16.56 -2.62 C-10.56 -3.11 -5.36 -2.87 0 0 Z "
        fill="#F8E0A5" transform="translate(867.5,200.875)" />
    <path
        d="M0 0 C9.2 0.71 18.26 2.57 27.34 4.18 C33.89 5.33 40.38 6.37 47 7 C47 7.66 47 8.32 47 9 C47.66 9 48.32 9 49 9 C48 12.35 47.41 13.73 44.44 15.69 C43.23 16.34 43.23 16.34 42 17 C41.67 17.66 41.34 18.32 41 19 C33.06 17.45 25.15 15.75 17.25 14 C16.06 13.74 14.87 13.48 13.64 13.21 C12.48 12.96 11.33 12.7 10.14 12.44 C9.1 12.21 8.07 11.98 7 11.75 C3.94 10.98 0.98 10.04 -2 9 C-1.12 1.12 -1.12 1.12 0 0 Z "
        fill="#C9CAE2" transform="translate(547,758)" />
    <path
        d="M0 0 C5.16 3.33 10.33 6.61 15.61 9.74 C16.43 10.22 17.24 10.71 18.08 11.21 C19.71 12.18 21.34 13.14 22.98 14.09 C24.11 14.76 24.11 14.76 25.25 15.45 C25.93 15.84 26.6 16.24 27.3 16.65 C29.28 18.22 30.04 19.68 31 22 C29.26 22.67 29.26 22.67 27 23 C25.05 21.95 25.05 21.95 22.88 20.25 C18.27 16.84 13.53 13.82 8.62 10.88 C2.01 6.89 -4.49 2.75 -10.94 -1.5 C-41.13 -22.72 -41.13 -22.72 -76 -30 C-79.38 -29.13 -82.69 -28.12 -86 -27 C-83.07 -31.19 -80.15 -33.36 -75.14 -34.68 C-49.36 -38.59 -20.17 -13.07 0 0 Z "
        fill="#F9E1A6" transform="translate(517,233)" />
    <path
        d="M0 0 C5.85 4.81 8.47 12.78 10 20 C9.62 22.94 9.62 22.94 9 25 C8.34 25 7.68 25 7 25 C6.97 26.19 6.97 26.19 6.94 27.41 C6.18 56.59 6.18 56.59 4 70 C2.68 70 1.36 70 0 70 C0.01 69.26 0.02 68.52 0.03 67.75 C0.22 51.98 -0.08 36.46 -1.46 20.74 C-1.55 19.79 -1.63 18.84 -1.72 17.86 C-1.91 15.89 -2.14 13.92 -2.4 11.96 C-2.51 10.98 -2.63 10.01 -2.75 9.01 C-2.87 8.14 -2.99 7.27 -3.11 6.38 C-2.97 3.4 -1.96 2.18 0 0 Z "
        fill="#F18228" transform="translate(543,960)" />
    <path
        d="M0 0 C1.57 0.46 1.57 0.46 3.16 0.94 C10.28 2.72 17.67 2.78 24.97 3.21 C26.67 3.32 26.67 3.32 28.4 3.44 C29.43 3.5 30.45 3.56 31.51 3.62 C34 4 34 4 36 6 C36.61 7.85 37.14 9.73 37.62 11.62 C38.02 13.13 38.02 13.13 38.41 14.66 C38.61 15.43 38.8 16.21 39 17 C35.5 17.06 32 17.09 28.5 17.12 C27.03 17.15 27.03 17.15 25.52 17.18 C16.4 17.24 9.48 16.44 2.57 10.02 C0.02 6.74 0 4.09 0 0 Z "
        fill="#CACBE3" transform="translate(436,1073)" />
    <path
        d="M0 0 C-1.33 5.45 -3.62 9.5 -8 13 C-16.64 17 -28.68 15.18 -38 15 C-39 13 -39 13 -38.22 10.18 C-37.84 9.09 -37.46 8 -37.06 6.88 C-36.68 5.78 -36.3 4.68 -35.91 3.55 C-35.61 2.71 -35.31 1.87 -35 1 C-34.34 1.33 -33.68 1.66 -33 2 C-31.1 1.96 -29.19 1.85 -27.29 1.7 C-25.58 1.56 -25.58 1.56 -23.83 1.43 C-22.63 1.33 -21.42 1.23 -20.19 1.12 C-18.4 0.99 -18.4 0.99 -16.58 0.85 C-10.38 0.4 -10.38 0.4 -4.24 -0.6 C-2 -1 -2 -1 0 0 Z "
        fill="#C9CAE2" transform="translate(867,1075)" />
    <path
        d="M0 0 C1.32 0.33 2.64 0.66 4 1 C3.57 7.54 3.1 14.07 2.49 20.59 C1.16 34.85 0.71 48.6 1.78 62.88 C1.92 64.92 2 66.96 2 69 C1.01 69 0.02 69 -1 69 C-1 68.34 -1 67.68 -1 67 C-1.66 67 -2.32 67 -3 67 C-3.32 63.73 -3.63 60.46 -3.94 57.19 C-4.03 56.2 -4.12 55.21 -4.22 54.19 C-4.67 49.29 -5.06 44.4 -5.25 39.48 C-5.28 38.63 -5.32 37.78 -5.35 36.9 C-5.41 35.3 -5.45 33.69 -5.48 32.08 C-5.6 28.62 -5.78 26.35 -7.63 23.37 C-9 21 -9 21 -8.59 17.95 C-6.38 11.34 -4.03 5.71 0 0 Z "
        fill="#F18228" transform="translate(758,961)" />
    <path
        d="M0 0 C5.03 3.83 9.69 7.9 12.29 13.75 C9.89 12.68 8.07 11.56 6.04 9.86 C-5.02 1.34 -18.08 -1.26 -31.71 -0.25 C-42.83 1.43 -53.48 5.98 -61.71 13.75 C-61.71 9.29 -59.42 7.54 -56.52 4.31 C-41.31 -9.55 -17.25 -11.28 0 0 Z "
        fill="#F9E1A6" transform="translate(676.70703125,749.25390625)" />
    <path
        d="M0 0 C0.88 -0.01 1.76 -0.01 2.67 -0.02 C3.64 -0.02 4.62 -0.03 5.62 -0.03 C6.64 -0.04 7.66 -0.04 8.71 -0.05 C12.1 -0.07 15.49 -0.08 18.87 -0.09 C20.03 -0.1 21.18 -0.1 22.37 -0.1 C28.48 -0.12 34.58 -0.14 40.69 -0.15 C47.01 -0.16 53.33 -0.19 59.65 -0.23 C64.5 -0.26 69.34 -0.27 74.19 -0.27 C76.52 -0.28 78.85 -0.29 81.18 -0.31 C84.44 -0.33 87.69 -0.33 90.95 -0.32 C91.92 -0.34 92.89 -0.35 93.89 -0.36 C100.44 -0.31 100.44 -0.31 103.04 2.18 C103.33 2.83 103.62 3.48 103.91 4.15 C103.58 4.81 103.25 5.47 102.91 6.15 C101.92 5.49 100.93 4.83 99.91 4.15 C97.92 3.85 97.92 3.85 95.71 3.89 C94.85 3.89 93.99 3.88 93.11 3.88 C92.18 3.88 91.24 3.88 90.27 3.89 C88.79 3.88 88.79 3.88 87.28 3.88 C84 3.87 80.72 3.87 77.45 3.88 C75.18 3.88 72.9 3.88 70.63 3.88 C65.86 3.87 61.1 3.88 56.33 3.89 C50.21 3.9 44.1 3.89 37.98 3.88 C33.29 3.87 28.59 3.87 23.9 3.88 C21.64 3.88 19.39 3.88 17.13 3.87 C13.98 3.87 10.83 3.88 7.68 3.89 C6.75 3.88 5.81 3.88 4.85 3.88 C3.99 3.88 3.13 3.89 2.25 3.89 C1.5 3.89 0.76 3.89 -0.01 3.9 C-2.38 4.18 -4.02 4.97 -6.09 6.15 C-4.99 0.03 -4.99 0.03 0 0 Z "
        fill="#F8E0A5" transform="translate(602.0862731933594,781.8528289794922)" />
    <path
        d="M0 0 C0.95 0.87 1.9 1.73 2.88 2.62 C12.46 10.79 22.53 14.85 35 16 C35 16.99 35 17.98 35 19 C29.36 23.07 23.77 23.59 17 23 C10.46 21.66 5.33 18.01 1 13 C-1.07 8.28 -1.22 4.98 0 0 Z "
        fill="#C9CAE2" transform="translate(658,531)" />
    <path
        d="M0 0 C0.66 0.33 1.32 0.66 2 1 C1.69 1.69 1.39 2.38 1.07 3.09 C-0.35 6.29 -1.77 9.49 -3.19 12.69 C-3.69 13.83 -4.2 14.97 -4.72 16.15 C-7.73 22.97 -10.55 29.76 -12.9 36.84 C-14 39 -14 39 -15.93 40.37 C-19.02 41.31 -21.09 40.19 -24 39 C-23.46 34.03 -21.82 30.14 -19.44 25.81 C-19.08 25.16 -18.73 24.5 -18.36 23.83 C-13.39 14.89 -7.56 6.92 0 0 Z "
        fill="#F18228" transform="translate(503,780)" />
    <path
        d="M0 0 C0.5 5.96 -0.57 10.06 -4 15 C-8.96 20.32 -13.55 23.04 -20.88 23.31 C-27.46 23.18 -31.8 21.02 -37 17 C-36.14 16.85 -36.14 16.85 -35.27 16.7 C-22.35 14.32 -12.19 11.3 -2.82 1.78 C-1 0 -1 0 0 0 Z "
        fill="#CACBE3" transform="translate(645,531)" />
    <path
        d="M0 0 C7.62 5.13 7.62 5.13 9.39 9.57 C7.77 10.91 6.15 12.25 4.52 13.57 C3.61 14.32 2.71 15.06 1.78 15.82 C-0.61 17.57 -0.61 17.57 -2.61 17.57 C-2.61 16.91 -2.61 16.25 -2.61 15.57 C-3.27 15.57 -3.93 15.57 -4.61 15.57 C-6.32 13.95 -7.98 12.28 -9.61 10.57 C-10.55 9.75 -11.5 8.92 -12.48 8.07 C-14.61 5.57 -14.61 5.57 -14.67 2.89 C-13.61 0.57 -13.61 0.57 -11.98 -0.74 C-7.44 -2.05 -4.27 -2.34 0 0 Z "
        fill="#CACBE3" transform="translate(501.60546875,265.42578125)" />
    <path
        d="M0 0 C13.65 -0.42 25.62 2.26 37.41 9.16 C34.75 10.49 33.54 9.91 30.66 9.29 C18.47 6.91 5.91 6.94 -6.47 6.6 C-7.95 6.55 -9.42 6.51 -10.9 6.47 C-14.47 6.36 -18.03 6.26 -21.59 6.16 C-21.92 5.5 -22.25 4.84 -22.59 4.16 C-15.03 2.15 -7.81 0.48 0 0 Z "
        fill="#010271" transform="translate(470.59375,1019.83984375)" />
    <path
        d="M0 0 C0 0.66 0 1.32 0 2 C-1.28 2.03 -1.28 2.03 -2.59 2.06 C-30.99 2.18 -30.99 2.18 -59 6 C-58.67 5.34 -58.34 4.68 -58 4 C-57.01 4 -56.02 4 -55 4 C-55 3.34 -55 2.68 -55 2 C-52.5 1.18 -50 0.37 -47.5 -0.44 C-46.8 -0.67 -46.11 -0.9 -45.39 -1.13 C-30.67 -5.84 -14.59 -4.86 0 0 Z "
        fill="#010271" transform="translate(855,1024)" />
    <path
        d="M0 0 C2.06 1.75 2.06 1.75 3 4 C2.75 6.93 2.07 7.93 -0.03 10.04 C-0.85 10.7 -1.66 11.37 -2.5 12.06 C-6.1 14.92 -6.1 14.92 -8 19 C-11.84 17.65 -14.65 15.92 -17.81 13.38 C-18.6 12.74 -19.39 12.11 -20.21 11.46 C-21.09 10.74 -21.09 10.74 -22 10 C-20.36 8.63 -18.69 7.31 -17 6 C-16.32 5.47 -15.64 4.94 -14.95 4.4 C-9.76 0.61 -6.45 -1.11 0 0 Z "
        fill="#CACBE3" transform="translate(812,264)" />
    <path
        d="M0 0 C4.59 0.36 8.79 1.26 12.94 3.31 C14.94 6.31 14.94 6.31 15 8.62 C12.92 13.9 7.94 16.98 2.94 19.31 C2.7 18.59 2.45 17.86 2.2 17.12 C0.31 11.64 -1.56 6.94 -5.06 2.31 C-3.06 0.31 -3.06 0.31 0 0 Z "
        fill="#CACBE3" transform="translate(888.0625,706.6875)" />
    <path
        d="M0 0 C-1.26 5.03 -2.61 7.22 -7 10 C-10.19 10.93 -13.4 11.42 -16.69 11.88 C-17.55 12.02 -18.42 12.16 -19.31 12.3 C-24.07 13.02 -24.07 13.02 -26 13 C-26.66 12.34 -27.32 11.68 -28 11 C-27.97 8.27 -27.44 5.7 -27 3 C-26.34 3.66 -25.68 4.32 -25 5 C-24.67 4.67 -24.34 4.34 -24 4 C-21.21 3.46 -18.43 2.96 -15.62 2.5 C-14.08 2.24 -12.53 1.98 -10.98 1.72 C-10.29 1.6 -9.6 1.49 -8.89 1.37 C-1.95 0 -1.95 0 0 0 Z "
        fill="#CACBE3" transform="translate(513,902)" />
    <path
        d="M0 0 C1.14 1.76 1.14 1.76 2 4 C1.14 5.89 1.14 5.89 -0.31 7.81 C-2.97 11.66 -3.71 14.36 -4 19 C-5.77 17.9 -7.54 16.8 -9.31 15.69 C-10.3 15.07 -11.28 14.46 -12.3 13.82 C-14.5 12.34 -16.23 10.96 -18 9 C-17.08 5.74 -16.59 4.33 -13.57 2.64 C-12.62 2.32 -11.67 2.01 -10.69 1.69 C-9.74 1.36 -8.8 1.04 -7.82 0.7 C-5.09 0.02 -2.8 -0.14 0 0 Z "
        fill="#CACBE3" transform="translate(978,707)" />
    <path
        d="M0 0 C4.41 0.5 6.75 2.01 10 5 C12 8 12 8 11.94 10.5 C10.67 13.89 9.23 14.45 6 16 C2.89 16.29 2.89 16.29 -0.31 16.19 C-1.38 16.16 -2.45 16.13 -3.55 16.11 C-4.36 16.07 -5.17 16.04 -6 16 C-6 12.32 -4.88 11.14 -3 8 C-1.91 5.36 -0.96 2.69 0 0 Z "
        fill="#CACBE3" transform="translate(891,911)" />
    <path
        d="M0 0 C2.79 1.28 5.59 2.58 8.38 3.88 C9.17 4.24 9.96 4.6 10.78 4.98 C11.54 5.33 12.3 5.69 13.09 6.05 C14.14 6.54 14.14 6.54 15.21 7.04 C17 8 17 8 19 10 C19.41 12.6 19.41 12.6 19.62 15.62 C19.7 16.63 19.77 17.63 19.85 18.66 C19.93 19.82 19.93 19.82 20 21 C12.79 20.01 7.07 15.43 2.44 10 C0.82 6.63 0.46 3.69 0 0 Z "
        fill="#CACBE3" transform="translate(411,1063)" />
    <path
        d="M0 0 C3.32 2.21 3.48 2.69 4.5 6.31 C5.53 9.94 6.97 12.82 9 16 C1.53 16.44 -3.94 16.71 -10 12 C-10.33 11.01 -10.66 10.02 -11 9 C-7.57 5.36 -4.2 2.64 0 0 Z "
        fill="#CACBE3" transform="translate(971,911)" />
    <path
        d="M0 0 C-0.3 5.98 -2.87 9.86 -7 14 C-10.21 16.26 -13.52 18.19 -17 20 C-19.43 16.36 -19.08 15.07 -18.62 10.81 C-18.51 9.73 -18.4 8.64 -18.29 7.52 C-18.19 6.69 -18.1 5.86 -18 5 C-17.34 5.66 -16.68 6.32 -16 7 C-15.1 6.49 -14.19 5.99 -13.26 5.47 C-12.07 4.81 -10.88 4.16 -9.69 3.5 C-9.09 3.17 -8.5 2.83 -7.88 2.49 C-5.04 0.93 -3.29 0 0 0 Z "
        fill="#CACBE3" transform="translate(891,1065)" />
    <path
        d="M0 0 C-0.33 1.32 -0.66 2.64 -1 4 C-8.98 6.66 -16.04 6.74 -24 4 C-25.5 1.88 -25.5 1.88 -26 0 C-17.98 -3.06 -7.85 -3.73 0 0 Z "
        fill="#6D5783" transform="translate(664,493)" />
    <path
        d="M0 0 C8.19 2.27 8.19 2.27 11.06 4.88 C12.22 7.5 12.44 9.16 12 12 C10.5 13.81 10.5 13.81 9 15 C8.67 14.01 8.34 13.02 8 12 C7.38 11.75 6.76 11.5 6.12 11.25 C2.18 8.93 1.39 4.16 0 0 Z "
        fill="#C7C8E1" transform="translate(811,289)" />
    <path
        d="M0 0 C-0.78 0.19 -1.57 0.37 -2.38 0.56 C-5.36 1.8 -5.36 1.8 -6.06 5.31 C-6.37 6.53 -6.68 7.75 -7 9 C-9.12 11.94 -9.12 11.94 -11 14 C-11 13.01 -11 12.02 -11 11 C-11.99 10.67 -12.98 10.34 -14 10 C-14.37 4.49 -14.37 4.49 -12.77 2.38 C-10.67 0.74 -9.04 0.28 -6.44 -0.25 C-5.65 -0.42 -4.87 -0.59 -4.06 -0.77 C-2 -1 -2 -1 0 0 Z "
        fill="#C8C8DF" transform="translate(493,291)" />
    <path
        d="M0 0 C0.33 0.66 0.66 1.32 1 2 C-1.17 6.58 -4.21 10.63 -8 14 C-8.33 11.69 -8.66 9.38 -9 7 C-8.34 7 -7.68 7 -7 7 C-7 6.34 -7 5.68 -7 5 C-5.47 3.71 -5.47 3.71 -3.5 2.38 C-2.85 1.93 -2.2 1.48 -1.53 1.02 C-0.77 0.52 -0.77 0.52 0 0 Z "
        fill="#C6C7E0" transform="translate(531,889)" />
</svg>
